<svg class="hand" version="1.1" id="Layer_1" xmlns="http://www.w3.org/2000/svg" xmlns:xlink="http://www.w3.org/1999/xlink" x="0px" y="0px"
	 width="280px" height="280px" viewBox="0 0 280 280" enable-background="new 0 0 280 280" xml:space="preserve">
<path id="background" fill="none" d="M267.4,104.28c-10.62-2.31-23.301-6.83-34.021-3.18c-0.02,0-0.04,0-0.06,0.01c-0.021,0.01-0.04,0.01-0.061,0.02
	c-0.02,0.01-0.029,0.01-0.05,0.02c-0.07,0.02-0.13,0.04-0.18,0.06c-0.011,0.01-0.021,0.01-0.03,0.01c-0.06,0.02-0.1,0.04-0.15,0.05
	c-0.029,0.01-0.06,0.03-0.09,0.03c-3.8,1.14-5.85-0.52-9.54-0.53c-6.029-0.02-12.05-0.1-18.08-0.26
	c-10.229-0.28-20.51,0.15-30.739,0.12c-10.261-0.03-20.42,3-30.69,2.6c-9.37-0.37-19.44,0.38-28.78,1.2
	c-10.26,0.9-20.63,0.66-30.93,1.31c-10,0.64-19.74,2.14-29.66,3.32c-4.74,0.56-9.5,0.95-14.23,1.49c-2.5,0.29-4.87,0.88-7.4,0.99
	c-2.74,0.11-4.8-1-7.37-1.06c-4.48-0.1-4.7,6.07-3.28,8.98c2.41,4.94,3.94,8.17,9.1,10.61c-4.44,5.15-36.05,6.71-30.91,17.161
	c3.6,7.35,6.16,13.02,15.5,12.279c4.3-0.34,8.65-1.09,12.93-1.689c3.28-0.471,6.36-2.261,9.69-1.551
	c-2.16,4.261-3.66,9.021-6.15,13.091c-1.48,2.439-2.12,5.54-3.33,8.14c-1.52,3.29-4.43,7.14-4.62,10.86
	c-0.13,2.71-1.7,5.449,0.06,7.909c1.48,2.051,4.04,2.851,6.45,3.11c5.26,0.561,11.26-1.26,15.58-4.189
	c8.66-5.891,13.24-20.61,17.2-29.87c2.12-4.95,7.45-5.87,12.37-7.78c6.53-2.53,13.07-5.11,19.86-6.83
	c-2.93,9.12-11.47,16.07-15.01,25.15c-3.16,8.12,3.68,19.229,5.71,27.12c1.41,5.46,3.37,10.659,5.58,15.84
	c1.82,4.26,5.44,5.96,8.75,9.069c5.74,5.41,17.92,13.74,25.95,11.78c0.27,3.57,0.4,4.34,3.12,7.04c1.83,1.8,5.34,4.29,7.76,2.06
	c2.15-2,5.52-2.989,7.91-5.069c2.671-2.351,5.511-4.11,8.07-6.72c5.71-5.851,11.64-11.33,17.101-17.461
	c5.739-6.46,12.649-12.529,20.64-16.069c7.09-3.15,17.12-2.7,22.75-7.87c6.07-5.58,12.54-10.55,16.979-17.58
	c1.96-3.11,4.181-6.06,6.04-9.24c2.601-4.43,2.82-4.59,8.051-3.92c4,0.51,7.92,1.44,11.85,2.33c2.94,0.67,9.19,3.54,11.88,1.07
	l10.05-59.38C282.26,106.56,268.47,104.52,267.4,104.28z M137.05,244.87c-0.03-0.01-0.06-0.021-0.09-0.03
	c0.02,0,0.03-0.01,0.04-0.01c0.02,0,0.03-0.01,0.05-0.021V244.87z M147.12,198.09c-3.92,10.01-12.66,18.34-18.2,27.58
	c-1.79-2.01-3.32-5.04-4.77-7.38c-2.23-3.56-5.59-5.57-6.66-9.84c-1.86-7.46-6.27-14.8-10.25-21.33
	c6.49-4.62,13.15-7.74,17.88-14.41c3.27-4.61,4.53-4.68,9.99-5.5c4.26-0.63,8.53-2.69,12.6-4.06
	C152.18,174.51,151.49,186.89,147.12,198.09z M240.13,103.7h1.811c0,0.08,0.01,0.17,0.01,0.25
	C241.24,104.26,240.63,104.17,240.13,103.7z"/>
<path id="outline" fill-rule="evenodd" clip-rule="evenodd" d="M233.32,101.11c0.02-0.01,0.04-0.01,0.06-0.01c0.04-0.02,0.08-0.04,0.11-0.05
	C233.44,101.07,233.38,101.09,233.32,101.11z"/>
<path id="outline" fill-rule="evenodd" clip-rule="evenodd" d="M233.21,101.148c-4.089,1.423-6.16-0.364-9.985-0.38
	c-6.038-0.021-12.052-0.095-18.089-0.258c-10.223-0.276-20.507,0.147-30.734,0.12c-10.261-0.027-20.425,3.002-30.688,2.6
	c-9.375-0.372-19.44,0.384-28.78,1.201c-10.268,0.897-20.634,0.657-30.936,1.311c-9.996,0.641-19.735,2.134-29.658,3.316
	c-4.738,0.564-9.496,0.948-14.233,1.496c-2.493,0.288-4.871,0.877-7.393,0.982c-2.739,0.114-4.8-0.995-7.371-1.053
	c-4.479-0.102-4.707,6.071-3.281,8.979c2.405,4.937,3.939,8.168,9.102,10.605c-4.445,5.155-36.052,6.711-30.915,17.164
	c3.604,7.35,6.158,13.021,15.497,12.279c4.309-0.342,8.652-1.087,12.932-1.693c3.277-0.471,6.364-2.261,9.69-1.547
	c-2.163,4.261-3.662,9.022-6.145,13.087c-1.488,2.438-2.124,5.545-3.33,8.144c-1.528,3.291-4.436,7.139-4.623,10.859
	c-0.135,2.708-1.706,5.45,0.062,7.904c1.476,2.058,4.036,2.853,6.443,3.109c5.26,0.563,11.262-1.253,15.583-4.188
	c8.665-5.886,13.241-20.605,17.201-29.866c2.118-4.952,7.447-5.871,12.368-7.781c6.527-2.533,13.073-5.112,19.863-6.827
	c-2.933,9.118-11.477,16.072-15.007,25.148c-3.161,8.124,3.676,19.233,5.708,27.121c1.407,5.461,3.367,10.655,5.581,15.839
	c1.82,4.263,5.435,5.963,8.742,9.071c5.749,5.408,17.922,13.736,25.95,11.775c0.277,3.569,0.408,4.342,3.128,7.04
	c1.821,1.808,5.338,4.29,7.751,2.06c2.156-1.996,5.527-2.985,7.913-5.069c2.669-2.345,5.512-4.11,8.068-6.721
	c5.71-5.846,11.641-11.327,17.1-17.461c5.745-6.456,12.656-12.523,20.639-16.064c7.094-3.146,17.128-2.696,22.759-7.874
	c6.068-5.582,12.533-10.546,16.973-17.576c1.965-3.111,4.186-6.06,6.045-9.238c2.596-4.437,2.823-4.594,8.052-3.927
	c3.998,0.511,7.92,1.44,11.845,2.335c2.941,0.67,9.192,3.541,11.885,1.073c-8.591-4.458-16.921-5.434-26.372-6.999
	c0.205-1.258,1.826-10.271-1.867-5.882c-3.677,4.408-5.443,9.188-8.143,14.108c-5.077,9.257-13.314,20.493-23.336,24.889
	c-4.795,2.103-10.376,3.004-15.361,4.801c-6.26,2.257-11.392,5.292-16.579,9.464c-9.378,7.541-15.73,18.232-25.313,25.576
	c-1.959-2.233-5.863-6.87-8.996-6.983c-3.91-0.143-7.968,5.186-11.035,7.01c-3.497-5.367,4.9-14.384,7.868-18.137
	c4.773-6.034,8.588-11.886,11.502-19.033c2.932-7.189,4.353-15.6,2.48-23.232c-0.76-3.099-1.502-6.294-2.541-9.312
	c-1.918-5.529-4.068-4.815-9.051-3.464c-3.8,1.03-6.13,2.854-10.314,2.481c-2.782-0.248-4.938-0.922-6.684,1.749
	c-4.076,6.238-9.365,13.584-16.576,16.487c-2.678,1.077-6.687,1.193-9.032,2.691c-3.179,2.031,2.959,4.359,3.989,5.083
	c5.594,3.916,8.796,13.771,10.763,20.028c-9.391,2.147,2.225,5.54,4.893,8.73c2.539,3.035,10.568,13.959,6.222,17.157
	c-3.541-5.891-10.806-12.912-17.643-9.045c-1.569,0.891-6.099-4.409-7.502-5.462c-1.321-0.992-3.532-1.444-4.55-2.729
	c-1.454-1.834-1.982-5.031-2.947-7.182c-3.68-8.205-6.593-17.813-8.873-26.526c-2.36-9.018,6.696-17.883,10.676-25.088
	c4.166-7.557,9.969-15.912,15.613-22.427c2.616-3.02,5.708-2.666,8.284-4.877c4.634-3.952-5.59-2.896-6.99-2.635
	c-3.135,0.587-6.474,8.44-8.105,10.89c-2.857,4.291-3.532,4.719-8.157,6.27c-4.456,1.481-8.797,3.151-13.141,4.931
	c-3.577,1.465-9.737,4.958-13.612,4.383c0.411-1.36,1.323-3.557-0.666-4.296c-2.732-1.017-3.705,3.04-4.636,4.706
	c-2.731,4.887-4.4,10.555-6.811,15.664c-4.594,9.737-8.672,19.862-20.257,22.54c-1.593-1.876,6.804-8.674,7.169-10.961
	c0.225-1.406-8.385-6.341-9.828-7.269c2.656-7.974,7.134-15.713,10.773-23.278c1.751-3.64,3.152-7.176,6.591-9.374
	c3.745-2.394,7.568-3.964,11.607-5.741c8.29-3.648,16.774-8.041,25.301-10.979c7.859-2.708,14.447-10.045,22.813-11.119
	c1.759-0.228,9.912-0.099,9.586-2.94c-0.456-4.024-7.829-1.472-10.318-1.292c-9.164,0.66-18.037,2.922-27.057,4.158
	c-9.396,1.288-18.542,4.47-28.024,5.619c-6.285,0.762-19.521,7.846-23.602-0.609c2.09-0.784,8.835-0.469,11.37-0.116
	c6.215,0.884,7.877-2.297,8.131-7.508c24.67-3.702,49.116-4.374,73.961-5.299c25.344-0.944,50.336-4.104,75.739-3.5
	c5.866,0.14,11.758-0.163,17.622-0.33c5.066-0.145,9.285,1.859,14.604,0.76c4.41-0.912,10.126-0.053,14.703,0.025
	c5.818,0.099,11.774,1.419,17.435,2.685c3.088,0.69,11.403,3.367,14.271,1.359c3.295-2.308-10.501-4.347-11.572-4.58
	C256.723,101.957,243.974,97.399,233.21,101.148C230.671,102.032,235.45,100.368,233.21,101.148z M128.92,225.67
	c-1.79-2.006-3.315-5.042-4.768-7.379c-2.231-3.558-5.591-5.575-6.658-9.841c-1.866-7.46-6.279-14.798-10.259-21.327
	c6.496-4.628,13.154-7.748,17.883-14.41c3.272-4.611,4.534-4.683,9.989-5.498c4.261-0.637,8.536-2.695,12.607-4.064
	c4.468,11.363,3.774,23.741-0.597,34.938C143.2,208.104,134.46,216.428,128.92,225.67C128.543,225.248,129.57,224.585,128.92,225.67
	z M134.452,237.012c2.555-2.442,5.008-4.851,7.349-7.504c2.638,1.637,5.485,3.241,7.922,5.822c-3.842,3.445-7.58,7.935-12.675,9.484
	c0,0.021,0.003,0.039,0.003,0.06c-0.029-0.013-0.056-0.021-0.086-0.032c-2.64,0.274-7.56-0.73-5.963-4.559
	c1.158,2.689,3.422,3.572,5.963,4.559c0.012,0,0.024-0.01,0.036-0.01c0.018-0.006,0.029-0.016,0.047-0.018
	C137.089,241.788,131.372,239.97,134.452,237.012C135.88,235.646,133.189,238.225,134.452,237.012z M113.727,229.193
	c1.446,1.214,2.856,2.471,4.586,3.974c-2.289,0.132-6.253-2.464-7.044-4.347C112.207,228.193,113.007,228.594,113.727,229.193
	C115.173,230.407,113.007,228.594,113.727,229.193z M31.889,179.9c6.713,0.98,7.29,7.464,1.62,10.746
	C25.337,195.379,31.054,182.552,31.889,179.9C34.222,180.241,30.927,182.955,31.889,179.9z M25.377,139.985
	c0.23,0.411,0.329,0.893,0.463,1.275c-3.621,3.932-13.338,6.825-17.75,3.279c2.783-2.583,6.825-1.371,10.132-3.014
	C20.175,140.555,23.725,137.018,25.377,139.985C25.607,140.396,24.573,138.542,25.377,139.985z M54.798,125.407
	c6.473-1.719,13.245-2.152,19.785-3.553c6.723-1.44,13.237-3.35,20.106-4.049c0.071,0.146,0.144,0.297,0.215,0.441
	c-6.607,5.428-16.539,8.46-24.504,11.457c-6.81,2.562-16.984,5.381-22.424,10.198c-2.725,2.412-3.675,6.646-6.248,8.731
	c-2.873,2.33-8.017,3.075-11.44,4.475c-5.057,2.067-26.425,4.526-24.959-5.52c5.895,3.801,11.264,1.81,17.689,0.148
	c2.137-0.553,5.866-0.79,7.223-2.871c1.411-2.164-2.486-6.427-3.404-8.274C35.422,132.386,45.573,127.878,54.798,125.407
	C56.958,124.834,53.044,125.877,54.798,125.407z M26.745,116.72c1.742,0.258,1.742,0.258,1.679,1.937
	C27.782,117.915,27.262,117.317,26.745,116.72z M46.562,113.867c0.499,4.762-12.855,5.261-14.934,1.306
	C36.785,114.528,41.562,113.512,46.562,113.867C46.717,115.344,41.562,113.512,46.562,113.867z M241.937,103.696
	c0.003,0.087,0.009,0.174,0.012,0.257c-0.707,0.304-1.313,0.218-1.819-0.257C240.923,103.696,241.428,103.696,241.937,103.696
	C241.939,103.783,241.428,103.696,241.937,103.696z"/>
</svg>
