<svg class="hand" version="1.1" id="Layer_1" xmlns="http://www.w3.org/2000/svg" xmlns:xlink="http://www.w3.org/1999/xlink" x="0px" y="0px"
	 width="280px" height="280px" viewBox="0 0 280 280" enable-background="new 0 0 280 280" xml:space="preserve">
<path id="background" fill="none" d="M253.17,145.1c-0.01,0.011-0.02,0.011-0.03,0.011c-0.029,0.01-0.05,0.02-0.08,0.02
	c-0.05,0.021-0.09,0.03-0.13,0.04c-0.16,0.05-0.319,0.1-0.46,0.14c-0.06,0.021-0.13,0.04-0.189,0.061l0.1-0.04
	c-4.62,1.34-13.42,2.96-17.5,0.46c1.55-0.46,2.7-0.81,3.851-1.15c-1.86-1.649-4.28,0.5-6.311,0.341
	c-2.979-0.221-4.45-4.541-5.78-6.681c-4.199-6.77-9.97-12.95-15.21-18.93c-4.54-5.19-9.72-9.18-14.96-13.61
	c-6-5.07-11.33-10.88-17.45-15.75c-5.789-4.61-11.8-8.05-18.289-11.61c-6.45-3.53-14.65-6.66-19.721-12.14
	c-5.11-5.52-7.95-12.55-13.48-17.97c-4.3-4.2-6.47-11.78-8.63-17.33c-3.8-9.76-5.3-29.81-19.65-28.4
	c-13.99,1.38-22.92,17.4-22.99,29.82c-0.05,7.22,0.65,15.19,2.16,22.25c1.67,7.75,6.31,14.67,10.25,21.43
	c1.62,2.76,2.93,6.19,5.18,8.53c2.58,2.68,6.24,4.63,9.2,6.89c6.63,5.04,12.53,10.62,18.23,16.68c-3.05,1.55-6.02,3.29-9.09,4.8
	c-3.5,1.71-7.92,5.27-11.53,6.25c-2.9,0.79-6.9-0.38-9.87-0.56c-4.65-0.29-8.66,1.42-12.52,3.85
	c-15.02,9.41-17.57,26.43-10.53,41.78c-3.48,3.16-4.51,5.96-5.4,10.52c-0.64,3.25-0.48,6.58-0.28,9.86
	c0.12,1.99-0.52,6.1,0.29,7.85c1.82,3.91,3.99,7.67,5.23,11.521c0.69,2.13,4.15,3.33,5.72,4.71c1.76,1.54,3.24,3.43,3.93,5.68
	c1.42,4.64,0.21,9.71,1.86,14.43c2.02,5.82,7.45,9.19,10.32,14.46c2.51,4.61,2.28,9.96,4.18,14.78
	c2.39,6.05,5.72,10.771,11.19,14.36c8.33,5.46,24.97,7.3,34.01,2.68c1.48-0.75,2.51,0.87,4.18-0.24c2.3-1.52,5.931-1.55,8.57-2.029
	c5.83-1.061,11.42-2.86,17.29-3.75c5.62-0.86,11.27-1.58,16.88-2.561c6.13-1.06,13.84-1.29,19.47-4.1
	c4.36-2.181,9.051-4.65,13.101-7.351c2.67-1.8,11.979-6.89,11.21-10.76c6.819-2.05,16.79-5.26,23.59-1.78
	c1.29,0.65,3.28-0.59,2.66-2.14l0.58-93.52C257.15,145.04,254.34,144.89,253.17,145.1z M97.8,7.58c-0.01-0.01-0.02-0.01-0.03-0.02
	c-0.84,0.05-1.69,0.11-2.92,0.18c1.23-0.63,2.08-1.04,2.92-0.18c0.04,0,0.09-0.01,0.13-0.01C97.87,7.56,97.84,7.57,97.8,7.58z
	 M117.29,57.99c-0.34,1.85-2.04-0.67-0.46-0.4c0.09,0.01,0.18,0.04,0.28,0.07c0.07,0.02,0.14,0.04,0.22,0.07
	C117.32,57.82,117.31,57.91,117.29,57.99z M78.95,183.75c-0.01,0.06-0.01,0.12-0.02,0.18c0-0.05,0.01-0.1,0.01-0.149
	c0-0.03,0.01-0.061,0.01-0.09V183.75z M85.28,191.26c0,0.01,0.01,0.021,0.03,0.05c0.04,0.091,0.07,0.181,0.11,0.271
	C85.37,191.6,85.21,191.14,85.28,191.26z M215.84,192.12c-0.04,0-0.06,0-0.08,0.01h-0.05c0.04-0.01,0.09-0.01,0.15-0.02
	C215.85,192.11,215.85,192.11,215.84,192.12z M218.89,182.51c-0.18,0.311-0.1-0.149,0.04-0.149c0.011,0,0.011,0.01,0.021,0.01
	C218.92,182.43,218.9,182.47,218.89,182.51z M221.91,171.22c0-0.02,0.01-0.04,0.02-0.069
	C222.01,171.18,221.88,171.37,221.91,171.22z"/>
<path id="outline" fill-rule="evenodd" clip-rule="evenodd" d="M215.86,192.11c-0.011,0-0.011,0-0.021,0.01c-0.04,0-0.06,0-0.08,0.01h-0.05
	C215.75,192.12,215.8,192.12,215.86,192.11z"/>
<path id="outline" fill-rule="evenodd" clip-rule="evenodd" d="M78.88,184.52c0-0.05,0.01-0.1,0.01-0.149c0,0.07,0,0.13-0.01,0.2V184.52z"/>
<path id="outline" fill-rule="evenodd" clip-rule="evenodd" d="M78.95,183.75c-0.01,0.06-0.01,0.12-0.02,0.18c0-0.05,0.01-0.1,0.01-0.149
	C78.94,183.77,78.94,183.76,78.95,183.75z"/>
<path id="outline" fill-rule="evenodd" clip-rule="evenodd" d="M78.97,183.47c0,0.04-0.01,0.08-0.01,0.12v-0.06
	C78.97,183.51,78.97,183.48,78.97,183.47z"/>

<path id="outline" fill-rule="evenodd" clip-rule="evenodd" d="M252.93,145.171c-4.444,1.357-13.795,3.217-18.05,0.624
	c1.555-0.468,2.701-0.812,3.846-1.158c-1.858-1.649-4.278,0.501-6.31,0.348c-2.972-0.225-4.45-4.544-5.776-6.683
	c-4.195-6.771-9.974-12.949-15.207-18.928c-4.544-5.193-9.728-9.188-14.966-13.615c-5.995-5.066-11.323-10.878-17.442-15.745
	c-5.794-4.608-11.806-8.052-18.293-11.608c-6.447-3.535-14.647-6.665-19.721-12.148c-5.107-5.521-7.954-12.542-13.482-17.964
	c-4.293-4.208-6.472-11.788-8.627-17.328c-3.8-9.767-5.305-29.813-19.652-28.402C85.264,3.939,76.331,19.961,76.256,32.384
	c-0.043,7.212,0.65,15.191,2.167,22.246c1.666,7.75,6.311,14.674,10.252,21.426c1.616,2.769,2.93,6.199,5.174,8.531
	c2.58,2.68,6.246,4.636,9.204,6.89c6.627,5.048,12.529,10.625,18.227,16.685c-3.053,1.55-6.017,3.286-9.088,4.795
	c-3.497,1.717-7.924,5.273-11.536,6.257c-2.893,0.789-6.9-0.385-9.865-0.563c-4.647-0.29-8.658,1.425-12.522,3.848
	c-15.017,9.415-17.573,26.431-10.524,41.781c-3.488,3.161-4.515,5.96-5.407,10.526c-0.633,3.249-0.478,6.571-0.279,9.853
	c0.12,1.993-0.516,6.099,0.293,7.853c1.817,3.914,3.984,7.671,5.228,11.52c0.689,2.132,4.152,3.33,5.726,4.714
	c1.75,1.54,3.236,3.423,3.926,5.681c1.415,4.633,0.214,9.704,1.858,14.428c2.025,5.818,7.453,9.192,10.32,14.461
	c2.508,4.609,2.277,9.953,4.183,14.778c2.391,6.053,5.717,10.773,11.191,14.362c8.331,5.456,24.965,7.298,34.008,2.674
	c1.475-0.744,2.51,0.878,4.181-0.24c2.295-1.518,5.924-1.549,8.564-2.027c5.829-1.055,11.428-2.855,17.291-3.753
	c5.626-0.861,11.269-1.578,16.877-2.554c6.14-1.067,13.845-1.293,19.479-4.105c4.355-2.174,9.047-4.647,13.091-7.352
	c2.673-1.794,11.987-6.885,11.215-10.76c6.815-2.051,16.788-5.256,23.594-1.778c1.281,0.655,3.273-0.583,2.651-2.143
	c-0.776-1.946-3.585-2.019-5.189-2.221c-6.299-0.797-11.746,0.804-17.908,1.312c3.385-9.222,1.732-26.896-10.616-28.307
	c-0.269,3.431,4.571,6.228,6.05,9.032c2,3.794,3.489,9.679,2.52,13.914c-2.019,8.811-11.312,15.881-18.748,19.951
	c-9.537,5.221-18.759,6.794-29.423,8.588c-5.63,0.945-11.291,1.603-16.887,2.756c-5.347,1.101-11.462,3.55-16.914,3.394
	c-0.055-0.163-0.105-0.323-0.158-0.485c8.436-5.345,17.206-10.33,17.781-21.474c0.276-5.376-1.645-10.563-4.935-14.771
	c-2.801-3.61-8.287-4.412-12.55-5.399c2.053-2.675,5.586-3.39,7.506-6.407c2.088-3.281,3.284-8.284,3.298-12.149
	c0.028-7.781-7.32-16.3-15.323-16.825c5.449-3.696,9.542-5.704,7.58-12.718c-0.782-2.799-0.113-6.979-2.069-9.325
	c-1.153-1.383-3.094-0.556-4.211-1.67c-1.772-1.757-3.438-3.616-5.144-5.437c3.66-9.317,3.758-19.413-3.082-27.462
	c-7.949-9.354-19.474-10.203-30.268-13.96c5.131-4.453,11.424-6.148,17.716-8.297c1.758,1.99,3.429,4.061,5.218,6.023
	c1.239,1.374,3.169,0.237,2.481-1.549c-2.35-6.156-9.477-12.618-14.244-17.012c-9.623-8.871-20.361-15.5-26.845-27.104
	c-3.005-5.384-6.479-10.603-8.334-16.535c-2.287-7.315-2.596-15.171-2.709-22.778c-0.186-12.472,4.679-22.396,17.471-25.919
	c-0.01-0.01-0.017-0.011-0.027-0.02c-0.837,0.052-1.693,0.108-2.923,0.184c1.233-0.632,2.085-1.049,2.923-0.184
	c0.042-0.002,0.089-0.006,0.131-0.008c-0.036,0.008-0.068,0.018-0.104,0.028c0.022,0.022,0.042,0.023,0.063,0.046
	c11.253-2.696,13.419,11.428,15.694,18.958c3.024,10.013,6.779,18.513,13.872,26.218c6.594,7.163,9.074,15.566,17.846,20.62
	c9.342,5.381,21.295,9.827,28.978,17.51c-1.948,0.167-3.585-0.759-5.236,0.119c-0.381,3.319,8.222,4.75,10.455,5.99
	c4.579,2.542,8.509,5.705,12.514,9.043c8.829,7.357,16.641,14.893,24.131,23.602c3.633,4.224,6.382,9.005,9.585,13.542
	c2.146,3.039,3.131,6.817,7.35,6.742c5.583-0.102,11.413,0.445,16.935-0.56c1.667-0.304,5.508-0.657,6.339-2.512
	C257.225,144.888,253.882,144.88,252.93,145.171C248.234,146.604,254.573,144.668,252.93,145.171z M149.062,197.969
	c5.454,3.543,6.177,12.544,4.307,18.226c-1.703,5.176-12.435,10.372-16.768,13.206c-5.631,3.683-12.085,6.584-18.601,8.312
	c-8.12,2.154-15.165-1.396-22.875-3.635c-1.247-0.365-3.592,0.076-3.496,1.839c0.122,2.34,6.454,3.249,8.092,3.801
	c8.147,2.74,13.646,3.512,22.098,1.268c10.424-2.769,24.357-16.399,34.862-7.016c3.934,3.514,5.878,9.235,4.644,14.401
	c-0.837,3.504-4.101,12.751-9.165,11.977c-0.794-0.143-0.953,1.851-2.03,2.225c-3.373,1.171-6.58,4.357-9.533,6.354
	c-7.584,5.128-16.056,5.604-25.013,3.744c-6.45-1.337-12.187-5.432-15.712-10.982c-3.942-6.209-2.501-13.637-5.933-19.75
	c-3.196-5.693-9.313-9.064-10.892-15.681c-1.468-6.153-1.899-12.014-3.728-18.069c5.998,0.909,11.708,1.289,17.623-0.426
	c5.251-1.525,11.273-5.246,16.564-5.812c-0.088,2.452,2.985,8.819,5.092,10.34c2.161,1.559,2.105-2.541,1.686-3.396
	c-1.237-2.495-2.519-4.969-3.785-7.449c3.103-0.773,6.401-1.089,9.43-2.094c2.857-0.948,5.473-2.709,8.43-3.343
	C140.312,194.731,143.68,194.486,149.062,197.969C150.277,198.758,147.218,196.775,149.062,197.969z M145.604,174.716
	c9.393,16.496-22.777,18.981-32.096,21.669c-4.373,1.261-8.656,2.812-13.019,4.083c-4.245,1.236-8.846,0.736-12.995,1.941
	c-3.333,0.969-2.731,3.65-7.085,1.997c-2.074-0.787-7.897-3.137-7.257-5.891c-3.545-2.475-5.452-2.564-6.495-7.579
	c-1.084-5.211-0.353-9.85,0.368-14.993c-0.231,0.003-0.461,0.009-0.695,0.014c0.151-0.838,0.303-1.676,0.505-2.784
	c0.771,0.529,0.902,1.136,0.393,1.82c4.541-7.009,8.102-8.009,16.243-9.728c7.613-1.606,15.161-3.661,22.975-3.621
	C119.71,161.713,138.126,161.516,145.604,174.716C145.8,175.061,143.284,170.621,145.604,174.716z M127.003,162.173
	c1.392-0.463,2.032,0.24,2.702,0.842C128.921,162.771,128.139,162.528,127.003,162.173z M112.25,126.06
	c15.086,2.517,33.966,16.608,25.012,33.928c-9.604-3.887-21.353-2.558-31.501-2.727c-10.368-0.173-23.05,2.846-32.757,6.402
	c-4.966-2.51-5.729-12.731-5.237-17.344c0.669-6.258,2.348-11.503,6.711-16.061c4.621-4.827,10.183-8.728,17.205-8.073
	C98.608,122.831,105.399,124.914,112.25,126.06C117.863,126.997,109.763,125.644,112.25,126.06z"/>
<path id="outline" fill-rule="evenodd" clip-rule="evenodd" d="M215.861,192.11c-1.676,0.194-2.388,2.251-1.06,3.376
	c1.26,1.066,3.848,0.206,5.134-0.284c4.483-1.709,5.459-7.332,7.566-11.114c3.584-6.425,6.296-17.967,4.414-25.25
	c-0.237-0.536-5.773-8.889-5.689-4.027c0.027,1.61,1.504,2.716,1.971,4.212c0.438,1.399-0.159,4.663-0.178,6.32
	c-0.052,4.7-2.079,10.08-3.903,14.351C222.622,183.189,220.33,191.606,215.861,192.11
	C214.608,192.256,217.646,191.909,215.861,192.11z"/>
<path id="outline" fill-rule="evenodd" clip-rule="evenodd" d="M233.669,160.197c1.08,6.775,0.529,12.266-0.553,19.026
	c-0.213-0.179-0.432-0.363-0.646-0.544c-0.093,0.201-0.189,0.402-0.284,0.604c0.274,0.13,0.552,0.261,0.826,0.393
	c-1.163,0.761-1.951,4.104-2.578,5.416c-1.096,2.295-0.76,4.925-2.212,7.217c-1.382,2.181-4.874,2.839-5.615,5.203
	c-1.028,3.277,4.119,1.339,4.992,0.749C234.021,193.923,247.062,162.188,233.669,160.197
	C233.884,161.545,237.157,160.716,233.669,160.197z"/>
<path id="outline" fill-rule="evenodd" clip-rule="evenodd" d="M186.61,200.318c-5.562-2.431-10.276-5.307-14.959-9.184
	c-1.54-1.274-10.551-10.667-11.686-6.561c5.04,4.829,10.967,12.17,17.447,14.903c3.155,1.329,15.173,8.636,17.619,3.378
	C193.396,200.453,189.016,201.375,186.61,200.318C183.365,198.9,188.157,200.998,186.61,200.318z"/>
<path id="outline" fill-rule="evenodd" clip-rule="evenodd" d="M117.325,57.728c-3.708-1.375-5.868,3.03-8.388,5.339
	c-2,1.833-4.077,3.684-6.457,5.015c-1.741,0.974-5.563,1.013-6.823,2.325c-1.295,1.348,0.478,2.261,1.532,2.225
	c3.438-0.115,6.262-1.29,9.136-3.099C110.622,66.827,116.787,63.333,117.325,57.728C114.85,56.81,117.082,60.264,117.325,57.728z"
	/>
<path id="outline" fill-rule="evenodd" clip-rule="evenodd" d="M108.541,70.464c-1.644,1.609-11.914,6.269-8.101,8.147
	c3.056,1.526,11.978-4.75,11.752-8.06C110.496,69.263,109.842,69.19,108.541,70.464C106.1,72.853,109.842,69.19,108.541,70.464z"/>
<path id="outline" fill-rule="evenodd" clip-rule="evenodd" d="M218.952,182.369c-0.162-0.073-0.321-0.146-0.485-0.216
	c-0.275,0.567-0.546,1.138-0.819,1.707c0.168,0.098,0.332,0.189,0.498,0.285C218.413,183.555,218.684,182.96,218.952,182.369
	C218.79,182.296,218.684,182.96,218.952,182.369z"/>
<path id="outline" fill-rule="evenodd" clip-rule="evenodd" d="M220.194,177.192c-0.001,0.307-0.001,0.612,0.002,0.92
	c0.093,0.01,0.189,0.019,0.288,0.032c0.068-0.307,0.138-0.61,0.204-0.918C220.525,177.216,220.358,177.205,220.194,177.192
	C220.193,177.499,220.358,177.205,220.194,177.192z"/>
<path id="outline" fill-rule="evenodd" clip-rule="evenodd" d="M221.93,171.15c-0.09,0.269-0.184,0.538-0.276,0.809
	c0.088,0.03,0.178,0.059,0.265,0.089c0.088-0.271,0.18-0.543,0.266-0.814C222.101,171.207,222.016,171.177,221.93,171.15
	C221.84,171.419,222.016,171.177,221.93,171.15z"/>
<path id="outline" fill-rule="evenodd" clip-rule="evenodd" d="M110.367,231.236c-2.236-3.137-3.859-6.672-4.848-10.392
	c-0.923-3.477,0.065-10.109-1.798-12.97c-2.483-3.811-3.108,3.77-3.099,4.399c0.069,4.443,1.101,8.123,2.377,12.357
	c1.18,3.037,2.838,6.008,4.549,8.773C109.811,237.065,113.28,235.323,110.367,231.236
	C106.684,226.07,110.82,231.872,110.367,231.236z"/>
<path id="outline" fill-rule="evenodd" clip-rule="evenodd" d="M124.943,266.612c0.922-1.028-0.128-1.677-0.68-2.389
	c-3.064-3.58-5.303-7.409-8.105-11.172C113.248,257.297,122.501,269.348,124.943,266.612
	C125.865,265.584,124.173,267.475,124.943,266.612z"/>
<path id="outline" fill-rule="evenodd" clip-rule="evenodd" d="M131.49,259.395c2.199,4.523,4.044,2.768,3.158-1.475
	c-0.036,0.012-0.073,0.019-0.106,0.025c-0.446-1.487-2.874-8.08-5.418-6.228C127.428,252.944,130.851,258.092,131.49,259.395
	C131.901,260.24,130.659,257.699,131.49,259.395z"/>
<path id="outline" fill-rule="evenodd" clip-rule="evenodd" d="M112.458,216.747c-3.142-2.791-2.591,2.415-2.269,3.689
	c-0.044,0.024-0.085,0.046-0.127,0.069C115.595,231.378,116.395,220.239,112.458,216.747
	C111.832,216.191,112.682,216.946,112.458,216.747z"/>
<path id="outline" fill-rule="evenodd" clip-rule="evenodd" d="M157.479,253.396c-0.594,0.909-1.076,1.641-1.554,2.37
	C156.767,255.278,157.924,254.406,157.479,253.396C156.885,254.305,157.668,253.825,157.479,253.396z"/>
<path id="outline" fill-rule="evenodd" clip-rule="evenodd" d="M78.914,184.136c0.273-3.278,0.828-6.534,1.267-9.883
	c-5.722-4.405-4.933,9.11-4.975,11.83c-0.056,3.823,1.569,15.319,6.772,15.772c1.195-2.224,0.091-3.375-0.803-5.633
	C79.652,192.381,78.567,188.304,78.914,184.136C79.187,180.857,78.489,189.244,78.914,184.136z"/>
<path id="outline" fill-rule="evenodd" clip-rule="evenodd" d="M89.997,173.553c-3.819-0.067-0.711,19.102-0.205,22.164
	C93.29,196.574,93.822,173.618,89.997,173.553C88.73,173.53,91.49,173.578,89.997,173.553z"/>
<path id="outline" fill-rule="evenodd" clip-rule="evenodd" d="M85.419,191.585c-2.21-5.519-3.639-1.843-3.333,2.34
	c0.149,2.048,0.976,4.686,3.76,3.576c2.372-0.951-0.032-4.507-0.637-5.824C85.278,191.645,85.349,191.614,85.419,191.585
	C85.099,190.785,85.349,191.614,85.419,191.585z"/>
<path id="outline" fill-rule="evenodd" clip-rule="evenodd" d="M101.091,129.097c-1.13,0.408-2.201,19.428-0.509,20.448
	C105.477,148.957,106.506,127.154,101.091,129.097C100.1,129.454,102.202,128.698,101.091,129.097z"/>
<path id="outline" fill-rule="evenodd" clip-rule="evenodd" d="M95.611,128.584c-0.065-1.33-1.083-2.164-2.399-1.895
	c-1.671,0.343-1.569,3.346-1.673,4.404c-0.431,4.405-0.426,8.698,1.237,12.792C96.061,142.63,95.77,131.763,95.611,128.584
	C95.541,127.161,95.658,129.52,95.611,128.584z"/>
</svg>
