<svg class="hand" version="1.1" id="Layer_1" xmlns="http://www.w3.org/2000/svg" xmlns:xlink="http://www.w3.org/1999/xlink" x="0px" y="0px"
	 width="280px" height="280px" viewBox="0 0 280 280" enable-background="new 0 0 280 280" xml:space="preserve">
<path id="background" fill="none" d="M273.35,176.5c-13.029-4.37-24.609-8.79-38.479-8.78c-7.24,0-14.95-0.12-21.19,3.84
	c-5.5,3.5-10.85,7.301-16.14,11.131c-11.39,8.22-23.8,9.319-36.7,13.489c-7.28,2.351-14.8,4.23-22.3,5.761
	c-6.4,1.3-13.28,1.329-19.49,3.399c-3.82,1.28-7.8,1.78-11.66,3.01c-2.61,0.83-5.95,2.62-8.73,2.49c-5.93-0.28-12.23-2.5-18.04-3.7
	c-7.29-1.5-15.15-1.87-22.23-4.21c-6.13-2.02-6.64-3.939-6.91-10.029c-5.38,1.81-13.71,2.02-19.37,1.39
	c-6.23-0.66-4.35-9.49-4.61-13.5c-1.53,0.52-2.83,0.88-4.07,1.38c-0.01,0-0.03,0.01-0.04,0.021c-0.02,0-0.07,0.02-0.16,0.06
	c-5.24,2.19-16.62,4.5-19.51-2.52c-3.2-7.79-1.67-11.551,3.91-17.021C3.17,159,1.85,151.86,3.6,146.62
	c2.08-6.2,9.15-7.91,14.77-9.85c6.79-2.35,14.06-3.09,20.8-5.47c6.56-2.33,13.08-6.01,19.89-7.51c13.18-2.91,25.19-7.47,38.64-9.24
	c14.16-1.82,27.14-7.61,39.92-13.85c-2.17-6.61-9.73-11.29-14.85-15.46c-4.62-3.77-9.11-7.83-12.36-12.87
	c-4.73-7.35-13.96-25.46-0.27-28.12c4.6-0.89,6.74-1.42,10.68,1.48c2.58,1.9,4.99,4.03,7.26,6.3c4.11,4.1,7.19,9.4,11.52,13.22
	c4.36,3.85,9.75,5.01,15.03,6.88c6.55,2.32,13.11,4.62,19.65,6.99c13.89,5.04,26.38,11.73,39.7,17.89
	c2.63,1.21,5.039,2.55,7.46,4.15c2.04,1.34,5.21,0.99,7.6,1.64c6.94,1.88,14.43,2.64,21.54,3.61c7.66,1.04,15.34,1.06,23.05,0.71
	c1.41-0.07,2.19,0.91,2.2,1.88v0.09l2.88,66.17C279.93,177.4,277.27,177.81,273.35,176.5z"/>
<path id="outline" fill-rule="evenodd" clip-rule="evenodd" d="M22.17,182.7l0.63-0.271C22.54,182.54,22.34,182.63,22.17,182.7z"/>
<path id="outline" fill-rule="evenodd" clip-rule="evenodd" d="M23.232,182.252c1.296-0.539,2.663-0.913,4.266-1.457
	c0.259,4.009-1.623,12.832,4.614,13.499c5.658,0.624,13.985,0.42,19.369-1.392c0.272,6.085,0.781,8.004,6.908,10.026
	c7.077,2.337,14.939,2.712,22.235,4.216c5.811,1.197,12.106,3.418,18.034,3.692c2.783,0.129,6.119-1.656,8.732-2.487
	c3.859-1.228,7.843-1.73,11.66-3.005c6.208-2.074,13.089-2.103,19.487-3.407c7.499-1.529,15.019-3.408,22.303-5.762
	c12.896-4.166,25.312-5.262,36.7-13.49c5.287-3.825,10.636-7.627,16.144-11.127c6.231-3.962,13.943-3.843,21.187-3.843
	c13.871-0.001,25.454,4.417,38.48,8.787c5.038,1.69,8.005,0.521,3.278-3.504c-1.479-1.27-1.945-3.334-3.741-4.178
	c-3.261-1.53-7.16-2.096-10.637-2.994c-13.781-3.558-27.637-3.496-41.552-1.654c0.091-1.427-1.04-8.658-3.067-3.918
	c-2.095,4.872-5.859,7.347-10.084,10.181c-8.055,5.403-15.163,11.973-24.229,15.79c-9.674,4.072-21.36,5.616-31.567,8.187
	c-10.973,2.763-22.208,4.054-33.165,6.623c-4.583,1.074-9.032,2.624-13.519,4.028c-6.156,1.926-10.308,1.062-16.484-0.097
	c-9.181-1.721-20.798-1.862-29.034-6.529c-2.882-1.637-4.634-4.971-3.421-8.189c1.569-4.168,6.861-4.943,10.838-5.331
	c10.479-1.024,12.099,5.918,16.224,13.619c3.899-2.89-1.876-11.924,0.345-12.361c5.656-1.113,13.53,0.688,19.373,0.865
	c1.843,0.072,3.729,2.125,4.884,3.44c1.046,1.191,1.254,6.052,2.557,6.305c6.883,1.351-1.138-9.718-2.61-10.898
	c3.174-0.515,5.985-1.881,9.004-2.911c1.619-0.553,9.451-0.719,9.888-2.143c1.774-5.857-20.932,1.847-23.167,2.556
	c-8.208-3.636-18.97-1.025-27.752-2.333c-9.152-1.366-20.257-1.343-24.406,8.064c-3.824,0.144-17.786,4.331-19.462-0.663
	c-3.118-9.288,11.068-12.604,16.88-15.039c6.77,3.417,19.171-2.181,26.286-3.766c10.58-2.357,21.256-5.936,32.09-6.812
	c0.423-0.034,8.458-0.641,5.338-3.15c-2.25-1.811-10.015-0.619-12.647,0.029c-5.03,1.238-10.063,2.468-15.096,3.693
	c-2.517,0.613-5.033,1.225-7.55,1.836c-2.43,0.579-4.592-0.572-7.049-0.261c-8.485,1.118-16.912,2.925-25.08,5.562
	c-4.609,1.487-8.652,3.854-12.945,6.02c-4.195,2.116-8.35,1.479-12.818,2.797c-3.134,0.932-8.696,1.444-10.818-1.858
	c-1.534-2.388-0.794-8.414,2.458-9.199c2.407-0.586,5.259-3.288,7.882-4.179c5.473-1.857,11.021-3.447,16.527-5.198
	c9.587-3.05,18.411-7.538,27.789-10.966c10.081-3.696,21.422-6.115,32.017-7.857c3.586-0.589,9.407-0.403,12.51-2.364
	c3.672-2.32-1.854-4.015-3.617-3.898c-4.917,0.327-9.653,2.199-14.56,2.737c-5.576,0.612-11.095,1.741-16.445,3.435
	c-9.22,2.918-17.866,6.617-26.883,10.051c-4.647,1.77-9.433,2.136-14.209,3.324c-5.452,1.357-10.601,3.644-15.887,5.503
	c-9.153,3.288-9.121-8.195-4.266-13.393c3.206-3.429,5.838-2.716,9.812-4.391c4.66-1.965,9.469-3.247,14.335-4.764
	c8.923-2.782,17.541-6.354,26.624-8.667c9.087-2.314,17.288-6.491,26.632-8.115c9.167-1.593,18.988-1.036,27.596-5.076
	c7.845-3.688,15.756-6.856,23.916-9.827c3.303,4.827,3.303,4.827,5.068,4.714c-1.938-6.214-5.26-11.263-9.143-16.16
	c-2.61-3.291-6.14-5.843-9.297-8.573c-2.983-2.579-5.919-6.987-9.265-8.922c-5.665-3.227-12.606-17.009-10.768-23.199
	c3.129-10.532,12.201-2.815,17.064,2.261c6.125,6.402,11.622,13.936,19.747,17.981c9.322,4.642,20.37,6.87,30.202,10.294
	c9.941,3.462,19.884,7.367,29.054,12.575c4.189,2.378,8.338,4.827,12.462,7.318c3.358,2.028,4.926,5.109,7.47,8.042
	c1.709-1.228,0.461-3.302,1.823-4.652c13.249-0.206,26.122,5.161,39.422,5.143c3.143-0.004,6.353-0.172,9.471-0.567
	c2.722-0.338,2.343-3.92-0.349-3.799c-7.703,0.354-15.39,0.332-23.044-0.712c-7.113-0.97-14.606-1.73-21.543-3.608
	c-2.393-0.648-5.561-0.298-7.599-1.645c-2.421-1.597-4.831-2.933-7.462-4.149c-13.325-6.159-25.811-12.842-39.7-17.885
	c-6.536-2.373-13.101-4.669-19.654-6.993c-5.271-1.864-10.67-3.032-15.027-6.875c-4.33-3.819-7.407-9.119-11.519-13.226
	c-2.268-2.265-4.677-4.394-7.259-6.295c-3.944-2.905-6.084-2.373-10.682-1.479c-13.689,2.661-4.461,20.768,0.272,28.115
	c3.25,5.044,7.742,9.104,12.356,12.87c5.12,4.177,12.68,8.851,14.857,15.465c-12.788,6.238-25.763,12.026-39.923,13.852
	c-13.456,1.764-25.463,6.326-38.641,9.232c-6.812,1.503-13.328,5.186-19.896,7.511c-6.739,2.386-14.009,3.125-20.798,5.469
	c-5.615,1.939-12.692,3.651-14.764,9.849c-1.753,5.247-0.432,12.383,4.024,16.098c-5.576,5.471-7.111,9.225-3.904,17.018
	C6.615,186.753,17.992,184.438,23.232,182.252C24.528,181.713,18.851,184.079,23.232,182.252z"/>
<path id="outline" fill-rule="evenodd" clip-rule="evenodd" d="M155.255,119.435c-5.251,0.404-1.127,4.64,1.435,6.139
	c5.426,3.167,11.481,4.952,17.374,7.015c4.412,1.552,10.878,1.323,15.517,1.19c1.947-0.056,14.576-1.399,11.175-5.725
	c-8.437,0.538-15.82,1.7-24.312,0.346c-4.026-0.642-7.907-2.21-11.646-3.793C162.768,123.747,157.137,119.292,155.255,119.435
	C154.493,119.493,155.474,119.418,155.255,119.435z"/>
<path id="outline" fill-rule="evenodd" clip-rule="evenodd" d="M142.662,144.637c-1.676-2.632-10.631-18.179-14.321-15.677
	c-0.5,3.163,4.249,7.722,5.895,10.076c2.476,3.543,4.966,7.079,7.4,10.651c4.132,6.065,8.29,13.024,10.506,20.038
	c0.265,0.837,2.218,8.132,4.022,4.593c1.241-2.434-0.833-6.512-1.794-8.663C151.028,158.171,147.056,151.515,142.662,144.637
	C141.467,142.76,144.667,147.775,142.662,144.637z"/>
<path id="outline" fill-rule="evenodd" clip-rule="evenodd" d="M184.988,143.229c-3.775,2.674-9.361,3.667-13.471,6.313
	c-3.855,2.476-7.999,5.236-11.014,8.694c-1.867,7.136,3.799,1.458,6.134-0.268c5.178-3.826,10.595-6.749,16.39-9.514
	c2.686-1.281,13.58-3.86,14.472-6.853C198.964,136.684,186.399,142.232,184.988,143.229
	C184.423,143.629,187.988,141.111,184.988,143.229z"/>
<path id="outline" fill-rule="evenodd" clip-rule="evenodd" d="M218.585,123.752c0,7.539,0.917,15.128,0.88,22.755
	c5.648,0.941,4.073-9.235,3.719-12.72c-0.295-2.894-0.576-5.88-1.208-8.723C221.573,123.251,218.571,119.669,218.585,123.752
	C218.585,125.079,218.582,122.869,218.585,123.752z"/>
<path id="outline" fill-rule="evenodd" clip-rule="evenodd" d="M233.386,137.032c-1.799,3.916,5.906,1.016,7.572,1.272
	c3.676,0.566,8.231,1.081,2.538-2.536C241.64,135.115,234.494,134.672,233.386,137.032
	C233.176,137.489,233.481,136.828,233.386,137.032z"/>
</svg>
