<svg class="hand" version="1.1" id="Layer_1" xmlns="http://www.w3.org/2000/svg" xmlns:xlink="http://www.w3.org/1999/xlink" x="0px" y="0px"
	 width="280px" height="280px" viewBox="0 0 280 280" enable-background="new 0 0 280 280" xml:space="preserve">
<path id="background" fill="none" d="M278.26,179.3l-1.939-74.68c0.109-0.54-0.36-1.25-0.721-1.8c-2.79-4.25-19.369,0.68-22.659,1.78
	c-3.351,1.11-6.891,1.38-10.391,1.46c-2.6,0.05-7.21-0.84-9.37,1.08c-0.59-0.52-1.13-0.93-1.59-1.41
	c-6.82-7.2-13.6-14.43-20.52-21.53c-3.75-3.84-8.011-7.05-12.641-9.77c-0.939-0.55-1.859-1.15-2.71-1.85
	c-3.64-2.99-7.56-5.35-12.34-6.11c-1.39-0.23-2.72-0.89-3.67-2.09c-0.33-0.41-0.88-0.62-1.29-0.96c-4.79-3.88-8.58-8.7-12.8-13.18
	c-5.68-6.05-12.521-9.7-17.7-16.42c-5.2-6.75-10.85-12.98-16.78-19.09c-2.32-2.39-7.1-8.57-10.68-5.31
	c-2.55,2.31-4.07,5.77-5.42,8.85c-0.99,2.25-1.33,4.6-1.29,6.99c0.02,1.42,0.63,2.86,0.52,4.25c-0.24,3.16,0.92,5.97,2.17,8.65
	c2.32,5.02,4.82,9.99,8.33,14.32c3.01,3.72,6.18,7.3,9.29,10.94c0.49,0.56,1.02,1.1,1.55,1.63c1.72,1.76,3.44,3.51,5.16,5.26
	c2.01,2.04,4.04,4.07,6.05,6.13c0.75,0.77,1.46,1.59,2.38,2.59c-1.8,0.85-3.91,1.33-5.61,2.34c-3.34,2.01-6.61,4.13-9.88,6.25
	c-3.02,1.96-5.87,4.31-9.88,3.51c-0.56-0.11-1.2,0.18-1.8,0.29c-0.88,0.16-1.74,0.43-2.62,0.48c-5.47,0.31-10.93,0.66-16.4,0.84
	c-8.3,0.28-16.68,0.22-24.99,0.17c-5.23-0.01-10.76-0.47-15.95-1.08c-4.42-0.52-8.86-0.55-13.29-0.71
	c-3.95-0.16-7.92-0.08-11.88-0.16c-2.32-0.04-4.64-0.23-6.96-0.25c-3.07-0.03-6.14,0.1-9.2,0.02c-2.37-0.05-4.75-0.75-7.06,0.41
	c-0.4,0.2-0.95,0.05-1.41,0.17c-1.71,0.43-3.74,0.28-4.98,1.63c-1.31,1.42-2.62,3.12-3.16,4.93c-1.07,3.6-1.22,7.38-0.71,11.16
	c0.71,5.27,9.04,5.42,12.92,5.08c1.3-0.12,2.58-0.48,3.87-0.45c4.31,0.09,8.63,0.09,12.91,0.53c5.03,0.51,10,1.49,15.06,1.8
	c7.35,0.44,14.47,1.37,21.88,1.17c3.39-0.1,6.69,0.39,10.01,0.8c3.66,0.46,7.31,1.11,10.99,1.36c6.1,0.41,12.06,1.48,17.94,3.11
	c0.96,0.27,1.88,0.7,2.9,1.08c-0.67,1.09-1.65,1.2-2.56,1.41c-6.89,1.54-13.51,1.94-20.54,2.24c-6.17,0.26-12.3,0.93-18.47,1.14
	c-5.92,0.2-11.67-0.5-17.66,0.01c-6.61,0.57-13.18,1.34-19.85,0.92c-3.19-0.2-6.42,0.13-9.62,0.36c-5.12,0.37-12.54,0.29-17.03,3.04
	c-5.63,3.44-5.85,8.09-6.31,14.25c-0.31,4.21,3.7,7.37,7.19,8.7c2.63,1,5.39,0.32,8.02,0.99c0.06,0.02,0.13-0.021,0.2-0.03
	c6.19-0.58,12.39-1.17,18.58-1.75c6.51-0.59,13.14-0.54,19.67-0.88c3.61-0.19,7.23-0.351,10.84-0.58c3.55-0.22,7.08-0.66,10.63-0.74
	c6.01-0.12,12.04,0.061,18.05-0.06c4.86-0.101,9.71-0.46,14.56-0.681c1.49-0.069,3-0.189,4.48-0.069c1.05,0.09,2.13,0.45,2.7,1.67
	c-0.34,0.319-0.6,0.64-0.92,0.85c-3.73,2.48-7.88,3.66-12.33,4.07c-3.26,0.3-6.5,0.81-9.73,1.34c-4.58,0.75-9.1,0.31-13.67,0.89
	c-5.16,0.641-10.3,1.511-15.44,2.261c-7.15,1.05-14.45,1.31-21.64,2.05c-2.3,0.229-4.56,0.79-6.86,1.12
	c-5.34,0.76-9.9,0.7-13.75,5.02c-0.84,0.94-1.5,2.181-1.81,3.4c-3.17,12.79,11.45,15,20.32,14.42c2.93-0.19,5.85-0.46,8.78-0.74
	c11.27-1.02,22.55-2.81,33.89-3.08c5.63-0.149,11.49-1.02,17.09-1.59c4.61-0.479,9.22-1.07,13.83-1.57
	c1.08-0.12,2.19-0.199,3.27,0.141c-0.76,0.43-1.53,0.72-2.31,0.939c-7.37,2.12-14.59,4.521-22.01,6.5
	c-6.27,1.67-12.56,3.24-18.83,4.91c-5.14,1.38-11.4,2.71-14.98,7.021c-1.22,1.479-1.8,3.199-2.44,4.93
	c-0.64,1.76-0.41,2.479,0.98,3.8c0.77,0.75,1.53,1.561,2.08,2.48c2.05,3.449,5.94,3.58,9.5,4.239c2.61,0.49,5.17-0.06,7.76-0.3
	c4.1-0.38,8.12-1.069,12.1-2.14c7.24-1.95,14.53-3.75,21.81-5.57c3.37-0.85,6.51-2.479,10.01-2.89c3.22-0.37,6.78-2.4,9.87-3.431
	c3.57-1.18,7.17-2.27,10.75-3.409c1.3-0.41,2.69-0.69,3.86-1.341c3.39-1.859,8.83-0.34,12.56-0.489
	c10.931-0.44,22.16-0.63,32.771-3.5c8.31-2.261,16.81-3.601,25.18-5.58c4.851-1.15,9.681-2.431,14.45-3.88
	c1.89-0.57,3.6-0.42,5.42,0c5.03,1.149,10.15,1.64,15.28,1.54c7.72-0.16,16.6-0.16,24.04-2.37c1.84-0.55,3.68-1.07,5.5-1.641
	C281.05,181.25,280.01,178.83,278.26,179.3z M121.43,94.77C121.07,95.33,120.77,94.77,121.43,94.77L121.43,94.77z"/>
<path id="outline" fill-rule="evenodd" clip-rule="evenodd" d="M121.43,94.77C120.77,94.77,121.07,95.33,121.43,94.77L121.43,94.77z"/>
<path id="outline" fill-rule="evenodd" clip-rule="evenodd" d="M121.426,94.769c-1.514,0-2.96,0.266-4.468,0.338
	c-28.355,1.347-56.295-0.887-84.623-1.089c-2.563-0.021-5.128,0.202-7.692,0.318c-0.04,0.15-0.081,0.3-0.121,0.45
	c0.462,0.341,0.876,0.827,1.395,0.998c1.871,0.609,2.749,2.233,3.754,3.655c0.699,0.994,0.635,2.195-0.192,3.25
	c-2.2,2.799-4.753,5.094-8.3,6.053c-0.621,0.17-1.191,0.535-1.741,1.193c0.409,0.13,0.812,0.352,1.229,0.382
	c3.746,0.257,7.498,0.446,11.242,0.736c9.657,0.734,19.292,2.375,28.946,3.266c3.051,0.279,6.153-0.013,9.232,0.003
	c1.844,0.007,3.7-0.036,5.524,0.173c7.884,0.899,15.773,1.771,23.627,2.884c5.483,0.779,10.742,2.592,16.268,3.157
	c1.592,0.168,2.169,0.514,2.375,1.74c0.237,1.424-0.415,2.69-1.751,3.108c-4.039,1.26-8.079,2.523-12.157,3.658
	c-1.297,0.364-2.704,0.37-4.067,0.463c-8.396,0.575-16.78,0.836-25.161,1.601c-8.388,0.765-16.801-0.423-25.204,0.646
	c-4.335,0.553-8.733,0.982-13.09,0.893c-3.285-0.068-6.554-0.145-9.818,0.157c-2.988,0.273-5.959,0.733-8.937,1.12
	c-0.247,0.035-0.484,0.153-0.869,0.28c4.197,0.955,11.526,1.026,13.39,5.725c1.544,3.892-4.599,7.223-7.248,8.729
	c-3.355,1.909-6.95,2.667-10.583,3.801c1.781,0.812,3.25,1.106,4.765,1.018c1.7-0.101,3.402-0.298,5.088-0.561
	c9.025-1.395,18.117-1.354,27.211-1.866c4.365-0.246,8.729-0.479,13.091-0.754c4.916-0.307,9.812-0.816,14.74-0.763
	c5.262,0.046,10.527,0.246,15.781,0.096c4.3-0.121,8.587-0.665,12.881-1.015c5.091-0.412,17.217,0.197,10.861,8.053
	c-0.043,0.053-0.086,0.106-0.139,0.152c-2.746,2.342-6.068,3.59-9.38,4.82c-0.599,0.222-1.417,0.193-2.031-0.02
	c-2.455-0.853-4.82-0.312-7.229,0.189c-4.556,0.948-9.156,1.485-13.819,1.717c-6.833,0.335-13.619,1.211-20.364,2.404
	c-2.013,0.358-4.083,0.396-6.124,0.612c-5.57,0.591-11.459,0.707-16.851,2.245c2.185,0.907,2.851,2.52,2.875,4.225
	c0.029,2.033-0.219,4.091-1.534,5.849c-2.718,3.633-6.609,4.923-10.707,6.368c5.45,0.448,10.938-0.199,16.36-0.697
	c1.089-0.099,2.177-0.204,3.268-0.291c1.287-0.104,2.582-0.157,3.866-0.287c5.92-0.603,11.83-1.305,17.756-1.82
	c6.01-0.523,12.214-0.333,18.104-1.652c0.264-0.06,0.554-0.186,0.797-0.127c2.825,0.655,5.599-0.056,8.363-0.393
	c3.327-0.407,6.652-0.831,9.992-1.12c3.712-0.321,8.558,0.583,12.092-0.44c2.126-0.621,3.724,0.436,5.286,1.572
	c0.332,0.239,0.665,0.813,0.6,1.162c-0.06,0.322-0.61,0.669-1.012,0.794c-8.367,2.562-16.667,5.275-24.995,7.937
	c-4.166,1.336-8.356,2.592-12.544,3.857c-2.682,0.81-5.359,1.659-8.08,2.327c-1.5,0.368-3.047,0.615-4.635,0.624
	c-4.137,0.014-11.875,3.002-14.396,6.27c1.392,0.37,2.485,0.139,3.48-0.43c3.375-1.936,9.196-2.527,12.105,0.6
	c0.937,1.008,1.244,2.133,0.781,3.404c-0.923,2.525-2.352,4.611-5.048,5.56c-0.625,0.223-1.184,0.624-2.126,1.135
	c0.649,0.19,0.927,0.358,1.188,0.339c6.351-0.524,12.58-1.495,18.679-3.547c4.253-1.433,8.795-1.987,13.177-3.062
	c2.851-0.699,5.646-1.619,8.461-2.454c1.044-0.309,2.055-0.791,3.12-0.964c3.743-0.618,7.242-2.003,10.816-3.186
	c4.996-1.652,10.049-3.12,15.076-4.672c0.457-0.142,1.069-0.167,1.331-0.477c1.468-1.733,3.443-1.433,5.327-1.436
	c6.127-0.017,12.119-0.157,18.236-0.598c2.386-0.175,4.769-0.442,7.156-0.562c4.942-0.248,10.232-0.833,14.955-2.386
	c0.829-0.272,1.619-0.668,2.41-1.041c0.427-0.201,0.804-0.578,1.248-0.677c2.13-0.473,4.276-0.862,6.415-1.311
	c8.649-1.815,18.155-2.561,26.462-5.617c2.49-0.921,5.157-0.908,7.478-0.318c10.688,2.719,22.577,1.54,33.467,0.928
	c1.275-0.072,2.536-0.532,3.794-0.844c2.652-0.661,5.307-1.317,7.947-2.027c1.748-0.47,2.792,1.947,0.898,2.544
	c-1.823,0.576-3.664,1.096-5.496,1.643c-7.443,2.206-16.325,2.208-24.043,2.368c-5.132,0.107-10.252-0.387-15.279-1.537
	c-1.82-0.416-3.528-0.571-5.42,0.004c-4.771,1.446-9.6,2.73-14.451,3.877c-8.372,1.979-16.873,3.323-25.186,5.574
	c-10.604,2.874-21.839,3.062-32.768,3.504c-3.729,0.151-9.17-1.369-12.558,0.495c-1.172,0.646-2.559,0.921-3.859,1.335
	c-3.583,1.141-7.184,2.233-10.752,3.414c-3.084,1.022-6.651,3.055-9.873,3.424c-3.497,0.408-6.639,2.046-10.01,2.891
	c-7.274,1.822-14.565,3.62-21.807,5.569c-3.975,1.069-7.999,1.767-12.098,2.145c-2.586,0.24-5.148,0.787-7.76,0.303
	c-3.557-0.661-7.447-0.792-9.503-4.243c-0.545-0.917-1.303-1.736-2.081-2.477c-1.389-1.323-1.617-2.043-0.972-3.805
	c0.635-1.73,1.216-3.454,2.438-4.928c3.577-4.313,9.837-5.639,14.98-7.018c6.265-1.676,12.56-3.242,18.827-4.913
	c7.425-1.979,14.642-4.384,22.012-6.498c0.782-0.226,1.544-0.517,2.309-0.945c-1.078-0.34-2.188-0.26-3.27-0.14
	c-4.614,0.505-9.216,1.094-13.833,1.567c-5.602,0.571-11.462,1.443-17.086,1.591c-11.345,0.269-22.62,2.066-33.894,3.087
	c-2.923,0.272-5.846,0.547-8.774,0.738c-8.874,0.579-23.496-1.631-20.32-14.424c0.302-1.214,0.971-2.462,1.806-3.398
	c3.846-4.32,8.412-4.264,13.752-5.024c2.294-0.33,4.561-0.884,6.863-1.118c7.188-0.739,14.484-0.996,21.632-2.049
	c5.147-0.751,10.28-1.616,15.441-2.263c4.574-0.576,9.089-0.133,13.669-0.887c3.233-0.533,6.476-1.041,9.735-1.344
	c4.445-0.41,8.593-1.584,12.331-4.065c0.321-0.214,0.575-0.529,0.914-0.85c-0.571-1.225-1.647-1.583-2.698-1.67
	c-1.483-0.119-2.986-0.003-4.477,0.066c-4.854,0.225-9.706,0.586-14.56,0.682c-6.016,0.121-12.04-0.058-18.055,0.066
	c-3.546,0.073-7.081,0.512-10.623,0.734c-3.613,0.229-7.23,0.39-10.844,0.581c-6.533,0.34-13.16,0.288-19.671,0.884
	c-6.192,0.574-12.384,1.164-18.576,1.751c-0.068,0.005-0.141,0.041-0.202,0.025c-2.626-0.673-5.387,0.006-8.019-0.994
	c-3.491-1.326-7.501-4.485-7.196-8.696c0.459-6.158,0.685-10.808,6.312-14.25c4.488-2.752,11.909-2.667,17.029-3.037
	c3.204-0.231,6.433-0.567,9.622-0.364c6.669,0.419,13.243-0.344,19.855-0.914c5.983-0.517,11.736,0.188,17.657-0.015
	c6.165-0.211,12.295-0.881,18.468-1.144c7.03-0.3,13.652-0.691,20.54-2.235c0.914-0.206,1.895-0.32,2.564-1.407
	c-1.019-0.384-1.938-0.814-2.906-1.083c-5.873-1.634-11.833-2.702-17.933-3.113c-3.679-0.248-7.332-0.895-10.996-1.352
	c-3.322-0.41-6.618-0.907-10.004-0.809c-7.41,0.199-14.536-0.724-21.881-1.171c-5.062-0.303-10.035-1.289-15.059-1.799
	c-4.279-0.44-8.606-0.44-12.915-0.527c-1.285-0.028-2.573,0.333-3.866,0.448c-3.88,0.346-12.212,0.188-12.923-5.077
	c-0.51-3.781-0.362-7.558,0.71-11.164c0.537-1.809,1.85-3.502,3.16-4.93c1.238-1.346,3.273-1.199,4.981-1.629
	c0.457-0.112,1.013,0.035,1.409-0.165c2.309-1.165,4.687-0.465,7.056-0.408c3.067,0.078,6.138-0.058,9.206-0.023
	c2.321,0.023,4.64,0.208,6.961,0.249c3.958,0.076,7.923,0,11.878,0.156c4.432,0.168,8.866,0.191,13.29,0.711
	c5.193,0.616,10.721,1.07,15.952,1.086c8.312,0.042,16.684,0.104,24.991-0.173c5.468-0.179,10.931-0.526,16.395-0.844
	c0.88-0.049,1.746-0.315,2.621-0.477c0.599-0.113,1.239-0.401,1.796-0.29c4.017,0.801,6.867-1.551,9.883-3.51
	c3.269-2.124,6.54-4.241,9.878-6.247c1.701-1.014,3.816-1.492,5.61-2.344c-0.919-1.002-1.627-1.817-2.381-2.592
	c-2.006-2.054-4.033-4.085-6.047-6.131c-1.722-1.749-3.442-3.5-5.158-5.253c-0.525-0.538-1.063-1.069-1.554-1.639
	c-3.11-3.632-6.28-7.218-9.288-10.937c-3.504-4.328-6.008-9.298-8.332-14.314c-1.245-2.687-2.405-5.496-2.167-8.656
	c0.106-1.393-0.502-2.826-0.522-4.248c-0.036-2.392,0.306-4.739,1.289-6.986c1.351-3.087,2.874-6.54,5.42-8.856
	c3.579-3.259,8.362,2.919,10.687,5.313c5.929,6.107,11.581,12.339,16.778,19.084c5.179,6.722,12.022,10.379,17.702,16.421
	c4.217,4.483,8.003,9.299,12.792,13.188c0.415,0.34,0.97,0.549,1.294,0.954c0.953,1.205,2.285,1.866,3.669,2.089
	c4.779,0.76,8.697,3.124,12.347,6.117c0.841,0.693,1.765,1.3,2.707,1.849c4.629,2.719,8.886,5.923,12.634,9.767
	c6.921,7.103,13.706,14.331,20.529,21.526c0.458,0.485,0.996,0.893,1.583,1.41c2.162-1.919,6.771-1.023,9.372-1.078
	c3.505-0.074,7.042-0.346,10.391-1.462c3.29-1.099,19.872-6.022,22.663-1.774c0.36,0.546,0.823,1.262,0.717,1.803
	c-0.099,0.497-0.839,1.113-1.391,1.23c-6.245,1.317-16.388,0.72-21.601,4.395c-4.882-1.167-10.091,0.401-15.705,0.662
	c0.694,1.482,1.324,2.663,1.792,3.902c0.254,0.669,0.41,1.47,0.292,2.156c-0.196,1.162-1.107,1.425-1.915,0.606
	c-2.063-2.092-4.115-4.2-6.108-6.359c-3.064-3.311-6.068-6.677-9.105-10.006c-1.936-2.124-3.804-4.316-5.856-6.322
	c-4.739-4.624-8.9-9.876-14.39-13.693c-3.927-2.731-7.998-5.245-11.96-7.929c-1.655-1.121-3.39-2.002-5.25-2.725
	c-2.855-1.098-4.625,1.34-6.967-1.404c-0.869-1.022-1.996-1.852-3.097-2.641c-1.493-1.075-3.118-1.988-3.542-4.005
	c-0.039-0.17-0.252-0.427-0.397-0.436c-2.327-0.153-2.507-2.464-3.61-3.759c-2.165-2.538-4.065-5.331-6.598-7.535
	c-2.563-2.232-6.054-3.157-8.295-5.779c-1.187-1.398-3.031-2.205-4.065-3.583c-2.5-3.329-4.979-6.675-7.475-10.006
	c-0.284-0.379-0.642-0.703-1.113-1.205c-0.673,0.422-1.424,0.763-2.008,1.286c-4.648,4.175-11.854,0.951-15.512-3.037
	c-2.235-2.439-2.973-5.501-3.331-8.642c-0.099-0.859,0.482-1.823,0.85-2.696c0.579-1.378,1.241-2.722,1.942-4.242
	c-1.16,0.729-1.958,1.653-2.293,2.751c-0.715,2.334-1.844,4.507-1.948,7.064c-0.543,12.95,5.786,23.366,14.135,32.879
	c4.869,5.554,9.949,10.928,14.908,16.409c1.051,1.165,1.919,2.491,2.958,3.667c0.948,1.074,1.121,2.265,0.971,3.62
	c-0.109,0.974-0.525,1.621-1.352,2.144c-2.306,1.459-4.566,2.985-6.843,4.484c-0.174,0.113-0.329,0.266-0.514,0.338
	c-5.854,2.224-11.969,6.601-16.904,10.385c-0.706,0.538-1.426,1.06-2.181,1.525c-1.433,0.884-3.035-0.615-2.179-2.135
	C120.854,95.652,121.073,95.329,121.426,94.769C120.771,94.769,121.073,95.329,121.426,94.769z M12.729,137.345
	c-0.615,0-1.233-0.023-1.848,0.006c-1.61,0.078-1.697,0.223-1.784,1.787c-0.178,3.271-1.071,5.989-0.031,9.267
	c0.212,0.674,0.582,1.255,1.479,1.097c1.812-0.324,3.622-0.668,5.444-0.923c3.284-0.455,15.869-6.9,7.683-9.802
	C20.116,137.515,16.371,137.842,12.729,137.345C12.115,137.345,16.371,137.842,12.729,137.345z M124.924,13.974
	c-1.868,1.908-2.425,4.167-2.979,6.403c-0.118,0.468,0.13,1.075,0.327,1.572c1.379,3.459,3.862,5.906,7.164,7.524
	c2.782,1.364,6.388,0.503,8.59-2.066C134.013,22.715,129.719,18.265,124.924,13.974C123.056,15.882,129.719,18.265,124.924,13.974z
	 M25.112,172.478c0.496,2.239,0.916,4.378,1.455,6.485c0.479,1.879,1.363,2.531,3.25,2.41c5.49-0.356,8.813-1.725,10-7.323
	c0.625-2.918-8.054-2.246-9.616-2.073C28.159,172.201,27.068,171.319,25.112,172.478C25.608,174.717,26.328,171.758,25.112,172.478z
	 M26.345,101.573c-0.301-1.514-1.254-2.144-2.424-2.708c-2.126-1.023-9.701-4.091-11.341-1.341
	c-1.332,2.228-1.692,4.588-1.064,7.108c0.219,0.876,0.715,1.468,1.628,1.636C17.692,107.07,23.335,105.118,26.345,101.573
	C26.043,100.06,26.067,101.9,26.345,101.573z M66.367,212.819c3.292-2.025,6.715-3.482,8.949-6.502
	c-0.608-0.921-1.328-1.201-2.214-1.088c-2.081,0.26-11.06-0.142-8.859,4.104C64.86,210.525,65.634,211.632,66.367,212.819
	C69.658,210.794,65.634,211.632,66.367,212.819z M7.616,108.332c-0.07-1.559,0.703-4.05,0.116-5.438
	c-0.52-1.215,0.373-4.247,0.521-5.456c-2.245,3.442-2.258,6.782-1.726,10.195C6.616,108.199,6.902,108.714,7.616,108.332
	C7.569,107.294,6.902,108.714,7.616,108.332z M22.597,175.65c-0.163-0.013-0.326-0.024-0.49-0.036
	c0.056,1.183-0.259,5.472,1.594,5.713C24.099,179.229,23.238,177.458,22.597,175.65C22.435,175.638,23.238,177.458,22.597,175.65z
	 M4.148,147.004c0-2.349,0-4.282,0-6.244C3.156,143.479,3.131,144.354,4.148,147.004z M58.603,207.31
	c0.712-0.789,0.712-0.789,0.339-1.904C58.829,206.037,58.715,206.673,58.603,207.31z M59.954,208.295
	c-0.149,0.229-0.328,0.384-0.311,0.511c0.021,0.162,0.205,0.303,0.319,0.454C60.396,208.983,60.393,208.661,59.954,208.295
	C59.805,208.523,60.111,208.563,59.954,208.295z"/>
</svg>
