<svg class="hand" version="1.1" id="Layer_1" xmlns="http://www.w3.org/2000/svg" xmlns:xlink="http://www.w3.org/1999/xlink" x="0px" y="0px"
	 width="280px" height="280px" viewBox="0 0 280 280" enable-background="new 0 0 280 280" xml:space="preserve">
	<path id="background" fill="none" d="M277.14,176.2l-9.569-80.85V95.3l-0.04-0.31c-0.21-1.21-1.2-2.01-3.021-1.41c-0.04,0.02-0.09,0.03-0.14,0.05
		c-0.11,0.04-0.2,0.07-0.25,0.08c-0.01,0.01-0.01,0.01-0.021,0.01c-0.069,0.03-0.08,0.03-0.08,0.03
		c-7.859,2.75-18.989,4.27-27.289,3.88c-4.591-0.22-8.771-2.2-13.461-2.13c-4.789,0.08-10.789,3.91-15.27,2.7
		c-1.35-0.36-8.01,1.83-8.77,2.84c-1.99,2.65-10.79-0.12-13.631-0.26c-10.619-0.51-21.489-0.64-32.06,0.52
		c-9.36,1.03-17.55,2.03-26.01,6.39c-9.07,4.66-16.38,13.79-25.85,17.19c-18.95,6.81-39.95,3.11-59.22,1.14
		c-3.38-0.34-8.68-1.96-11.4,0.93c-2.75,2.92-1.99,9.91-1.87,13.58c0.29,8.81,6.49,18.22,14.58,22.02
		c8.19,3.851,14.82,4.99,23.87,3.891c9.58-1.171,19.3-2.36,28.81-3.771c6.86-1.03,17.41,1.29,13.6,10.311
		c-1.54,3.659-1.91,5.89-5.45,8.25c-4.18,2.779-8.76,4.84-13.04,7.439c-3.76,2.271-7.4,4.74-11.32,6.72c-3.47,1.75-6.21-0.3-10-0.68
		c-11.03-1.09-22.2-3.12-33.32-2.06c-6.78,0.649-16.19,2.3-22.21,5.56c-6.13,3.3-10.24,10.89-12.18,17.26
		C1.75,217.99-0.88,230,2.86,231.14c6.36,1.931,12.98,2.551,19.56,2.551c-3.42,8.35-8.62,17.29-7.77,26.63
		c0.64,7.06,8.58,13.81,15.57,12.97c6.89-0.82,13.36-10.19,17.11-15.26c4.69-6.32,11.89-14.42,20.62-14.25
		c1.71,3.68,3.44,4.62,6.88,6.59c3.29,1.88,5.73,4.82,9,6.86c3.88,2.43,8.43,1.72,12.13,3.779c1.61,0.9,0.95,2.59,1.28,4.08
		c0.46,2.101,1.72,3.87,2.77,5.71c1.79,3.13,5.59,1.92,8.58,2.15c5.29,0.399,10.58,0.63,15.88,0.95c9.69,0.59,19.11,0.14,28.709-1.71
		c4.67-0.891,8.16-0.271,12.17-3.021c4.061-2.78,7.971-5.79,11.561-9.16c7.12-6.67,14.5-13.359,21.32-20.31
		c6.829-6.96,14.27-14.04,20.02-21.92c6.54-8.971,12.51-18.58,19.6-27.12c0.57,0.33,1.021,0.58,1.19,0.67
		c7.26-3.79,14.58-5.82,22.59-7.51c3.76-0.79,7.47-1.811,11.23-2.62C276.17,180.47,280.67,180.57,277.14,176.2z M38.43,152.34
		c-0.02-0.06-0.04-0.12-0.06-0.18c0.04,0.04,0.08,0.08,0.13,0.109c0.01,0.04,0.03,0.07,0.04,0.101
		C38.5,152.36,38.47,152.35,38.43,152.34z M133.51,268.9c0.01-0.2,0.01-0.41,0.01-0.61h3.16
		C135.68,269.41,134.59,269.05,133.51,268.9z M139.09,207.47c0.02-0.01,0.04-0.029,0.05-0.029c0.18-0.15,0.37-0.28,0.54-0.421
		c0.16,0.15,0.28,0.25,0.39,0.351C139.74,207.99,139.41,208.02,139.09,207.47z M198.55,232.2c0.01-1.55,1.25-2.141,1.79-3.11
		c1.61-1.2,3.22-2.399,4.771-3.56C204.37,227.47,202.51,229.4,198.55,232.2z"/>
	<path id="outline" fill-rule="evenodd" clip-rule="evenodd" d="M264.367,93.626c-7.873,2.821-19.215,4.406-27.64,4.004
		c-4.589-0.219-8.766-2.205-13.454-2.126c-4.795,0.08-10.795,3.911-15.27,2.697c-1.354-0.365-8.016,1.825-8.776,2.842
		c-1.986,2.652-10.785-0.123-13.629-0.259c-10.621-0.516-21.486-0.648-32.062,0.517c-9.359,1.031-17.549,2.032-26.01,6.387
		c-9.064,4.666-16.375,13.79-25.846,17.193c-18.95,6.811-39.953,3.105-59.22,1.14c-3.383-0.345-8.683-1.961-11.399,0.928
		c-2.751,2.926-1.993,9.909-1.871,13.582c0.292,8.808,6.485,18.22,14.582,22.023c8.188,3.846,14.823,4.982,23.867,3.884
		c9.581-1.163,19.299-2.352,28.807-3.771c6.869-1.025,17.411,1.291,13.607,10.31c-1.543,3.66-1.916,5.896-5.456,8.253
		c-4.175,2.779-8.755,4.843-13.04,7.438c-3.754,2.274-7.397,4.746-11.32,6.728c-3.465,1.75-6.202-0.306-9.995-0.681
		c-11.031-1.092-22.206-3.124-33.321-2.062c-6.778,0.646-16.192,2.302-22.215,5.556c-6.121,3.307-10.232,10.892-12.18,17.26
		c-0.771,2.521-3.407,14.529,0.335,15.67c6.358,1.938,12.98,2.553,19.563,2.553c-3.42,8.346-8.626,17.287-7.775,26.628
		c0.643,7.058,8.583,13.81,15.573,12.974c6.89-0.824,13.362-10.195,17.109-15.257c4.685-6.328,11.884-14.422,20.616-14.259
		c1.713,3.688,3.445,4.623,6.886,6.592c3.282,1.879,5.728,4.821,8.997,6.865c3.881,2.427,8.429,1.719,12.132,3.781
		c1.609,0.896,0.949,2.582,1.277,4.078c0.46,2.102,1.724,3.873,2.77,5.704c1.793,3.138,5.594,1.928,8.578,2.157
		c5.297,0.401,10.585,0.623,15.887,0.947c9.686,0.59,19.111,0.135,28.709-1.709c4.668-0.896,8.154-0.267,12.169-3.018
		c4.06-2.782,7.966-5.799,11.56-9.166c7.114-6.666,14.499-13.359,21.323-20.311c6.821-6.962,14.263-14.035,20.016-21.918
		c6.537-8.97,12.51-18.578,19.598-27.118c0.577,0.327,1.018,0.579,1.193,0.674c7.262-3.792,14.583-5.82,22.589-7.514
		c3.762-0.796,7.472-1.812,11.229-2.625c3.315-0.722,7.815-0.624,4.284-4.999c-12.319,2.501-24.717,4.827-36.534,9.055
		c1.026-3.182,2.442-5.887,1.65-8.861c-4.04-0.189-4.776,5.706-6.463,8.727c-3.083,5.521-6.667,10.757-10.536,15.756
		c-7.729,9.989-15.915,19.321-24.904,28.188c0.005,0,0.005-0.005,0.008-0.005c-0.008,0.016-0.019,0.027-0.026,0.038
		c1.613-1.202,3.226-2.407,4.771-3.561c-0.738,1.938-2.599,3.869-6.56,6.666c0.008-1.545,1.247-2.138,1.788-3.105
		c-0.02,0.016-0.038,0.027-0.058,0.043c0.027-0.027,0.051-0.049,0.076-0.076c-3.652,2.388-5.813,6.127-8.515,9.516
		c-3.401,4.27-7.472,7.786-11.446,11.502c-6.94,6.488-13.274,13.893-23.025,15.954c-9.97,2.116-20.049,0.93-30.201,1.159
		c-4.834,0.11-9.495,1.228-14.37,1.076c-6.772-0.211-8.531-1.565-12.788-6.664c6.184-0.998,12.542-0.268,18.803-0.985
		c6.554-0.751,13.082-1.551,19.586-2.655c7.711-1.309,25.852-3.117,24.958-14.351c-2.783,0.25-4.713,1.876-6.883,3.622
		c-3.478,2.782-6.713,2.604-10.599,4.143c-4.197,1.657-8.712,2.123-13.164,2.576c-4.661,0.476-9.076,2.078-13.778,2.479
		c-9.063,0.771-21.625,2.255-30.126-1.665c-2.662-1.223-17.524-10.509-15.367-13.47c4.704-6.456,13.239-1.42,19.081-1.587
		c9.562-0.274,18.914,0.237,28.429,1.273c9.142,0.995,20.074,0.811,28.046-4.323c3.046-1.962,15.153-13.029,5.888-13.599
		c-1.618,4.559-4.751,7.648-8.832,10.284c-1.518,0.98-5.491,2.17-7.285,2.44c-2.811,0.424-6.63-0.715-9.167,0.617
		c-1.314-1.315-5.275-0.285-6.925-0.291c-4.172-0.014-8.327-0.129-12.496-0.293c-4.838-0.19-16.56,1.737-20.526-1.262
		c5.733-4.426,11.379-8.913,16.961-13.527c6.096-5.039,12.397-6.554,19.62-9.435c3.254-1.298,6.428-3.453,10.074-3.274
		c3.227,0.158,5.199,0.863,7.846-1.739c2.585-2.541,2.325-6.592,4.599-9.389c2.4-2.947-1.688-4.928-3.739-2.65
		c-3.302,3.698-8.759,7.211-13.27,9.643c-3.081,1.661-6.312,3.148-9.647,4.226c-2.992,0.966-6.315,0.027-8.909,1.958
		c-6.544,4.893-12.778,10.437-19.795,14.645c-3.096,1.856-16.176,10.921-19.593,8.399c-2.42,1.385-7.07,5.613-9.922,3.633
		c0.477,3.878-10.61,8.159-13.53,10.307c-0.177-3.529-3.898-6.281-6.991-7.403c-5.13-1.872-7.851-0.562-11.491,3.433
		c-2.922,3.206-5.588,6.609-8.745,9.602c-3.344,3.174-1.461,6.22-1.945,9.879c-5.098-5.113-0.896-15.038,1.764-20.388
		c3.757-7.556,9.818-13.979,15.927-19.688c5.417-5.063,12.038-8.559,18.264-12.533c3.124-1.994,5.527-1.282,8.791-2.599
		c4.123-1.663,7.868-3.704,11.777-5.785c6.875-3.66,13.299-6.535,19.7-11.121c2.411-1.728,7.061-5.971,10.208-5.777
		c3.775,0.229,4.364-2.111,5.483-5.332c2.747-7.9,5.816-15.902,9.557-23.389c1.173-2.35,0.617-6.697-2.735-3.973
		c-2.657,2.156-4.234,7.357-6.18,10.262c-12.411-10.534-31.001-2.824-44.781-0.157c-6.237,1.207-10.927,1.026-16.961-0.769
		c-4.267-1.27-12.457-4.36-13.451-9.24c-0.036-0.012-0.07-0.022-0.106-0.035c-0.027-0.057-0.041-0.117-0.066-0.178
		c-3.957-2.8-8.242-21.378-1.819-21.651c-0.327,7.3-1.246,14.667,1.819,21.651c0.049,0.038,0.085,0.079,0.137,0.114
		c0.007,0.038,0.028,0.063,0.036,0.099c10.356,3.197,18.98,2.312,29.17-1.195c4.266-1.46,4.31-5.267,3.928-9.05
		c-0.195-1.932-0.391-3.907-1.142-5.721c-0.595-1.436-2.368-2.508-2.368-3.981c8.237-1.558,16.824-0.871,25.109-2.157
		c3.929-0.606,10.826-0.779,14.011-3.298c3.62-2.876,7.111-5.915,10.806-8.696c16.417-12.357,34.352-13.661,54.167-13.909
		c8.603-0.108,17.176,0.216,25.729,0.556c5.03,0.2,5.756,1.109,10.284-1.224c3.665-1.889,10.909-0.208,14.967-0.194
		c9.665,0.037,19.314-2.278,28.952-1.681c4.199,0.257,9.382-0.476,13.113-2.519C268.506,97.529,268.447,92.162,264.367,93.626
		C263.105,94.078,265.799,93.112,264.367,93.626z M133.516,268.292c1.055,0,2.108,0,3.161,0c-0.996,1.118-2.087,0.762-3.165,0.604
		C133.516,268.695,133.516,268.494,133.516,268.292C134.57,268.292,133.516,268.494,133.516,268.292z M139.089,207.466
		c0.203-0.148,0.404-0.301,0.59-0.441c0.164,0.146,0.277,0.243,0.391,0.342C139.737,207.988,139.41,208.021,139.089,207.466
		C139.292,207.317,139.234,207.607,139.089,207.466z M25.51,261.983c-4.704-4.016,3.925-10.01,6.539-13.087
		c6.52-7.673,9.781-5.253,16.598,1.031c-2.092,4.369-6.432,9.378-10.237,12.369C32.266,267.129,31.437,267.048,25.51,261.983
		C23.381,260.166,26.598,262.913,25.51,261.983z M29.455,224.601c0.269,1.895-4.213,5.497-5.3,6.739
		c-1.994-3.502-11.273-2.526-14.776-2.876c-4.699-0.473-2.018-12.589-0.749-15.116c2.243-4.473,7.384-1.48,10.867-0.399
		C27.313,215.373,28.277,216.248,29.455,224.601C29.526,225.1,29.081,221.946,29.455,224.601z M52.562,198.396
		c6.327,0.182,12.808,0.243,19.072,1.172c-1.314,1.595-4.863,4.252-7.173,3.915c-3.286-0.468-7.117,2.493-9.852,3.929
		c-7.609,3.994-14.291,8.403-21.25,13.374c-0.885-4.879-0.895-9.253-5.927-11.534c-4.708-2.146-11.134-1.847-15.8,0
		c-0.42-5.458,10.557-8.404,14.377-9.501C34.258,197.387,44.074,198.154,52.562,198.396C58.04,198.553,47.998,198.266,52.562,198.396
		z M43.627,130.22c5.47,0.586,11.486,0.645,16.822,1.989c3.482,0.881,6.167,5.945,7.337,9.114c4.456,12.068-20.378,9.03-25.716,8.782
		C40.104,146.785,36.401,129.446,43.627,130.22C47.744,130.661,41.131,129.953,43.627,130.22z"/>
</svg>
