<svg class="hand" version="1.1" id="Layer_1" xmlns="http://www.w3.org/2000/svg" xmlns:xlink="http://www.w3.org/1999/xlink" x="0px" y="0px"
	 width="280px" height="280px" viewBox="0 0 280 280" enable-background="new 0 0 280 280" xml:space="preserve">
<path id="background" fill="none" d="M279.65,103.26c-0.62-1.08-1.591-1.26-2.801-1.09c-2.76,0.37-5.52,0.71-8.3,0.9
	c-12.54,0.85-26.46,2.72-38.97,1.52c-3.83-0.37-7.73-0.03-11.58-0.32c-2.27-0.17-4.59-0.71-6.7-1.56c-2.79-1.11-5.39-2.7-8.08-4.06
	c-14.279-7.23-27.779-15.03-41.359-23.51c-1.11-0.7-2.141-1.56-3.29-2.17c-4.2-2.21-8.49-4.26-12.74-6.37
	c-4.15-2.06-9.16-3.29-12.87-6.08c-3.85-2.92-12.13-6.39-16.97-5.94c-0.29,0.02-0.59-0.15-0.9-0.2c-4.76-0.87-9.28-2.55-13.68-4.45
	c-5.75-2.48-11.34-5.34-16.99-8.05c-3.41-1.64-8.56-3.06-11.38-5.57c-1.58-1.41-2.76-1.88-4.93-1.42c-1.64,0.35-3.61-0.55-5.37-1.11
	c-4.67-1.48-9.15-4.73-13.97-5.54c-3.15-0.53-6.02-0.54-8.1,2.42c-0.44,0.62-1.17,1.02-1.64,1.62c-1.23,1.6-1.52,3.19-2.35,4.94
	c-0.81,1.67-0.68,3.3-0.05,4.96c0.52,1.38,1.06,2.75,1.49,4.16c0.75,2.41,1.87,4.58,3.63,6.41c0.52,0.54,1.02,1.08,1.53,1.63
	c0.06,0.06,0.12,0.13,0.18,0.19c-0.06,0.18-0.11,0.37-0.17,0.56c-1.29,0.1-2.61,0.09-3.88,0.32c-2.3,0.43-4.19-0.3-6.13-1.5
	c-3.13-1.95-6.42-3.65-9.65-5.44c-2.68-1.49-6.44-1.84-9.37-2.72c-1.44-0.43-2.59-0.1-3.63,0.87c-1.31,1.21-2.68,2.37-3.92,3.64
	c-1.02,1.04-2.12,2.11-2.8,3.37c-1.28,2.38-2.05,4.94-2.6,7.64c-1.27,6.14,1.42,10.84,4.91,15.35c0.15,0.18,0.34,0.33,0.53,0.46
	c3.26,2.18,6.25,4.85,10.4,5.4c1.6,0.22,1.63,0.53,1.61,2.17c-0.01,0.69,0.05,1.4,0.24,2.06c0.41,1.49,0.8,3,1.44,4.4
	c1.02,2.24,1.93,4.64,3.45,6.52c10.75,13.27,28.96,21.76,43.42,30.33c10.23,6.07,18.7,14.19,28.25,21.14
	c3.19,2.33,6.59,4.37,9.9,6.54c7.21,4.721,13.89,9.811,18.75,17.07c1.84,2.76,3.54,5.6,5.27,8.35c-1.75,2.91-5.02,3.271-7.74,4.811
	c-4.79,2.74-9.83,4.91-15.03,6.74c-3.8,1.34-7.44,4.06-11.01,5.939c-4.23,2.23-8.15,4.73-10.56,9.09
	c-5.24,9.511-8.07,18.12-8.81,28.94c-0.28,4.11,1.58,10.02,6.44,10.42c2.46,0.21,5.12-0.17,7.4-1.5c1.45-0.86,2.73-2.11,4.28-2.71
	c3.35-1.28,6.52-2.87,9.42-4.93c2.64-1.881,5.23-3.851,7.32-6.4c1.8-2.2,3.76-4.27,5.33-6.04c4.1-0.53,7.84-2.13,11.94-2.67
	c0.92-0.12,1.86-0.271,2.71-0.63c4.76-2.03,9.95-2.83,14.65-5.13c3.529-1.73,7.279-3.011,10.92-4.521
	c1.04-0.43,1.939-0.43,3.08-0.04c6.279,2.15,13.779,0.44,20.199-0.41c8.391-1.1,16.061-2.939,24.061-5.68
	c2.55-0.88,5.21-1.7,7.479-3.09c3.57-2.18,6.761-4.94,9.33-8.3c1.54-2,2.891-1.86,5.08-2.66c14.03-5.21,31.08-7.061,45.99-5.7
	c1.37,0.12,3.12-0.59,2.18-2.36l5.32-78.24L279.65,103.26z M24.79,73.06C24.5,73.59,24.35,72.79,24.79,73.06L24.79,73.06z
	 M33.13,71.48c0.14,0.02,0.36,0.09,0.69,0.28C33.31,72.26,32.57,71.39,33.13,71.48z"/>
<path id="outline" fill-rule="evenodd" clip-rule="evenodd" d="M43.28,54.38c-0.25-0.21,0.13,0.34,0.18,0.19C43.4,54.51,43.34,54.44,43.28,54.38z
	 M279.65,103.26l-0.19,2.77C280.15,105.35,280.26,104.32,279.65,103.26z"/>
<path id="outline" fill-rule="evenodd" clip-rule="evenodd" d="M121.43,94.77C120.77,94.77,121.07,95.33,121.43,94.77L121.43,94.77z"/>
<path id="outline" fill-rule="evenodd" clip-rule="evenodd" d="M43.46,54.568c-0.569-0.606-1.132-1.222-1.712-1.821
	c-1.76-1.826-2.879-4.002-3.625-6.41c-0.436-1.404-0.976-2.777-1.493-4.154c-0.628-1.665-0.755-3.292,0.046-4.96
	c0.835-1.749,1.122-3.341,2.356-4.946c0.465-0.602,1.201-1.001,1.636-1.62c2.085-2.956,4.949-2.949,8.101-2.417
	c4.819,0.815,9.301,4.061,13.975,5.543c1.754,0.558,3.725,1.455,5.365,1.106c2.169-0.461,3.352,0.011,4.935,1.422
	c2.816,2.507,7.97,3.933,11.379,5.569c5.65,2.713,11.24,5.565,16.989,8.048c4.4,1.898,8.92,3.577,13.678,4.449
	c0.305,0.056,0.612,0.225,0.904,0.199c4.839-0.448,13.116,3.029,16.967,5.949c3.712,2.79,8.722,4.018,12.864,6.072
	c4.253,2.109,8.543,4.163,12.743,6.376c1.155,0.61,2.178,1.473,3.293,2.17c13.578,8.474,27.078,16.283,41.359,23.511
	c2.69,1.361,5.292,2.946,8.081,4.06c2.11,0.843,4.432,1.384,6.699,1.558c3.847,0.293,7.744-0.051,11.579,0.319
	c12.505,1.204,26.433-0.667,38.965-1.523c2.779-0.19,5.548-0.528,8.306-0.901c1.205-0.162,2.177,0.018,2.795,1.098
	c0.953,1.659,0.154,3.251-1.874,3.517c-1.915,0.251-3.858,0.337-5.791,0.373c-7.819,0.141-15.589,0.22-23.4,0.676
	c-0.51,0.03-1.011,0.24-1.495,0.714c3.655,0.175,7.304,0.415,10.964,0.503c3.587,0.088,7.18,0.02,10.797,0.171
	c-0.487,0.047-0.979,0.145-1.467,0.138c-12.321-0.197-24.633-0.221-36.954-0.307c-3.49-0.023-8.912-1.351-12.175,0.092
	c-1.015,0.447-1.957,0.489-2.896-0.027c-1.351-0.748-2.626-1.648-4.009-2.328c-10.962-5.372-21.909-10.457-32.438-16.651
	c-6.653-3.965-13.261-8.014-19.983-11.858c-3.149-1.8-6.543-3.163-9.782-4.81c-1.13-0.574-2.087-1.496-3.203-2.098
	c-1.128-0.61-2.386-0.981-3.554-1.532c-3.498-1.654-6.981-3.346-10.473-5.023c-0.907-0.435-1.843-0.817-2.716-1.308
	c-9.759-5.49-21.484-5.938-31.503-10.853c-9.17-4.5-18.499-8.783-28.003-12.522c-0.498,2.065-0.927,3.857-1.362,5.646
	c-0.612,2.52-2.383,4.314-3.98,6.196c-0.304,0.356-0.945,0.599-1.43,0.596c-1.539-0.01-3.132,0.075-4.598-0.301
	c-6.305-1.621-18.26-6.718-14.339-15.226c0.504-1.1,1.024-2.194,1.578-3.376c-1.644-0.72-2.439,0.263-3.155,1.072
	c-0.713,0.802-1.44,1.725-1.735,2.721c-0.311,1.046-0.33,2.288-0.094,3.36c0.363,1.646,1.018,3.234,1.624,4.818
	c0.242,0.64,0.562,1.337,1.054,1.782c2.464,2.231,4.919,4.485,7.551,6.51c0.812,0.623,2.16,0.7,3.272,0.742
	c1.621,0.061,3.254-0.086,4.874-0.24c1.136-0.108,2.249-0.491,3.384-0.553c3.587-0.2,7.014-1.319,10.778-0.853
	c3.737,0.462,6.778,1.984,9.829,3.811c5.626,3.363,12.096,5.236,18.167,7.629c2.734,1.079,5.415,2.31,8.233,3.165
	c3.141,0.954,6.93,0.437,9.883,1.966c12.209,6.298,23.926,13.739,36.432,19.398c0.618,0.281,1.346,0.536,1.742,1.03
	c0.308,0.38,0.349,1.178,0.169,1.664c-0.11,0.294-0.873,0.503-1.331,0.484c-2.444-0.097-4.658-1.059-6.815-2.087
	c-8.107-3.858-16.174-8.304-23.88-12.906c-3.882-2.316-7.908-4.202-12.506-4.569c-0.919-0.074-1.855-0.277-2.719-0.594
	c-4.353-1.596-8.686-3.249-13.023-4.88c-0.507-0.191-1.021-0.37-1.519-0.577c-3.566-1.487-7.124-2.995-10.701-4.463
	c-1.287-0.528-2.603-0.985-3.919-1.443c-1.822-0.636-3.674-1.2-5.485-1.873c-4.924-1.831-11.211-0.716-16.323-0.396
	c-5.428,0.34-10.884,0.014-16.294,0.556c3.338,2.391,6.867,3.36,10.123,4.883c2.52,1.176,5.053,2.324,7.586,3.466
	c10.947,4.932,22.09,9.312,33.216,13.816c5.96,2.411,11.914,4.83,17.838,7.326c12.032,5.069,23.88,10.014,36.305,14.078
	c1.849,0.604,10.393,1.911,10.562,4.176c-1.581,1.357-3.512,1.302-5.396,0.868c-4.682-1.074-9.296-2.363-13.785-4.106
	c-3.316-1.286-6.798-2.15-10.104-3.459c-3.95-1.564-7.814-3.347-11.67-5.136c-8.147-3.783-16.746-6.485-25.022-9.964
	c-11.431-4.801-22.778-9.758-34.143-14.71c-4.327-1.886-8.716-3.636-13.03-5.558c-3.814-1.702-7.164-3.846-10.784-5.882
	c-0.468,2.957-0.894,5.664-1.355,8.565c-0.02-0.023,0.098,0.206,0.281,0.293c4.821,2.257,9.671,4.449,14.463,6.765
	c2.288,1.106,4.477,2.424,6.689,3.681c6.534,3.711,13.04,7.467,19.586,11.152c10.407,5.86,21.004,11.251,31.531,16.87
	c4.3,2.3,8.565,4.674,12.921,6.863c2.079,1.045,4.036,2.242,6.013,3.453c2.3,1.406,4.797,2.492,7.238,3.664
	c2.022,0.972,4.085,1.863,6.126,2.792c0.212,0.094,0.409,0.232,0.629,0.308c7.749,2.635,15.254,4.447,23.28,6.056
	c0.91,0.184,1.81,0.452,2.684,0.766c4.2,1.491,8.959,2.505,12.264,5.642c1.752,1.654-0.384,3.578-2.197,2.75
	c-2.389-1.093-4.708-2.441-7.21-3.165c-8.694-2.509-17.674-4.748-26.475-6.876c-4.526-1.1-8.451-3.419-12.457-5.582
	c-8.854-4.78-17.638-9.694-26.505-14.45c-2.866-1.535-5.903-2.744-8.86-4.109c-0.63-0.292-1.265-0.588-1.868-0.935
	c-3.888-2.232-7.754-4.5-11.648-6.717c-6.994-3.985-13.992-7.963-21.016-11.897c-3.714-2.083-7.479-4.078-11.232-6.094
	c-0.449-0.241-0.966-0.353-1.451-0.525c-0.101,0.13-0.203,0.262-0.304,0.393c1.538,1.44,3.103,2.853,4.602,4.329
	c1.941,1.906,3.443,3.979,2.418,6.955c-0.222,0.641-0.19,1.37-0.292,2.055c-0.324,2.24-1.502,3.846-3.162,5.443
	c-3.115,2.998-6.549,2.088-10.041,1.5c-4.167-0.702-7.986-2.393-12.106-4.458c0.317,0.766,0.415,1.269,0.693,1.633
	c2.023,2.668,4.431,4.952,7.076,7c2.265,1.752,4.458,3.606,6.778,5.277c1.692,1.218,3.542,2.211,5.322,3.308
	c2.173,1.337,4.34,2.682,6.516,4.014c2.632,1.61,5.315,3.137,7.894,4.83c6.607,4.334,13.252,8.627,19.72,13.164
	c4.044,2.84,7.77,6.14,11.701,9.151c5.15,3.954,10.507,7.652,15.847,11.344c1.64,1.139,3.308,2.238,4.948,3.374
	c5.262,3.64,9.95,8.985,13.733,14.115c3.962,5.372,6.424,11.577,11.575,16.058c0.615,0.536,1.218,1.289,1.4,2.049
	c0.154,0.615-0.13,1.583-0.583,2.023c-0.328,0.316-1.391,0.252-1.875-0.046c-2.789-1.738-4.834-4.553-7.004-6.959
	c-2.666,3.515-6.972,4.242-10.393,6.448c-3.826,2.458-8.231,3.555-12.306,5.422c-4.8,2.208-9.46,4.457-13.727,7.59
	c-0.369,0.275-0.647,0.701-1.047,0.907c-3.397,1.764-5.344,4.703-7.057,8.016c-2.114,4.085-3.799,8.312-4.961,12.725
	c-0.743,2.821-0.992,5.793-1.27,8.719c-0.193,2.037,0.406,3.994,1.505,5.742c0.988,1.563,2.484,2.166,4.507,1.812
	c-0.423-0.328-0.802-0.786-1.281-0.949c-1.531-0.53-2.049-1.701-2.409-3.142c-0.514-2.076,0.127-4.001,0.56-5.954
	c0.069-0.308,0.472-0.557,0.747-0.802c0.743-0.654,1.656-1.179,2.218-1.957c2.516-3.483,6.834-6.26,8.765-10.048
	c0.527-1.041,1.319-1.67,2.423-1.234c2.995,1.176,6.358,1.751,8.443,4.543c1.038,1.385,1.843,2.948,2.875,4.629
	c2.267-2.463,8.274-11.536,11.052-5.794c7.159-1.98,13.739-4.771,20.725-7.054c5.485-1.79,11.194-3.835,16.296-6.526
	c2.793-1.467,10.604-8.446,12.039-2.935c0.287,1.108,0.864,1.574,1.914,1.627c5.708,0.267,11.439,1.151,17.064-0.773
	c1.159-0.396,2.441-0.412,3.656-0.653c6.749-1.359,12.849-4.4,19.075-7.182c4.033-1.804,8.85-5.349,11.271-9.1
	c1.83-2.853,3.593-5.749,5.394-8.619c0.159-0.256,0.396-0.462,0.589-0.675c0.9,0.314,1.744,0.611,2.586,0.909
	c1.093,2.288-0.314,4.163-1.268,6.553c3.517-0.693,6.7-1.4,9.915-1.938c6.542-1.095,13.361-2.476,19.98-2.884
	c-0.507,0.102-1.018,0.2-1.525,0.305c0.01,0.072,0.016,0.145,0.026,0.217c4.085,0,8.17-0.037,12.253,0.022
	c1.516,0.022,3.645,0.192,4.471,1.744c0.938,1.772-0.813,2.475-2.179,2.356c-14.914-1.358-31.962,0.491-45.994,5.702
	c-2.19,0.798-3.54,0.656-5.076,2.664c-2.572,3.357-5.764,6.114-9.329,8.3c-2.273,1.39-4.929,2.206-7.48,3.083
	c-8.008,2.749-15.67,4.587-24.062,5.688c-6.424,0.843-13.926,2.561-20.199,0.405c-1.142-0.386-2.038-0.393-3.085,0.043
	c-3.641,1.511-7.387,2.792-10.918,4.52c-4.694,2.3-9.886,3.094-14.654,5.126c-0.841,0.359-1.79,0.517-2.704,0.635
	c-4.104,0.534-7.843,2.137-11.936,2.667c-1.574,1.771-3.536,3.839-5.334,6.039c-2.089,2.555-4.678,4.522-7.323,6.401
	c-2.899,2.062-6.068,3.652-9.416,4.932c-1.548,0.594-2.827,1.85-4.283,2.707c-2.278,1.335-4.937,1.715-7.395,1.506
	c-4.863-0.405-6.726-6.316-6.448-10.421c0.746-10.82,3.576-19.436,8.813-28.946c2.409-4.361,6.334-6.859,10.556-9.084
	c3.57-1.879,7.219-4.602,11.02-5.945c5.195-1.832,10.234-3.998,15.026-6.735c2.714-1.545,5.987-1.903,7.736-4.81
	c-1.727-2.751-3.432-5.598-5.271-8.353c-4.857-7.264-11.54-12.352-18.747-17.072c-3.313-2.166-6.706-4.213-9.9-6.54
	c-9.546-6.947-18.015-15.07-28.249-21.139c-14.455-8.574-32.672-17.061-43.421-30.335c-1.518-1.877-2.425-4.276-3.446-6.515
	c-0.638-1.396-1.027-2.914-1.446-4.398c-0.187-0.66-0.249-1.375-0.239-2.062c0.02-1.636-0.003-1.949-1.607-2.165
	c-4.146-0.557-7.135-3.222-10.401-5.405c-0.193-0.127-0.383-0.28-0.523-0.461c-3.499-4.512-6.186-9.204-4.919-15.344
	c0.557-2.702,1.322-5.266,2.609-7.647c0.68-1.262,1.773-2.325,2.795-3.368c1.244-1.273,2.608-2.428,3.918-3.636
	c1.047-0.969,2.196-1.305,3.629-0.874c2.93,0.876,6.698,1.23,9.371,2.72c3.23,1.794,6.52,3.494,9.655,5.436
	c1.938,1.2,3.827,1.933,6.127,1.509c1.273-0.235,2.589-0.226,3.885-0.328C43.349,54.94,43.405,54.754,43.46,54.568
	C42.891,53.962,43.405,54.754,43.46,54.568z M42.635,94.518c2.529-0.151,4.465,0.311,5.793-2.167
	c1.26-2.344,0.461-4.443-0.736-6.547c-1.041-1.824-2.694-3.005-4.308-4.159c-2.192-1.567-4.507-3.002-6.893-4.254
	c-3.468-1.819-4.375,3.208-5.126,5.579c-0.533,1.697-1.021,3.417-1.4,5.153c-0.546,2.514-0.127,3.414,2.294,4.235
	C35.618,93.497,38.996,94.675,42.635,94.518C43.483,94.467,38.996,94.675,42.635,94.518z M16.704,49.977
	c-0.521,1.132-1.005,2.17-1.473,3.215c-0.976,2.17-1.862,4.384-2.936,6.503c-0.801,1.583-0.831,1.948,0.625,3.042
	c0.491,0.371,0.989,0.759,1.535,1.032c1.287,0.641,13.672,7.856,13.465,2.921c-0.01-0.276,0.099-0.601,0.255-0.834
	c1.663-2.495,2.17-5.167,1.479-8.106c-0.246-1.045-0.639-1.872-1.571-2.437C24.51,53.15,20.763,51.36,16.704,49.977
	C16.184,51.109,20.763,51.36,16.704,49.977z M90.085,240.463c3.827-0.092,6.291-2.131,8.804-3.989
	c2.511-1.86,4.992-3.783,6.874-6.323c-0.605-0.979-1.237-1.709-1.545-2.554c-0.942-2.579-2.972-3.789-5.352-4.742
	c-1.015-0.406-1.826-0.319-2.566,0.324c-1.58,1.368-2.478,3.36-4.055,4.7c-2.232,1.904-3.505,4.496-5.152,6.817
	c-0.909,1.282-0.687,2.387,0.469,3.512C88.447,239.068,89.398,239.854,90.085,240.463C93.912,240.371,89.398,239.854,90.085,240.463
	z M61.523,49.151c2.387-0.19,3.365-3.178,4.105-5.042c1.011-2.557-0.318-4.981-2.989-5.662c-0.444-0.113-0.89-0.245-1.319-0.415
	c-2.867-1.147-5.721-2.324-8.598-3.451c-3.414-1.338-4.861,2.033-6.252,4.538c-0.471,0.848-0.222,1.691,0.481,2.529
	c2,2.386,4.651,3.863,7.352,5.134C56.578,47.851,59.108,48.381,61.523,49.151C62.616,49.064,59.108,48.381,61.523,49.151z
	 M24.795,73.064c-0.442-0.278-0.74-0.523-1.08-0.675c-2.399-1.07-4.867-2.002-7.194-3.21c-2.526-1.314-5.014-2.75-7.351-4.375
	c-2.072-1.441-2.341-3.502-1.054-5.721c1.767-3.056,3.872-5.484,4.507-9.105c-1.764,0.8-2.478,1.99-3.198,3.142
	c-0.733,1.178-1.28,2.486-2.104,3.592c-1.604,2.161-2.082,4.415-1.158,6.977c0.242,0.671,0.258,1.423,0.461,2.613
	c-0.487-0.645-0.645-0.853-1.004-1.332c0.164,0.756,0.13,1.293,0.376,1.626c2.361,3.212,5.215,6.13,7.501,9.364
	c1.279,1.809,3.027,2.829,5.069,3.466c1.515,0.47,1.793,0.331,2.661-0.982c0.887-1.34,1.855-2.628,2.766-3.953
	C24.285,74.065,24.5,73.589,24.795,73.064C24.353,72.786,24.5,73.589,24.795,73.064z M33.825,71.765
	c-1.633-0.902-3.005-0.146-3.966,0.921c-1.905,2.108-3.715,4.333-5.315,6.678c-2.625,3.849-2.076,8.834,1.044,12.175
	c0.098-1.412,0.197-2.479,0.245-3.551c0.108-2.48,1.329-4.588,2.331-6.747c1.23-2.658,2.599-5.256,3.997-7.831
	C32.489,72.802,33.177,72.388,33.825,71.765C32.192,70.863,33.177,72.388,33.825,71.765z M12.233,76.336
	c0.141-0.129,0.285-0.256,0.429-0.386c-1.074-1.157-2.173-2.292-3.217-3.474c-1.08-1.224-2.104-2.494-3.155-3.745
	C7.092,72.227,8.892,74.903,12.233,76.336C12.374,76.208,8.892,74.903,12.233,76.336z"/>
</svg>
