<svg class="hand" version="1.1" id="Layer_1" xmlns="http://www.w3.org/2000/svg" xmlns:xlink="http://www.w3.org/1999/xlink" x="0px" y="0px"
	 width="280px" height="280px" viewBox="0 0 280 280" enable-background="new 0 0 280 280" xml:space="preserve">
<path id="background" fill="none" d="M276.91,83.42v0.01l-14.29,75.52v0.01c0.34,0.87-0.34,1.81-2.71,2.12c-5.04,0.7-10.08,1.229-15.08,2.2
	c-8.59,1.66-20.78,2.2-27.61,8.2c0.69-0.08,1.391-0.16,2.08-0.24c-3.37,1.64-8.229,1.93-10.43,5.37
	c-2.08,3.26-3.04,7.77-4.47,11.359c-2.69,6.71-4.141,14.58-11.19,18.2c-12.85,6.6-31.479,6.86-35.61,23.16
	c-1.21,4.78-1.43,7.1-5.489,10.12c-3.311,2.46-6.75,4.689-10.23,6.899c-5.81,3.69-11.32,7.9-16.4,12.49
	c-5.42,4.891-11.25,0.93-13.54-5.31c-2.5-6.83-0.89-15.28,2.63-21.49c4.28-7.57,12.59-10.53,17.76-16.99
	c3.77-4.689,1.3-15.85-0.75-20.74c-2.76-6.609-9.98-9.199-15.7-12.75c-5.53-3.43-12.88-6.52-19.19-8.159
	c-8.59-2.221-17.47-5.46-26.39-5.71c-7.85-0.21-15.8,0.6-23.65,0.119c-7.79-0.46-16.08-0.04-23.75-0.899
	c-7.19-0.811-15.61-2.48-19.74-8.87c0-0.01-0.01-0.01-0.01-0.021c-0.04-0.05-0.07-0.109-0.11-0.17c-0.01-0.02-0.02-0.04-0.03-0.06
	c-0.03-0.04-0.05-0.08-0.08-0.12l-0.15-0.25c-0.03-0.04-0.05-0.08-0.06-0.11L2.6,157.11c-0.01-0.021-0.02-0.04-0.04-0.061
	c-3.39-6-3.83-12.39,1.77-16.94c-0.74-8.12,15.56-3.48,19.66-5.89c-0.05-0.46-0.11-0.94-0.16-1.37c1.78-1.62,6.07,0.28,8.54-0.86
	c3.6-1.67,7.56-2.25,11.32-3.46c2.83-0.9,4.57-2.61,7.21-3.76c1.42-0.62,3.26-0.72,4.57-1.54c0.51-0.62,0.95-1.28,1.33-1.99
	c11.88-8.16,25.58-14.83,39.92-17.51c16.04-2.99,31.46-0.52,47.69-1.36c16.2-0.83,31.87-1.23,48.01,0.97
	c3.66,0.5,7.16,1.24,10.65,2.47c4.37,1.55,4.229-0.43,8.16-2.11c6.029-2.58,12.319-3.89,18.699-5.24
	c13.41-2.84,26.53-7.98,38.99-13.59c2.39-1.07,5.36-3.88,7.9-4.3C279.43,80.15,278.38,81.85,276.91,83.42z"/>
<path id="outline" fill-rule="evenodd" clip-rule="evenodd" d="M22.17,182.7l0.63-0.271C22.54,182.54,22.34,182.63,22.17,182.7z"/>
<path id="outline" fill-rule="evenodd" clip-rule="evenodd" d="M2.932,157.665c4.036,6.702,12.634,8.415,19.967,9.24
	c7.676,0.864,15.961,0.443,23.754,0.902c7.844,0.482,15.796-0.33,23.651-0.114c8.914,0.245,17.792,3.488,26.383,5.71
	c6.316,1.638,13.665,4.729,19.196,8.157c5.721,3.545,12.939,6.138,15.703,12.753c2.043,4.891,4.515,16.044,0.75,20.74
	c-5.176,6.455-13.48,9.415-17.767,16.984c-3.517,6.21-5.128,14.665-2.625,21.49c2.288,6.238,8.118,10.205,13.532,5.315
	c5.09-4.598,10.6-8.799,16.405-12.491c3.477-2.211,6.92-4.44,10.227-6.902c4.059-3.021,4.282-5.341,5.494-10.122
	c4.132-16.298,22.757-16.558,35.612-23.161c7.047-3.62,8.502-11.483,11.185-18.192c1.436-3.59,2.394-8.108,4.469-11.36
	c2.201-3.449,7.068-3.73,10.434-5.375c-0.693,0.078-1.386,0.158-2.076,0.236c6.828-5.994,19.012-6.539,27.606-8.198
	c5.003-0.966,10.037-1.498,15.08-2.194c5.14-0.676,2.354-4.313-1.56-3.697c-10.358,1.605-20.44,4.016-30.702,6.035
	c-4.027,0.792-7.896,2.743-11.595,4.44c-2.312,1.06-4.613,2.143-6.914,3.226c-2.143,1.02-3.075,4.051-5.288,5.398
	c2.981,0.204-5.217,19.396-7.378,22.221c-5.656,7.393-16.994,9.028-25.214,12.08c-9.604,3.542-14.641,9.696-18.449,18.829
	c-1.444,3.463-0.87,5.408-4.329,7.858c-3.808,2.696-7.707,5.274-11.729,7.637c-1.517-3.186-7.377-12.326-10.969-5.771
	c-1.842,3.363-3.63,7.661-6.451,10.328c-3.488,3.297-1.258,4.885,1.023,8.504c-9.391-1.362-6.397-16.765-3.843-22.211
	c3.6-7.674,10.57-13.05,16.973-18.364c6.813-5.655,4.257-17.839,1.471-25.268c-2.964-7.904-13.241-13.28-20.605-16.426
	c-18.589-7.938-37.197-11.977-57.429-12.085c-9.331-0.05-18.638-0.479-27.971-0.734c-7.861-0.215-19.234-1.027-22.692-9.453
	c8.91,0.598,26.533,2.415,18.54-10.949c8.023-0.796,16.737,0.259,24.899-0.115c8.753-0.4,17.247-0.977,25.958-2.04
	c7.021-0.858,14.359-2.371,20.972-4.815c2.837-1.048,18.926-2.184,17.173-7.184c-0.658-1.863-17.266,3.43-19.037,4.351
	c-6.155,3.211-15.542,3.676-22.354,4.559c-15.133,1.961-31.517,3.089-46.73,1.15c5.75-2.515,14.208-0.353,20.498-1.382
	c7.27-1.19,14.031-3.582,21.15-5.104c6.267-1.339,11.744-4.081,17.813-6.192c7.053-2.434,15.415-3.29,22.811-4.517
	c1.104-0.183,4.46-0.25,4.033-2.295c-0.532-2.558-6.72,0.185-8.071,0.473c-7.333,1.562-14.613,1.981-21.814,4.203
	c-9.364,2.89-25.835,12.175-35.449,8.728c4.848-2.112,9.842-3.279,14.741-5.429c6.072-2.665,11.83-4.995,18.223-6.758
	c6.217-1.714,12.608-2.883,18.766-4.794c3.309-1.027,16.132-1.466,17.752-4.343c-1.642-7.281-42.376,9.55-48.384,8.208
	c3.948-3.473,10.393-5.912,15.274-7.826c5.466-2.143,11.538-4.751,17.421-5.3c13.167-1.243,25.977,0.326,39.314-0.28
	c12.798-0.6,25.727-1.592,38.549-0.786c6.866,0.432,14.277,0.911,20.877,2.956c2.431,0.756,14.258,6.187,11.425-0.318
	c6.774-3.232,13.735-4.323,20.923-6.194c7.133-1.856,16.432-3.458,22.848-7.112c6.228-3.541,13.561-5.245,19.94-8.725
	c0.446-0.243,7.062-5.973,2.499-5.228c-2.539,0.415-5.513,3.226-7.905,4.303c-12.455,5.604-25.576,10.75-38.984,13.588
	c-6.379,1.35-12.669,2.662-18.7,5.24c-3.931,1.68-3.79,3.654-8.156,2.111c-3.492-1.234-6.993-1.97-10.655-2.469
	c-16.141-2.201-31.808-1.802-48.008-0.97c-16.234,0.833-31.654-1.639-47.69,1.357c-14.34,2.679-28.042,9.347-39.92,17.513
	c-0.379,0.703-0.823,1.363-1.331,1.981c-1.308,0.827-3.149,0.926-4.569,1.543c-2.642,1.149-4.377,2.86-7.211,3.764
	c-3.758,1.206-7.716,1.786-11.321,3.455c-2.47,1.139-6.762-0.753-8.535,0.859c0.05,0.432,0.107,0.914,0.158,1.371
	c-4.106,2.416-20.403-2.232-19.661,5.895C-1.461,144.818-0.794,151.493,2.932,157.665C4.06,159.538,0.663,153.907,2.932,157.665z
	 M7.916,143.806c3.839-0.836,7.66-1.493,11.588-1.758c2.361-0.157,5.475,6.67,3.499,7.746c-2.672,1.456-9.202,1.104-12.194,0.812
	C7.607,150.293,6.917,146.594,7.916,143.806C9.486,143.464,7.223,145.739,7.916,143.806z M120.937,252.88
	c1.956-3.419,8.037-15.974,11.569-8.09c1.498,3.345-1.729,5.301-3.971,7.17C125.286,254.668,124.062,256.2,120.937,252.88
	C121.193,252.433,121.382,253.353,120.937,252.88z"/>
</svg>
