<svg class="hand" version="1.1" id="Layer_1" xmlns="http://www.w3.org/2000/svg" xmlns:xlink="http://www.w3.org/1999/xlink" x="0px" y="0px"
	 width="280px" height="280px" viewBox="0 0 280 280" enable-background="new 0 0 280 280" xml:space="preserve">
<path id="background" fill="none" d="M274.64,82.48c-0.439-0.03-0.89-0.02-1.33-0.01c-5.109,0.03-10.22,0.02-15.329,0.1
	c-10.131,0.16-20.261,0.62-30.37-0.37c-8.931-0.9-18.681,0.67-27.66,0.84c-2.26,0.05-4.37,0.11-6.12,1.78
	c-10.97-11.2-23.65-20.28-36.83-28.74c-9.93-6.36-20.02-12.5-29.79-19.09c-3.5-2.35-7.18-2.88-10.94-2.7
	c-12.33,0.57-24.08,4.02-35.67,8.02c-12.51,4.33-25,8.7-37.56,12.92c-9.18,3.08-18.22,6.51-26.1,12.26
	c-0.6,0.44-1.35,1.21-1.34,1.82c0.02,2.19-1.48,3.63-2.23,5.42C10.31,82,7.16,89.28,5.43,97.02c-2.25,10.09-3.67,20.36-3.65,30.71
	c0.01,5.3,0.38,10.65,1.84,15.87c1.59,5.66,2.77,11.44,4.12,17.17c0.61,2.57,2.53,4.221,5.26,4.091c1.71-0.091,2.48,0.54,2.81,2.08
	c2.04,9.51,2.96,18.779,8.81,26.92c2.1,2.909,5.17,2.29,8.25,1.93c2.02,4.68,3.93,9.17,5.89,13.63c0.93,2.12,1.81,4.29,2.97,6.29
	c2.02,3.49,3.42,3.78,7.4,2.37c2.28-0.811,4.66-1.3,6.89-1.91c2.9,5.47,6.82,10.26,10.3,15.37c2.39,3.52,3.99,4.09,8.11,2.74
	c3.05-1.011,6.17-1.82,9.23-2.83c3.36-1.101,6.73-2.21,10.02-3.54c6.48-2.62,12.87-5.49,19.36-8.08c4.23-1.69,8.59-3.05,12.87-4.6
	c0.72-0.261,1.84-0.65,1.95-1.15c0.95-4.63,8.95-5.36,12.56-6.18c6.39-1.44,12.93-2.24,19.48-2.45
	c13.33-0.431,23.56-3.94,30.619-14.37l3.15-3.8c0.1-0.23,0.2-0.45,0.22-0.45c0,0.01-0.01,0.07-0.04,0.17
	c-0.01,0.04-0.029,0.07-0.04,0.11c-0.88,1.89-0.04,3.34,1.83,3.399c0.65,0.03,1.32-0.16,1.98-0.22c5.75-0.54,11.49-1.48,17.24-1.55
	c16.18-0.2,32.109,1.97,47.87,5.59c2.909,0.67,6.39,0.25,6.59-3.25l7.92-105.7l0.069-0.87C277.07,83.06,275.98,82.58,274.64,82.48z
	 M201.86,139c0.029-0.1,0.06-0.19,0.09-0.28C203.62,133.8,204.48,140.69,201.86,139z M261.28,151.32c0,0.02-0.011,0.029-0.021,0.05
	c-0.029,0.07-0.06,0.13-0.09,0.18l0.12-0.27l0.04-0.061C261.32,151.25,261.3,151.29,261.28,151.32z"/>
<path id="outline" fill-rule="evenodd" clip-rule="evenodd" fill="#FFFFFF" d="M277.31,84.51l-0.069,0.87
	C277.33,85.08,277.35,84.78,277.31,84.51z"/>
<path id="outline" fill-rule="evenodd" clip-rule="evenodd" fill="#FFFFFF" d="M193.89,186.83c0,0.01-0.01,0.07-0.04,0.17
	c-0.01,0.04-0.029,0.07-0.04,0.11c-0.479,1.04-0.31,0.569-0.14,0.17C193.77,187.05,193.87,186.83,193.89,186.83z"/>
<path id="outline" fill-rule="evenodd" clip-rule="evenodd" fill="#FFFFFF" d="M261.33,151.22c-0.01,0.03-0.03,0.07-0.05,0.101
	c0-0.011,0.01-0.021,0.01-0.04L261.33,151.22z"/>
<path id="outline" fill-rule="evenodd" clip-rule="evenodd" fill="#FFFFFF" d="M261.44,151C261.56,150.75,261.57,150.74,261.44,151L261.44,151z"
	/>
<path id="outline" fill-rule="evenodd" clip-rule="evenodd" d="M56.893,111.039c-8.172,1.407-19.377,3.504-25.436,9.653
	c-0.323,0.324-1.136,0.592-1.439,0.416c-0.492-0.296-1.133-1.093-1.032-1.492c0.327-1.241,0.729-2.616,1.551-3.541
	c4.059-4.564,8.966-6.006,14.75-7.122c-0.357-1.575-0.354-3.09-1.006-4.23c-3.367-5.856-6.504-10.761-11.639-15.131
	c1.464-4.606,6.596-0.729,8.342,1.599c3.811,5.095,6.831,10.718,9.808,16.319c1.366-0.263,3.085-0.557,4.779-0.945
	c0.752-0.169,1.467-0.771,2.191-0.757c2.89,0.057,4.022-1.87,5.057-4.075c0.492-1.05,0.492-1.858,0.147-3.063
	c-0.521-1.842-0.386-3.924-0.255-5.894c0.133-1.974,0.878-3.929-0.364-5.823c-0.19-0.288-0.136-0.846-0.009-1.21
	c0.427-1.212-0.137-1.93-1.13-2.435c-1.696-0.864-2.192-2.335-1.459-3.91c0.4-0.848,1.486-1.694,2.411-1.911
	c1.599-0.379,3.923,1.037,4.246,2.507c0.7,3.174,0.364,8.215,2.344,10.894c0.822-1.363,1.78-2.662,2.439-4.101
	c2.198-4.849,4.311-9.742,6.413-14.639c0.872-2.038,2.037-3.671,4.413-4.105c1.956,1.508,1.484,3.52,0.867,5.208
	c-1.115,3.006-2.592,5.875-3.959,8.782c-1.136,2.416-2.263,4.836-3.514,7.19c-0.883,1.654-2.015,3.172-2.965,4.791
	c-1.751,2.968-3.455,5.959-5.16,8.953c-2.246,3.938-4.503,7.869-6.694,11.838c-1.472,2.667-2.353,5.424-1.974,8.615
	c0.665,5.569-0.41,12.35,2.171,17.492c0.51-0.794,0.998-1.612,1.545-2.383c1.725-2.439,3.295-5.028,5.288-7.228
	c1.214-1.331,3.002-2.27,4.706-2.989c2.183-0.929,4.266-0.428,6.217,1.09c6.684,5.208,8.898,14.312,11.31,21.966
	c-7.464,6.235-16.544,7.035-25.173,9.127c0.412,3.41,1.023,3.89,4.049,3.148c4.701-1.153,9.305-2.72,13.694-4.766
	c3.541-1.65,10.055-4.163,12.185-7.651c2.872-4.747,6.101-9.371,6.271-15.236c0.093-3.435,0.204-6.884,0.168-10.322
	c-0.053-5.636-2.504-10.774-5.276-15.548c-1.894-3.269-5.189-8.528-1.574-11.82c2.011,0.132,2.482,1.763,3.269,3.048
	c1.547,2.528,3.083,5.061,4.623,7.584c2.697-0.939,3.679-3.139,5.37-4.504c4.731-3.816,8.403-8.828,13.784-11.942
	c2.667-1.546,5.03-3.619,7.597-5.363c0.808-0.549,1.789-1.042,2.729-1.127c0.743-0.066,1.881,0.329,2.228,0.898
	c1.38,2.243-2.304,4.502-3.604,5.526c-4.3,3.348-8.729,6.523-12.905,10.007c-4.364,3.652-8.152,7.96-12.489,11.671
	c0.793,4.972,1.491,10.357,2.571,15.664c0.334,1.636,1.666,3.078,2.597,4.573c6.12,9.828,14.658,16.872,25.119,21.641
	c1.594,0.719,3.379,1.147,5.123,1.396c4.802,0.701,17.304-0.695,22.285-3.909c2.327-1.504,4.482-3.275,6.688-4.964
	c2.905-2.225,4.621-3.959,8.299-2.668c-0.273,0.784-0.312,1.851-0.856,2.316c-5.846,5-11.658,10.372-19.184,12.445
	c-8.74,2.405-17.778,3.471-26.528-0.405c-2.322-1.029-4.488-2.457-6.608-3.882c-3.396-2.299-6.691-4.746-10.243-7.275
	c-1.772,3.907-1.481,9.938-2.245,14.212c4.528,1.417,5.076,6.466,5.516,10.569c0.355,3.408,0.761,6.843,0.723,10.26
	c-0.02,2.097,0.614,3.778,1.922,5.137c4.011,4.164,6.412,9.239,8.729,14.93c1.707-0.691,3.365-1.673,5.15-2.021
	c5.546-1.071,11.083-2.271,16.769-2.5c5.992-0.253,11.999-0.471,17.972-1.034c6.557-0.614,12.233-3.135,16.04-8.878
	c1.227-1.854,4.278-8.96,7.302-7.585c2.105,0.945,1.641,3.681,0.786,5.296c-7.071,13.294-18.029,17.555-32.826,18.034
	c-6.55,0.207-13.083,1.001-19.476,2.447c-3.614,0.817-11.608,1.55-12.565,6.18c-0.101,0.503-1.222,0.894-1.942,1.146
	c-4.284,1.556-8.64,2.915-12.875,4.602c-6.491,2.594-12.875,5.461-19.361,8.083c-3.285,1.325-6.657,2.435-10.021,3.538
	c-3.054,1.011-6.175,1.823-9.231,2.825c-4.117,1.358-5.714,0.78-8.108-2.736c-3.478-5.11-7.402-9.899-10.295-15.37
	c-2.229,0.606-4.616,1.103-6.892,1.912c-3.98,1.409-5.377,1.118-7.399-2.369c-1.161-1.997-2.04-4.168-2.97-6.289
	c-1.958-4.458-3.867-8.948-5.888-13.632c-3.086,0.361-6.157,0.983-8.249-1.927c-5.853-8.146-6.771-17.413-8.812-26.925
	c-0.334-1.536-1.1-2.169-2.812-2.082c-2.733,0.137-4.65-1.517-5.257-4.089c-1.355-5.728-2.533-11.508-4.119-17.171
	c-1.466-5.223-1.831-10.564-1.84-15.868c-0.02-10.354,1.398-20.615,3.649-30.714c1.724-7.738,4.877-15.013,7.935-22.288
	c0.749-1.792,2.251-3.23,2.23-5.414c-0.005-0.611,0.745-1.384,1.337-1.819c7.882-5.751,16.92-9.184,26.107-12.268
	c12.554-4.213,25.048-8.591,37.561-12.917c11.59-4.003,23.332-7.446,35.663-8.021c3.76-0.174,7.443,0.347,10.939,2.702
	c9.776,6.594,19.866,12.729,29.795,19.09c13.175,8.461,25.863,17.542,36.831,28.735c1.743-1.666,3.854-1.73,6.113-1.772
	c8.988-0.171,18.732-1.745,27.661-0.841c10.113,0.987,20.241,0.529,30.374,0.369c5.108-0.08,10.218-0.075,15.331-0.106
	c0.441-0.001,0.888-0.012,1.333,0.019c1.331,0.092,2.426,0.576,2.665,2.03c0.202,1.222-1.038,2.965-2.274,3.341
	c-0.315,0.094-0.659,0.139-0.992,0.143c-13.232,0.218-26.437,0.144-39.668-0.139c-5.222-0.11-10.442-0.241-15.669-0.35
	c-3.111-0.061-6.228-0.194-9.338-0.11c-3.854,0.106-7.711,0.407-12.025,0.649c0.642,1.179,1.037,1.919,1.446,2.651
	c0.958,1.668,2.388,4.176-0.015,5.52c-2.79,1.558-6.072-3.173-7.396-5.048c-4.23-5.999-9.785-10.614-15.522-15.015
	c-9.895-7.587-20.261-14.489-30.765-21.199c-3.464-2.211-6.739-4.716-10.14-7.031c-6.031-4.102-13.274-9.493-21.079-8.407
	c-6.833,0.939-13.652,1.802-20.25,4.039c-16.939,5.75-34.1,12.235-51.345,16.938c-6.603,1.806-12.755,4.567-18.975,7.242
	c-1.619,0.698-3.127,1.653-4.965,2.646c2.106,1.917,1.022,3.702,0.106,5.472c-5.808,11.137-8.571,22.561-10.348,34.93
	c-2.487,17.413-0.312,32.059,3.938,48.95c2.895-0.421,5.802-0.766,8.68-1.292c2.853-0.521,4.048,1.479,6.864,1.519
	c9.794,0.131,19.828-2.548,29.473-4.052c-0.042-1.349,0.027-2.453-0.127-3.529c-0.749-5.155-1.621-10.302-2.313-15.471
	c-0.611-4.566-0.52-9.387-1.565-13.877c-0.663-2.874-0.092-5.51,1.419-7.986C55.141,113.931,55.819,112.806,56.893,111.039
	C51.025,112.049,55.819,112.806,56.893,111.039z M21.06,162.941c0.495,2.767,1.132,4.915,1.226,7.087
	c0.211,4.94,3.189,21.078,10.604,19.381c2.477-0.574,5.029-0.805,7.523-1.312c8.16-1.646,16.267-3.573,24.433-5.184
	c2.722-0.53,5.464-0.981,8.2-1.452c7.638-1.308,15.072-1.89,22.753-2.674c3.959-0.395,6.73-2.772,8.007-6.382
	c1.703-4.809,2.872-9.809,4.398-14.682c1.04-3.304,0.561-6.476-0.875-9.403c-1.056-2.148-1.154-3.925,0.101-5.928
	c0.276-0.436,0.079-1.17,0.106-1.767c-0.248-0.018-0.492-0.041-0.734-0.056c-0.33,0.996-0.637,2.006-0.996,2.989
	c-0.949,2.57-1.313,5.282-3.182,7.58c-3.8,4.675-8.748,7.796-13.687,10.949c-6.237,3.986-13.317,5.319-20.542,6.124
	c-3.99,0.438-7.141-0.578-9.027-4.366c-0.531-1.071-1.115-2.124-1.763-3.36c-10.343-0.136-20.339,2.77-30.735,2.397
	C25.004,162.813,23.136,162.913,21.06,162.941C21.555,165.708,23.136,162.913,21.06,162.941z M110.353,168.402
	c-2.069,4.319-3.383,8.688-7.462,11.631c-4.168,3.021-3.993,5.117-9.844,5.442c-4.538,0.267-9.117,0.264-13.595,0.917
	c-7.522,1.087-15.097,2.753-22.576,4.103c-4.157,0.741-8.27,1.682-12.414,2.494c-5.258,1.043-5.793,1.908-4.311,7.163
	c1.015,3.595,3.504,7.075,5.207,10.386c1.374,2.675,2.157,3.05,4.923,2.373c9.032-2.225,18.045-4.667,27.124-6.688
	c10.231-2.279,19.394-5.266,29.123-9.234c3.54-1.447,5.849-3.887,5.916-8.013c0.021-1.429,0.459-2.854,0.61-4.291
	C113.611,179.285,112.877,174.094,110.353,168.402C109.646,169.877,112.877,174.094,110.353,168.402z M61.397,215.074
	c2.916,3.454,5.936,6.833,8.514,10.554c1.795,2.562,4.164,2.881,7.064,2.241c9.614-2.134,18.821-6.137,27.71-10.293
	c6.219-2.908,20.312-5.128,18.29-14.351c-0.747-3.407-2.374-6.359-5.618-8.276c-0.829,0.822-1.609,1.351-2.059,2.067
	c-4.306,7.03-15.084,8.651-22.389,10.434C82.42,210.048,71.899,212.522,61.397,215.074
	C63.471,217.53,65.521,214.072,61.397,215.074z M63.897,157.015c5.358-1.471,11.572-2.374,16.574-4.812
	c2.798-1.368,2.835-1.895,2.44-4.969c-0.461-3.655-5.366-17.536-11.122-13.619c-2.59,1.769-4.439,4.549-5.494,7.468
	c-0.88,2.437,0.001,7.188-1.579,9.089C62.935,152.301,63.407,154.453,63.897,157.015C69.151,155.572,63.407,154.453,63.897,157.015
	z"/>
<path id="outline" fill-rule="evenodd" clip-rule="evenodd" d="M193.808,187.11c1.144-3.377,9.05-3.011,11.839-3.116
	c7.198-0.262,14.414-0.479,21.618-0.397c6.964,0.08,14.642,0.817,21.505,1.992c6.232,1.071,12.416,2.424,18.629,3.632
	c1.09,0.212,2.001,0.615,1.926,1.861c-0.199,3.493-3.688,3.915-6.594,3.247c-15.757-3.619-31.692-5.794-47.868-5.593
	c-5.752,0.071-11.495,1.011-17.243,1.556c-0.663,0.062-1.324,0.245-1.983,0.222C193.771,190.452,192.93,189,193.808,187.11
	C194.222,185.888,192.93,189,193.808,187.11z"/>
<path id="outline" fill-rule="evenodd" clip-rule="evenodd" d="M261.256,151.371c-1.18,2.373-2.007,2.701-4.498,1.903
	c-6.94-2.215-13.951-3.478-21.303-2.368c-6.03,0.907-12.107,1.438-18.163,2.133c-3.742,0.479-6.022-3.622-1.691-4.906
	c1.898-0.564,3.877-0.968,5.85-1.143c6.4-0.573,12.816-1.099,19.236-1.462c5.909-0.315,12.37,2.479,18.107,1.308
	C260.87,146.408,262.294,149.28,261.256,151.371C260.076,153.744,262.294,149.28,261.256,151.371z"/>
<path id="outline" fill-rule="evenodd" clip-rule="evenodd" d="M201.863,138.997c1.729-5.442,2.811-10.696,1.096-16.178
	c-1.174-3.737,4.252-6.953,4.59-3.319c0.4,4.306,0.602,8.626,0.889,12.941c0.154,2.373-0.917,4.324-2.194,6.17
	C204.776,140.717,204.532,140.721,201.863,138.997C203.592,133.555,204.532,140.721,201.863,138.997z"/>
</svg>
