<svg class="hand" version="1.1" id="Layer_1" xmlns="http://www.w3.org/2000/svg" xmlns:xlink="http://www.w3.org/1999/xlink" x="0px" y="0px"
	 width="280px" height="280px" viewBox="0 0 280 280" enable-background="new 0 0 280 280" xml:space="preserve">
<path id="background" fill="none" d="M265.2,101.77c-1.96-0.12-6.521,0.02-8.04-1.4c-2.15-2.03-3.45-6.03-5.05-8.55
	c-4.181-6.55-9.33-12.19-15.53-16.9c-11.07-8.42-23.3-18.45-36.73-22.75c-14.239-4.56-29.069-1.4-43.71-0.76
	c-6.739,0.3-13.83-1.31-20.47,0.3c-3.26,0.79-6.13,1.82-8.54,4.26c-2.57,2.59-3.27,4.65-7.23,4.99
	c-15.86,1.33-31.64-0.74-47.55-0.08C65.63,61.16,59,61.9,52.09,61.87c-7.36-0.03-14.76,0.15-22.1,0.93
	c-7.81,0.82-14.97,2.38-22.02,5.93C0,72.74-1.69,77.81,0.23,86.41c0.02,0.07,0.03,0.14,0.05,0.21c0.01,0.06,0.03,0.11,0.04,0.17
	c0.03,0.13,0.06,0.23,0.07,0.3c0.01,0.04,0.02,0.09,0.03,0.13c3.86,15.37,31.77,10.63,42.74,10.53c16.37-0.15,34.18,2.68,50.36,0.08
	c-1.16,5.94-2.98,11.16-0.5,17.08c2.85,6.82,9.63,7.68,16.08,9.07c-2.83,5.71-5.84,13.28-1.47,19.11
	c4.39,5.851,9.71,9.101,15.98,12.63c0.83,3.08-0.53,5.46,1.31,8.771c1.93,3.47,4.33,6.72,6.57,9.99
	c4.56,6.63,7.34,12.199,15.39,14.609c7.811,2.351,15.87,3.851,23.79,5.76c7.41,1.79,15.9,5.141,23.47,3.021
	c0.99,4.66,9.141,3.08,12.29,2.52c5.271-0.939,11.92-1.79,16.87-3.76c7.86-3.12,16.601-8.93,22.351-15.149
	c4.109,1.56,10.409-0.011,14.85,0.449c3.66,0.391,11.62,3.891,15.05,1.96l0.061-1.81l2.5-77.41l0.1-3.02
	C273.89,101.68,269.51,102.06,265.2,101.77z M163.34,167.89c0,0.021-0.07,0.04-0.1,0.04c0,0,0.01-0.01,0.02-0.02
	s0.04-0.01,0.08-0.03V167.89z M178.03,122.89c0-0.04-0.011-0.08-0.011-0.11c0.011,0.02,0.011,0.04,0.011,0.05V122.89z
	 M178.05,123.19c0-0.03,0-0.06-0.01-0.09l0.01-0.01c0-0.01-0.01-0.01-0.01-0.01V123c0.01,0.03,0.01,0.06,0.01,0.09V123.19z"/>
<path id="outline" fill-rule="evenodd" clip-rule="evenodd" d="M0.392,87.093c3.729,15.522,31.765,10.762,42.769,10.662
	c16.372-0.157,34.18,2.679,50.363,0.078c-1.16,5.942-2.979,11.156-0.505,17.076c2.849,6.818,9.637,7.681,16.085,9.075
	c-2.835,5.706-5.844,13.28-1.474,19.106c4.387,5.848,9.708,9.098,15.981,12.628c0.825,3.081-0.527,5.465,1.314,8.772
	c1.93,3.467,4.323,6.723,6.567,9.99c4.557,6.632,7.342,12.198,15.385,14.613c7.815,2.347,15.871,3.846,23.797,5.76
	c7.411,1.789,15.893,5.138,23.467,3.021c0.985,4.652,9.138,3.072,12.287,2.513c5.274-0.938,11.924-1.782,16.875-3.752
	c7.856-3.126,16.599-8.933,22.344-15.155c4.116,1.562,10.417-0.012,14.854,0.454c3.656,0.389,11.614,3.89,15.051,1.958
	c4.224-2.373-10.11-4.644-11.159-4.792c-5.424-0.764-10.977-0.453-16.434-0.971c1.821-3.024,6.26-7.765,4.871-11.55
	c-0.314-0.851-2.288-9.849-4.393-6.911c-2.574,3.592,2.653,7.742,0.266,11.533c-2.694,4.256-5.051,8.237-9.09,11.374
	c-6.96,5.395-13.843,10.981-22.94,12.23c-4.326,0.594-8.428,2.021-12.795,1.596c-5.423-0.528-7.59-2.525-11.532-5.913
	c0.037,0.487,0.055,0.72,0.086,1.198c-1.506-0.767-5.889-6.683-7.271-5.973c-3.962,2.009,3.862,7.732,5.21,8.951
	c-4.836,1.771-11.025-0.947-15.742-2.103c-5.593-1.369-11.208-2.403-16.733-4.021c-5.773-1.69-11.65-3.018-17.104-5.611
	c-1.456-0.685-2.79-4.735-3.623-6.087c-1.667-2.693-3.489-5.292-5.196-7.96c-3.491-5.456-7.351-10.359-3.033-16.593
	c3.511-5.078,10.362-6.052,15.862-7.782c6.004-1.888,12.132-3.45,17.986-5.776c2.827-1.123,5.252-0.962,8.28-0.917
	c3.044,0.046,5.696-2.639,8.479-0.42c-6.471,1.452-4.707,6.463-3.553,11.863c1.632,7.642,2.345,5.287,8.609,5.427
	c-7.018,6.95-15.956,5.98-23.946,10.448c-1.134,0.633-5.854,5.129-1.187,4.629c1.658-0.184,1.532-1.645,2.773-2.36
	c1.779-1.027,4.151-1.573,6.096-2.184c3.566-1.116,6.722-1.239,10.272-2.988c3.508-1.728,7.157-4.379,9.883-7.18
	c2.803-2.88,4.74-6.65,4.548-10.748c-0.175-3.614-4.943-6.446-7.373-8.668c0.862-1.889,1.787-3.713,2.762-5.546
	c2.853,3.825,5.723,7.249,9.356,10.365c1.94,1.664,4.092,4.047,6.504,5.003c0.619,0.245,4.885,0.695,3.02-1.422
	c-2.746-3.116-7.515-5.051-10.541-8.216c-2.821-2.951-4.321-8.824-8.514-9.621c-0.81-5.276-2.218-10.329-7.581-13.258
	c2.271-2.951,5.327-12.886,1.725-15.841c-4.151-3.389,6.98-10.957,7.908-13.799c-3.194-3.022-8.264,6.318-9.699,7.913
	c-9.224-4.478-21.08-3.779-31.203-3.779c0.223-0.754,2.08-7.782-1.032-5.805c-2.262,1.437-3.86,7.237-5.532,9.587
	c-4.035,5.674-14.833,13.284-22.299,11.905c-7.029,2.489-23.033-0.292-22.229-10.256c7.258,4.78,15.436,5.928,21.027-2.314
	c2.392-3.516,5.029-7.056,6.455-11.084c1.315-3.754-6.962-5.887-9.442-5.583c0.372-3.109,5.587-7.386,7.433-9.771
	c3.547-4.574,4.728-7.022,10.46-8.191c10.288-2.098,22.165-2.066,32.719-2.253c4.734-0.084,8.524,1.788,12.837,0.384
	c4.646-1.512,9.449-1.039,14.146,0.195c3.739,0.982,8.754,2.702,12.025,4.764c3.562,2.245,3.985,5.968,8.006,3.695
	c10.164,5.08,20.578,12.988,28.604,21.047c6.76,6.788,17.117,22.329,14.404,32.532c-1.714,6.504-4.465,12.413-6.978,18.62
	c-1.003,2.477-3.574,6.393-3.29,9.138c0.537,5.189,2.373-0.062,2.616-0.789c2.411-7.209,6.795-13.654,9.03-20.986
	c2.057-6.743,2.178-10.821,0.278-17.662c6.418,1.313,12.067,0.733,18.537,0.283c2.262-0.145,4.202-3.263,1.029-3.239
	c-4.317,0.027-8.699,0.407-13.008,0.125c-1.96-0.128-6.524,0.021-8.041-1.406c-2.15-2.024-3.456-6.03-5.055-8.542
	c-4.173-6.558-9.331-12.193-15.522-16.901c-11.073-8.421-23.309-18.456-36.739-22.754c-14.237-4.557-29.064-1.402-43.703-0.757
	c-6.739,0.294-13.837-1.309-20.469,0.297c-3.264,0.791-6.135,1.821-8.546,4.259c-2.564,2.593-3.266,4.654-7.228,4.986
	c-15.863,1.338-31.643-0.731-47.554-0.076c-6.719,0.277-13.343,1.023-20.257,0.992c-7.361-0.035-14.76,0.148-22.099,0.925
	c-7.814,0.828-14.966,2.387-22.025,5.933C-0.214,72.838-1.771,78.081,0.392,87.093C0.687,88.32-0.733,82.405,0.392,87.093z
	 M98.755,88.243c4.53-2.618,9.635-4.04,14.187-6.641c3.501-2.001,5.46-7.017,9.286-2.153
	C119.383,90.352,107.282,98.188,98.755,88.243C99.6,87.755,101.022,90.888,98.755,88.243z M113.001,77.246
	c-0.188,0.163-0.431,0.258-0.652,0.383c-0.053-0.083-0.106-0.167-0.159-0.251c0.323-0.299,0.648-0.601,0.974-0.9
	c0.095,0.062,0.19,0.125,0.286,0.187C113.303,76.861,113.183,77.088,113.001,77.246C112.813,77.408,113.183,77.088,113.001,77.246z
	 M178.723,111.217c-1.47,0.52-5.67,0.03-7.375-0.358c-1.708-0.389-1.515-3.944-1.688-5.194c-0.333-2.408-1.588-7.137-0.495-9.393
	c0.647-1.335,5.05-0.329,6.562-1.609c-0.16,2.754,0.521,5.428,1.202,8.069C177.618,105.406,177.198,108.833,178.723,111.217
	C178.279,111.374,177.748,109.693,178.723,111.217z M180.314,104.862c-0.431-1.971-0.809-3.684-1.188-5.397
	C180.76,101.256,181.045,102.846,180.314,104.862z M180.281,140.324c1.614,0.021,3.135-0.129,4.468-1.237
	c0.835,0.577,1.579,1.091,2.397,1.66c-1.634,3.137,3.257,7.887,0.93,10.634c-2.106,0.205-7.488,2.256-8.137-0.691
	C179.472,148.579,176.187,140.266,180.281,140.324C181.896,140.346,178.633,140.301,180.281,140.324z M178.027,122.834
	c-0.171-2.274,3.607-2.256,5.123-2.615c0.85,2.06,3.717,12.067-0.116,12.265C176.951,132.796,178.341,127.024,178.027,122.834
	C177.954,121.859,178.17,124.737,178.027,122.834z M111.747,125.835c3.712-3.421,9.776-3.859,14.801-4.058
	c5.699-0.225,11.286-0.878,16.953-1.632c5.792-0.77,11.732-1.195,17.433-2.342c4.605-0.927,14.348-2.664,18.514-0.419
	c-2.81,1.229-5.462,0.885-4.922,4.627c0.576,4.046,0.242,7.788,1.209,11.776c-9.453,0.986-20.262,0.934-29.344,3.948
	c-8.393,2.786-15.827,8.457-21.804,14.757C116.459,148.098,100.521,136.175,111.747,125.835
	C112.133,125.479,109.902,127.534,111.747,125.835z M168.4,113.691c-0.487-0.174-0.974-0.351-1.462-0.525
	c0.058-0.142,0.112-0.281,0.167-0.421c0.469,0.223,0.937,0.448,1.404,0.674C168.473,113.512,168.436,113.601,168.4,113.691
	C167.913,113.518,168.436,113.601,168.4,113.691z M94.495,105.189c1.202-1.162,1.248-4.834,1.59-6.378
	c0.145-0.041,0.288-0.081,0.431-0.122c0.711,1.156,1.419,2.309,2.127,3.457c-2.349,2.894-2.234,9.483,2.82,9.149
	c-1.094-2.792-2.748-4.72-1.073-7.747c8.654,2.538,16.642,3.831,25.624,1.579c8.971-2.25,14.381-6.942,20.402-13.676
	c8.678-0.435,17.185-1.964,25.658,1.313c-3.291,0.638-4.901,0.309-5.856,4.059c-1.028,4.069,0.331,8.155,0.348,12.243
	c0.985,1.562,0.077,2.995-0.211,4.541c-15.091,2.773-30.232,4.049-45.456,5.786c-6.744,0.77-14.703,2.444-20.744-1.523
	C98.102,116.521,91.959,107.645,94.495,105.189C95.326,104.385,94.215,105.46,94.495,105.189z M4.473,75.548
	c4.544-6.106,14.608-7.198,21.564-8.551c10.258-1.995,20.958-2.175,31.361-1.764c10.74,0.425,21.536,0.902,32.282,1.023
	c4.786,0.054,9.583,0.067,14.362-0.205c5.105-0.291,10.518-1.729,15.595-1.373c-3.813,5.737-8.846,11.953-14.872,15.574
	c-6.406,3.845-11.81,6.678-9.712,14.651c-18.404,1.716-36.973-0.265-55.432,0.009c-8.581,0.127-19.06,1.246-27.338-1.369
	C4.983,91.24-0.781,82.617,4.473,75.548C5.438,74.25,1.086,80.105,4.473,75.548z"/>
<path id="outline" fill-rule="evenodd" clip-rule="evenodd" d="M191.982,163.086c-0.812,1.778-1.731,0.775-2.611-0.154
	c1.498-5.212,7.095-12.678,13.378-12.289c4.733,0.29-2.146,3.565-3.239,3.866C195.354,155.65,193.629,159.489,191.982,163.086
	C191.672,163.766,192.691,161.537,191.982,163.086z"/>
<path id="outline" fill-rule="evenodd" clip-rule="evenodd" d="M133.742,163.637c0.203,1.09-0.668,1.845-1.648,1.293
	c-1.951-1.097-1.768-4.402-2.163-6.337c0.051-0.017,0.105-0.033,0.157-0.051c0-0.814,1.557-7.13,3.499-3.505
	c-0.05,1.065-0.331,2.073-0.842,3.023C132.414,160.066,133.38,161.739,133.742,163.637
	C133.879,164.371,133.62,162.996,133.742,163.637z"/>
<path id="outline" fill-rule="evenodd" clip-rule="evenodd" d="M198.226,156.684c-1.148,1.285-2.296,2.566-3.444,3.852
	c-0.141-0.14-0.28-0.276-0.422-0.414c1.229-1.209,2.458-2.419,3.686-3.626C198.107,156.561,198.166,156.622,198.226,156.684
	C197.077,157.969,198.166,156.622,198.226,156.684z"/>
<path id="outline" fill-rule="evenodd" clip-rule="evenodd" d="M163.342,167.883c0.018,0.048,0.037,0.099,0.054,0.146
	c-0.245,0.114-0.487,0.227-0.731,0.339c-0.03-0.085-0.064-0.171-0.098-0.257C162.824,168.035,163.085,167.959,163.342,167.883
	C163.359,167.931,163.085,167.959,163.342,167.883z"/>
<path id="outline" fill-rule="evenodd" clip-rule="evenodd" d="M79.09,80.966c3.197-2.509,1.638,6.295,1.587,6.945
	c0.031,0.001,0.062,0.004,0.093,0.005C80.77,101.138,75.57,83.751,79.09,80.966C79.453,80.681,78.776,81.214,79.09,80.966z"/>
<path id="outline" fill-rule="evenodd" clip-rule="evenodd" d="M41.266,81.389c2.625-3.019,1.5,2.558,1.364,2.988
	c-0.813,2.589,0.16,5.213,0.362,7.799c-0.144,0.123-0.289,0.248-0.431,0.371C39.758,90.624,38.841,84.155,41.266,81.389
	C41.854,80.712,41.013,81.678,41.266,81.389z"/>
<path id="outline" fill-rule="evenodd" clip-rule="evenodd" d="M116.861,129.966c0.98-0.14,1.545,0.561,2.096,1.541
	c-3.183,2.966,1.308,9.781-0.021,10.8C116.463,144.222,111.247,130.771,116.861,129.966
	C117.842,129.826,115.82,130.115,116.861,129.966z"/>
<path id="outline" fill-rule="evenodd" clip-rule="evenodd" d="M113.472,129.784c-0.479,3.775-0.073,6.036,0.831,9.754
	c-0.185,0.119-0.372,0.236-0.557,0.355c-2.698-2.321-3.631-4.637-3.184-8.058C110.827,129.818,113.975,126.075,113.472,129.784
	C113.455,129.915,113.592,128.899,113.472,129.784z"/>
</svg>
