<svg class="hand" version="1.1" id="Layer_1" xmlns="http://www.w3.org/2000/svg" xmlns:xlink="http://www.w3.org/1999/xlink" x="0px" y="0px"
	 width="280px" height="280px" viewBox="0 0 280 280" enable-background="new 0 0 280 280" xml:space="preserve">
<path id="background" fill="none" d="M279.71,180.33c0.04,5.33-9.93-0.35-12.27-0.91c-4.601-1.12-9.45-1.74-14.171-2.13
	c-8.369-0.69-18.979-0.521-27.149,1.7c-9.63,2.62-18.43,10.41-26.96,15.359c-7.69,4.471-15.68,7.971-24.21,10.45
	c-5.601,1.63-10.98,1.86-16.771,2.16c-3.92,0.21-7.67-0.84-11.5-0.64c-4.489,0.25-4.75-1.141-9.06,1.34
	c-3.87,2.229-8.7,2.97-13.07,3.229c-11.04,0.67-22.01,1.311-33.04,2.061c-8.12,0.55-19.15,2.66-26.45-1.75
	c-4.17-2.54-2.56-7.94-1.78-11.72c0.69-3.351,0.53-7.19,2.32-10.211c4.09-6.97,11.03-8,17.92-10.21
	c-2.99-5.05-8.25-3.38-12.31-5.939c-1.85-1.16-2.41-3.271-3.38-5.07c-1.11-2.06-3.36-3.63-4.27-5.71
	c-1.58-3.64,6.69-13.07,8.55-16.18c2.86-4.771,6.21-9.45,8.47-14.54c-4.87-3.31-16.43-5.67-22.23-5.05
	c-7.93,0.86-15.21,2.56-23.29,1.65c-13.92-1.57-27.13-4.66-33.56-17.99c0-0.01-0.01-0.01-0.01-0.02c-0.06-0.13-0.12-0.26-0.18-0.39
	c-0.09-0.2-0.16-0.35-0.16-0.35c-0.01-0.01-0.01-0.02-0.01-0.02c-1.29-3.06-1.31-11.98,1.2-14.32c3.19-2.97,8.13-1.43,12-1.34
	c3.26,0.08,6.51,0.21,9.77,0.32c1.98,0.06,4.5-0.93,6.41-0.31c4.23,1.37,9.4,1.08,13.76,0.59c11.36-1.27,20.9-1.19,32.31,0.14
	c8.86,1.02,17.69,0.66,26.57,0.06c4.24-6.04,7.88-11.33,13.67-15.96c3.31-2.61,15.32,2.85,18.9,3.74
	c6.76,1.67,13.87,1.48,20.68,2.86c7.42,1.5,14.79,3.13,22.14,4.98c8.62,2.17,17.2,4.96,26.23,4.39c7.069-0.45,13.93-2.84,21.06-2.5
	c13.29,0.62,28.98,2.69,40.94,8.77l12.85,78.939L279.71,180.33z"/>
<path id="outline" fill-rule="evenodd" clip-rule="evenodd" d="M1.184,109.55c6.301,13.914,19.729,17.066,33.879,18.666
	c8.077,0.913,15.354-0.79,23.289-1.644c5.796-0.624,17.363,1.741,22.228,5.046c-2.255,5.09-5.611,9.769-8.471,14.545
	c-1.862,3.11-10.127,12.532-8.546,16.172c0.905,2.084,3.155,3.65,4.266,5.713c0.97,1.802,1.536,3.916,3.378,5.075
	c4.063,2.555,9.328,0.883,12.313,5.934c-6.892,2.215-13.828,3.24-17.925,10.208c-1.78,3.027-1.623,6.863-2.312,10.214
	c-0.78,3.78-2.392,9.181,1.781,11.716c7.292,4.418,18.327,2.305,26.443,1.752c11.033-0.746,22.005-1.391,33.039-2.058
	c4.375-0.264,9.205-1.002,13.072-3.229c4.309-2.481,4.574-1.094,9.058-1.338c3.834-0.2,7.583,0.844,11.503,0.632
	c5.79-0.294,11.166-0.521,16.771-2.153c8.531-2.486,16.519-5.982,24.209-10.447c8.532-4.954,17.333-12.746,26.962-15.363
	c8.172-2.221,18.776-2.395,27.152-1.703c4.719,0.389,9.564,1.016,14.169,2.131c2.332,0.564,12.312,6.243,12.268,0.909
	c-0.023-4.907-20.904-6.375-24.66-6.802c-9.951-1.13-20.503-0.469-30.422,0.961c-4,0.576-8.722,4.647-12.16,6.69
	c-3.851,2.282-7.537,4.921-11.335,7.301c-8.697,5.45-18.361,10.155-28.312,12.819c-4.482,1.2-9.096,1.9-13.734,2.047
	c-2.611,0.085-10.201,1.548-12.08-1.344c-0.615-0.932,0.66-9.96-3.685-4.864c-1.984,2.318-8.054,7.112-11.328,6.38
	c-2.192-0.49-6.912,1.929-9.065,2.539c-4.114,1.167-8.468,1.09-12.698,1.538c-3.302,0.35-7.105,1.187-10.436,0.705
	c-2.368-0.343-1.333-6.141-1.395-7.595c-0.123-3.065,0.284-7.405-3.816-7.667c-3.507-0.21-6.487-1.69-9.99-0.274
	c-3.288,1.332-7.074,1.951-10.083,3.87c-3.19,2.034-5.4,5.313-7.767,8.184c-0.177-0.073-0.353-0.141-0.53-0.21
	c0.868-9.618,3.801-18.582,14.505-20.686c4.647-0.913,9.761-1.341,14.463-0.813c5.85,0.646,11.824,2.158,17.241-0.606
	c4.619-2.356,8.805-5.917,13.022-8.911c3.106-2.2,9.559-10.108,10.488-13.636c0.386-1.466-8.004-6.614-9.243-8.066
	c-3.781-4.426-10.466-7.908-14.958-11.771c-2.34-2.012-5.94-7.754-9.067-8.158c-3.047-0.399-5.836-1.989-8.853-2.562
	c-3.12-0.596-6.318-0.612-9.429-1.269c-5.019-1.06-9.775-3.112-14.792-4.122c-2.403-0.484-4.397-1.957-6.697-2.447
	c-2.691-0.574-6.352,0.669-9.022,1.109c-11.812,1.945-23.714,2.529-35.28-1.647c-4.297-1.552-8.367-4.582-11.299-8.089
	c-1.927-2.305-4.529-13.141-2.12-15.489c1.272,0.766,0.554,6.858,1.506,8.746c2.471,4.895,3.162,5.524,8.588,5.601
	c8.293,0.117,15.044,1.626,18.782-7.052c1.871-4.345,1.815-5.367,6.556-5.774c5.054-0.434,10.069-1.24,15.127-1.638
	c9.735-0.757,20.019,1.289,29.732,1.964c9.058,0.63,18.914,0.316,27.834-1.475c8.893-1.786,15.982-4.012,24.469,0.096
	c1.425,0.69,5.804,4.385,7.2,1.71c1.825-3.499-5.232-5.279-7.188-6.411c-4.369-2.527-8.922-1.968-13.701-1.5
	c-3.604,0.353-9.88,2.394-13.179,1.252c-0.416-3.642,5.389-9.386,8.971-9.425c6.598-0.071,13.388,3.891,20.02,4.304
	c14.752,0.932,28.688,5.161,43.032,8.158c6.828,1.429,13.901,3.283,20.919,3.028c7.199-0.261,14.216-2.131,21.395-2.568
	c6.939-0.422,13.689,1.525,20.478,2.715c3.933,0.689,18.484,5.433,21.059,1.693c-11.955-6.074-27.643-8.143-40.934-8.771
	c-7.132-0.336-13.993,2.056-21.066,2.504c-9.025,0.573-17.602-2.224-26.228-4.394c-7.349-1.849-14.713-3.478-22.139-4.981
	c-6.813-1.377-13.918-1.187-20.68-2.861c-3.582-0.887-15.594-6.346-18.896-3.737c-5.798,4.629-9.431,9.918-13.671,15.958
	c-8.879,0.608-17.714,0.963-26.575-0.055C65.179,93.203,55.643,93.12,44.28,94.39c-4.359,0.487-9.534,0.784-13.756-0.589
	c-1.91-0.617-4.429,0.371-6.417,0.306c-3.259-0.107-6.504-0.234-9.764-0.314c-3.87-0.096-8.815-1.63-11.997,1.338
	C-0.198,97.503-0.15,106.583,1.184,109.55C2.076,111.519,0.906,108.931,1.184,109.55z M69.774,205.629
	c5.003-4.843,10.381-8.827,17.499-9.606c3.155-0.346,6.279-1.485,7.556,2.021c1.086,2.982,0.574,7.439-0.496,10.346
	c-5.083,0.988-10.325,1.341-15.51,1.288C77.277,209.663,66.068,209.237,69.774,205.629
	C74.046,201.494,68.529,206.841,69.774,205.629z M116.703,149.335c2.789,2.21,6.251,4.343,8.395,7.195
	c-3.092,3.327-12.393,2.449-15.812,0.25C107.18,155.426,113.449,146.756,116.703,149.335
	C119.229,151.337,115.379,148.286,116.703,149.335z M86.636,132.69c5.517,1.106,11.571,1.354,16.404,4.592
	c2.703,1.814,4.881,4.265,7.201,6.516c2.002,1.946-1.207,4.826-2.328,6.41c-3.551,5.021-4.97,9.259,2.374,11.139
	c6.077,1.555,13.33,1.167,18.8-1.949c5.045,3.403-13.562,16.726-16.795,18.272c-4.937,2.363-8.739,1.57-14.039,1.393
	c-6.513-0.219-9.083-2.448-14.55-5.355c-3.733-1.982-8.852-3.174-11.575-6.611c-3.89-4.91-5.039-6.982-1.688-12.229
	c3.023-4.73,6.294-9.163,8.951-14.123C81.003,137.74,82.522,131.87,86.636,132.69C89.594,133.283,84.451,132.254,86.636,132.69z
	 M9.214,99.547c0.049-0.521,0.194-1.032,0.335-1.743c7.666-0.246,15.012,0.494,22.823,0.822c-2.714,6.78-4.916,10.21-12.512,9.413
	C12.913,107.31,8.396,108.283,9.214,99.547C9.264,99.027,9.113,100.625,9.214,99.547z"/>
</svg>
