<svg class="hand" version="1.1" id="Layer_1" xmlns="http://www.w3.org/2000/svg" xmlns:xlink="http://www.w3.org/1999/xlink" x="0px" y="0px"
	 width="280px" height="280px" viewBox="0 0 280 280" enable-background="new 0 0 280 280" xml:space="preserve">
<path id="background" fill="none" d="M280.4,185.79l-7.79-81.81l-0.17-1.8c-0.86-0.6-2.74-0.62-5.101,0.41c-3.24,1.43-9.01,5.38-12.52,2.19
	c-3.761-3.42-7.99-6.37-12.44-8.83c-10.66-5.93-20.77-6.42-32.54-5.98c-11.83,0.43-23.45-2.92-35.33-1.99
	c-9.95,0.78-19.85,6.06-29.72,4.94c-10.09-1.14-20-3.31-30.01-5.2c-10.75-2.01-21.52-3.88-32.33-5.53
	c-10.62-1.61-23.5-4.88-34.28-3.52c-0.03,0-0.08,0-0.12,0.01l-0.07,0.01l-0.43,0.06c0.05-0.01,0.11-0.02,0.17-0.03
	c-11.95,1.47-30.38-4.47-37.87,8.03c-9.32,15.56,10.12,21.77,21.26,24.13c6.99,1.48,14.2,1.56,21.21,3.04
	c6.16,1.3,13.92,1.93,20.21,1.93c7.13,0,15.18,2.21,22.26,3.38c4.65,0.77,18.26,2.08,19.61,7.76c-2.89,2.34-8.95,2.14-12.48,2.83
	c-4.75,0.92-9.53,1.77-14.19,3.07c-9.19,2.57-18.42,4.88-27.68,7.18c-16.65,4.15-38.03,3.411-52.6,13.32
	c-5.96,4.051-7.35,14.7-1.31,19.53c6.33,5.05,16.54,4.86,24.15,4.35c19.72-1.31,38.89-6.899,58.37-9.479
	c-1.46,8.54,5.16,20.24,13.44,23.05c4.95,1.69,10.68,0.95,15.71,0.13c5.42-0.88,6.97,0.3,11.81,2.681
	c0,9.939,3.76,17.449,15.08,17.31c10.55-0.13,21.2,2.12,31.81,2.28c5.23,0.069,10.45,1.12,15.69,0.689
	c5.96-0.489,11.35-3.609,17.05-5.239c9.97-2.87,22.54-5.03,32.86-5.03c4.29-2.48,8.76-3.51,12.649-7.07
	c4.53-4.14,5.811-6.62,12.19-7.479C269.1,188.82,281,189.52,280.4,185.79z M46.45,150.1c0,0.011-0.01,0.021-0.01,0.021
	s0-0.021,0.01-0.061c0,0,0-0.01,0.01-0.02C46.45,150.07,46.45,150.09,46.45,150.1z M115.55,175.26l0.03,0.061
	c0.01,0.02,0.01,0.029,0.01,0.05C115.58,175.34,115.57,175.3,115.55,175.26z M187.53,173.62c0-0.01-0.011-0.021-0.011-0.04
	c0.021,0,0.04-0.01,0.061-0.01c0.01,0.02,0.01,0.029,0.03,0.05H187.53z M261.29,143.12c0.01-0.04,0.03-0.07,0.04-0.11
	C261.45,143.07,261.14,143.6,261.29,143.12z M262.82,140.6c0,0.02-0.011,0.05-0.021,0.07c-0.01,0.04-0.02,0.08-0.04,0.13
	C262.68,140.77,262.9,140.31,262.82,140.6z"/>
<path id="outline" fill-rule="evenodd" clip-rule="evenodd" d="M272.44,102.18l0.17,1.8C273.13,103.22,273.02,102.57,272.44,102.18z
	 M47.72,78.72c-0.06,0.01-0.12,0.02-0.17,0.03l0.43-0.06C47.89,78.7,47.8,78.71,47.72,78.72z"/>
<path id="outline" fill-rule="evenodd" clip-rule="evenodd" d="M88.75,157.83c0.01-0.021,0.02-0.04,0.03-0.05c-0.04,0.069-0.06,0.109-0.07,0.13
	c0-0.01,0-0.021,0.01-0.03C88.73,157.87,88.74,157.85,88.75,157.83z"/>
<path id="outline" fill-rule="evenodd" clip-rule="evenodd" d="M46.45,150.06v0.04c0,0.011-0.01,0.021-0.01,0.021S46.44,150.1,46.45,150.06z"/>
<path id="outline" fill-rule="evenodd" clip-rule="evenodd" d="M115.59,175.37c-0.01-0.03-0.02-0.07-0.04-0.11l0.03,0.061
	C115.59,175.34,115.59,175.35,115.59,175.37z"/>
<path id="outline" fill-rule="evenodd" clip-rule="evenodd" d="M47.984,78.693c-11.949,1.583-30.598-4.528-38.131,8.054
	c-9.321,15.566,10.121,21.769,21.252,24.131c6.999,1.486,14.201,1.565,21.217,3.045c6.161,1.299,13.921,1.929,20.206,1.929
	c7.133,0,15.179,2.207,22.257,3.378c4.65,0.772,18.259,2.08,19.609,7.763c-2.881,2.335-8.946,2.136-12.478,2.824
	c-4.746,0.924-9.529,1.776-14.19,3.071c-9.188,2.57-18.417,4.88-27.679,7.188c-16.653,4.149-38.033,3.408-52.603,13.317
	c-5.96,4.049-7.348,14.699-1.303,19.527c6.323,5.049,16.539,4.856,24.143,4.349c19.72-1.308,38.897-6.902,58.371-9.473
	c-1.458,8.532,5.164,20.239,13.44,23.05c4.953,1.682,10.685,0.941,15.714,0.127c5.415-0.877,6.966,0.299,11.811,2.676
	c0,9.945,3.754,17.457,15.078,17.316c10.549-0.131,21.198,2.12,31.809,2.272c5.235,0.075,10.453,1.12,15.693,0.693
	c5.961-0.486,11.351-3.606,17.045-5.243c9.976-2.868,22.542-5.023,32.866-5.023c4.287-2.482,8.755-3.515,12.652-7.077
	c4.529-4.14,5.81-6.614,12.183-7.475c2.157-0.291,14.05,0.405,13.448-3.324c-0.494-3.021-13.471,0.093-15.646,0.314
	c4.246-8.228,4.008-15.641,3.199-24.7c-0.113-1.217,0.951-7.89-2.361-7.126c-2.205,0.51-0.146,7.935-0.012,9.384
	c0.917,9.93,0.003,17.209-7.018,24.844c-6.265,6.812-13.617,11.861-23.027,12.919c-10.596,1.19-20.666,2.454-30.946,5.498
	c-4.78,1.416-9.325,3.366-14.367,3.586c-5.162,0.226-10.263-0.451-15.403-0.739c-9.667-0.545-19.334-1.502-29.011-2.012
	c-9.631-0.508-12.646-5.351-14.13-14.237c9.477-2.238,16.84-7.812,21.714-16.251c4.644-8.038,15.839-12.479,24.062-15.621
	c0.084,0.145,0.165,0.289,0.247,0.434c-5.15,4.144-16.26,11.353-9.774,19.458c5.271,6.59,22.245-4.718,19.686-7.916
	c-0.029,0-0.05,0.003-0.079,0.003c-0.002-0.016-0.005-0.028-0.008-0.044c-4.283,0.344-12.119,11.883-16.8,6.589
	c-6.152-6.959,6.331-14.59,11.097-17.054c2.754,3.171,5.285,6.24,5.703,10.465c0.021-0.004,0.037-0.01,0.058-0.012
	c0.017,0.02,0.017,0.035,0.029,0.053c6.068,0.008-0.849-9.428-2.028-11.54c4.146,0.281,6.121,5.6,6.14,9.26
	c0.018,5.834-8.778,10.287-13,12.877c-5.067,3.108-10.083,5.998-14.818,9.618c-3.339,2.553-11.194,4.943-9.935,9.482
	c3.124,0.728,7.741-4.171,10.117-5.866c3.699-2.641,7.107-5.617,10.973-8.035c6.123-3.83,18.563-8.804,19.033-17.343
	c0.357-6.346-3.498-15.354-11.32-14.521c-10.031,1.065-17.851,6.768-25.947,12.288c-0.045-3.543,3.193-6.349,4.148-9.727
	c0.878-3.096,3.099-7.757,2.935-10.958c-0.149-2.799,5.059-4.443,6.905-5.633c3.778-2.434,7.526-4.913,11.278-7.386
	c4.193,14.697,25.692,21.696,39.496,23.196c1.152,0.257,1.987-0.101,2.506-1.072c0.326-1.998-3.756-2.241-4.637-2.43
	c-5.225-1.118-10.523-2.16-15.476-4.229c-8.539-3.562-15.53-8.447-19.589-16.644c1.142-0.631,6.47-2.533,6.121-4.243
	c-0.744-3.674-5.431,0.296-6.816,1.017c-7.196,3.747-13.818,8.449-21.021,12.216c-2.062-1.58-4.083-3.396-5.211-0.071
	c6.387,5.232-0.133,15.195-2.96,21.368c-3.308,7.224-5.313,18.603-14.847,20.54c3.615-5.203,4.087-12.823,2.863-18.894
	c-0.603-3.009-4.403-2.896-6.805-3.502c-0.519-0.131-11.404-2.224-7.607,1.937c1.801,1.973,6.75,1.01,9.095,1.982
	c3.337,1.384,3.123,7.612,2.768,10.44c-0.474,3.773-1.018,5.854-4.834,6.369c-3.708,0.5-7.956,0.546-11.097-1.818
	c1.446-12.503,4.16-24.67,5.916-37.136c2.394,0.729,4.395,2.136,6.784,2.144c1.02-3.045-2.916-3.315-5.123-4.388
	c-2.492-1.218-1.867-4.281-1.61-6.53c0.429-3.832,5.309-3.358,8.051-3.609c0.804-0.076,1.696-0.94,0.959-1.774
	c-0.893-1.01-3.32-0.522-4.529-0.522c2.801-6.65,12.59-11.449,18.454-15.206c6.46-4.138,15.135-10.201,22.653-11.926
	c2.192-0.488,0.783-3.446-1.093-2.929c-4.595,1.258-8.501,3.74-12.646,6.035c-7.818,4.329-15.298,8.709-22.386,14.195
	c-5.262,4.073-12.894,10.286-13.181,17.228c-0.16,3.873,0.181,7.834-0.368,11.676c-0.654,4.569-5.025,3.503-8.946,3.979
	c-7.95,0.963-16.583,0.438-23.068,5.914c-1.599,1.351-3.116,4.908-5.174,5.387c-4.571,1.068-9.023,2.149-13.686,2.785
	c-15.102,2.061-30.728,6.288-45.977,6.543c-6.845,0.108-15.369,0.592-21.114-3.854c-2.673-2.062-2.633-6.039-2.568-9.157
	c0.092-4.482,4.467-5.828,7.912-7.41c7.263-3.336,15.304-4.558,23.143-5.809c8.556-1.364,16.956-3.216,25.393-5.213
	c8.525-2.019,16.937-4.511,25.405-6.771c5.113-1.365,10.384-2.24,15.578-3.24c2.963-0.57,10.681-3.698,13.123-1.218
	c-0.199,0.933-1.276,5.644,1.345,3.859c2.934-1.979,1.271-7.542-0.086-9.888c-4.013-6.928-15.957-8.818-23.248-9.767
	c-19.935-2.596-40.052-4.393-59.931-7.396c-7.543-1.14-20.27-3.749-22.803-11.976c-2.826-9.178,7.372-14.299,14.883-14.469
	c19.587-0.426,38.952,0.792,58.333,3.518c10.119,1.423,20.127,3.659,30.212,5.367c10.497,1.778,21.354,5.184,31.924,6.056
	c4.55,0.375,9.367-2.621,13.722-3.609c4.838-1.103,9.79-1.547,14.719-2.029c10.925-1.069,21.925,0.747,32.788,1.937
	c3.578,0.392,8.782,0.576,12.316-0.175c3.479-0.741,8.075,1.186,11.476,1.914c8.901,1.907,18.868,8.776,24.175,16.171
	c5.837,8.135,5.447,16.692,3.56,26.022c-0.891,4.401-2.832,8.423-5.487,12.029c-0.947,1.286-3.361,2.964-3.57,4.647
	c-0.451,3.633,3.635-0.61,4-1.016c2.171-2.404,4.187-4.919,6.202-7.452c-0.229-0.103,4.144-16.397,4.24-18.894
	c0.225-5.8-5.306-11.351-5.489-16.814c3.626-1.002,7.317-1.898,10.717-3.555c5.567-2.714,2.665-5.696-2.589-3.379
	c-3.242,1.43-9.017,5.379-12.525,2.19c-3.763-3.422-7.992-6.37-12.437-8.838c-10.662-5.921-20.772-6.411-32.545-5.978
	c-11.829,0.436-23.446-2.914-35.323-1.986c-9.952,0.778-19.856,6.053-29.72,4.937c-10.096-1.143-20.002-3.308-30.011-5.195
	c-10.75-2.016-21.521-3.888-32.331-5.53C71.771,80.572,58.801,77.271,47.984,78.693C42.646,79.4,50.102,78.415,47.984,78.693z
	 M91.296,168.065c0.08,0,0.16-0.002,0.241-0.002c0,0.987,0,1.975,0,2.963c-0.082,0-0.162,0.002-0.241,0.002
	C91.296,170.041,91.296,169.054,91.296,168.065C91.376,168.065,91.296,169.054,91.296,168.065z M138.385,187.135
	c-2.332,1.479-12.658,4.816-13.075-0.479c4.571,0.49,8.4,0.463,12.958-0.126C138.309,186.732,138.345,186.935,138.385,187.135
	C135.187,189.162,138.345,186.935,138.385,187.135z M92.92,164.718c2.785-8.67,24.465-9.232,31.525-8.361
	c-0.746,10.64-3.931,20.244-2.646,31.046c-6.896,1.674-17.515,2.794-23.374-2.15C92.522,180.27,90.611,171.868,92.92,164.718
	C93.187,163.888,92.219,166.888,92.92,164.718z"/>
<path id="outline" fill-rule="evenodd" clip-rule="evenodd" d="M260.472,145.229c-0.003,0.003-0.003,0.006-0.006,0.008
	c0.022,0.008,0.025,0.021,0.048,0.031L260.472,145.229z"/>
<path id="outline" fill-rule="evenodd" clip-rule="evenodd" d="M88.797,157.746c1.761-3.17,2.447-11.341-1.91-13.024
	c-1.597,1.603,1.463,7.381,0.847,9.926c-0.475,1.959-2.451,2.804-2.23,4.943C85.765,162.151,88.55,158.191,88.797,157.746
	C89.856,155.839,88.322,158.601,88.797,157.746z"/>
<path id="outline" fill-rule="evenodd" clip-rule="evenodd" d="M46.501,149.786c-0.335,1.838,0.082,3.256,0.28,5.106
	c0.232,2.167-1.713,6.392-1.159,8.024c1.624,4.739,3.614-6.689,3.748-7.462C49.3,154.928,47.254,145.711,46.501,149.786
	C46.338,150.68,46.569,149.416,46.501,149.786z"/>
<path id="outline" fill-rule="evenodd" clip-rule="evenodd" d="M81.562,107.235c-0.404,4.057,4.186-2.475,4.489-2.958
	c0.82-1.306,4.251-8.65,2.287-9.864c-0.627,0.205-1.316,0.431-2.082,0.68c-0.621,1.95-0.39,4.025-1.145,6.016
	C84.36,103.084,81.764,105.218,81.562,107.235C81.519,107.671,81.608,106.775,81.562,107.235z"/>
<path id="outline" fill-rule="evenodd" clip-rule="evenodd" d="M117.112,109.368c-0.599,0.815-0.471,1.443,0.544,2.53
	c1.271-0.867,11.967-13.481,6.898-13.481c-1.93,0.008-1.265,4.472-2.305,5.722C120.716,105.986,118.459,107.542,117.112,109.368
	C116.513,110.183,117.364,109.026,117.112,109.368z"/>
<path id="outline" fill-rule="evenodd" clip-rule="evenodd" d="M56.196,89.322c-0.772-0.405-2.607,4.779-3.439,5.312
	c-0.056,2.76-6.149,5.554-3.204,7.542C51.045,100.732,60.046,91.344,56.196,89.322C55.685,89.054,56.951,89.718,56.196,89.322z"/>
<path id="outline" fill-rule="evenodd" clip-rule="evenodd" d="M194.839,171.191c0.425,2.191,13.921-1.28,13.651-4.248
	C206.636,166.82,194.538,169.641,194.839,171.191C195.003,172.037,194.674,170.341,194.839,171.191z"/>
<path id="outline" fill-rule="evenodd" clip-rule="evenodd" d="M138.614,140.212c1.153,0.279,8.019,2.481,8.036-0.017
	c0.013-1.921-6.268-2.033-7.584-2.349C137.317,138.002,136.636,139.726,138.614,140.212
	C140.053,140.561,137.962,140.052,138.614,140.212z"/>
<path id="outline" fill-rule="evenodd" clip-rule="evenodd" d="M86.297,153.633c0.193-1.768-0.188-3.458-0.913-5.102
	c0.18,1.726,0.359,3.451,0.54,5.178C86.048,153.683,86.174,153.658,86.297,153.633C86.49,151.865,86.174,153.658,86.297,153.633z"
	/>
<path id="outline" fill-rule="evenodd" clip-rule="evenodd" d="M262.758,140.802c0.213-0.653,0.425-1.308,0.638-1.961
	c-0.073-0.022-0.147-0.046-0.221-0.069c-0.231,0.648-0.46,1.298-0.69,1.943C262.573,140.745,262.665,140.773,262.758,140.802
	C262.971,140.148,262.665,140.773,262.758,140.802z"/>
<path id="outline" fill-rule="evenodd" clip-rule="evenodd" d="M260.469,145.227c0.003,0.002,0.045,0.041,0.045,0.041
	c0.035-0.092,0.068-0.184,0.1-0.277C260.567,145.068,260.517,145.147,260.469,145.227
	C260.472,145.229,260.517,145.147,260.469,145.227z"/>
<path id="outline" fill-rule="evenodd" clip-rule="evenodd" d="M261.331,143.007c-0.238,0.661-0.478,1.321-0.718,1.983
	c0.368-0.6,0.736-1.201,1.106-1.798C261.591,143.13,261.46,143.066,261.331,143.007
	C261.093,143.668,261.46,143.066,261.331,143.007z"/>
<path id="outline" fill-rule="evenodd" clip-rule="evenodd" d="M264.484,132.007c0.086-0.352,0.17-0.707,0.254-1.059
	c-0.092-0.021-0.188-0.042-0.278-0.063c-0.082,0.354-0.163,0.707-0.244,1.059C264.305,131.966,264.394,131.986,264.484,132.007
	C264.57,131.655,264.394,131.986,264.484,132.007z"/>
<path id="outline" fill-rule="evenodd" clip-rule="evenodd" d="M115.53,175.189c1.065,3.047,5.041,5.172,3.349,0.678
	c-1.203-3.241-3.479-7.797-1.421-11.157c-1.098-1.714-1.94-1.157-2.74,0.688C113.416,168.421,114.497,172.239,115.53,175.189
	C115.911,176.279,115.062,173.853,115.53,175.189z"/>
</svg>
