<svg class="hand" version="1.1" id="Layer_1" xmlns="http://www.w3.org/2000/svg" xmlns:xlink="http://www.w3.org/1999/xlink" x="0px" y="0px"
	 width="280px" height="280px" viewBox="0 0 280 280" enable-background="new 0 0 280 280" xml:space="preserve">
<path id="background" fill="none" d="M278.66,91.24c0,0,0-0.01-0.01-0.01c-0.021-0.01-0.631-0.36-0.812-0.47c-0.04-0.02-0.09-0.05-0.13-0.07
	l-0.02-0.02c-0.012,0-0.021-0.01-0.03-0.01c-4.49-2.64-12.091-7.65-17.142-5.44c-6.408,2.79-10.92,2.49-17.828,1.11
	c-14.32-2.88-28.461-6.66-42.74-9.79c-14.311-3.13-28.32-5.05-42.2-9.95c-7.021-2.47-13.59-6.33-20.81-8.21
	c-6.23-1.64-10.23,3.48-14.25,7.26c-4.4,4.15-35.09-11.42-36.47-0.55c-0.56,4.22-8.95,5.74-10.63,9.16
	c-2.44,4.97-11.53,6.01-16.29,6.98c-14.25,2.9-29.19,4.5-43.69,5.5c-4.43,0.31-14.92-0.15-15.75,5.96
	c-0.85,6.27,4.29,13.39,9.54,15.85c-0.8,15.77,20.31,15.3,30.86,16.69c-0.26,4.09-1.75,8.36,3.36,9.56
	c4.28,1.01,10.24-0.04,14.44-1.06c5.08-1.25,7.65-3.62,12.82-3.35c5.19,0.26,11.67-1.84,16.17-4.38c2.53-1.42,8.13-4.96,9.12-7.74
	c1.31-3.68,11.07-2.49,14.2-2.56c10.25-0.22,18.6,10.52,27.94,13.5c7.49,5.96,16.39,9.09,23.61,15.63
	c3.28,11.32,1.62,20.74-8.5,27.979c-8.938,6.371-20.14,10.842-27.98,18.551c-3.21,3.149-6.82,7.541-8.34,11.791
	c-2.2,6.14-0.51,9.039,2.86,14.398c5.26,8.4,20.77,0.25,27.49-3.08c4.96-2.46,11.01-4.25,15.51-7.47
	c5.561-3.979,10.21-10.34,15.01-15.21c3.881-3.939,7.141-3.7,12.271-5.09c6.029-1.641,12.479-3.07,17.89-6.34
	c10.08-6.092,19.62-13.98,28.2-22.012c4.02-3.76,6.609-7.289,12.699-6.55c6.189,0.75,13.5,0.99,19.681,0.11v-0.01l11.181-56.8
	C280.77,93,280.09,92.12,278.66,91.24z M126.3,207.43c-0.01-0.039-0.02-0.09-0.03-0.13c0.01,0.05,0.03,0.101,0.04,0.142
	C126.3,207.439,126.3,207.43,126.3,207.43z M258.18,89.86c0,0-0.02,0-0.05,0.01c-0.01,0-0.021,0-0.021,0
	c-0.09-0.01-0.199-0.21-0.311-0.32c0.311-0.37,0.59-0.37,0.82,0C258.45,89.67,258.32,89.82,258.18,89.86z M262.02,89
	c-0.188,0-0.369-0.06-0.56-0.09c0.11-0.46,0.37-0.53,0.771-0.23C262.141,88.83,262.08,88.99,262.02,89z"/>
<path id="outline" d="M278.218,90.976c-4.399-2.511-12.426-8.052-17.694-5.758c-6.414,2.795-10.926,2.495-17.828,1.108
	c-14.323-2.877-28.467-6.659-42.745-9.781c-14.31-3.131-28.323-5.056-42.198-9.952c-7.018-2.476-13.595-6.328-20.807-8.215
	c-6.233-1.634-10.229,3.487-14.25,7.259c-4.402,4.15-35.089-11.412-36.472-0.546c-0.565,4.218-8.957,5.74-10.629,9.159
	c-2.442,4.975-11.527,6.009-16.289,6.98c-14.25,2.905-29.19,4.504-43.693,5.503c-4.427,0.305-14.925-0.154-15.75,5.96
	c-0.846,6.267,4.292,13.389,9.535,15.851c-0.799,15.772,20.315,15.298,30.867,16.689c-0.268,4.088-1.752,8.359,3.356,9.56
	c4.283,1.007,10.236-0.037,14.444-1.066c5.075-1.242,7.65-3.612,12.815-3.347c5.187,0.266,11.676-1.834,16.176-4.374
	c2.523-1.424,8.126-4.962,9.115-7.745c1.31-3.683,11.068-2.493,14.204-2.561c10.245-0.223,18.596,10.526,27.933,13.497
	c7.492,5.959,16.394,9.091,23.617,15.633c3.278,11.32,1.614,20.738-8.508,27.979c-8.932,6.375-20.131,10.842-27.97,18.553
	c-3.211,3.15-6.827,7.544-8.347,11.789c-2.197,6.143-0.504,9.037,2.859,14.404c5.261,8.396,20.769,0.248,27.492-3.084
	c4.96-2.457,11.014-4.248,15.51-7.47c5.558-3.981,10.212-10.343,15.015-15.216c3.875-3.932,7.135-3.691,12.264-5.086
	c6.037-1.643,12.484-3.07,17.891-6.338c10.078-6.088,19.618-13.981,28.201-22.008c4.025-3.765,6.607-7.291,12.699-6.555
	c6.195,0.754,13.506,0.992,19.683,0.108c0.021-4.651-27.364-4.365-30.032-0.952c-7.842,10.037-19.484,17.895-29.916,25.059
	c-10,6.867-24.293,5.566-32.908,13.387c-4.629,4.205-10.176,8.271-13.746,13.44c-2.559,3.706-9.271,4.843-13.246,6.755
	c0.203-0.925,0.347-1.576,0.396-1.797c-4.223-6.881-5.392-18.127-15.252-12.154c-3.584,2.172-10.353,4.521-11.927,8.772
	c-1.591,4.272,3.27,9.323,5.928,11.996c-3.958,0.129-7.408-7.147-7.322-10.44c0.129-4.938,5.708-11.13,9.282-14.111
	c8.473-7.066,19.208-10.174,27.284-17.862c8.9-8.476,11.419-16.242,8.129-28.003c-1.324-4.709-3.15-4.073-6.508-7.022
	c-5.006-4.4-10.641-7.504-16.279-10.993c-4.763-2.946-9.578-5.718-14.539-8.318c-2.89-1.515-5.789-3.011-8.664-4.552
	c-1.599-0.858-2.41-2.997-4.471-2.72c-11.978,1.618-24.75,1.515-36.834,1.655c-5.247,0.061-7.824-0.525-13.057,1.405
	c-5.754,2.124-11.146,4.511-17.22,5.446c-6.576,1.011-27.44,2.728-30.897-5.062c3.582-3.134,9.926-2.372,13.959-5.556
	c1.361-1.073,3.236-2.044,4.176-3.582c0.738-1.209,0.133-4.169,1.459-4.792c4.612-2.167,11.625-2.059,16.646-3.095
	c6.868-1.417,13.772-2.75,20.703-3.824c12.587-1.951,24.857-5.191,37.617-6.046c5.049-0.338,10.173-0.079,15.192-0.752
	c1.526-0.205,13.007,1.737,12.004-0.871c-1.301-3.382-9.018-2.481-11.574-2.512c-5.652-0.068-11.274,0.331-16.96,0.679
	c-12.433,0.761-24.805,4.424-37.069,6.529c-11.004,1.889-22.029,3.585-32.949,5.926c-5.425,1.163-11.027,0.897-16.515,1.667
	c-4.125,0.578-12.228,0.988-14.842,4.938c-1.91-1.237-2.725-3.048-3.507-4.936c5.074,1.096,9.21-0.898,14.01-2.514
	c4.827-1.624,6.042-3.488,6.996-8.379c10.438-2.006,21.489-1.616,31.74-4.496c10.078-2.834,18.5-4.643,29.02-4.149
	c11.102,0.521,22.214-1.113,33.328-0.835c5.89,0.148,11.763,1.289,17.61,1.966c2.31,0.268,9.21,3.9,10.751,1.692
	c-2.943-6.631-23.562-6.465-29.741-6.524c-13.042-0.125-26.91,2.393-39.805-0.071c2.872-3.23,5.993-5.894,9.684-8.167
	c5.531-3.408,11.429-1.784,17.426-0.889c12.23,1.835,25.559,3.913,37.418,7.509c4.617,1.4,9.881,2.759,14.074,5.174
	c3.967,2.277,8.114,0.232,2.193-2.475c-2.8-1.28-5.627-2.57-8.652-3.224c-2.895-0.631-5.172-3.074-8.273-2.949
	c-2.192,0.09-5.813-1.55-8.031-1.955c-3.001-0.547-6.086-0.91-8.984-1.875c1.692-5.601,9.586-5.299,13.65-3.896
	c6.912,2.396,13.713,5.098,20.607,7.541c13.088,4.648,27.017,6.173,40.621,8.759c13.763,2.616,27.252,6.234,40.916,9.278
	c3.234,0.721,6.5,1.347,9.819,1.486c4.22,0.177,8.269-1.354,12.396-1.206c2.787,0.099,5.541,0.72,8.062,1.921
	c2.145,1.021,5.18,4.544,7.803,3.767C280.863,92.788,279.938,91.955,278.218,90.976C276.135,89.787,279.938,91.955,278.218,90.976z
	 M126.265,207.296c-1.099-3.971,8.145-8.048,10.731-9.599c3.6-2.152,6.404,6.859,7.248,9.369c-2.021,2.312-5.993,5.359-8.753,6.816
	C129.964,216.802,127.627,212.245,126.265,207.296C125.937,206.107,126.734,208.999,126.265,207.296z M78.083,118.568
	c2.41-3.544,10.715-1.771,14.425-1.771c-1.627,3.429-4.829,5.474-8.068,7.184c-2.594,1.37-10.613,4.673-13.406,2.768
	C73.207,123.885,75.988,121.658,78.083,118.568C78.904,117.361,76.238,121.29,78.083,118.568z M46.931,124.248
	c4.903-1.101,9.547-1.997,14.229-3.902c5.075-2.065,8.411-3.884,13.705-2.812c-0.988,3.403-5.834,7.458-8.7,9.26
	c-6.35,3.997-13.649,6.237-21.181,5.16C45.808,129.565,47.377,127.287,46.931,124.248C48.66,123.86,47.377,127.287,46.931,124.248z
	 M43.957,124.754c0.483,1.423-0.3,2.441-0.804,3.547c-0.139-0.047-0.276-0.093-0.413-0.14
	C43.145,127.026,43.552,125.892,43.957,124.754C44.44,126.178,43.552,125.892,43.957,124.754z M31.933,102.708
	c1.005,4.625-5.424,7.522-9.154,8.537c-2.098,0.571-5.938,1.7-7.072-0.964c-0.704-1.625-0.879-2.997-2.71-3.768
	C19.158,103.106,25.562,103.177,31.933,102.708C32.431,105,25.562,103.177,31.933,102.708z M3.63,94.243
	c0.876,1.221,0.882,2.669,1.135,4.453C3.613,97.145,3.115,95.825,3.63,94.243z M20.252,92.926
	c-4.918,2.032-12.169,6.629-13.685-0.949c5.087-2.666,10.51-1.814,15.816-2.339C22.631,91.497,21.42,92.443,20.252,92.926
	C17.022,94.261,21.42,92.443,20.252,92.926z M258.13,89.868c-0.094,0.013-0.221-0.208-0.332-0.323
	c0.316-0.364,0.589-0.362,0.818,0.004C258.432,89.679,258.293,89.846,258.13,89.868C258.036,89.881,258.293,89.846,258.13,89.868z
	 M262.02,88.996c-0.188,0.004-0.373-0.055-0.562-0.09c0.113-0.456,0.371-0.531,0.771-0.226
	C262.139,88.825,262.079,88.995,262.02,88.996z"/>
</svg>
