<svg version="1.1" id="Layer_1" xmlns="http://www.w3.org/2000/svg" xmlns:xlink="http://www.w3.org/1999/xlink" x="0px" y="0px"
	 width="720px" height="720px" viewBox="0 0 720 720" enable-background="new 0 0 720 720" xml:space="preserve">
<path id="background" fill="none" d="M709.63,213.47c-5.06-10.96-13.729-18.98-24.08-25.1c-2.29-1.36-4.88-2.21-7.16-3.59
	c-5.568-3.39-11.06-6.93-16.55-10.47c-3.46-2.22-6.07-5.05-7.04-9.28c-0.46-1.98-1.59-3.86-2.67-5.63
	c-5.35-8.72-12.1-16.23-20.22-22.44c-3.28-2.52-6.79-4.76-10.3-6.96c-1.552-0.97-3.33-1.24-5.29,0.76L459.43,94.68
	c-0.438-3.17-2.148-4.16-4-4.75c-2.68-0.86-5.448-1.47-8.21-2.11c-4.62-1.09-9.22-2.39-13.91-3.11
	c-9.438-1.45-18.618,1.3-27.85,2.51c-7.44,0.96-14.65,3.69-21.95,5.64c-1.84,0.49-3.89,0.66-5.438,1.62
	c-4.48,2.77-9.182,4.86-14.302,6.08c-0.71,0.17-1.39,0.5-2.038,0.85c-4.451,2.39-8.881,4.82-13.341,7.21
	c-6.79,3.64-13.59,7.27-20.42,10.85c-0.88,0.46-1.95,0.73-2.939,0.76c-3.8,0.12-6.87,1.48-9.17,4.59
	c-0.86,1.16-1.811,2.55-3.051,3.08c-5.449,2.37-10.959,4.62-16.56,6.58c-3.63,1.28-7.42,2.15-11.2,2.93
	c-7.57,1.56-15.14,3.17-22.77,4.3c-6.14,0.91-12.37,1.12-18.56,1.66c-0.89,0.08-1.76,0.34-2.65,0.39c-3.7,0.17-7.45,0.71-11.11,0.35
	c-10.81-1.07-21.59-2.49-32.38-3.79c-2.81-0.34-5.61-0.8-8.41-1.15c-8.11-1.02-16.24-1.97-24.34-3.03
	c-4.94-0.65-10.19,1.04-13.84-1.54c-3.58,0.64-6.28,1.24-9.02,1.59c-5.29,0.67-10.6,1.06-15.87,1.84
	c-5.58,0.82-11.12,1.94-16.67,2.96c-1.02,0.19-2.1,0.32-3.02,0.76c-2.68,1.26-5.18,2.9-8.41,2.35c-0.67-0.11-1.54,0.72-2.26,1.19
	c-1.34,0.88-2.59,1.88-3.97,2.7c-2.42,1.44-5.22,2.42-7.33,4.22c-10.28,8.8-21.05,17.16-28.48,28.81c-0.96,1.5-2.2,2.82-3.3,4.22
	c-3.97,5.08-6.63,10.84-8.47,16.97c-0.51,1.69-0.35,3.58-0.83,5.28c-2.25,7.85-2.12,15.88-2.04,23.91c0.01,1.16,0.12,2.48,0.68,3.44
	c1.85,3.17,2.15,7.17,5.41,9.63c0.71,0.55,0.91,2.18,0.84,3.28c-0.26,4.15-0.63,8.3-1.15,12.42c-0.62,4.86-2.14,9.71-2.05,14.53
	c0.21,10.55,1.14,21.09,1.88,31.63c0.22,3.1,0.89,6.18,1.15,9.28c0.44,5.18,0.88,10.37,1,15.56c0.07,3.1-0.4,6.23-0.74,9.33
	c-0.51,4.72-1.58,9.43-1.59,14.15c-0.03,9.56-3.01,18.35-7.68,26.27c-4.04,6.83-9.75,12.68-14.73,18.95
	c-0.93,1.17-1.95,2.25-2.87,3.43c-4.82,6.2-9.58,12.45-14.44,18.62c-1.87,2.37-2.3,3.87-0.82,6.51c2.76,4.96,3.15,10.45,3.93,15.88
	c0.37,2.632,0.8,5.271,1.21,7.9c0.27,1.74,0.71,3.46,0.78,5.21c0.25,5.8,0.45,11.6,0.49,17.41c0.02,3.71-0.14,7.438-0.45,11.14
	c-0.59,7.11-1.42,14.2-2.01,21.312c-0.61,7.41-0.98,14.83-1.58,22.229c-0.36,4.45-0.97,8.88-1.42,13.32
	c-0.52,5.02-0.65,10.12-1.55,15.07c-0.95,5.18-1.32,10.34-0.85,15.52c0.58,6.34,1.43,12.65,2.35,18.96c0.91,6.312,2,12.61,3.1,18.9
	c0.32,1.87,1.84,2.5,3.37,1.84c1.26-0.55,2.85-1.64,3.18-2.811c1.28-4.579,5.31-5.029,8.74-6.851c3.04,7.3,4.53,14.51,4.7,22.03
	c0.11,5.029,1.62,6.59,6.64,7.09c5.34,0.521,10.68,0.979,16.04,1.4c7.81,0.608,15.61,2.778,23.46,0.198
	c0.68-0.22,1.48-0.079,2.23-0.119c5.65-0.301,10.55-2.261,15.19-5.659c4.99-3.65,5.23-7.04,1.25-11.98
	c-0.92-1.149-2.07-2.14-3.2-3.09c-2.4-2.01-4.95-3.84-7.26-5.93c-5.52-4.98-11.35-9.54-17.6-13.551
	c-2.63-1.681-5.22-3.609-8.1-4.641c-2.28-0.819-3.28-2.06-4.15-4.1c-4.47-10.5-6.29-21.71-8.85-32.722
	c-0.41-1.738-0.64-3.52-0.82-5.3c-1.24-12.529,0.09-24.97,1.56-37.38c0.3-2.49,1-4.96,1.76-7.359c1.43-4.511,3.34-8.891,4.52-13.46
	C55.48,478.78,59.1,469.03,63,459.38c3.16-7.86,6.34-15.72,9.69-23.49c1.58-3.64,3.4-7.21,5.45-10.6c3.53-5.85,7-11.771,11.11-17.2
	c4.21-5.56,9.14-10.56,13.79-15.779c0.4-0.439,1.04-0.67,1.42-0.899c2.36,8.74-1.71,16.64-2.09,24.91
	c-0.03,0.568-0.37,1.13-0.63,1.67c-3.06,6.55-5.97,13.18-9.27,19.62c-3.73,7.3-2.33,14.688,0.11,21.62
	c3.45,9.818,9.53,18.408,15,27.229c6.03,9.71,12.44,19.17,18.39,28.93c4.56,7.49,8.74,15.222,12.93,22.932
	c1.62,2.979,2.98,6.14,4.13,9.33c1.11,3.08,1.76,6.31,2.68,9.46c2.72,9.409,5.58,18.77,8.17,28.22c1.91,6.99,4.91,9.64,12.22,10.12
	c4.49,0.29,4.69,0.26,5.53,4.55c1.59,8.14,6.7,14.17,11.98,20c1.55,1.71,4.31,3.1,6.59,3.22c6.82,0.38,13.68,0.04,20.52,0
	c6.98-0.02,13.96-0.12,20.93,0.021c3.74,0.08,8.18-2.05,9.71-5.16c1.47-2.98,0.52-6.4-2.42-9.73c-1.86-2.108-3.47-4.43-5.16-6.68
	c-1.87-2.479-3.66-5.04-5.59-7.479c-3.95-5.021-8.12-9.881-11.87-15.052c-1.37-1.869-2.71-3.358-4.75-4.479
	c-1.78-0.99-3.38-2.4-4.85-3.84c-2.23-2.16-4.32-4.472-6.41-6.78c-1.19-1.32-2.32-2.72-3.36-4.16
	c-8.55-11.84-15.86-24.47-23.11-37.109c-6.29-10.96-11.89-22.21-15.86-34.381c-3.54-10.829-4.76-21.448-2.7-32.488
	c0.83-4.48,1.03-9.271,4.69-12.762c0.5-0.479,0.76-1.29,0.95-1.979c0.83-3.11,3.61-5.76,2.17-9.44c-0.17-0.449,0.66-1.27,1.01-1.92
	c2.94-5.52,6.09-10.938,8.75-16.59c5.03-10.689,11.67-20.39,18.03-30.271c1.1-1.709,1.8-3.689,2.73-5.521
	c1.87-3.688,3.72-7.399,5.68-11.04c2.36-4.41,4.8-8.77,7.27-13.12c1.28-2.26,1.49-5.18,4.45-7.13c3.62,2.15,7.29,4.36,10.98,6.52
	c1.91,1.12,3.76,2.45,5.82,3.22c9.51,3.55,19.2,6.398,29.35,7.529c7.98,0.891,15.92,2.421,23.93,2.859
	c9.36,0.51,18.78,0.562,28.141,0.07c12.46-0.65,25.039-1.189,36.6-6.9c0.4-0.2,0.84-0.33,1.27-0.43c6.79-1.45,12.83-4.7,18.881-7.92
	c1.27-0.67,2.608-1.2,4.17-1.92c0.17,1.06,0.39,1.63,0.33,2.17c-0.74,7.71-1.312,15.439-2.37,23.109
	c-1.021,7.279-1.92,14.461,0.479,21.659c0.55,1.66,0.5,3.53,0.642,5.312c0.55,7.13,1.198,14.21,3.77,20.99
	c0.77,2.02,1.25,4.31,1.18,6.438c-0.22,6.84-1.13,13.66-1.04,20.47c0.07,5.922,1.19,11.812,1.78,17.722
	c0.58,5.778,1.12,11.56,1.64,17.35c0.82,9.352,1.562,18.681,0.671,28.11c-0.989,10.37-1.409,20.8-1.949,31.21
	c-0.45,8.479-0.75,16.96-1.051,25.43c-0.319,8.78-0.609,17.562-0.851,26.34c-0.22,7.75,0.01,15.432,3.03,22.79
	c1.31,3.222,2.74,4.17,6,3.36c2.72-0.67,3.76-2.61,4.42-5.062c0.43-1.608,1.13-3.14,1.71-4.71c0.38,0.012,0.75,0.012,1.13,0.021
	c0.521,1.62,1.3,3.2,1.47,4.86c0.28,2.648,0.21,5.34,0.19,8.02c-0.04,5.55,1.979,8.45,7.438,9.36
	c5.852,0.988,11.79,1.59,17.711,2.06c3.841,0.3,7.729,0.12,11.601,0.08c3.42-0.04,6.84-0.11,10.25-0.28
	c2.64-0.14,5.31-0.25,7.899-0.738c2.739-0.54,5.369-1.771,8.119-2.25c4.66-0.83,5.642-2.682,2.972-6.562
	c-2.07-3.01-4.271-5.92-6.972-9.66c1.44,0.5,1.94,0.66,2.44,0.86c4.24,1.72,8.5,2.229,13.109,1.479
	c4.529-0.729,9.221-1.229,13.771-0.89c3.34,0.25,6.46,0.15,9.65-0.689c1.14-0.301,2.369-0.171,3.54-0.369
	c2.18-0.4,4.448-0.642,6.51-1.41c4.18-1.55,5.18-4.48,3.17-8.54c-0.391-0.8-0.72-1.69-1.32-2.32c-5.42-5.7-9.89-12.33-16.51-16.87
	c-0.82-0.56-1.92-1.438-2-2.25c-0.24-2.67-2.26-3.18-4.09-4.16c-2.34-1.26-4.9-2.39-6.79-4.18c-9.01-8.57-16.41-18.42-22.47-29.28
	c-0.87-1.56-1.98-3.05-2.512-4.72c-3.35-10.63-4.869-21.57-3.869-32.66c0.949-10.35,2.729-20.64,3.979-30.97
	c0.57-4.72,1.35-9.54,0.92-14.22c-0.93-9.94-3.32-19.642-6.899-29.011c-0.439-1.171-0.431-2.659-0.189-3.921
	c1.72-8.898,3.43-17.81,5.36-26.67c1.63-7.42,3.858-14.709,5.278-22.16c1.66-8.76,2.562-17.658,4.102-26.45
	c0.988-5.62,3.108-10.76,7.398-14.91c6.61-6.38,13.67-12.4,18.32-20.56c2.8-4.91,5.95-9.67,6.68-15.42
	c0.682-5.31,1.38-7.68,4.03-12.43c3.22-5.77,7.38-10.83,12.04-15.42c3.37-3.32,7.13-6.3,10.979-9.05
	c3.289-2.35,7.011-3.75,11.261-2.57c1.108,0.31,2.479,0.43,3.51,0.05c4.12-1.52,7.9-0.12,11.64,1.17c2.392,0.83,3.94,2.62,3.44,5.54
	c-0.66,3.79-1.01,7.64-1.86,11.39c-0.88,3.9,0.23,5.39,4.142,4.91c2.318-0.29,4.648-0.47,7.198-0.73c0.71,2.17,1.32,3.98,1.9,5.8
	c1.36,4.25,2.65,8.53,4.09,12.75c0.32,0.93,0.97,2.01,1.771,2.43c0.93,0.49,2.438,0.77,3.238,0.32c0.762-0.42,1.03-1.88,1.271-2.94
	c0.37-1.55-1.73-3.3,0.38-5.01c1.54,1.5,1.561,3.2,1.36,4.98c-0.45,3.99-0.932,7.98-1.312,11.99c-0.13,1.31-0.08,2.67,0.142,3.97
	c0.29,1.68,1.568,2.79,3.158,2.53c1.102-0.17,2.33-1.18,2.972-2.16c0.59-0.92,0.479-2.29,0.68-3.46c0.23-1.47,0.46-2.93,0.69-4.39
	c0.358,0,0.72-0.01,1.08-0.01c0.84,2.19,1.538,4.44,2.568,6.54c2.92,6.01,5.9,12,9.04,17.91c1.04,1.95,3.16,2.46,4.54,1.49
	c1.74-1.23,1.19-2.76,0.55-4.39c-0.568-1.46-1.148-3.03-1.188-4.56c-0.07-2.82,0.278-5.65,0.409-8.47
	c0.181-3.99,2.199-8.49,5.211-11.11c0.729,1.15,1.39,2.27,2.13,3.35c0.67,0.97,1.31,2.03,2.18,2.79c2.66,2.29,5.729,1.2,6.15-2.26
	c0.33-2.65,0.13-5.36,0.438-8.02c0.21-1.87,0.45-3.99,1.44-5.48c2.02-3.02,4.568-5.69,6.96-8.58c1.45,1.35,2.68,3.18,4.95,1.93
	c2.29-1.25,4.64-7.13,4.01-9.74c-1.24-5.21-1.09-10.34,1.22-15.26c1.57-3.35,3.47-6.57,4.88-9.98c1.57-3.79,4.38-5.31,8.102-5.73
	c1.25,2.62,2.238,5.11,3.59,7.39c1.42,2.4,3.01,4.76,4.84,6.85c1.74,1.97,4.43,3.24,5.76,5.39c1.82,2.95,4.49,3.87,7.3,5.16
	c4.021,1.85,7.672,2.2,11.28-0.68c0.32-0.25,0.82-0.27,1.41-0.45c0.71,0.93,1.33,1.95,2.15,2.78c1.778,1.78,3.479,3.7,5.528,5.11
	c2.302,1.58,4.95,2.65,7.432,3.96c4.85,2.58,13.358,0.49,16.409-4.07c2.141-3.21,3.131-6.67,2.061-10.55
	c-1.47-5.29-0.83-9.99,3.88-13.56c0.67-0.5,1.29-1.35,1.45-2.14c1.2-5.64,2.979-11.18,2.6-17.06c-0.14-2.08-0.13-4.2,0.11-6.26
	C716.18,229.46,713.2,221.22,709.63,213.47z M413,568.85c-1.94-5.908-3.41-12.028-4.43-18.158c-1.17-7.021-1.44-14.182-2.46-21.23
	c-0.9-6.18,0.318-12.16,0.97-18.2c0.11-0.96,0.66-1.88,1.31-3.608c2.562,3.618,3.65,7.09,4.87,10.5
	c0.642,1.778,1.521,3.46,2.142,5.238c0.64,1.812,1.39,3.66,1.59,5.54c0.56,5.46,1.898,11.12,1.02,16.38
	c-0.97,5.79,0.15,11.2,0.45,16.762c0.271,4.87,1.271,9.688,1.93,14.55c0.15,1.148,0.2,2.32,0.4,4.58
	C416.21,577.44,414.41,573.1,413,568.85z M443.54,603.87c0.94,2.59,1.8,4.97,2.66,7.36c-0.23,0.148-0.46,0.31-0.7,0.46
	c-1.38-1.28-2.86-2.46-4.11-3.86C439.84,606.08,440.63,604.89,443.54,603.87z"/>
<path id="outline" d="M709.626,213.466c-5.053-10.957-13.729-18.978-24.077-25.099c-2.289-1.355-4.881-2.208-7.159-3.59
	c-5.573-3.391-11.059-6.923-16.545-10.462c-3.461-2.228-6.07-5.052-7.047-9.29c-0.46-1.979-1.586-3.86-2.667-5.624
	c-5.354-8.717-12.099-16.229-20.22-22.441c-3.284-2.516-6.796-4.765-10.306-6.964c-1.549-0.968-3.328-1.236-5.286,0.768
	c0.913,1.273,1.644,2.68,2.719,3.733c5.296,5.209,10.651,10.365,16.055,15.464c6.507,6.14,10.947,13.781,15.031,21.525
	c2.423,4.599,5.517,8.087,9.858,10.566c5.806,3.315,11.782,6.332,17.584,9.657c3.479,1.994,6.938,4.105,10.07,6.589
	c3.008,2.394,5.731,5.2,8.323,8.063c7.065,7.807,11.035,17.118,11.055,27.581c0.013,6.627-1.63,13.246-2.357,19.889
	c-0.448,4.004-1.952,7.472-4.557,10.462c-2.572,2.952-3.053,6.358-2.467,10.051c0.189,1.176,0.504,2.337,0.586,3.521
	c0.275,4.001-0.706,5.353-4.544,6.488c-3.439,1.017-10.431-1.594-12.097-4.769c-2.347-4.469-4.712-8.955-6.619-13.617
	c-2.283-5.597-5.052-10.717-9.72-14.728c-7.776-6.681-15.212-13.771-23.277-20.074c-2.391-1.869-4.291-4.336-7.021-5.798
	c-1.233-0.657-2.341-1.465-3.688-0.531c-1.328,0.924-1.78,2.18-1.561,3.875c0.466,3.589,2.969,5.26,5.763,6.845
	c2.831,1.604,5.763,3.145,8.293,5.162c4.888,3.885,9.431,8.201,14.287,12.126c6.323,5.108,8.9,12.498,12.191,19.443
	c0.981,2.07-0.101,3.627-2.436,3.599c-1.986-0.025-4.139-0.482-5.913-1.363c-4.932-2.447-8.104-6.882-11.739-10.833
	c-2.631-2.868-4.379-5.979-4.97-9.776c-0.321-2.054-0.353-4.193-0.97-6.149c-0.346-1.101-1.516-2.498-2.503-2.667
	c-0.855-0.148-2.159,1.088-2.934,1.994c-0.616,0.721-0.735,1.868-0.956,2.491c-2.024,0.74-3.8,1.158-5.321,2.007
	c-1.535,0.856-2.919,2.044-4.203,3.265c-1.799,1.72-3.945,3.344-5.071,5.467c-2.931,5.54-5.134,11.388-5.512,17.789
	c-0.093,1.582-0.502,3.325-1.32,4.64c-1.717,2.74-3.585,5.449-5.788,7.804c-4.548,4.876-9.688,9.29-10.053,17.182
	c-0.862-0.95-1.313-1.227-1.409-1.598c-0.762-2.79-3.008-3.758-5.417-3.778c-2.913-0.028-3.12,2.721-3.844,4.787
	c-1.598,4.596-3.189,9.195-5.083,14.64c-0.92-1.931-1.522-3.064-2.015-4.247c-2.447-5.879-2.604-12.195-3.446-18.377
	c-0.554-4.11-1.787-4.812-5.518-3.085c-0.373,0.17-0.837,0.151-1.14,0.201c-1.938-1.066-1.78-2.621-1.509-4.341
	c0.301-1.916-0.857-3.158-2.53-3.737c-1.762-0.606-3.146-0.002-4.076,1.73c-0.566,1.057-1.409,1.963-2.259,3.105
	c-2.385-3.507-2.062-6.64-1.328-9.94c0.895-3.964-1.434-6.694-5.423-6.754c-0.817-0.013-1.629-0.003-2.61-0.003
	c0-5.184,0.031-10.085-0.021-14.986c-0.024-2.28,0.146-4.291,1.977-6.114c1.031-1.033,1.321-2.908,1.737-4.461
	c0.484-1.862,0.59-3.831,1.131-5.671c0.787-2.633,0.578-4.97-1.357-7.225c-6.467,0.717-4.215,7.634-7.568,10.952
	c-1.119-0.941-2.373-1.61-3.064-2.652c-2.717-4.064-6.555-6.895-10.343-9.779c-1.049-0.796-2.214-1.545-3.446-1.967
	c-2.359-0.817-4.284-0.128-5.032,1.523c-0.729,1.613,0.088,3.252,2.497,4.555c5.692,3.074,9.695,7.898,13.187,13.095
	c1.661,2.469,2.912,5.429,1.718,9.163c-2.585-0.991-4.964-1.796-7.253-2.796c-5.053-2.202-10.242-3.237-15.652-1.724
	c-2.128,0.597-4.071,1.862-6.203,2.425c-4.92,1.296-8.665,4.668-12.501,7.533c-3.852,2.879-6.89,6.968-9.891,10.831
	c-5.096,6.572-10.343,13.105-14.709,20.161c-6.682,10.824-15.854,19.263-25.024,27.722c-2.766,2.545-6.28,4.262-9.804,6.587
	c-0.466-3.136-0.704-5.643-1.238-8.084c-0.586-2.665-2.53-3.932-4.826-3.466c-2.126,0.427-2.631,1.831-2.465,4.863
	c0.375,7.106,1.634,14.212,0.312,21.343c-0.592,3.221-1.228,6.436-1.913,9.641c-2.637,12.218-4.593,24.589-9.016,36.384
	c-3.127,8.347-5.832,16.849-8.812,25.521c-5.475,2.073-5.814,2.926-4.305,9.108c0.729,3.021,1.146,6.147,1.43,9.248
	c0.903,9.94-1.091,19.541-3.557,29.092c-2.303,8.939-4.725,17.86-6.581,26.902c-1.674,8.146-3.146,16.4-3.786,24.687
	c-0.717,9.166-0.365,18.333,1.435,27.523c1.938,9.953,3.446,19.949,7.5,29.336c0.577,1.354,1.095,2.789,1.937,3.977
	c4.291,6.077,8.669,12.093,13.043,18.12c1.037,1.427,2.14,2.804,3.126,4.089c-3.359,7.177-17.931,16.777-25.039,16.559
	c-0.32-0.888-0.823-1.824-0.988-2.818c-0.364-2.202-0.772-4.43-0.772-6.648c0.013-3.538-1.686-6.249-3.712-8.857
	c-1.724-2.223-4.097-2.505-6.141-0.605c-0.97,0.896-1.648,2.109-2.503,3.134c-1.185,1.43-2.165,3.128-4.48,3.706
	c-0.245-1.246-0.616-2.228-0.609-3.209c0.058-10.425-0.037-20.854,0.352-31.267c0.266-7.129,1.323-14.228,1.844-21.347
	c0.359-4.89,0.404-9.803,0.604-14.703c0.466-11.727,1.008-23.453,1.372-35.188c0.082-2.654-0.416-5.328-0.648-7.997
	c-0.824-9.468-1.314-18.975-2.572-28.38c-1.146-8.594-2.063-17.1-0.102-25.655c0.289-1.246,0.592-2.681,1.391-3.584
	c1.895-2.122,1.454-4.19,0.132-6.13c-4.008-5.865-5.02-12.612-6.001-19.383c-0.377-2.65-0.579-5.329-0.97-7.979
	c-1.321-8.939-4.026-17.812-1.119-26.938c0.266-0.823,0.081-1.784,0.157-2.674c0.484-5.785,0.962-11.573,1.491-17.354
	c0.371-4.004,0.904-7.996,1.201-12.003c0.339-4.646-2.637-6.616-6.826-4.543c-1.861,0.925-3.573,2.146-5.402,3.153
	c-3.386,1.861-6.787,3.705-10.219,5.476c-2.373,1.224-4.741,2.511-7.235,3.429c-6.267,2.31-12.462,5.108-18.95,6.477
	c-12.271,2.589-24.837,2.941-37.359,2.772c-3.495-0.048-6.99-1.117-10.459-1.844c-3.611-0.755-7.157-2.145-10.793-2.404
	c-7.902-0.553-15.636-1.802-23.331-3.655c-16.898-4.073-32.976-9.937-47.442-19.855c-5.37-3.68-11.186-6.701-16.744-10.113
	c-2.126-1.308-4.099-2.869-6.603-4.636c3.75-3.42,7.129-6.518,10.526-9.592c4.192-3.79,8.562-7.398,12.563-11.377
	c5.696-5.665,11.254-11.481,16.634-17.448c3.963-4.398,8.379-8.51,10.622-14.234c0.865-2.206,2.122-4.269,2.873-6.506
	c0.65-1.94,1.145-4.042,1.11-6.062c-0.018-1.051-1.116-2.469-2.115-3.025c-1.49-0.828-2.409,0.565-3.101,1.751
	c-0.755,1.287-1.431,2.618-2.151,3.92c-3.675,6.647-7.022,13.467-12.565,18.917c-5.196,5.112-9.962,10.661-15.177,15.753
	c-5.318,5.197-10.992,10.031-16.433,15.102c-2.942,2.743-5.655,5.725-8.596,8.468c-7.079,6.596-14.237,13.105-21.344,19.672
	c-1.314,1.215-2.535,2.527-3.786,3.803c-3.653,3.718-7.175,7.568-10.977,11.129c-4.337,4.067-9.256,7.556-13.321,11.866
	c-7.037,7.454-13.607,15.344-20.37,23.055c-0.098,0.108-0.172,0.244-0.265,0.36c-4.04,4.938-7.711,10.246-12.196,14.742
	c-9.314,9.332-15.867,20.535-21.624,32.087c-5.162,10.361-9.003,21.396-13.099,32.263c-3.466,9.189-6.568,18.527-9.635,27.855
	c-2.736,8.323-6.015,16.521-6.719,25.398c-0.201,2.521-0.39,5.052-0.777,7.557c-1.686,10.871-0.639,21.642,1.24,32.368
	c0.613,3.51,1.771,6.925,2.372,10.442c1.289,7.523,3.152,14.868,6.668,21.668c2.265,4.373,4.089,9.292,9.77,10.619
	c0.507,0.12,0.896,0.729,1.325,1.095c-2.303,3.731-11.032,12.722-14.146,14.162c-1.931,0.899-4.124,1.232-6.291,1.85
	c-0.51-1.232-1.038-1.913-1.022-2.58c0.125-5.555-2.74-10.297-4.083-15.45c-0.761-2.932-2.799-4.661-5.567-5.185
	c-2.728-0.516-4.852,0.717-6.185,3.334c-0.843,1.661-2.258,2.743-4.567,2.41c-0.337-0.692-0.913-1.422-1.061-2.241
	c-0.853-4.686-1.704-9.379-2.362-14.097c-1.645-11.805,0.364-23.492,1.355-35.201c0.63-7.404,1.824-14.759,2.51-22.163
	c0.758-8.146,1.013-16.345,1.863-24.479c1.405-13.516,1.924-27.055,1.5-40.617c-0.104-3.26-0.776-6.506-1.391-9.721
	c-1.251-6.567-2.701-13.1-3.955-19.668c-0.5-2.631,0.363-4.923,2.156-6.99c2.041-2.359,3.783-4.978,5.778-7.389
	c1.507-1.817,3.208-3.478,4.81-5.221c1.511-1.641,3.105-3.215,4.486-4.96c2.67-3.382,5.011-7.047,7.855-10.271
	c8.722-9.9,12.591-21.759,14.375-34.504c0.642-4.573,1.211-9.16,1.613-13.758c0.781-8.894,1.863-17.783,0.246-26.719
	c-0.742-4.099-1.29-8.245-1.711-12.392c-0.858-8.42-1.633-16.848-2.299-25.284c-0.151-1.893-0.255-4.102,0.55-5.693
	c1.57-3.105,1.435-6.342,1.799-9.575c0.853-7.535,1.372-15.138,2.775-22.57c1.824-9.645,4.241-19.205,9.198-27.861
	c1.554-2.715,3.189-5.379,4.788-8.065c2.431-4.087,4.888-8.157,7.278-12.265c0.664-1.142,1.394-2.35,1.629-3.614
	c0.337-1.815-0.002-3.944-1.884-4.536c-1.042-0.328-2.775,0.645-3.819,1.494c-0.972,0.796-1.457,2.199-2.129,3.351
	c-0.969,1.664-1.907,3.35-2.873,5.021c-4.23,7.332-8.468,14.662-12.708,21.991c-1.126,1.947-2.048,4.086-4.514,5.634
	c-2.334-14.306-0.412-26.942,8.773-37.889c1.818-2.171,3.485-4.521,5.568-6.405c5.841-5.288,11.347-11.193,17.933-15.344
	c8.773-5.531,18.288-9.994,27.779-14.256c9.263-4.162,19.032-6.911,29.343-7.16c5.498-0.132,10.989-0.453,16.489-0.626
	c9.276-0.29,18.446,0.795,27.568,2.321c7.917,1.328,15.788,2.935,23.724,4.108c5.886,0.872,11.833,1.396,17.769,1.786
	c4.282,0.283,8.594,0.114,12.895,0.095c1.035-0.003,2.069-0.201,3.104-0.312c9.022-0.965,18.157-1.34,27.034-3.045
	c11.2-2.151,22.676-3.563,33.117-8.725c0.797-0.394,1.712-0.528,2.545-0.846c2.773-1.047,5.654-1.894,8.276-3.247
	c3.697-1.903,7.12-4.334,10.798-6.278c9.21-4.86,18.834-9.028,27.663-14.492c10.275-6.361,21.677-9.828,32.637-14.41
	c11.071-4.625,22.949-6.295,34.664-8.431c2.188-0.399,4.492-0.657,6.675-0.421c9.594,1.042,19.163,2.292,28.745,3.45
	c1.102,0.136,2.221,0.148,3.762,0.246c-0.438-3.167-2.15-4.162-4.001-4.75c-2.68-0.856-5.447-1.466-8.204-2.111
	c-4.624-1.085-9.223-2.387-13.915-3.107c-9.438-1.45-18.622,1.305-27.846,2.507c-7.443,0.969-14.653,3.69-21.957,5.646
	c-1.837,0.491-3.887,0.658-5.436,1.617c-4.479,2.768-9.186,4.866-14.297,6.084c-0.712,0.17-1.396,0.5-2.046,0.849
	c-4.449,2.391-8.88,4.82-13.334,7.207c-6.797,3.64-13.595,7.276-20.424,10.85c-0.878,0.459-1.948,0.736-2.94,0.764
	c-3.795,0.113-6.868,1.478-9.17,4.589c-0.858,1.162-1.812,2.548-3.048,3.083c-5.448,2.363-10.959,4.615-16.565,6.581
	c-3.626,1.277-7.419,2.149-11.198,2.926c-7.564,1.56-15.137,3.174-22.771,4.299c-6.134,0.906-12.365,1.123-18.552,1.665
	c-0.89,0.079-1.765,0.339-2.655,0.381c-3.701,0.173-7.448,0.713-11.104,0.352c-10.816-1.063-21.597-2.482-32.387-3.788
	c-2.809-0.34-5.603-0.799-8.411-1.151c-8.11-1.02-16.232-1.97-24.339-3.033c-4.938-0.648-10.191,1.045-13.838-1.538
	c-3.582,0.642-6.283,1.239-9.02,1.588c-5.285,0.677-10.604,1.063-15.871,1.84c-5.58,0.821-11.116,1.947-16.668,2.96
	c-1.023,0.188-2.099,0.328-3.021,0.761c-2.677,1.261-5.18,2.896-8.411,2.354c-0.67-0.114-1.535,0.717-2.258,1.192
	c-1.337,0.875-2.592,1.88-3.967,2.696c-2.428,1.44-5.224,2.419-7.329,4.221c-10.289,8.799-21.057,17.156-28.483,28.805
	c-0.959,1.501-2.199,2.822-3.3,4.227c-3.977,5.081-6.634,10.833-8.472,16.965c-0.509,1.693-0.347,3.583-0.83,5.288
	c-2.246,7.842-2.123,15.873-2.038,23.901c0.013,1.161,0.116,2.485,0.676,3.444c1.849,3.168,2.152,7.175,5.41,9.635
	c0.715,0.542,0.913,2.174,0.84,3.274c-0.261,4.149-0.626,8.299-1.151,12.422c-0.62,4.86-2.137,9.705-2.042,14.53
	c0.205,10.551,1.14,21.091,1.875,31.627c0.217,3.104,0.891,6.178,1.151,9.282c0.44,5.181,0.882,10.368,1,15.562
	c0.072,3.101-0.406,6.226-0.743,9.326c-0.513,4.722-1.575,9.434-1.588,14.152c-0.032,9.562-3.007,18.352-7.682,26.268
	c-4.036,6.833-9.746,12.682-14.731,18.954c-0.925,1.168-1.953,2.253-2.869,3.426c-4.819,6.207-9.578,12.457-14.441,18.626
	c-1.866,2.365-2.294,3.866-0.819,6.511c2.759,4.954,3.155,10.449,3.93,15.873c0.374,2.636,0.802,5.271,1.211,7.901
	c0.267,1.737,0.707,3.46,0.78,5.208c0.245,5.802,0.449,11.606,0.49,17.416c0.022,3.711-0.145,7.437-0.453,11.136
	c-0.588,7.108-1.419,14.199-2.004,21.314c-0.61,7.403-0.988,14.821-1.585,22.227c-0.359,4.449-0.969,8.877-1.423,13.319
	c-0.512,5.024-0.647,10.116-1.55,15.066c-0.944,5.185-1.321,10.343-0.846,15.526c0.582,6.335,1.435,12.651,2.346,18.954
	c0.913,6.317,2.004,12.615,3.099,18.906c0.323,1.868,1.85,2.499,3.375,1.838c1.261-0.547,2.853-1.643,3.18-2.808
	c1.284-4.58,5.31-5.038,8.743-6.85c3.035,7.291,4.525,14.506,4.696,22.029c0.113,5.021,1.623,6.589,6.643,7.086
	c5.338,0.521,10.683,0.981,16.034,1.396c7.811,0.61,15.611,2.786,23.466,0.2c0.68-0.219,1.481-0.074,2.224-0.12
	c5.656-0.301,10.551-2.257,15.197-5.655c4.989-3.653,5.228-7.039,1.249-11.983c-0.921-1.151-2.069-2.141-3.206-3.088
	c-2.394-2.009-4.941-3.838-7.256-5.929c-5.517-4.981-11.347-9.544-17.603-13.552c-2.626-1.678-5.216-3.608-8.1-4.643
	c-2.277-0.817-3.278-2.058-4.146-4.097c-4.469-10.506-6.288-21.71-8.852-32.721c-0.406-1.736-0.639-3.521-0.815-5.296
	c-1.246-12.534,0.088-24.971,1.557-37.39c0.296-2.485,1-4.958,1.762-7.354c1.431-4.511,3.333-8.896,4.517-13.464
	c2.615-10.11,6.235-19.855,10.127-29.506c3.167-7.857,6.341-15.717,9.697-23.492c1.576-3.639,3.397-7.209,5.451-10.604
	c3.53-5.842,6.999-11.771,11.111-17.196c4.203-5.556,9.135-10.562,13.784-15.775c0.397-0.446,1.038-0.669,1.426-0.905
	c2.353,8.74-1.715,16.646-2.095,24.912c-0.026,0.566-0.372,1.131-0.627,1.667c-3.066,6.551-5.976,13.186-9.27,19.62
	c-3.73,7.305-2.333,14.689,0.104,21.622c3.45,9.822,9.537,18.409,15.008,27.229c6.024,9.707,12.438,19.175,18.383,28.928
	c4.563,7.492,8.742,15.225,12.931,22.93c1.621,2.988,2.983,6.143,4.136,9.337c1.107,3.078,1.76,6.311,2.671,9.456
	c2.722,9.406,5.58,18.774,8.172,28.216c1.917,6.99,4.908,9.645,12.218,10.123c4.498,0.296,4.691,0.259,5.533,4.557
	c1.595,8.14,6.698,14.167,11.979,19.992c1.547,1.712,4.312,3.102,6.596,3.229c6.819,0.371,13.677,0.031,20.519,0
	c6.977-0.025,13.954-0.127,20.925,0.021c3.743,0.073,8.178-2.059,9.708-5.161c1.479-2.98,0.522-6.403-2.416-9.73
	c-1.86-2.107-3.467-4.437-5.162-6.683c-1.872-2.484-3.662-5.038-5.583-7.479c-3.955-5.021-8.128-9.878-11.878-15.048
	c-1.363-1.875-2.709-3.367-4.745-4.486c-1.784-0.981-3.377-2.397-4.853-3.831c-2.23-2.164-4.322-4.479-6.408-6.788
	c-1.191-1.32-2.317-2.719-3.362-4.159c-8.551-11.84-15.854-24.466-23.104-37.104c-6.292-10.967-11.895-22.216-15.868-34.382
	c-3.535-10.828-4.76-21.446-2.699-32.495c0.834-4.479,1.032-9.262,4.696-12.758c0.498-0.479,0.757-1.285,0.943-1.98
	c0.827-3.109,3.615-5.752,2.174-9.438c-0.173-0.443,0.661-1.268,1.01-1.921c2.934-5.521,6.089-10.935,8.747-16.585
	c5.032-10.691,11.667-20.39,18.03-30.271c1.104-1.715,1.796-3.692,2.728-5.522c1.872-3.692,3.718-7.396,5.678-11.042
	c2.366-4.403,4.807-8.77,7.275-13.117c1.284-2.255,1.489-5.181,4.448-7.13c3.617,2.151,7.288,4.356,10.979,6.521
	c1.913,1.123,3.765,2.454,5.819,3.221c9.509,3.552,19.205,6.397,29.35,7.53c7.987,0.894,15.929,2.418,23.934,2.858
	c9.356,0.513,18.781,0.562,28.136,0.069c12.463-0.65,25.048-1.192,36.605-6.904c0.396-0.195,0.837-0.327,1.271-0.421
	c6.791-1.457,12.825-4.709,18.88-7.921c1.269-0.67,2.607-1.208,4.167-1.922c0.17,1.054,0.392,1.626,0.334,2.173
	c-0.742,7.704-1.314,15.437-2.378,23.103c-1.011,7.284-1.916,14.461,0.484,21.66c0.554,1.66,0.503,3.534,0.642,5.315
	c0.548,7.125,1.201,14.21,3.77,20.991c0.768,2.016,1.245,4.301,1.176,6.438c-0.213,6.833-1.125,13.651-1.039,20.471
	c0.077,5.914,1.19,11.804,1.788,17.712c0.578,5.779,1.12,11.567,1.637,17.356c0.823,9.349,1.562,18.673,0.667,28.104
	c-0.987,10.374-1.409,20.807-1.95,31.217c-0.446,8.475-0.743,16.955-1.047,25.431c-0.324,8.774-0.607,17.56-0.854,26.334
	c-0.22,7.751,0.014,15.435,3.032,22.793c1.313,3.216,2.744,4.166,6.003,3.361c2.717-0.674,3.761-2.612,4.416-5.062
	c0.428-1.608,1.132-3.145,1.711-4.71c0.378,0.006,0.756,0.012,1.133,0.019c0.516,1.617,1.303,3.202,1.473,4.857
	c0.275,2.655,0.201,5.348,0.183,8.026c-0.032,5.543,1.981,8.443,7.441,9.36c5.852,0.988,11.79,1.586,17.711,2.059
	c3.844,0.301,7.73,0.113,11.602,0.075c3.417-0.036,6.838-0.106,10.248-0.276c2.643-0.138,5.315-0.246,7.9-0.742
	c2.743-0.534,5.367-1.769,8.122-2.253c4.663-0.823,5.639-2.68,2.964-6.561c-2.068-3.001-4.265-5.914-6.97-9.659
	c1.44,0.505,1.949,0.662,2.446,0.864c4.233,1.723,8.5,2.231,13.104,1.482c4.53-0.735,9.225-1.231,13.771-0.894
	c3.348,0.251,6.462,0.146,9.657-0.691c1.134-0.296,2.365-0.164,3.53-0.37c2.189-0.396,4.453-0.638,6.518-1.403
	c4.183-1.553,5.179-4.486,3.17-8.543c-0.396-0.799-0.722-1.692-1.32-2.321c-5.417-5.701-9.891-12.333-16.515-16.867
	c-0.817-0.565-1.918-1.439-1.995-2.253c-0.237-2.667-2.264-3.184-4.094-4.159c-2.341-1.257-4.901-2.39-6.79-4.183
	c-9.007-8.569-16.413-18.42-22.464-29.278c-0.876-1.562-1.988-3.054-2.52-4.72c-3.346-10.633-4.868-21.573-3.861-32.659
	c0.942-10.354,2.729-20.642,3.977-30.971c0.564-4.718,1.353-9.544,0.918-14.219c-0.93-9.94-3.322-19.642-6.896-29.017
	c-0.438-1.169-0.433-2.657-0.188-3.912c1.711-8.904,3.422-17.813,5.359-26.673c1.624-7.416,3.855-14.707,5.271-22.156
	c1.66-8.765,2.561-17.666,4.104-26.456c0.985-5.615,3.106-10.758,7.396-14.907c6.618-6.386,13.677-12.401,18.326-20.56
	c2.794-4.908,5.946-9.671,6.681-15.427c0.674-5.311,1.374-7.678,4.028-12.426c3.221-5.766,7.38-10.83,12.041-15.423
	c3.365-3.321,7.127-6.297,10.979-9.05c3.284-2.347,7.01-3.743,11.261-2.566c1.107,0.306,2.479,0.433,3.511,0.053
	c4.116-1.523,7.902-0.12,11.639,1.167c2.386,0.827,3.939,2.62,3.437,5.537c-0.654,3.791-1.008,7.643-1.855,11.387
	c-0.881,3.9,0.233,5.397,4.139,4.916c2.323-0.286,4.65-0.475,7.204-0.729c0.71,2.167,1.321,3.979,1.9,5.797
	c1.358,4.256,2.648,8.531,4.089,12.756c0.314,0.924,0.97,2.003,1.769,2.425c0.926,0.488,2.44,0.768,3.239,0.317
	c0.755-0.418,1.033-1.877,1.271-2.934c0.366-1.558-1.735-3.307,0.378-5.008c1.542,1.491,1.561,3.196,1.358,4.977
	c-0.452,3.992-0.933,7.983-1.308,11.984c-0.127,1.312-0.084,2.678,0.138,3.977c0.29,1.68,1.572,2.784,3.157,2.529
	c1.108-0.176,2.334-1.183,2.97-2.165c0.599-0.912,0.484-2.287,0.681-3.457c0.239-1.465,0.465-2.929,0.698-4.394
	c0.358,0,0.712-0.003,1.075-0.003c0.844,2.183,1.542,4.438,2.567,6.537c2.924,6.011,5.9,12.003,9.04,17.908
	c1.038,1.953,3.158,2.46,4.542,1.488c1.742-1.227,1.188-2.753,0.548-4.382c-0.567-1.463-1.151-3.029-1.189-4.564
	c-0.069-2.818,0.282-5.646,0.409-8.471c0.188-3.988,2.201-8.487,5.216-11.104c0.725,1.145,1.392,2.271,2.133,3.346
	c0.667,0.969,1.302,2.033,2.176,2.787c2.662,2.29,5.727,1.199,6.154-2.255c0.325-2.652,0.125-5.363,0.435-8.019
	c0.213-1.875,0.446-3.992,1.44-5.483c2.024-3.023,4.566-5.693,6.956-8.584c1.454,1.352,2.682,3.187,4.959,1.935
	c2.283-1.251,4.631-7.134,4-9.746c-1.231-5.208-1.088-10.339,1.222-15.252c1.572-3.356,3.473-6.571,4.883-9.987
	c1.572-3.785,4.386-5.304,8.097-5.722c1.251,2.62,2.246,5.105,3.592,7.382c1.424,2.404,3.009,4.763,4.845,6.852
	c1.736,1.969,4.43,3.24,5.757,5.397c1.818,2.941,4.491,3.866,7.305,5.159c4.016,1.847,7.663,2.192,11.279-0.682
	c0.32-0.251,0.818-0.273,1.404-0.456c0.711,0.931,1.332,1.957,2.157,2.783c1.772,1.781,3.479,3.704,5.529,5.112
	c2.296,1.582,4.944,2.648,7.43,3.963c4.853,2.573,13.361,0.49,16.408-4.076c2.14-3.213,3.126-6.666,2.059-10.545
	c-1.469-5.291-0.825-9.993,3.886-13.564c0.662-0.497,1.284-1.352,1.447-2.144c1.196-5.631,2.977-11.174,2.599-17.06
	c-0.138-2.077-0.131-4.193,0.107-6.256C716.176,229.464,713.199,221.223,709.626,213.466
	C704.573,202.509,713.199,221.223,709.626,213.466z M200.069,344.283c-0.8,3.249-3.111,5.337-4.505,8.074
	c-3.58,7.021-7.289,13.985-11.193,20.834c-6.109,10.721-12.425,21.324-18.644,31.979c-3.143,5.382-6.756,10.558-9.287,16.216
	c-3.69,8.258-8.423,16.232-9.927,25.261c-0.865,5.184-2.01,10.337-1.828,15.829c0.165,5.014-0.544,10.146,0.751,15.049
	c1.67,6.314,4.259,12.398,5.871,18.729c2.698,10.632,9.569,19.1,14.271,28.675c2.75,5.6,5.501,11.205,8.528,16.653
	c2.379,4.276,5.413,8.192,7.735,12.493c4.586,8.494,11.091,15.401,18.04,21.824c5.734,5.298,5.374,7.796-0.075,12.465
	c-3.608,3.095-6.799,6.674-10.176,10.027c-0.847,0.843-1.645,1.742-2.57,2.484c-3.196,2.579-5.477,1.962-6.669-1.912
	c-0.607-1.977-0.877-4.071-1.183-6.134c-0.922-6.203-3.151-7.928-9.358-7.146c-3.189,0.402-4.275-0.15-5.551-3.683
	c-1.925-5.314-3.625-10.713-5.382-16.092c-4.76-14.56-8.815-29.399-17.157-42.51c-2.876-4.519-5.867-8.966-8.732-13.489
	c-7.006-11.059-14.106-22.063-20.896-33.254c-3.306-5.456-6.211-11.188-8.898-16.97c-1.408-3.031-1.957-6.459-2.895-9.707
	c0.675-4.076,1.362-7.759,3.302-11.3c5.479-10.027,9.208-20.564,9.544-32.211c0.223-7.74,1.101-15.445-0.975-23.089
	c-0.258-0.956,0.16-2.426,0.795-3.245c7.29-9.447,15.374-18.143,24.547-25.812c2.963-2.476,5.749-5.174,8.517-7.876
	c6.706-6.545,13.357-13.158,20.035-19.739c4.021-3.96,4.858-4.187,9.683-1.403c4.628,2.674,9.088,5.627,13.622,8.461
	c2.89,1.806,5.763,3.649,8.677,5.415C200.099,340.404,200.727,341.625,200.069,344.283
	C199.269,347.532,200.727,341.625,200.069,344.283z M413.005,568.849c-1.941-5.906-3.415-12.027-4.435-18.163
	c-1.17-7.02-1.44-14.18-2.465-21.226c-0.895-6.178,0.324-12.16,0.979-18.201c0.102-0.963,0.655-1.875,1.303-3.61
	c2.562,3.617,3.654,7.09,4.876,10.507c0.637,1.772,1.518,3.46,2.141,5.232c0.642,1.812,1.384,3.662,1.585,5.543
	c0.564,5.461,1.906,11.124,1.021,16.384c-0.971,5.787,0.149,11.197,0.452,16.754c0.265,4.868,1.271,9.694,1.925,14.552
	c0.157,1.149,0.208,2.321,0.401,4.579C416.208,577.438,414.408,573.102,413.005,568.849
	C411.063,562.942,414.408,573.102,413.005,568.849z M445.501,611.692c-1.377-1.278-2.863-2.467-4.109-3.863
	c-1.554-1.749-0.76-2.938,2.146-3.963c0.944,2.593,1.806,4.976,2.667,7.359C445.972,611.384,445.739,611.543,445.501,611.692
	C444.124,610.414,445.739,611.543,445.501,611.692z M465.166,330.741c-4.422,3.01-8.511,6.518-12.688,9.874
	c-1.78,1.428-2.749,3.243-3.216,5.637c-1.482,7.698-1.74,15.586-4.227,23.155c-1.229,3.726-0.807,7.966-1.334,11.944
	c-0.391,2.922-0.993,5.832-1.718,8.69c-1.938,7.603-4.015,15.172-5.995,22.765c-0.976,3.711-1.874,7.447-2.781,11.069
	c-0.421,0.17-0.704,0.399-0.957,0.364c-1.936-0.259-4.051-0.696-5.146,1.454c-0.968,1.902,0.354,3.442,1.535,4.788
	c5.417,6.137,7.683,13.483,9.211,21.387c1.195,6.185,2.439,12.331,1.801,18.565c-1.108,10.928-2.632,21.816-4.09,32.71
	c-1.097,8.163-1.215,16.345-0.314,24.496c0.502,4.567,1.371,9.143,2.579,13.576c2.396,8.795,8.329,15.696,13.043,23.253
	c0.86,1.384,1.941,2.636,2.786,4.032c3.408,5.668,7.446,10.776,12.797,14.778c0.83,0.617,1.709,1.327,2.175,2.203
	c0.364,0.678,0.48,1.932,0.089,2.488c-2.69,3.825-5.521,7.558-8.38,11.258c-0.724,0.93-1.648,1.733-2.599,2.445
	c-4.283,3.196-5.693,2.725-8.329-1.807c-1.617-2.773-3.718-5.303-5.863-7.712c-1.518-1.699-3.505-1.031-5.033,1.466
	c-0.623,1.013-0.994,2.171-1.566,3.215c-0.484,0.888-1.096,1.704-2.232,3.44c-2.511-2.994-4.562-5.436-6.694-7.977
	c3.831-4.744,2.661-9.475,1.921-14.426c-1.343-8.939-3.55-17.749-3.322-26.953c0.301-12.261-1.177-24.358-5.618-35.961
	c-1.115-2.906-1.774-6.001-2.498-9.041c-0.956-4.057-3.371-6.511-7.467-7.322c-0.409-0.074-0.77-0.39-1.467-0.767
	c0.125-1.077,0.149-2.234,0.415-3.334c2.068-8.683,3.372-17.666,6.505-25.952c3.775-9.947,3.775-20.024,4.002-30.255
	c0.087-3.977,0.666-7.931,3.158-10.614c0-2.377-0.429-4.486,0.074-6.348c1.409-5.162,3.17-10.228,4.839-15.315
	c1.981-6.062,4.171-12.063,5.982-18.175c1.296-4.404,1.635-9.136,3.277-13.382c1.938-5.005,1.341-10.312,2.9-15.374
	c1.56-5.058,1.761-10.537,2.585-15.826c0.157-1.028,0.421-2.038,0.637-3.054c13.109-5.373,22.422-15.612,32.657-24.799
	C473.029,320.719,470.815,326.893,465.166,330.741C460.744,333.751,470.815,326.893,465.166,330.741z"/>
<path id="outline" d="M597.861,179.021c2.141,0.155,3.063,1.255,3.952,2.995c2.415,4.775,6.014,8.478,10.966,10.654
	c3.341,1.466,6.711,2.05,10.26,0.21c6.669-3.462,10.143-8.93,10.639-16.322c0.512-7.646-3.642-12.12-11.278-12.325
	c-4.35-0.116-13.451,2.558-18.647,5.382c-2.82,1.538-5.423,3.662-9.085,3.004c-0.755-0.135-2.291,1.048-2.528,1.885
	c-0.239,0.849,0.402,2.457,1.17,2.959C594.616,178.325,596.295,178.904,597.861,179.021
	C600.002,179.176,596.295,178.904,597.861,179.021z M624.248,171.122c1.812,0.088,2.894,1.239,2.717,2.837
	c-0.104,0.981-1.32,1.841-1.798,2.451c-2.291-0.287-3.675-0.708-3.75-2.652C621.347,172.1,622.498,171.037,624.248,171.122
	C626.06,171.21,622.498,171.037,624.248,171.122z"/>
<path id="outline" d="M531.338,211.1c2.819,2.712,6.016,4.841,9.871,5.719c2.31,0.526,4.071-0.274,4.474-1.866
	c0.518-2.013-1.252-2.349-2.392-3.221c-3.069-2.337-6.191-4.624-9.033-7.216c-4.655-4.263-6.631-10.111-8.896-15.804
	c-2.669-6.709-3.774-13.4-1.41-20.44c0.806-2.381,0.013-4.35-1.579-4.947c-1.629-0.611-3.63,0.308-4.681,2.516
	c-1.467,3.085-3.001,6.219-2.283,9.887C516.768,189.27,521.298,201.424,531.338,211.1
	C534.157,213.812,521.298,201.424,531.338,211.1z"/>
<path id="outline" d="M661.995,194.299c0.749,0.346,1.773,0.355,2.592,0.173c0.566-0.126,1.007-0.85,1.598-1.403
	c-0.578-0.962-0.868-1.944-1.521-2.394c-1.572-1.084-3.277-2.035-5.021-2.837c-3.283-1.51-6.423-3.101-8.277-6.479
	c-0.466-0.853-1.422-1.78-2.305-1.966c-1.163-0.246-2.71-0.163-3.659,0.446c-1.349,0.869-0.845,2.392-0.083,3.589
	c0.396,0.62,0.932,1.165,1.467,1.674C651.188,189.266,656.598,191.792,661.995,194.299
	C662.744,194.645,656.598,191.792,661.995,194.299z"/>
<path id="outline" d="M687.26,259.486c-0.616-2.265-3.444-3.192-4.918-1.724c-2.267,2.277-1.014,8.937,1.911,10.163
	c2.191,0.913,3.548,0.035,3.41-2.258c-0.056-1.029-0.29-2.048-0.446-3.07c0.068-0.006,0.146-0.016,0.22-0.022
	C687.392,261.544,687.525,260.458,687.26,259.486C686.644,257.221,687.525,260.458,687.26,259.486z"/>
<path id="outline" d="M524.96,160.638c0.081-0.252-0.593-0.743-1.134-1.353c-0.622,0.692-1.051,1.169-1.479,1.646
	c0.498,0.427,0.988,0.858,1.479,1.286C524.229,161.698,524.783,161.226,524.96,160.638
	C525.041,160.386,524.783,161.226,524.96,160.638z"/>
<path id="outline" d="M615.767,301.155c1.812-0.282,3.026-0.474,5.071-0.798C618.37,298.447,617.152,298.611,615.767,301.155z"/>
<path id="background" fill="none" d="M620.84,300.36c-2.05,0.32-3.26,0.51-5.07,0.8C617.15,298.61,618.37,298.45,620.84,300.36z"/>
</svg>
