<svg version="1.1" id="Layer_1" xmlns="http://www.w3.org/2000/svg" xmlns:xlink="http://www.w3.org/1999/xlink" x="0px" y="0px"
	 width="720px" height="720px" viewBox="0 0 720 720" enable-background="new 0 0 720 720" xml:space="preserve">
<path id="background" fill="none" d="M717.14,382.65v-0.07c0-0.04-0.01-0.09-0.01-0.14c0-0.051-0.01-0.11-0.01-0.16c-0.01-0.08-0.01-0.16-0.021-0.24
	c0-0.04-0.01-0.07-0.01-0.11c-0.93-11.029-7.1-22.53-14.02-30.95c-7.561-9.21-17.87-12.56-27.58-18.79
	c-4.67-2.99-10.021-5.64-14.2-9.29c-4.85-4.23-8-10.33-11.98-15.33c-7.699-9.64-17.26-17.7-25.5-26.87
	c1.37-0.27,2.841,1.69,4.2,2.22c2.5,0.96,5.2,0.72,7.7-0.1c5.33-1.74,11.2-3.38,15.83-6.67c9.95-7.09,18.3-16.35,25.27-26.33
	c3.73-5.35,12.78-26.39-0.22-27.64c-5.31-0.51-9.57,5.63-12.63,9.1c-4.87,5.52-9.21,11.13-14.71,16.05
	c-1.34-4.51,4.75-12.39,6.58-16.5c2.68-6.01,5.08-12.15,7.17-18.39c2.53-7.56,10.46-29.56-2.65-32.44
	c-11.52-2.52-15.77,18.95-18.06,26.01c-1.89,5.81-3.11,10.93-7.49,15.37c-1.68,1.71-3.47,3.33-4.95,5.23
	c-2.279,2.91-2.97,1.53-5.779,2.85c-5.2,2.46-6.5,3.35-9.34-2.72c-2.601-5.56-3.86-11.63-4.25-17.73
	c-0.94-14.37-0.28-28.91-0.381-43.3c-0.04-6.51,1.591-33.69-11.399-29.82c-5.681,1.69-6.07,9.35-6.8,14.27
	c-0.99,6.71,2.25,14.77,0.02,21.03c-4.09-2.57-9.93-4.47-10.02-10.09c-0.101-6.17,0.489-12.76-1.12-18.78
	c-2.12-7.91-15.681-18.05-19.91-5.95c-1.96,5.6-0.97,12.96-0.63,18.76c0.22,3.78,2.5,12.68-1.601,15.19
	c-5.149,3.14-7.22-2.13-7.96-5.99c-1.229-6.37-5.13-10.81-8.8-15.93c1.84-6.35,0.58-13.32,1.55-19.84
	c0.79-5.34,0.54-14.1-7.279-13.99c-7.341,0.09-10.7,12.51-12.4,17.81c-0.97,3.02-3.48,18.57-7.68,18.22
	c-5.66-0.47-6.931-10.82-7.851-14.7c-1.71-7.24-3.37-15.75-7.779-21.92c-3.16-4.41-10.74-7.35-14.03-1.38
	c-3.01,5.47,1.229,13.8,0.12,19.93c-7.15-5.31-2.21-17.4-12.15-20.42c-11.189-3.4-8.38,11.51-7.38,17.2
	c1.85,10.55,3.03,20.74,6.07,31.08c1.29,4.38,2.439,8.82,4.25,13.02c1.89,4.39,6.5,8.64,3.6,13.6
	c-7.17-2.08-11.99-12.05-16.32-17.55c-5.83-7.42-11.189-15.18-16.81-22.77c-3.43-4.63-10.78-15.81-17.95-14.09
	c-8.33,2-0.31,16.84-4.22,21.86c-5.62-6.98-5.811-21.95-16.18-24.5c-4.061-1-7.9,0.64-9.221,4.76c-1.319,4.15,1.79,9.2-2.63,12.17
	c-2.83-8.55-5.67-17.19-8.92-25.58c-2.479-6.38-7.29-16.67-14.56-18.7c-15.07-4.22-3.891,41.53-2.811,47.69
	c3.21,18.25,13.73,36.18,26.13,49.78c13.221,14.52,27.03,27.92,41.84,40.84c-0.159,0.29-0.319,0.58-0.479,0.88
	c-4.32-0.92-8.67-2.66-13.07-2.98c-4.77-0.34-9.64,0.03-14.41,0.09c-10.579,0.13-20.17,1.11-30.25,4.51
	c-20.27,6.85-38.379,18.43-57.25,28.25c-18.48,9.62-36.12,21.44-56.9,25.4c-10.4,1.98-20.89,3.47-31.51,3.09
	c-11.38-0.41-22.48-2.54-33.92-2.53c-21.25,0.02-42.44-3.26-63.62-3.03c-10.09,0.1-19.97,2.37-29.72,4.75
	c-10.32,2.52-19.94,4.37-28.93,10.38c-15.95,10.68-30.13,27.07-37.97,44.6c-3.99,8.93-5.68,18.11-7.33,27.67
	c-1.27,7.37-4.97,20.42,1.74,26.23c-2.02,10.319-0.71,20.779-0.04,31.149c0.75,11.53,1.81,22.93,3.13,34.4
	c2.35,20.45,3.59,43.56-4.11,63.069c-3.64,9.23-9.5,17.08-15.53,24.87c-2.3,2.96-18.48,18.75-12.62,21.57l51.58,25.44l3.49,1.72
	c5.6,0.569,8.66-10.11,10.69-14c6.26-11.97,14.65-23.22,23.65-33.29c0.43,0.18,0.87,0.359,1.3,0.54
	c-1.07,9.88-1.82,19.78-4.43,29.41c-0.94,3.43-2.8,8.479,1.26,10.689l3.44,0.71l54.63,11.271c9.91,3.04,12.33-12.24,14.56-18.38
	c3.9-10.75,10.45-20.631,15.82-30.681c4.88-9.13,8.05-19.649,13.4-28.41c1.16-1.89,3.07-3.109,4.15-5.029
	c1.68-2.99,2.83-6.36,4.17-9.511c2.38-5.619,4.78-10.739,8.15-15.829c24.4,9.72,51.28,16.399,77.42,19.399
	c14.15,1.63,27.17-0.689,40.97-3.63c13.14-2.81,22.8-8.61,34.3-15.14c-1.811,20.17-3.721,41.699,0.97,61.71
	c1.16,4.979,2.74,9.85,4.33,14.7c1.21,3.71,2,10.05,6.3,11.63l3.5-0.28l42.851-3.46l3.159-0.26c3.9-1.101,4.53-6.94,5.261-10.19
	c1.31-5.8,2.529-11.62,3.819-17.43c2.28-10.2,6.181-19.88,7.891-30.24c1.859-11.31,1.26-22.85,1.26-34.27
	c8.63-4.351,14.37-11.62,20.55-18.841c7.69-8.989,17.021-17.62,23.61-27.439c11.62-17.33,32.58-34.41,54.59-27.641
	c-0.15,2.91-0.53,5.82-1.36,8.61c-0.92,3.061-4.31,6.83-2.84,10.09c3.01,6.67,8.71,0.86,12.71-1.069
	c0.72,2.989,0.65,6.46,2.38,9.119c2.431,3.721,6.33,0.75,9.15-0.68c0.93,9.03-1.59,22.11,3.54,29.94
	c4.96,7.59,9.689-12.011,12.71-14.36c2.2,5.2,4.32,10.46,5.79,15.92c0.81,3.04,0.59,9.26,4.41,10.351
	c5.31,1.52,5.35-4.75,5.949-8.29c1.061-6.15,2.73-11.591,4.96-17.431c2.07,2.04,9.9,11.95,13.03,6.09
	c1.03-1.92-0.77-4.939-0.66-7.02c0.19-3.54,1.681-6.89,1.41-10.47c3.17,0.5,8.47,2.25,10.98-0.771
	c2.87-3.439-1.03-11.74-0.681-15.96c0.44-5.32,2.051-11.5,4.2-16.39c1.48-3.34,5.74-12.221,9.66-12.69
	c5.26,7.23,8.4,14.851,15.7,20.641c7.39,5.88,14.91,5.829,22.479,0.76c3.061,1.33,4.21,3.74,6.551,5.99
	c2.85,2.76,6.399,4.63,10.14,5.88c6.39,2.149,15.33,3.25,17.82-4.98c1.17-3.88,0.71-8.689-0.19-12.57
	c-1.09-4.76,2.04-9.47,2.75-14.1C715.22,403.34,717.8,392.62,717.14,382.65z M376.4,572.98c0.01,0.06,0.02,0.109,0.04,0.159
	c0.01,0.061,0.02,0.12,0.029,0.17C376.45,573.21,376.42,573.1,376.4,572.98z M376.5,573.47c0.02,0.05,0.03,0.101,0.04,0.15
	c0,0.03,0.01,0.06,0.01,0.08C376.53,573.63,376.52,573.55,376.5,573.47z"/>
<path id="outline" fill-rule="evenodd" clip-rule="evenodd" fill="none" d="M422.98,592.87c0.829,0.17,1.869,0.1,3.159-0.26L422.98,592.87z"/>
<path id="outline" fill-rule="evenodd" clip-rule="evenodd" fill="none" d="M61.55,610.45c-1.86-0.19-2.95-0.82-3.49-1.72L61.55,610.45z"/>
<path id="outline" fill-rule="evenodd" clip-rule="evenodd" fill="none" d="M97.46,604.51c-1.1,0.141-2.29-0.08-3.44-0.71L97.46,604.51z"/>
<path id="outline" fill-rule="evenodd" clip-rule="evenodd" fill="none" d="M380.13,596.33c-0.67,0.689-1.77,0.91-3.5,0.28L380.13,596.33z"/>
<path id="outline" fill-rule="evenodd" clip-rule="evenodd" d="M717.134,382.486c-0.769-11.193-7.025-22.949-14.06-31.511
	c-7.566-9.208-17.879-12.554-27.587-18.785c-4.665-2.994-10.017-5.645-14.197-9.293c-4.847-4.23-7.996-10.326-11.983-15.322
	c-7.695-9.644-17.255-17.708-25.497-26.879c1.366-0.27,2.844,1.698,4.202,2.223c2.496,0.964,5.199,0.72,7.694-0.096
	c5.336-1.746,11.201-3.38,15.829-6.676c9.953-7.088,18.305-16.345,25.272-26.327c3.736-5.354,12.778-26.394-0.218-27.639
	c-5.308-0.508-9.572,5.627-12.627,9.096c-4.868,5.527-9.209,11.137-14.715,16.054c-1.34-4.512,4.752-12.385,6.582-16.497
	c2.677-6.014,5.08-12.15,7.169-18.394c2.529-7.56,10.461-29.561-2.647-32.436c-11.521-2.527-15.773,18.947-18.064,26.003
	c-1.887,5.81-3.105,10.933-7.485,15.377c-1.684,1.708-3.474,3.327-4.955,5.222c-2.277,2.914-2.97,1.53-5.781,2.856
	c-5.193,2.453-6.495,3.352-9.336-2.725c-2.598-5.557-3.855-11.629-4.253-17.725c-0.938-14.368-0.272-28.908-0.373-43.3
	c-0.046-6.518,1.583-33.689-11.407-29.821c-5.677,1.69-6.067,9.349-6.796,14.268c-0.993,6.706,2.249,14.773,0.023,21.032
	c-4.097-2.575-9.936-4.475-10.024-10.094c-0.096-6.166,0.489-12.761-1.122-18.781c-2.116-7.902-15.675-18.049-19.912-5.946
	c-1.959,5.595-0.967,12.956-0.625,18.756c0.224,3.781,2.498,12.686-1.603,15.189c-5.151,3.145-7.219-2.126-7.96-5.982
	c-1.228-6.377-5.131-10.808-8.799-15.934c1.843-6.353,0.585-13.321,1.551-19.84c0.79-5.341,0.539-14.097-7.276-13.994
	c-7.341,0.097-10.699,12.518-12.407,17.818c-0.971,3.016-3.476,18.566-7.679,18.217c-5.657-0.468-6.926-10.816-7.847-14.704
	c-1.713-7.235-3.367-15.751-7.78-21.915c-3.156-4.409-10.741-7.349-14.033-1.378c-3.012,5.463,1.235,13.795,0.122,19.924
	c-7.151-5.305-2.207-17.396-12.149-20.416c-11.189-3.399-8.379,11.512-7.381,17.201c1.85,10.548,3.033,20.738,6.072,31.076
	c1.286,4.378,2.441,8.816,4.248,13.019c1.89,4.395,6.504,8.64,3.602,13.604c-7.17-2.083-11.995-12.052-16.316-17.55
	c-5.835-7.424-11.195-15.183-16.813-22.768c-3.433-4.634-10.779-15.813-17.95-14.093c-8.33,1.999-0.313,16.838-4.225,21.858
	c-5.614-6.976-5.805-21.953-16.177-24.499c-4.063-0.998-7.896,0.644-9.215,4.762c-1.328,4.149,1.789,9.193-2.636,12.162
	c-2.829-8.543-5.67-17.189-8.924-25.579c-2.474-6.375-7.283-16.667-14.551-18.699c-15.073-4.215-3.893,41.53-2.812,47.692
	c3.204,18.247,13.729,36.176,26.13,49.785c13.216,14.511,27.031,27.919,41.84,40.834c-0.16,0.293-0.319,0.586-0.479,0.88
	c-4.32-0.922-8.671-2.658-13.075-2.977c-4.766-0.345-9.634,0.027-14.408,0.087c-10.583,0.133-20.164,1.109-30.253,4.514
	c-20.27,6.842-38.378,18.424-57.244,28.245c-18.485,9.623-36.126,21.447-56.9,25.403c-10.405,1.982-20.891,3.472-31.507,3.09
	c-11.39-0.409-22.482-2.542-33.923-2.534c-21.255,0.017-42.442-3.255-63.624-3.03c-10.088,0.106-19.969,2.374-29.721,4.754
	c-10.312,2.518-19.941,4.365-28.925,10.379c-15.956,10.681-30.137,27.07-37.97,44.6c-3.988,8.924-5.684,18.104-7.329,27.666
	c-1.269,7.377-4.978,20.428,1.739,26.235c-2.022,10.313-0.709,20.777-0.039,31.152c0.745,11.524,1.811,22.926,3.128,34.397
	c2.348,20.45,3.588,43.56-4.109,63.067c-3.643,9.233-9.503,17.079-15.536,24.868c-2.297,2.967-18.475,18.757-12.621,21.571
	c7.932,3.813,16.12-11.097,20.096-15.907c6.683-8.087,13.076-15.791,17.064-25.597c3.788-9.311,6.106-19.16,7.413-29.111
	c1.38-10.523-1.559-22.642-2.434-33.2c-1.875-22.656-5.419-44.993-2.391-67.662c1.233-9.231,4.9-17.908,9.889-25.722
	c5.436-8.516,10.15-17.513,15.448-26.138c1.897-3.091-0.627-6.058-3.689-6.653c-4.293-0.835-5.888,3.478-7.885,6.366
	c-6.148,8.891-11.074,17.616-15.895,27.299c-0.443-0.15-0.886-0.303-1.328-0.454c1.471-8.294,2.176-17.414,4.786-25.41
	c2.76-8.457,8.781-16.616,14.329-23.467c5.66-6.99,12.495-12.571,19.5-18.143c7.219-5.741,15.841-8.494,24.435-11.551
	c9.022-3.211,18.428-5.836,28.09-5.596c10.146,0.252,20.288,1.584,30.435,2.036c22.002,0.979,43.961,1.652,65.909,3.251
	c40.667,2.962,76.097-16.516,110.025-36.342c8.821-5.154,17.866-9.961,27.3-13.903c8.903-3.72,18.263-8.414,27.931-9.478
	c9.785-1.077,19.875-1.63,29.618,0.058c4.984,0.863,9.865,2.296,14.513,4.295c5.242,2.252,6.91,0.394,9.88-3.454
	c8.4,5.413,15.887,11.573,24.903,16.118c9.601,4.84,19.45,9.785,29.524,13.554c19.804,7.409,39.943,11.979,60.975,13.472
	c10.391,0.737,20.542,1.39,30.939,0.617c4.665-0.347,9.196-1.631,13.56-3.267c5.996-2.248,8.695-3.477,13.537,1.429
	c7.012,7.104,13.421,13.801,18.926,22.076c5.699,8.566,12.899,17.372,22.331,21.865c17.86,8.508,38.377,20.132,43.84,40.677
	c2.298,8.641,1.689,19.062-0.594,27.657c-1.182,4.446-2.741,8.316-3.631,12.803c-0.741,3.736-6.308,3.599-4.039,8.298
	c1.176,2.436,1.471,11.354-2.229,12.15c-2.409,0.518-7.644-2.81-9.624-4.067c-7.94-5.045-8.939-16.283-13.966-23.516
	c-5.055-7.272-13.617-11.098-20.14-16.882c-5.693-5.05-13.156-17.07-21.46-17.202c-6.76-0.104-1.155,6.645,0.771,8.476
	c5.406,5.138,10.969,10.143,16.254,15.405c4.023,4.008,9.061,6.59,12.846,10.894c4.218,4.796,7.205,10.505,9.937,16.234
	c-8.809,4.708-14.767,0.218-20.416-6.921c-3.405-4.303-7.338-18.675-14.555-16.519c-7.623,2.277-13.088,15.532-16.553,21.941
	c-4.341,8.026-4.166,16.179-4.166,24.85c-2.911-0.262-8.68-1.893-10.974,0.736c-2.546,2.919,0.512,11.039,0.967,14.312
	c-0.312,0.119-0.627,0.238-0.939,0.356c-2.238-2.46-6.467-7.85-9.761-3.481c-2.824,3.743-2.001,12.21-6.374,14.466
	c-3.939-4.71-1.987-12.232-6.328-16.255c-6.305-5.843-8.369,0.276-10.922,5.799c-0.324-0.077-0.648-0.152-0.972-0.229
	c-2.474-6.701,4.039-32.066-9.775-25.256c-3.024-3.145-3.981-8.244-9.659-7.799c1.984-8.514,5.493-17.573,6.271-26.231
	c0.437-4.859,2.186-21.201-6.484-17.775c-1.27,4.8,0.83,10.119-2.312,14.783c-4.145-3.852-8.125-8.091-12.638-11.517
	c-2.342-1.778-8.546-3.731-7.194,1.522c0.897,3.493,5.458,5.366,7.703,8.227c3.851,4.905,7.63,9.132,4.189,15.438
	c-5.43,0-10.367-1.244-15.819,0.044c-4.503,1.064-8.869,3.054-13.329,4.382c-5.169,1.539-8.656,5.393-12.526,8.984
	c-4.214,3.91-8.653,7.504-12.37,11.917c-14.379,17.068-27.395,34.371-44.972,48.396c-0.892-3.274-1.054-8.133-3.198-10.809
	c-1.831-2.284-6.131-2.111-6.309,1.306c-0.497,9.57,2.528,19.283,2.399,28.92c-0.301,22.481-6.26,42.799-12.119,64.375
	c-1.043,3.841-7.893,22.145,3.098,19.05c3.904-1.099,4.531-6.94,5.264-10.194c1.307-5.8,2.521-11.62,3.817-17.422
	c2.28-10.201,6.18-19.884,7.888-30.244c1.865-11.314,1.258-22.847,1.258-34.27c8.638-4.352,14.369-11.623,20.55-18.84
	c7.692-8.991,17.02-17.623,23.614-27.442c11.623-17.329,32.576-34.413,54.592-27.634c-0.154,2.904-0.532,5.813-1.367,8.607
	c-0.914,3.062-4.308,6.833-2.836,10.089c3.013,6.665,8.706,0.858,12.714-1.07c0.718,2.989,0.645,6.461,2.379,9.119
	c2.425,3.718,6.33,0.746,9.151-0.677c0.923,9.029-1.592,22.104,3.534,29.938c4.959,7.587,9.696-12.01,12.716-14.359
	c2.195,5.202,4.312,10.46,5.781,15.921c0.816,3.038,0.592,9.26,4.412,10.35c5.309,1.515,5.353-4.754,5.956-8.288
	c1.052-6.159,2.729-11.596,4.952-17.438c2.072,2.04,9.902,11.95,13.038,6.094c1.025-1.915-0.773-4.937-0.661-7.022
	c0.189-3.535,1.681-6.892,1.407-10.472c3.175,0.503,8.47,2.257,10.983-0.763c2.864-3.441-1.034-11.745-0.684-15.963
	c0.441-5.315,2.052-11.499,4.205-16.39c1.473-3.341,5.738-12.221,9.651-12.694c5.26,7.23,8.402,14.85,15.699,20.646
	c7.396,5.874,14.917,5.827,22.48,0.757c3.067,1.335,4.218,3.738,6.552,5.995c2.854,2.759,6.407,4.622,10.145,5.879
	c6.389,2.148,15.332,3.247,17.818-4.984c1.171-3.879,0.713-8.688-0.186-12.572c-1.097-4.752,2.035-9.469,2.748-14.093
	C715.234,403.29,717.828,392.511,717.134,382.486C716.561,374.141,717.297,384.842,717.134,382.486z M652.528,201.919
	c1.341-4.896,3.257-9.276,6.271-13.3c4.062,5.914-2.218,18.04-4.362,23.902c-2.973,8.126-6.217,16.241-11.135,23.372
	c-1.47-3.867-2.579-6.788-3.728-9.8C646.217,219.19,650.06,210.944,652.528,201.919C653.445,198.57,650.06,210.944,652.528,201.919
	z M640.946,254.913c13.585,10.044,26.078-16.333,33.97-22.684c-1.131,10.995-9.391,20.777-17.177,28.093
	c-8.938,8.398-17.696,12.133-29.077,15.913c-0.307-0.304-0.613-0.609-0.918-0.913c3.332-7.265,6.664-14.53,10.156-22.152
	C639.108,253.853,640.101,254.287,640.946,254.913C644.616,257.626,640.101,254.287,640.946,254.913z M600.586,147.051
	c2.642,3.681,2.803,16.499,0.489,23.909C599.075,162.319,599.401,154.684,600.586,147.051z M601.812,180.854
	c-0.25,0.021-0.502,0.041-0.752,0.062c-0.08-0.979-0.158-1.957-0.237-2.936c0.268-0.057,0.534-0.113,0.803-0.171
	C601.687,178.824,601.75,179.839,601.812,180.854C601.562,180.875,601.75,179.839,601.812,180.854z M594.076,191.478
	c0.055-4.661,4.408-5.228,7.988-6.432c1.109,11.931-0.623,24.064,1.707,35.902c1.052,5.341,2.974,11.245,6.938,15.182
	c3.477,3.452,7.413,3.007,11.752,4.143c-1.127,4.68-3.346,8.568-5.615,12.812c-2.188,4.093-4.48,9.908-8.342,12.712
	c-7.229,5.25-16.433,0.518-19.946-6.658C577.657,236.875,593.798,214.383,594.076,191.478
	C594.104,189.071,593.997,197.993,594.076,191.478z M549.574,218.287c1.668-13.226,4.844-26.941,3.303-40.265
	c3.697,0.88,7.059,2.137,10.437-0.383c3.204-2.391,5.692-6.176,6.583-10.068c2.054-8.983-1.512-19.066-0.275-28.363
	c6.408,2.871,4.242,15.2,5.188,20.742c0.77,4.51,2.603,9.364,2.392,13.968c-0.251,5.487-1.907,10.964-2.49,16.436
	c-0.93,8.72-4.536,16.806-9.682,23.843c-2.099,2.87-4.634,6.871-7.805,8.664C552.881,225.302,548.875,223.777,549.574,218.287
	C550.251,212.922,549.307,220.388,549.574,218.287z M531.394,139.301c1.478,5.044,1.478,5.044-2.366,6.942
	C529.843,143.851,530.484,141.97,531.394,139.301z M478.805,150.161c-0.967-3.459-1.516-6.208-1.697-9.785
	c4.852,2.613,5.33,9.711,12.436,8.238c7.569-1.564,5.746-10.854,7.384-16.405c1.924,4.585,4.244,9.026,5.592,13.833
	c1.128,4.026,1.715,8.081,5.161,10.891c6.715,5.477,14.785,1.97,19.258-4.19c0.044,10.93,0.394,21.941-1.291,32.782
	c-0.588,3.79-0.979,9.07-3.788,12.024c-2.988,3.143-8.778-5.244-10.259-7.214c-5.668-7.54-9.17-17.197-19.848-18.135
	c-3.838-0.337-6.926-0.311-8.155-4.625C481.947,161.785,480.413,155.962,478.805,150.161
	C478.379,148.638,480.413,155.962,478.805,150.161z M616.584,273.811c-2.968,4.926-8.685,5.962-13.784,7.453
	c-6.77,1.979-13.352,4.124-20.462,4.108c-14.829-0.033-29.546-1.817-44.229-3.684c-5.841-0.742-11.622-3.77-17.205-5.578
	c-7.111-2.302-14.144-4.854-21.048-7.72c-13.005-5.398-24.798-12.023-36.37-19.993c-22.828-15.72-45.586-34.1-62.625-56.168
	c-17.565-22.749-26.009-47.831-26.009-76.543c0.382-0.079,0.765-0.158,1.146-0.237c3.316,5.645,6.96,11.159,9.202,17.351
	c2.219,6.129,2.542,12.892,6.062,18.536c2.875,4.611,8.58,8.287,13.508,4.043c5.098-4.389,3.727-10.681,2.633-16.401
	c0.3-0.118,0.597-0.236,0.894-0.353c5.749,6.928,7.635,22.356,17.916,24.286c12.573,2.36,8.014-13.408,7.338-20.629
	c7.288,2.932,11.172,11.822,15.57,17.795c5.339,7.249,11.206,13.947,17.208,20.642c4.407,4.916,10.438,15.969,17.83,16.373
	c11.116,0.608,4.201-12.969,6.905-18.008c6.866-0.212,11.805,12.759,15.534,17.18c4.188,4.964,12.556,11.633,19.491,8.364
	c6.938-3.27,7.853-14.519,8.511-21.079c0.933-9.302-2.293-19.987,1.756-28.62c10.722,5.576,9.859,26.936,9.195,37.57
	c-0.435,6.94-1.51,13.822-2.797,20.65c-0.985,5.221-1.728,10.616,2.681,14.525c10.256,9.095,20.923-2.016,26.586-10.656
	c3.511-5.361,6.523-12.069,8.247-18.232c2.012-7.187,1.349-14.893,3.583-21.962c9.408,11.986-0.403,31.68-3.117,44.318
	c-1.707,7.947-5.91,16.706-4.949,24.895c0.712,6.061,4.426,13.942,7.932,18.986c6.594,9.485,21.898,16.214,31.409,6.681
	c10.093-10.117,12.265-25.844,19.518-37.656c1.27,6.47-2.627,13.728-5.201,19.468C626.14,260.879,620.725,266.934,616.584,273.811
	C614.501,277.268,619.037,269.736,616.584,273.811z"/>
<path id="outline" fill-rule="evenodd" clip-rule="evenodd" d="M376.305,572.509c-2.532-12.108-4.263-24.218-4.131-36.61
	c0.065-6.187,0.103-12.442,0.512-18.616c0.322-4.877,3.543-11.354-0.026-15.663c-7.02-8.471-19.01,1.561-26.177,5.923
	c-10.192,6.204-21.133,9.226-32.956,10.17c-6.313,0.504-12.361,1.983-18.747,1.859c-6.183-0.12-12.174-1.272-18.191-2.6
	c-12.464-2.748-25.156-4.281-37.559-7.301c-11.68-2.844-22.938-6.991-33.979-11.71c-10.601-4.53-22.875-8.57-32.508-14.882
	c10.396-10.867,21.711-20.178,30.396-32.621c4.242-6.078,8.06-12.437,11.759-18.855c2.984-5.177,9.495-13.891,4.237-19.627
	c-8.581,9.801-14.47,22.051-22.068,32.671c-7.863,10.989-16.832,19.775-26.702,28.887c-10.318,9.524-20.128,19.639-30.103,29.521
	c-10.725,10.623-22.125,20.889-32.162,32.169c-8.869,9.967-17.249,20.571-25.837,30.797c-4.024,4.792-7.962,9.732-11.723,14.734
	c-4.14,5.506-6.136,11.63-9.339,17.619c-1.833,3.427-6.934,11.323,0.551,12.081c5.599,0.567,8.659-10.117,10.691-14.002
	c6.258-11.968,14.645-23.22,23.653-33.291c0.431,0.178,0.862,0.358,1.295,0.537c-1.071,9.883-1.819,19.785-4.433,29.409
	c-0.933,3.433-2.791,8.486,1.265,10.694c3.212,1.749,6.641,0.333,8.003-2.964c3.694-8.927,3.624-20.249,4.019-29.756
	c0.214-5.153,0.326-9.914-0.433-14.963c-0.717-4.768,3.76-9.256,6.499-12.612c12.386-15.179,27.078-29.649,41.336-43.071
	c4.779-4.499,11.438-15.16,18.545-11.298c4.696,2.552,9.425,5.038,14.208,7.424c4.382,2.186,12.423,4.386,15.269,8.369
	c-3.918,9.713-9.446,18.921-13.785,28.496c-4.655,10.273-9.485,20.394-14.96,30.263c-5.188,9.353-9.737,19.255-15.285,28.375
	c-2.947,4.845-17.515,19.987-5.346,23.718c9.905,3.037,12.329-12.247,14.558-18.383c3.904-10.745,10.451-20.629,15.822-30.684
	c4.875-9.125,8.052-19.649,13.398-28.401c1.158-1.896,3.072-3.115,4.151-5.036c1.678-2.985,2.833-6.356,4.168-9.505
	c2.385-5.628,4.784-10.743,8.155-15.829c24.4,9.72,51.276,16.394,77.416,19.397c14.147,1.626,27.173-0.69,40.971-3.637
	c13.135-2.805,22.799-8.602,34.298-15.138c-1.809,20.17-3.72,41.702,0.966,61.717c1.164,4.976,2.741,9.842,4.332,14.695
	c1.218,3.715,1.999,10.054,6.306,11.633c5.334,1.955,4.673-4.275,3.936-7.085C379.084,583.871,377.5,578.236,376.305,572.509
	C374.878,565.686,377.669,579.047,376.305,572.509z"/>
<path id="outline" fill-rule="evenodd" clip-rule="evenodd" d="M596.212,331.108c4.169-0.003,5.396,3.737,7.703,6.48
	c2.979,3.541,6.836,6.205,11.01,8.151c4.42,2.061,7.782,2.74,11.667-0.749c3.443-3.091,7.779-7.563,7.513-12.581
	c0.054-14.243-15.1-18.49-26.41-14.058c-5.359,2.1-10.055,5.638-16.004,5.95c-2.402,0.125-3.709,2.507-2.693,4.677
	C590.137,331.416,594.051,331.11,596.212,331.108C598.673,331.106,594.629,331.109,596.212,331.108z M622.596,325.572
	c0.581,1.052,0.108,2.682,0.108,4.148c-3.434-0.591-4.598-2.296-4.753-4.915C619.854,323.804,621.674,323.895,622.596,325.572
	C623.177,326.625,621.674,323.895,622.596,325.572z M608.484,326.68c0.156-0.037,0.46,0.562,0.88,1.107
	c-1.465,0.849-1.445,1.008-2.418-0.37C607.455,327.154,607.943,326.806,608.484,326.68
	C608.641,326.643,607.943,326.806,608.484,326.68z"/>
<path id="outline" fill-rule="evenodd" clip-rule="evenodd" d="M525.548,317.468c0.289-3.325-2.925-6.218-6.204-5.268
	c-4.618,1.337-2.995,9.134-2.995,12.534c0.03,0,0.06,0,0.09,0c0,10.474,0.501,20.399,6.78,29.201
	c3.015,4.227,12.12,21.142,18.926,17.728c4.219-2.117,0.453-6.011-1.807-7.735c-4.202-3.206-7.334-7.749-10.227-12.131
	C522.981,340.994,524.47,329.743,525.548,317.468C525.8,314.57,525.34,319.835,525.548,317.468z"/>
<path id="outline" fill-rule="evenodd" clip-rule="evenodd" d="M646.288,336.6c1.652,1.259,18.516,14.762,18.104,7.739
	c-0.191-3.261-6.507-5.627-8.77-7.312c-3.435-2.558-5.693-6.015-9.104-8.558C642.2,330.258,642.347,333.592,646.288,336.6
	C650.184,339.569,645.187,335.759,646.288,336.6z"/>
<path id="outline" fill-rule="evenodd" clip-rule="evenodd" d="M691.723,417.974c1.157-3.527,0.866-4.519-2.006-6.861
	c-2.848-2.322-5.07-5.614-7.487-1.208c0.065,2.811,0.131,5.924,1.701,8.377C686.018,421.542,690.33,422.223,691.723,417.974
	C693.086,413.818,690.6,421.401,691.723,417.974z"/>
</svg>
