<svg version="1.1" id="Layer_1" xmlns="http://www.w3.org/2000/svg" xmlns:xlink="http://www.w3.org/1999/xlink" x="0px" y="0px"
	 width="720px" height="720px" viewBox="0 0 720 720" enable-background="new 0 0 720 720" xml:space="preserve">
<path id="background" fill="none" d="M664.27,314.77l-0.01-0.21c0-0.1-0.01-0.2-0.02-0.3v-0.07c-0.01-0.16-0.05-0.82-0.08-1.28
	c-0.021-0.27-0.04-0.53-0.05-0.8c0-0.03,0-0.07-0.011-0.1c-1.39-19.1-6.229-37.82-7.359-56.91c-0.61-10.33,1.38-20.86,2.68-31.08
	c0.43-3.35,2.061-8.15-1.05-10.73l-73.84-89.98l-1.94-2.36c-3.99-2.04-6.72,3.24-8.67,5.77c-5.93,7.66-12.36,14.7-19.26,21.48
	c-13.99,13.75-25.78,28.59-37.96,43.9c-12.62,15.87-26.92,29.3-40.98,43.83c-6.09,6.28-11.439,13.53-19.069,18.08
	c-7.21,4.31-10.87,11.41-20.07,12.89c-18.8-8.62-39.7-4.2-59.7-2.29c-10.16,0.97-19.83,3.01-30.11,3.35
	c-11.17,0.36-20.53,3.98-31.24,6.13c-5.87,1.17-13.74-17.4-16.15-21.86c-4.83-8.96-9.54-18.96-13.05-28.5
	c-6.93-18.87-15-38.85-25.62-56.04c-10.94-17.7-20.47-36.18-33.39-52.59c-5.73-7.28-11.14-14.08-17.76-20.61
	c-7.86-7.74-16.09-15.06-24.02-22.71c-14.47-13.94-29.98-25.39-45.9-37.57c-7.8-5.98-15.96-10.45-24.51-15.2
	c-4.25-2.37-8.61-4.58-13.15-6.36c-4.81-1.89-11.62-2.02-15.88-4.8c-3.8-2.49-8.26-3.34-12.71-3.71
	c-4.38-0.36-11.17-2.21-15.11,0.11c-7.7,4.55,10.37,18.38,14.09,20.99c18.87,13.19,38.25,24.86,56.07,39.6
	c-0.22,0.35-0.43,0.69-0.64,1.03c-14.11-4.91-26.91-9.55-41.92-11.24c-4.95-0.56-12.6-2.62-15.58,2.93
	c-2.6,4.86,0.98,12.78,3.47,17.11c3.13,5.44,9.45,8.98,14.51,12.34c7.15,4.74,14.12,9.56,20.91,14.81
	c6.48,5,12.89,10.09,19.31,15.18c5.38,4.28,14.31,8.98,17.2,15.52c-13.02-2.87-25.51-8.98-38.32-12.84
	c-6.6-1.99-13.52-1.12-20.29-1.02c-6.82,0.11-13.07,0.56-19.31,3.6c-5.56,2.7-8.66,4.67-8.45,11.07c0.17,4.99,1.15,10.01,3.53,14.44
	c6.01,11.16,19.71,16.42,28.09,25.55c-7.31,2.91-18.77,4.61-21.65,12.76c-3.12,8.83,5.83,15.97,11.78,21.18
	c-7.95,3.64-15.78,6.24-14.11,16.79c1.34,8.48,12.14,14.44,18.28,19.23c16.74,13.05,29.52,29.82,41.2,47.3
	c-8.27,4.72-17.11,8.72-25.03,14.02c-3.94,2.64-16.57,8.97-15.8,14.81c1.03,7.76,5.58,12.4,13.05,13.38
	c10.34,1.36,21.1,1.48,31.18,4.17c-11.33,10.67-25.93,21.27-17.99,38.85c3.21,7.101,15.2,7.341,21.34,5.011
	c5.02-1.9,9.92-4.08,14.81-6.28c2.95-1.31,7.2-4.31,10.63-3.76c-3.97,7.02-8.14,13.89-12.22,20.84c-4.41,7.5-9.11,16.55-2.21,24.38
	c5.57,6.32,12.04,1.79,17.21-2.17c7.31-5.59,14.48-11.4,22.14-16.51c5.17,10.1,10.82,10.85,19.23,3.47c0.75,6.11-1.53,12-1.39,18.12
	c0.14,6.18,1.64,13.09,5.17,18.28c7.62,11.21,18.29-3.62,24.36-8.921c2.44,1.78,4.93,4.271,8.17,4.181
	c3.33-0.101,6.92-1.62,10.13-2.48c-0.03-0.02-0.87-0.62-1.78-1.26c3.74-3.4,7.18-6.52,10.88-9.89c2.68,4.39-0.13,11.93,0.26,16.85
	c0.44,5.5,5.41,6.55,9.71,8.12c-4.8,17.91-15.29,35.02-15.44,53.88c-0.05,6.57,0.8,15.61,8.43,17.71
	c7.66,2.101,13.17-5.939,15.85-11.89c0.44,0.33,0.86,0.66,1.29,1c-0.6,6.189-3.78,15.51,0.83,20.8c5.95,6.84,11.27,2.61,17.11-0.87
	c-0.91,5.75-2.54,12.54-1.08,18.3c1.12,4.471,5.5,5.021,9.22,6.42c-0.85,7.101-3.81,15.71,3.36,20.391
	c6.53,4.26,12.41,1.689,18.44-1.79c-0.47,7.87-0.88,14.66,6.26,19.74c10.56,7.529,15.77-7.2,25.13-6.391
	c7.47,0.65,10.729,16.98,12.24,22.71c1.81,6.87,3.949,19.75-1.61,25.55c-5.74,5.99-15.33,7.021-21.39,12.83
	c-8.13,7.78-4.75,14.83,6.11,15.17c22.36,0.7,44.76-10.109,67.24-5.729c1.42,5.36,4.47,12.01,4.38,17.56
	c-0.09,5.37-7.07,9.2-11.18,11.301c-5.91,3.02-12.141,5.47-18.19,8.189c-3.3,1.48-8.49,7.39-2.29,9.63
	c6.03,2.181,12.04,4.84,18.57,4.83c6.39,0,13.17-1.06,19.439-2.25c5.98-1.13,11.801-4.229,17.99-3.38c6.19,0.85,12,4.72,17.76,6.99
	c24.37,9.6,51.681,11.819,77.65,10.7c3.58-0.15,9.92-2.62,6.41-7.41c-3.09-4.21-11.521-6.221-16.12-8.17
	c-12.66-5.341-25.64-8.58-38.95-11.79c6.86-3.7,15.891-5.221,23.3-7.74c6.03-2.061,20.671-4.76,23.9-10.85
	c4.8-9.091-12.82-8.37-16.57-8.08c-8.649,0.64-17.08,1.869-25.6,2.689c-3.79-6.26-9.54-10.81-16.38-13.33
	c-7.72-2.84-13.99-6.2-20.94-10.72c5.58-4.79,12.5-10.03,19.82-11.81c2.84-0.69,21.71-8.101,12.69-12.58
	c-4.15-2.07-9.011-0.78-13.36-0.261c-5.03,0.601-9.92-0.229-14.88,1.23c-8.721,2.59-19.19,1.1-28.2,1.1
	c-2.67-6.92-7.22-14.67-7.55-22.2c-0.19-4.229,2.43-6.689,4.12-10.26c1.649-3.49,2.29-7.31,3.81-10.83
	c2.96-6.87,10.45-9.42,16.58-12.739c7.66-4.16,16.12-6.7,23.65-11.07c14.569-8.46,27.5-18.851,41.779-27.771
	c14.811-9.25,28.2-18.81,41.59-30.02c13.99-11.7,25.79-25.83,38.25-39.11c12-12.79,23.08-26.3,32.41-41.21
	c9.261-14.81,16.511-30.35,23.511-46.31C664.38,350.68,665.19,331.3,664.27,314.77z M376.73,278.72c-0.561,0-1.131,0.01-1.69-0.01
	c-0.01,0-0.01,0-0.01,0c-0.07-0.01-0.13-0.14-0.21-0.21c0.64,0.02,1.27,0.04,1.91,0.06V278.72z M467.96,668.47
	c-0.02,0.011-0.04,0-0.07,0c-0.109,0-0.21,0-0.31-0.01h-0.24c-0.29-0.01-0.24-0.01-0.05-0.01c-1.16-0.07-2.29-1.76-3.43-2.7
	c0.26-0.35,0.51-0.7,0.77-1.05c4.09,0.55,8.18,1.09,12.271,1.64c0,0.4,0.01,0.79,0.02,1.19
	C473.93,667.87,470.95,668.46,467.96,668.47z"/>
<path id="outline" fill-rule="evenodd" clip-rule="evenodd" d="M582.59,120.95l1.94,2.36C584.17,122.29,583.51,121.42,582.59,120.95z"/>
<path id="outline" fill-rule="evenodd" clip-rule="evenodd" d="M376.73,278.56v0.16c-0.561,0-1.131,0.01-1.69-0.01c-0.01,0-0.01,0-0.01,0
	c-0.07-0.01-0.13-0.14-0.21-0.21C375.46,278.52,376.09,278.54,376.73,278.56z"/>

<path id="outline" fill-rule="evenodd" clip-rule="evenodd" d="M664.221,313.863c-1.188-19.741-6.314-39.057-7.481-58.761
	c-0.611-10.332,1.383-20.866,2.682-31.082c0.426-3.346,2.057-8.15-1.055-10.725c-2.323-1.923-5.618-1.546-6.397,1.571
	c-1.121,4.491-0.585,9.722-0.996,14.339c-0.474,5.328-1.574,10.523-1.74,15.89c-0.326,10.556,0.997,21.199,2.693,31.599
	c3.216,19.719,7.35,39.089,4.412,59.133c-1.347,9.187-4.549,17.51-7.666,26.188c-3.353,9.336-6.213,18.713-10.688,27.607
	c-9.11,18.107-22.288,34.771-35.589,49.975c-24.934,28.501-50.967,61.671-87.44,75.714c2.063,3.112-6.517,6.446-8.929,7.338
	c0.893-1.383,1.174-1.82,1.464-2.263c-9.305,6.933-18.632,15.506-28.87,20.935c-5.361,2.844-10.807,5.538-16.407,7.881
	c-4.379,1.832-11.995,2.841-14.843,7.015c-2.472,3.629-7.389,3.204-10.104,6.873c-3.267,4.414-6.255,9.189-8.975,13.955
	c-6.197,10.858-4.729,23.181-0.573,34.694c7.543,20.896,16.682,45.97,32.822,61.954c7.109,7.041,23.011-0.248,31.076-1.355
	c5.311-0.73,10.743-0.742,15.951-2.127c4.139-1.099,12.163-2.562,15.831-0.33c-7.756,3.804-17.449,6.208-25.781,8.599
	c-6.909,1.982-19.163,0.65-23.773,7.015c4.854,7.465,15.345,8.735,23.581,10.796c10.549,2.64,20.724,5.92,31.016,9.419
	c-0.059,0.419-0.12,0.837-0.179,1.254c-21.731,0-43.638-4.321-64.235-11.243c-4.325-1.453-8.084-3.889-12.2-5.788
	c-5.66-2.612-10.711-1.593-16.311,0.612c-5.576,2.196-11.077,3.433-17.087,3.569c-3.346,0.075-11.438,1.227-13.36-1.705
	c5.707-2.795,12.178-4.146,17.232-8.158c4.414-3.502,10.71-9.277,10.341-15.422c-0.516-8.512-4.443-16.242-7.144-24.179
	c-2.66-7.817-4.518-15.78-7.9-23.359c-3.521-7.888-7.544-15.367-10.814-23.403c-3.155-7.75-7.716-15.914-9.209-24.188
	c-0.92-5.096,5.057-16.673-1.566-18.655c-6.622-1.982-7.079,9.167-8.206,13.401c-5.204-0.914-11.674,6.016-16.118,8.205
	c-7.482,3.686-5.94-1.604-8.75-6.97c-4.185-7.994-30.201,23.89-27.784,3.254c0.789-6.74,5.756-9.41,8.119-15.084
	c2.127-5.077-4.387-9.825-8.878-7.479c-2.137,1.116-3.247,3.524-5.024,5.083c-2.429,2.131-5.363,3.534-8.273,4.874
	c-5.234,2.411-10.957,5.671-9.315-3.156c1.244-6.689,4.572-11.142,9.84-15.282c4.074-3.202,10.605-9.922,1.308-12.053
	c-5.109-1.171-7.601,6.66-11.986,8.442c-8.453,3.434-8.052-3.039-6.769-9.751c1.335-6.985,3.258-14.068,6.325-20.515
	c1.952-4.104,10.847-12.024,3.585-15.799c-6.822-3.546-8.355,5.655-10.822,9.815c-2.043,3.446-5.165,6.44-7.872,9.363
	c-2.314,2.498-5.105,6.83-8.328,7.979c-2.97-7.082,0.828-15.382,2.605-22.334c1.713-6.702,7.723-18.479-0.51-23.035
	c-7.837-4.337-13.209,14.045-15.747,18.948c-1.877,3.626-3.828,9.296-7.6,11.451c-5.125,2.927-3.13-6.015-2.938-7.983
	c1.994-20.394,12.945-37.744,16.496-57.628c0.839-4.697,1.616-9.442,3.276-13.937c1.157-3.133,4.326-7.573-0.169-9.864
	c-7.748-3.942-9.953,9.651-14.344,13.469c-0.166-7.387,8.381-24.996-2.487-27.73c-5.114-1.288-6.146,4.295-8.823,7.211
	c-3.489,3.801-7.868,7.11-12.121,10.005c-1.402-7.544,3.08-11.458,7.812-16.679c1.4-1.545,4.912-4.278,4.507-6.757
	c-0.42-2.567-3.942-3.104-5.047-5.216c5.229-12.805,14.495-24.483,23.813-34.597c10.386-11.272,22.423-18.672,35.148-26.918
	c2.318-1.503,2.579-3.563,0.911-5.719c-2.809-3.634-5.612-2.131-8.816-0.014c-6.11,4.037-12.331,7.957-17.963,12.66
	c-11.331,9.456-23.217,20.701-31.483,32.986c-4.056,6.027-6.842,12.773-10.397,19.089c-3.361,5.97-6.588,11.798-8.507,18.425
	c-2.208,7.622-4.759,11.937-10.491,17.58c-4.305,4.239-10.78,13.569-13.911,3.822c-2.167-6.745,0.509-15.327,1.675-22.143
	c0.753-4.408,1.825-8.744,3.095-13.03c1.07-3.609,3.755-7.133,4.362-10.783c1.099-6.604-8.161-6.177-10.908-2.174
	c-4.451,6.49-8.818,13.356-14.779,18.511c1.083-5.648,6.657-13.689,5.148-19.212c-2.7-9.878-9.488-0.438-12.107,3.123
	c-8.335,11.332-22.411,23.645-35.726,28.471c0-8.988,3.461-15.744,8.49-23.034c5.773-8.367,11.29-18.327,18.502-25.515
	c2.81-2.801,5.964-4.171,9.491-5.798c3.931-1.814,2.091-3.915,3.234-7.092c1.016-2.825,6.139-5.777,5.42-8.791
	c-1.572-6.595-7.101-2.619-9.822,0.305c-5.58,5.996-11.469,13.088-18.87,16.86c-9.192,4.685-18.593,9.774-28.2,13.549
	c-7.078,2.782-19.922,8.18-21.635-3c-1.246-8.135,8.772-17.336,15.025-21.203c3.746-2.317,20.614-5.414,17.904-11.771
	c-1.932-4.533-6.369-4.235-10.519-4.182c-5.932,0.077-11.72-0.425-17.607-1.113c-5.241-0.613-10.475-1.292-15.711-1.944
	c-3.182-0.396-10.083,0.193-11.831-3.24c-3.222-6.328,18.177-15.961,22.209-18.243c4.212-2.385,8.358-4.836,12.909-6.527
	c3.345-1.243,7.032-2.759,5.297-7.074c-1.744-4.344-4.69-7.873-7.395-11.619c-3.027-4.193-4.665-9.155-7.827-13.335
	c-5.21-6.888-11.533-13.875-18.022-19.576c-7.144-6.276-16.395-10.438-22.931-17.333c-6.255-6.598-3.493-14.023,5.37-15.862
	c3.715-0.771,6.537,2.532,10.103,0.639c3.377-1.793,2.232-4.953-0.325-6.806c-4.945-3.58-16.733-9.164-17.294-16.33
	c-0.532-6.796,17.132-11.27,21.857-11.413c4.438-0.134,9.583-0.162,13.795,1.388c1.911,0.704,7.472,3.277,6.99-1.59
	c-0.354-3.582-7.703-5.172-10.286-6.295c-4.862-2.114-9.714-4.253-14.535-6.461c-4.003-1.836-7.446-5.217-10.829-7.968
	c-3.446-2.803-7.518-5.166-10.628-8.334c-5.034-5.127-8.273-15.569-2.222-21.181c5.918-5.489,18.891-4.72,26.375-4.495
	c10.395,0.312,19.851,3.016,29.274,7.268c8.697,3.923,18.524,6.285,26.656,11.311c3.324,2.054,5.48,5.208,8.565,7.402
	c3.908,2.778,8.84,1.66,6.893-3.971c-1.433-4.115-7.283-8.326-10.236-11.451c-3.564-3.77-7.132-7.536-10.709-11.294
	c-7.317-7.687-14.28-16.074-22.838-22.436c-7.24-5.365-12.777-12.952-20.252-18.253c-8.07-5.723-15.916-11.055-23.415-17.523
	c23.032-5.855,49.287,8.728,68.141,20.553c4.501,2.824,9.999,3.539,14.391,6.571c5.208,3.598,8.031,7.752,11.372,13.174
	c3.22,5.227,6.054,10.729,7.883,16.607c2.475,7.952,3.439,8.454,11.861,9.765c1.98-6.329-1.568-10.501-4.849-15.736
	c-3.742-5.97-6.468-12.458-10.348-18.349c-3.813-5.792-8.141-11.222-12.006-16.978c-3.907-5.818-10.735-9.768-15.7-14.743
	c-10.363-10.385-23.54-18.114-34.657-27.749c-5.305-4.598-11.854-6.869-17.56-11.03c-6.438-4.696-13.272-9.21-19.161-14.581
	c29.602,4.462,52.674,24.704,75.077,42.873c12.431,10.082,24.83,20.27,36.542,31.186c10.805,10.071,19.562,20.276,28.139,32.191
	c17.731,24.631,33.072,50.721,45.383,78.464c5.719,12.889,11.308,25.764,16.884,38.731c6.016,13.99,14.472,27.157,22.431,40.11
	c-5.69,1.812-8.372,4.057-3.883,9.468c1.525,1.839,3.895,5.056,6.292,5.773c2.928,0.876,6.431-3.499,8.896-4.711
	c13.895-6.833,29.019-6.917,44.072-6.917c-1.789-0.449-2.781-0.7-3.774-0.95c9.457-2.385,19.246-2.656,28.686-5.186
	c8.52-2.283,22.352-6.093,30.896-3.142c0.061,0.311,0.121,0.622,0.182,0.933c-2.108,0.821-4.217,1.641-6.548,2.549
	c3.875,7.099,5.234,11.773,13.609,13.755c8.051,1.905,16.304-1.512,24.444-1.512c-2.907,4.746-4.832,9.984-6.079,15.393
	c-1.402,6.084-3.406,12.359-4.416,18.49c-0.602,3.655-4.304,32.579,3.94,30.208c2.429-0.699,4.536-7.549,5.628-9.522
	c2.75-4.971,5.792-9.849,9.824-13.894c4.207-4.219,8.785-8.312,13.336-12.161c3.877-3.279,8.959-9.579,14.677-7.66
	c0.216,11.108,0.415,22.194,0.286,33.306c-0.05,4.276-0.884,9.321,0.13,13.512c0.859,3.556,5.079,3.049,6.22,7.16
	c0.834,3.012,1.476,10.69,5.173,11.77c3.649,1.065,6.531-8.147,7.521-10.512c4.252-10.144,7.172-20.553,14.295-29.255
	c2.923,8.512,5.896,17.009,8.758,25.542c0.706,2.107,1.604,6.525,4.217,7.229c3.676,0.989,4.992-1.235,6.85,3.288
	c1.976,4.84,2.491,17.091,9.311,17.602c4.397,0.329,4.125-4.984,3.269-7.822c-1.427-4.729-1.069-9.96,0.772-14.526
	c2.927,1.875,4.226,6.525,5.713,9.604c2.472,5.114,4.697,10.385,5.97,15.938c0.697,3.044,1.79,9.316,6.391,8.389
	c4.907-0.988,3.651-7.995,4.167-11.59c0.659-4.592,2.324-9.122,3.849-13.483c1.235-3.532,5.474-7.088,3.992-11.089
	c-2.047-5.524-7.203-2.74-9.224,1.015c-2.47,4.591-3.227,9.881-5.389,14.618c-3.72-3.595-4.711-7.461-6.12-12.223
	c-1.446-4.885-4.384-9.104-6.848-13.502c-1.392-2.485-5.187-6.917-8.226-3.539c-2.929,3.254-1.477,11.448-2.177,15.628
	c-0.331-0.021-0.664-0.042-0.994-0.062c-1.624-8.409-3.222-15.729-8.113-22.947c-2.425-3.577-4.947-4.758-8.399-7.018
	c-3.251-2.128-1.904-7.273-3.33-10.445c-4.518-10.03-11.361,9.028-12.869,12.215c-4.236,8.958-7.542,18.322-12.64,26.828
	c-2.736-9.522-4.23-18.801-5.195-28.665c-0.561-5.725-2.279-11.594-2.2-17.332c0.064-4.65,1.143-10.806-1.874-14.853
	c-7.998-10.727-40.755,27.975-45.574,33.814c0-17.978,3.322-37.712,15.48-51.626c2.037-2.332,4.38-5.216,0.662-7.245
	c-3.77-2.057-7.094,0.099-10.681,1.406c-8.473,3.088-18.014,4.348-26.682,1.88c17.796-6.432,33.165-13.132,47.536-25.782
	c6.93-6.1,13.031-12.83,19.012-19.839c6.45-7.561,14.223-13.587,21.113-20.692c13.702-14.127,24.115-31.209,37.646-45.608
	c6.946-7.392,14.104-14.584,20.896-22.121c2.791-3.096,6.238-5.475,8.833-8.746c2.559-3.224,4.575-6.845,7.24-9.989
	c1.741-2.052,1.19-6.065-1.232-7.299c-3.99-2.034-6.721,3.24-8.679,5.772c-5.924,7.663-12.354,14.699-19.258,21.486
	c-13.982,13.744-25.777,28.581-37.959,43.9c-12.621,15.866-26.916,29.294-40.98,43.822c-6.087,6.288-11.436,13.53-19.064,18.087
	c-7.21,4.307-10.876,11.402-20.075,12.889c-18.797-8.623-39.702-4.203-59.694-2.294c-10.161,0.97-19.832,3.017-30.117,3.35
	c-11.171,0.361-20.531,3.986-31.238,6.133c-5.867,1.172-13.74-17.405-16.146-21.862c-4.829-8.956-9.546-18.956-13.05-28.499
	c-6.931-18.871-15-38.845-25.624-56.036c-10.939-17.702-20.465-36.182-33.393-52.595c-5.729-7.274-11.137-14.08-17.761-20.61
	c-7.853-7.743-16.084-15.058-24.02-22.707c-14.468-13.946-29.978-25.391-45.892-37.575c-7.806-5.977-15.959-10.447-24.509-15.198
	c-4.259-2.367-8.617-4.575-13.156-6.356c-4.812-1.889-11.617-2.027-15.878-4.807c-3.802-2.487-8.261-3.338-12.715-3.705
	C69.005,3.78,62.217,1.926,58.28,4.246c-7.697,4.55,10.368,18.388,14.093,20.993c18.864,13.191,38.251,24.858,56.065,39.605
	c-0.214,0.343-0.43,0.687-0.643,1.03c-14.101-4.916-26.909-9.557-41.92-11.247c-4.95-0.557-12.597-2.619-15.572,2.934
	c-2.603,4.857,0.979,12.78,3.469,17.108c3.129,5.438,9.444,8.981,14.512,12.345c7.142,4.74,14.115,9.56,20.901,14.803
	c6.48,5.007,12.898,10.093,19.312,15.185c5.383,4.274,14.311,8.975,17.205,15.522c-13.02-2.87-25.515-8.986-38.317-12.844
	c-6.601-1.989-13.527-1.122-20.296-1.016c-6.813,0.106-13.064,0.554-19.308,3.591c-5.563,2.705-8.656,4.672-8.445,11.073
	c0.165,4.991,1.142,10.008,3.525,14.438c6.009,11.167,19.709,16.421,28.092,25.555c-7.314,2.904-18.769,4.605-21.654,12.763
	c-3.12,8.823,5.831,15.97,11.782,21.172c-7.95,3.645-15.778,6.244-14.109,16.794c1.342,8.483,12.138,14.442,18.281,19.23
	c16.737,13.046,29.522,29.821,41.196,47.295c-8.272,4.729-17.109,8.721-25.022,14.022c-3.943,2.641-16.576,8.971-15.804,14.813
	c1.026,7.756,5.577,12.401,13.048,13.38c10.337,1.355,21.1,1.479,31.177,4.166c-11.329,10.671-25.923,21.276-17.985,38.852
	c3.209,7.104,15.197,7.338,21.341,5.016c5.018-1.899,9.918-4.089,14.812-6.28c2.942-1.317,7.196-4.314,10.623-3.76
	c-3.964,7.015-8.133,13.891-12.214,20.835c-4.41,7.505-9.114,16.556-2.215,24.38c5.569,6.316,12.046,1.791,17.211-2.164
	c7.307-5.596,14.483-11.403,22.14-16.512c5.171,10.098,10.824,10.852,19.235,3.47c0.749,6.104-1.54,11.995-1.4,18.114
	c0.142,6.187,1.648,13.096,5.174,18.282c7.621,11.21,18.294-3.623,24.363-8.919c2.435,1.78,4.931,4.274,8.167,4.177
	c3.333-0.101,6.922-1.617,10.132-2.477c-0.031-0.024-0.875-0.624-1.776-1.266c3.736-3.392,7.172-6.518,10.878-9.885
	c2.678,4.395-0.135,11.926,0.26,16.845c0.442,5.507,5.407,6.56,9.71,8.13c-4.802,17.904-15.288,35.013-15.443,53.88
	c-0.054,6.561,0.798,15.609,8.43,17.701c7.658,2.1,13.167-5.932,15.854-11.889c0.432,0.333,0.86,0.667,1.29,1
	c-0.605,6.193-3.781,15.508,0.826,20.803c5.952,6.841,11.272,2.609,17.106-0.865c-0.909,5.748-2.535,12.533-1.08,18.297
	c1.128,4.467,5.508,5.022,9.225,6.418c-0.853,7.104-3.813,15.709,3.359,20.39c6.533,4.263,12.408,1.689,18.438-1.787
	c-0.468,7.869-0.878,14.654,6.26,19.742c10.561,7.525,15.775-7.209,25.13-6.393c7.472,0.651,10.732,16.977,12.244,22.709
	c1.812,6.87,3.949,19.753-1.609,25.551c-5.743,5.989-15.333,7.019-21.396,12.828c-8.124,7.784-4.747,14.833,6.108,15.172
	c22.367,0.698,44.763-10.116,67.244-5.729c1.42,5.354,4.473,12.007,4.379,17.562c-0.091,5.369-7.066,9.191-11.182,11.295
	c-5.905,3.019-12.142,5.471-18.188,8.191c-3.295,1.481-8.492,7.391-2.286,9.63c6.026,2.182,12.039,4.841,18.571,4.833
	c6.388-0.008,13.17-1.062,19.436-2.249c5.976-1.133,11.796-4.234,17.987-3.386c6.192,0.849,12.002,4.72,17.764,6.99
	c24.371,9.604,51.677,11.82,77.653,10.703c3.571-0.155,9.914-2.626,6.404-7.417c-3.084-4.208-11.518-6.218-16.122-8.161
	c-12.659-5.341-25.633-8.589-38.949-11.792c6.861-3.702,15.896-5.219,23.3-7.742c6.031-2.057,20.674-4.758,23.898-10.854
	c4.807-9.088-12.811-8.363-16.568-8.08c-8.646,0.649-17.075,1.874-25.599,2.694c-3.783-6.255-9.543-10.814-16.382-13.33
	c-7.714-2.838-13.99-6.196-20.936-10.72c5.576-4.786,12.504-10.028,19.819-11.811c2.837-0.691,21.713-8.097,12.692-12.576
	c-4.152-2.069-9.015-0.783-13.357-0.264c-5.032,0.603-9.923-0.233-14.883,1.233c-8.726,2.589-19.193,1.101-28.204,1.101
	c-2.671-6.921-7.215-14.672-7.549-22.204c-0.187-4.227,2.435-6.686,4.122-10.263c1.646-3.488,2.291-7.304,3.808-10.825
	c2.96-6.871,10.454-9.42,16.578-12.745c7.664-4.16,16.12-6.701,23.649-11.069c14.57-8.454,27.506-18.848,41.786-27.768
	c14.811-9.25,28.196-18.813,41.592-30.019c13.989-11.701,25.783-25.831,38.244-39.107c12.004-12.789,23.084-26.299,32.412-41.216
	c9.26-14.808,16.512-30.35,23.505-46.31C664.497,350.404,665.225,330.593,664.221,313.863
	C663.498,301.86,664.793,323.4,664.221,313.863z M240.817,421.824c-0.858-3.369-0.161-5.624,2.71-7.747
	C244.391,417.608,243.771,419.875,240.817,421.824z M410.717,642.779c-8.936,0.346-17.422,0.893-26.257,2.405
	c-8.178,1.401-16.938,3.704-25.21,2.725c-0.151-0.498-0.3-0.996-0.45-1.496c4.721-4.099,8.75-6.476,14.796-8.451
	c6.014-1.965,7.309-3.082,7-9.553c-0.346-7.218-0.709-14.439-1.479-21.626c-0.747-7.021-3.493-14.126-4.736-21.142
	c5.183-3.468,9.911-6.632,14.914-9.978c1.102,2.379,2.526,4.952,2.357,7.672c-0.19,3.062-2.711,4.671-1.299,7.887
	c2.554,5.815,8.1,13.162,9.099,19.364c0.311,1.942,0.919,3.995,2.415,5.372c1.938,1.785,5.162,0.947,6.434,3.483
	c3.643,7.285,6.145,15.063,8.615,22.804C414.47,642.463,412.597,642.706,410.717,642.779
	C406.171,642.955,412.597,642.706,410.717,642.779z M467.344,668.458c-1.184-0.027-2.324-1.755-3.484-2.708
	c0.256-0.35,0.514-0.699,0.769-1.05c4.089,0.548,8.179,1.092,12.268,1.638c0.008,0.398,0.016,0.796,0.024,1.193
	C473.727,667.89,470.526,668.537,467.344,668.458C466.16,668.431,470.526,668.537,467.344,668.458z M484.485,658.781
	c-7.698,1.831-15.659-0.758-23.208-2.203c-7.327-1.403-9.966-10.023-13.414-15.945
	C461.202,645.775,473.279,651.332,484.485,658.781C478.796,660.135,473.279,651.332,484.485,658.781z M472.455,623.467
	c-0.405,3.171-9.039,6.141-11.96,7.22c-4.759,1.76-10.064,2.511-14.971,3.899c-0.972-2.858-1.922-5.649-3.148-9.256
	C452.865,624.681,462.616,624.076,472.455,623.467C472.358,624.223,462.616,624.076,472.455,623.467z"/>
<path id="outline" fill-rule="evenodd" clip-rule="evenodd" d="M375.04,278.712c0.564,0.019,1.129,0.01,1.693,0.01
	c0-0.055-0.001-0.109-0.001-0.164c-0.638-0.021-1.271-0.041-1.908-0.062C374.897,278.572,374.966,278.71,375.04,278.712
	C375.604,278.731,374.966,278.71,375.04,278.712z"/>
</svg>
