<svg version="1.1" id="Layer_1" xmlns="http://www.w3.org/2000/svg" xmlns:xlink="http://www.w3.org/1999/xlink" x="0px" y="0px"
	 width="720px" height="720px" viewBox="0 0 720 720" enable-background="new 0 0 720 720" xml:space="preserve">
<path id="background" fill="none" d="M714.49,259.59c0,0-0.04-0.09-0.09-0.21c-0.011-0.01-0.011-0.02-0.021-0.03c-0.01-0.02-0.02-0.05-0.03-0.08
	c-0.069-0.17-0.149-0.33-0.22-0.5c-0.02-0.04-0.03-0.07-0.04-0.1l-0.02-0.04c0,0,0,0,0-0.01l-0.011-0.02
	c-3.369-7.7-6.64-15.41-12.18-21.86c-2.68-3.13-6.45-5.55-8.439-9.22c-2.11-3.88-3.221-8.26-5.341-12.17
	c-4.13-7.61-9.439-15.25-19.06-15.18c-9.16,0.07-19.59,5.97-28,9.25c-9.62,3.75-19.41,5.95-29.33,8.69
	c-4.7,1.29-9.19,3.31-13.93,4.42c-4.58,1.06-9.19,0.24-13.811,0.87c-9.83,1.35-18.029,7.4-26.27,12.48
	c-3.931,2.43-8.15,6.56-12.49,8.08c-4.56,1.6-9.71,2.14-14.44,3.08c-10.43,2.07-21.029,2.62-31.609,3.58
	c-10.11,0.92-20.33,2.57-30.49,2.86c-4.79,0.14-8.29-1.94-12.72-3.3c-4.271-1.31-8.78-2.19-13.16-3.09
	c-9.56-1.98-18.98-6.2-28.12-9.57c-10.05-3.71-19.77-8.13-29.53-12.51l-5.42,1.88l-64.08,22.27l-2.94,1.02
	c-3.27,2.13-1.61,5.96-0.55,8.84c2.69,7.31,7.5,13.64,11.64,20.16c-48.56,6.65-94.33,27.13-143.53,30.13
	c-4.96,0.31-10.63,0.43-15.51-0.67c-5.76-1.29-9.32-6.66-12.93-10.92c-7.94-9.39-13.58-19.5-18.57-30.69
	c-5.21-11.67-8.58-24.26-12.51-36.41l-5.41,0.9l-55.1,9.21c-3.4,9.18-0.42,20.98,0.39,30.44c0.43,4.93,0.56,9.99,1.52,14.86
	c1.11,5.65,4.19,10.86,6.71,15.97c2.46,5,1.19,6.12-1.59,10.58c-2.59,4.17-2.73,8.15-2.82,12.94c-0.2,10.85-0.86,21.66-2.6,32.39
	c-1.59,9.78-5.59,18.16-9.4,27.2c-4.12,9.81-7.88,20.149-12.91,29.52c-9.3,17.34-18.21,34.021-30.68,49.36
	c-2.16,2.649-2.65,6.46,0.52,8.62c4.3,2.92,9.39,0.47,13.62-1.11c9.8-3.69,19.7-7.39,28.7-12.73
	c18.49-10.97,36.41-22.31,53.82-34.909c16.08-11.641,30.79-25.03,45.19-38.601c5.36-5.05,10.01-14.479,18.55-11.38
	c4.13,1.51,8.07,3.58,11.47,6.39c4.22,3.48,10.21,5.181,15.16,7.381c8.81,3.92,16.72,9.529,24.91,14.6
	c8.8,5.46,17.56,10.71,25.83,17.01c7.66,5.851,16.26,10.19,24.08,15.851c7.92,5.729,15.42,12.08,23.14,18.08
	c-4.83,8.119-10.99,15.76-14.47,24.67c-1.12,2.87,0.78,9.76,5.16,6.989l28.92,28.62c-0.87,3.49,2.83,7.99,6.46,5.681
	c3.63-2.311,6.69-5.98,10.36-8.49c4.57-3.12,9.18-6.11,13.89-9.01c3.79-2.33,7.48-4.931,10.19-8.53c2.4-3.2,7.83-5.021,10.87-7.771
	c6.07-5.51,17.011,1.16,23.44,3.681c20.25,7.939,42.37,7.13,63.67,7.279c10.03,0.07,19.85,1,29.92,0.48
	c9.51-0.49,18.71-3.37,26.31,3.4c3.061,2.729,5.631,6.01,7.011,9.909c1.17,3.261,1.92,6.54,6.189,6.181l56.49-4.34l2.28-0.181
	c5.34-2.13-2.561-14.64-2.761-18.79c13.301-2.54,27.66-2.6,40.591-6.52c6.939-2.101,14.159-3.36,21.01-5.71
	c6.62-2.271,12.58-5.99,18.72-9.25c12.311-6.55,23.75-13.05,33.57-23.17c4.59-4.721,9.29-9.73,10.609-16.42
	c0.551-2.75,3.021-3.351,4.351-5.5c1.72-2.78-0.79-5.131-2.521-7.021c3.551-7.51-3.71-14.47-7.84-20.02
	c-4.939-6.641-9.16-12.28-15.46-17.78c12.66-14.36,29.47-32.54,29.431-53.2c-0.021-12.07-0.25-24.16,0.05-36.26
	c0.13-5.55,0.39-11.13,1.479-16.59C712.8,270.36,716.54,264.84,714.49,259.59z M487.52,372.28v-0.04c0-0.01,0.011-0.021,0.011-0.03
	C487.52,372.24,487.52,372.26,487.52,372.28z M601.67,320.02c0,0,0.01,0,0.021,0c0,0,0.01,0,0.01,0.01
	c0.01,0.02,0.01,0.04,0.02,0.06C601.7,320.07,601.68,320.05,601.67,320.02z M625.26,262.17c0.021-0.02,0.03-0.04,0.05-0.06
	c0.021-0.02,0.04-0.04,0.061-0.05C625.33,262.1,625.29,262.14,625.26,262.17z"/>
<path id="outline" fill-rule="evenodd" clip-rule="evenodd" fill="none" d="M379.72,226.89l5.42-1.88C383.04,224.06,380.46,225.14,379.72,226.89
	z M578.25,511.94c0.64,0.21,1.39,0.17,2.28-0.181L578.25,511.94z"/>
<path id="outline" fill-rule="evenodd" clip-rule="evenodd" fill="none" d="M120.74,230.62l-5.41,0.9C115.34,228.5,119.71,227.45,120.74,230.62z
	"/>
<path id="outline" fill-rule="evenodd" clip-rule="evenodd" fill="none" d="M315.64,249.16l-2.94,1.02C313.56,249.62,314.6,249.25,315.64,249.16
	z"/>
<path id="outline" fill-rule="evenodd" clip-rule="evenodd" fill="none" d="M487.53,372.21c-0.011,0.03-0.011,0.05-0.011,0.07v-0.04
	C487.52,372.23,487.53,372.22,487.53,372.21z"/>
<path id="outline" fill-rule="evenodd" clip-rule="evenodd" fill="none" d="M487.78,370.43c0.01-0.01,0.01-0.02,0.01-0.04
	c0,0.021,0,0.04-0.01,0.061C487.78,370.44,487.78,370.43,487.78,370.43z"/>
<path id="outline" fill-rule="evenodd" clip-rule="evenodd" fill="none" d="M487.84,370.07c0,0.04-0.01,0.08-0.02,0.109v-0.01
	C487.83,370.13,487.83,370.1,487.84,370.07z"/>
<path id="outline" fill-rule="evenodd" clip-rule="evenodd" fill="none" d="M472.33,315.72c-0.05-0.01-0.12-0.04-0.23-0.08L472.33,315.72z"/>
<path id="outline" fill-rule="evenodd" clip-rule="evenodd" fill="none" d="M625.37,262.06c-0.04,0.04-0.08,0.08-0.11,0.11
	c0.021-0.02,0.03-0.04,0.05-0.06C625.33,262.09,625.35,262.07,625.37,262.06z"/>
<path id="outline" fill-rule="evenodd" clip-rule="evenodd" d="M714.353,259.269c-3.474-7.923-6.776-15.889-12.473-22.527
	c-2.685-3.129-6.446-5.557-8.439-9.224c-2.108-3.879-3.224-8.261-5.345-12.171c-4.127-7.604-9.439-15.244-19.054-15.175
	c-9.165,0.066-19.594,5.966-28.003,9.245c-9.621,3.751-19.407,5.955-29.334,8.692c-4.694,1.294-9.189,3.312-13.93,4.417
	c-4.571,1.065-9.187,0.244-13.802,0.875c-9.83,1.346-18.037,7.396-26.273,12.479c-3.935,2.429-8.146,6.562-12.485,8.082
	c-4.562,1.597-9.719,2.134-14.448,3.076c-10.422,2.075-21.022,2.623-31.605,3.583c-10.115,0.917-20.335,2.564-30.488,2.862
	c-4.793,0.141-8.298-1.948-12.722-3.302c-4.275-1.309-8.782-2.189-13.159-3.094c-9.561-1.976-18.979-6.196-28.127-9.568
	c-10.046-3.704-19.765-8.129-29.526-12.51c-3.258-1.466-7.649,1.919-4.564,5.152c2.781,2.925,7.504,4.556,11.085,6.275
	c17.791,8.539,37.378,12.805,55.9,19.338c-3.805,2.939-9.578,2.398-14.081,3.156c-3.905,0.658-12.263,1.003-15.137,4.015
	c-3.503,3.671,2.406,5.753,5.017,5.564c6.32-0.457,12.505-2.246,18.795-3.005c25.131-3.033,50.774-7.555,76.159-7.555
	c-1.356,3.919-2.39,6.833,2.09,9.06c3.981,1.98,12.098-5.605,15.3-7.634c11.729-7.431,23.603-14.602,35.37-21.951
	c5.413-3.381,10.116-7.473,16.95-6.833c7.123,0.666,14.19,1.854,21.184,3.354c2.575,0.553,12.554,6.469,14.617,3.576
	c4.466-6.245-8.245-9.632-11.528-10.917c0.014-0.354,0.03-0.709,0.044-1.063c9.558-3.526,19.55-5.369,29.075-9.181
	c8.817-3.529,19.072-8.385,28.576-9.522c8.267-0.989,12.155,9.724,14.685,15.795c1.697,4.075,2.401,8.48,2.333,12.882
	c-0.062,3.867,1.55,8.088,1.065,11.639c-6.809,2.438-3.501,6.148-0.366,10.695c0.639,0.927,3.149,5.697,4.215,5.861
	c1.582,0.228,4.99,0.675,4.104-2.414c-0.723-2.494-1.274-5.051-2.312-7.442c-1.036-2.39-3.761-4.157-4.549-6.475
	c-0.732-2.155,3.275-2.979,4.163-4.498c0.908-1.552,0.808-4.203,1.174-5.974c2.878,4.513,5.553,8.98,8.053,13.716
	c3.528,6.688,5.389,9.708,2.756,17.233c-2.241,6.407-1.427,14.127-1.535,20.837c-0.124,7.593-0.202,15.182-0.202,22.775
	c-0.312,0.13-0.625,0.261-0.938,0.391c-5.356-5.183-9.754-10.6-16.661-13.884c-7.966-3.788-16.97-4.976-25.658-5.826
	c-18.909-1.849-37.224,4.519-54.5,11.907c-8.264,3.534-16.842,7.173-24.599,11.738c-7.511,4.42-13.843,11.832-19.729,18.183
	c-12.037,12.985-22.85,28.499-31.938,43.651c-2.209,3.684-4.396,7.381-6.648,11.038c-2.291,3.722-6.564,8.136-5.617,12.864
	c1.502,7.49,11.239,12.267,16.813,16.499c13.83,10.502,30.044,14.733,46.699,18.359c4.477,0.975,8.459,0.537,12.962,0.667
	c5.003,0.145,9.681,1.332,14.699,1.115c4.543-0.195,9.084,0.12,13.621,0.311c4.954,0.208,10.164-0.859,15.025-0.429
	c8.345,0.738,19.072-1.798,27.254-3.55c4.581-0.981,9.068-0.592,13.648-1.302c4.607-0.715,9.324-1.27,13.949-0.356
	c-4.14,12.324-17.245,19.854-27.67,26.362c-5.608,3.497-11.564,6.382-17.346,9.572c-6.274,3.464-12.837,4.607-19.686,6.589
	c-26.759,7.742-53.712,8.924-81.352,10.563c-14.217,0.844-28.337-0.442-42.607,1.218c-13.695,1.592-28.399,2.096-42.17,1.45
	c-14.659-0.687-29.816,0.109-44.371-1.61c-7.612-0.899-15.418-2.479-22.77-4.656c-5.634-1.668-13.341-3.269-17.747-7.194
	c7.614-4.361,14.878-12.611,20.073-19.647c2.887-3.91,5.436-8.053,8.015-12.167c2.11-3.367,5.21-6.496,4.566-10.739
	c-0.854-5.623-5.909,0.273-7.097,1.963c-2.996,4.263-5.944,8.561-9.072,12.729c-6.62,8.834-14.074,15.57-22.188,22.949
	c-14.633,13.309-30.674,26.123-47.715,36.298c-2.854,1.705-8.463,3.301-9.372,6.944c-0.871,3.492,2.834,7.989,6.464,5.684
	c3.627-2.306,6.685-5.977,10.361-8.486c4.572-3.121,9.176-6.113,13.888-9.014c3.788-2.332,7.483-4.935,10.188-8.525
	c2.406-3.203,7.835-5.028,10.87-7.779c6.072-5.507,17.007,1.165,23.437,3.685c20.257,7.937,42.373,7.129,63.675,7.28
	c10.026,0.07,19.854,0.998,29.915,0.479c9.518-0.49,18.714-3.375,26.311,3.401c3.061,2.729,5.63,6.012,7.018,9.907
	c1.162,3.265,1.915,6.541,6.191,6.184c8.432-0.705-7.388-18.697-9.429-21.504c3.957-0.151,7.91-0.4,11.87-0.481
	c4.764-0.097,9.677,1.086,14.405,0.37c5.252-0.792,10.561-1.098,15.863-1.278c4.378-0.148,10.392-1.385,14.633-0.287
	c6.298,1.63,3.845,21.682,11.424,18.659c5.338-2.129-2.564-14.641-2.766-18.786c13.301-2.543,27.666-2.604,40.597-6.521
	c6.935-2.101,14.161-3.359,21.008-5.71c6.616-2.271,12.578-5.989,18.722-9.257c12.305-6.545,23.753-13.049,33.571-23.167
	c4.582-4.723,9.285-9.733,10.607-16.42c0.548-2.754,3.019-3.351,4.347-5.498c1.719-2.776-0.782-5.135-2.513-7.021
	c3.544-7.511-3.717-14.476-7.841-20.017c-4.946-6.646-9.166-12.287-15.46-17.784c12.657-14.363,29.465-32.537,29.429-53.195
	c-0.021-12.07-0.251-24.168,0.043-36.264c0.136-5.55,0.395-11.129,1.486-16.586C712.816,270.263,716.688,264.611,714.353,259.269
	C713.323,256.921,715.372,261.601,714.353,259.269z M542.6,414.293c-1.734-0.896-3.319-1.716-4.582-2.369
	c1.517-1.644,2.881-3.12,4.488-4.858C543.295,409.32,543.964,411.478,542.6,414.293C540.865,413.396,543.964,411.478,542.6,414.293
	z M548.23,371.813c-1.376-1.793-2.152-2.804-3.128-4.074c1.552-1.858,3.01-3.603,4.466-5.345c0.184,0.12,0.369,0.24,0.553,0.358
	C549.561,365.441,549,368.128,548.23,371.813C546.854,370.021,549,368.128,548.23,371.813z M554.388,420.438
	c-0.956-0.399-1.988-0.83-2.928-1.225c0.269-4.346,2.634-7.394,4.44-10.732C557.467,412.663,557.146,416.533,554.388,420.438
	C553.432,420.039,557.146,416.533,554.388,420.438z M559.703,359.777c-4.883-4.65-4.751-6.778,0.342-11.454
	C560.434,352.055,561.31,355.702,559.703,359.777z M564.707,423.429c1.857-1.585,2.859-2.439,4.248-3.624
	c0.557,1.451,1.087,2.828,1.972,5.127C568.565,424.361,567.035,423.992,564.707,423.429
	C566.564,421.844,567.035,423.992,564.707,423.429z M577.787,427.895c1.585-3.104,2.886-5.649,4.185-8.197
	c0.325,0.008,0.648,0.013,0.973,0.018c0.191,2.602,0.385,5.203,0.605,8.18C581.521,427.895,579.936,427.895,577.787,427.895
	C579.372,424.791,579.936,427.895,577.787,427.895z M583.971,331.604c-0.125,2.341-0.027,4.694-0.027,7.994
	c-2.343-1.866-6.889-6.896-8.928-2.002c-1.404,3.371,1.919,10.854-2.465,12.382c-2.546-2.421-3.119-6.981-7.89-7.426
	c5.608-7.636,10.99-15.041,20.162-18.694C586.058,326.884,584.101,329.14,583.971,331.604
	C583.846,333.945,584.101,329.14,583.971,331.604z M593.38,428.691c1.413-3.323,1.076-7.051,3.563-10.306
	c1.917,3.865,3.672,7.401,5.664,11.421C599.466,430.038,596.667,430.025,593.38,428.691
	C594.793,425.368,596.667,430.025,593.38,428.691z M664.356,426.472c-9.654,2.568-20.555,3.565-30.51,4.217
	c-4.733,0.311-9.504-0.014-14.236-0.216c-4.78-0.204-10.437,0.377-14.951-1.26c3.629-2.574,4.255-6.064,4.757-10.031
	c1.217,2.583,3.876,10.935,7.887,9.992c4.026-0.946,2.54-11.149,2.358-13.987c6.266,1.215,5.146,15.896,13.437,12.647
	c1.126-4.508,2.316-9.265,3.706-14.813c2.716,2.429,4.667,4.357,6.499,7.575c1.57,2.757,2.813,6.535,6.523,6.852
	c6.017,0.515,8.315-11.242,10.216-15.601C661.424,414.171,668.621,425.333,664.356,426.472
	C662.15,427.059,665.94,426.049,664.356,426.472z M694.725,415.518c5.173,3.941,0.412,7.053-4.372,6.197
	C689.532,417.393,695.271,419.547,694.725,415.518C696.632,416.971,695.271,419.547,694.725,415.518z M685.004,411.538
	c1.214,1.425,6.33,10.519,2.314,11.364c-5.251,1.113-10.56,3.087-15.993,1.94c-0.179-0.356-0.359-0.711-0.541-1.067
	c3.034-2.76,2.911-2.281,5.694,0.706C683.027,422.904,681.997,415.996,685.004,411.538
	C687.269,414.197,681.997,415.996,685.004,411.538z M681.085,368.995c-1.629,2.089-3.411,4.054-5.273,6.247
	c-2.479-0.795-3.222-2.087-2.366-4.57c0.893-2.59,3.728-2.46,6.06-2.479c1.747-2.241,3.499-4.488,5.253-6.737
	c0.389,0.282,0.778,0.568,1.166,0.854C684.318,364.542,682.777,366.828,681.085,368.995
	C679.456,371.084,682.777,366.828,681.085,368.995z M687.023,360.188c0.713-3.446,1.178-6.138,3.472-8.097
	C693.449,354.838,692.977,356.104,687.023,360.188z M697.238,325.456c-2.356,0.832-2.044,4.221-5.127,4.308
	c0.626-2.481,1.314-13.098-2.311-13.558c-4.842-0.62-3.507,11.991-7.193,14.853c-4.074-5.851,2.516-15.166-4.035-20.072
	c-3.496-2.619-3.91,5.179-4.362,6.957c-1.019,4.005-1.623,8.307-3.954,11.744c-3.106-7.88,3.399-19.83-7.482-22.011
	c-3.257,5.957-3.655,13.062-6.94,19.528c-2.493-3.725-2.767-14.646-7.793-15.836c-5.839-1.383-5.619,12.558-6.126,15.828
	c-4.913-1.922-2.544-12.637-9.197-14.233c-4.559-1.094-5.226,13.688-6.069,16.663c-3.448-5.474-6.058-13.211-12.949-14.558
	c-3.489,4.135-2.766,14.004-3.365,19.182c-3.425-4.354-3.618-11.296-8.63-14.221c0.003,0.021,0.011,0.044,0.016,0.064
	c-0.018-0.022-0.035-0.045-0.053-0.069c-6.01,2.303-4.554,9.942-4.972,15.328c-0.34,0.079-0.68,0.158-1.019,0.238
	c-1.643-3.365-3.947-12.593-9.399-10.031c-0.38-4.603,8.556-8.557,12.46-9.466c0.958,1.288,1.945,2.61,2.93,3.931
	c0.008-0.002,0.013-0.003,0.02-0.007c0.007,0.003,0.011,0.009,0.018,0.012c-0.766-3.221-1.253-4.639,1.95-5.981
	c5.404-2.265,10.422-5.272,16.043-7.021c9.487-2.952,18.003-6.985,28.104-7.768c21.834-1.692,39.774,3.986,53.649,21.181
	C700.613,322.533,699.339,324.714,697.238,325.456C694.882,326.288,699.339,324.714,697.238,325.456z M700.92,332.042
	c-0.262-0.355-0.522-0.711-0.785-1.066c0.716-0.484,1.434-0.967,2.211-1.495C702.745,330.448,702.566,332.544,700.92,332.042
	C700.658,331.687,702.258,332.45,700.92,332.042z"/>
<path id="outline" fill-rule="evenodd" clip-rule="evenodd" d="M336.335,414.347c2.688-2.935,14.96-11.954,13.401-16.578
	c-2.241-6.647-12.789,6.052-14.655,7.81c-13.27,12.505-24.709,27.08-36.72,40.769c-23.674-17.088-46.746-34.714-72.058-49.398
	c-12.661-7.345-25.652-14.117-38.322-21.407c-9.455-5.44-24.686-14.996-34.204-5.021c-18.939,19.845-39.812,37.856-61.934,54.099
	c-11.449,8.405-23.51,15.8-35.782,22.929c-6.611,3.84-13.293,7.572-20.196,10.866c-4.27,2.038-11.886,5.5-16.576,4.896
	c5.794-8.226,11.274-15.938,15.711-25.027c5.005-10.254,9.933-20.531,15.073-30.72c9.74-19.31,19.875-40.564,20.733-62.54
	c0.209-5.369,0.195-10.749,0.337-16.121c0.115-4.352-0.328-10.563,3.184-13.901c1.987-1.889,6.574-0.174,7.484-3.004
	c1.159-3.601-4.226-9.085-5.931-11.745c-5.859-9.141-8.063-19.175-9.398-29.818c-0.613-4.884-0.789-29.414-6.25-29.701
	c-3.404,9.174-0.422,20.976,0.391,30.433c0.425,4.937,0.556,9.991,1.513,14.862c1.109,5.647,4.188,10.857,6.709,15.972
	c2.464,4.998,1.193,6.116-1.584,10.584c-2.592,4.17-2.73,8.146-2.82,12.931c-0.204,10.855-0.863,21.665-2.605,32.394
	c-1.588,9.776-5.592,18.158-9.395,27.2c-4.125,9.81-7.883,20.151-12.913,29.525c-9.302,17.339-18.208,34.02-30.682,49.353
	c-2.159,2.654-2.65,6.459,0.524,8.619c4.301,2.926,9.39,0.479,13.618-1.11c9.796-3.683,19.694-7.387,28.702-12.729
	c18.484-10.962,36.405-22.303,53.822-34.91c16.079-11.639,30.79-25.022,45.188-38.596c5.355-5.046,10.011-14.48,18.545-11.379
	c4.136,1.504,8.072,3.58,11.476,6.388c4.214,3.479,10.206,5.184,15.154,7.382c8.814,3.915,16.723,9.531,24.909,14.602
	c8.802,5.452,17.561,10.702,25.831,17.01c7.663,5.845,16.268,10.19,24.085,15.846c7.922,5.729,15.417,12.082,23.135,18.084
	c-4.827,8.121-10.987,15.761-14.463,24.666c-1.121,2.873,0.778,9.764,5.156,6.995c3.717-2.352,6.489-10.848,8.593-14.661
	C304.454,449.641,320.514,431.627,336.335,414.347C339.071,411.359,332.509,418.525,336.335,414.347z"/>
<path id="outline" fill-rule="evenodd" clip-rule="evenodd" d="M121.413,253.479c3.643,14.733,10.027,28.669,18.933,40.959
	c4.329,5.973,8.182,12.368,14.081,16.937c2.645,2.048,5.682,4.709,9.042,5.406c3.508,0.727,8.042-0.338,11.707-0.161
	c16.395,0.791,34.176-3.313,50.13-6.721c17.259-3.686,34.055-8.239,50.966-13.26c15.623-4.638,30.847-8.264,47.13-9.524
	c7.83-0.606,18.67,0.274,26.006-2.598c2.444-0.957,2.58-3.916,0.851-5.637c-2.285-2.274-6.255-1.134-9.052-0.869
	c-7.77,0.735-8.25-2.134-11.081-8.615c-1.433-3.282-3.654-6.219-5.53-9.252c-1.799-2.907-2.826-6.461-4.752-9.224
	c-1.622-2.326-4.955-2.165-7.144-0.739c-3.27,2.129-1.604,5.956-0.544,8.838c2.69,7.312,7.495,13.642,11.638,20.166
	c-48.56,6.642-94.33,27.127-143.532,30.13c-4.96,0.303-10.633,0.426-15.506-0.67c-5.766-1.296-9.324-6.666-12.932-10.926
	c-7.947-9.385-13.58-19.5-18.571-30.685c-5.21-11.678-8.58-24.263-12.513-36.411c-1.13-3.489-6.328-1.861-5.272,1.882
	C117.438,239.499,119.669,246.421,121.413,253.479C124.324,265.253,119.671,246.428,121.413,253.479z"/>
<path id="outline" fill-rule="evenodd" clip-rule="evenodd" d="M457.226,319.088c-7.01-0.905-11.093,19.399-12.968,24.518
	c-1.851-1.454-5.329-4.95-7.492-2.146c-3.096,4.01-3.904,11.847-5.072,16.701c-1.611,6.695-5.746,26.071,5.426,27.183
	c0.468,4.722,0.851,9.453,1.455,14.16c0.476,3.726,6.626,6.916,6.642,1.523c0.017-5.068-1.539-10.245-1.021-15.3
	c0.535-5.223,1.168-10.438,1.98-15.625c1.552-9.907,4.023-19.578,6.789-29.207c1.242-4.323,2.688-8.616,4.823-12.589
	C459.284,325.519,463.39,319.878,457.226,319.088C455.127,318.817,459.947,319.437,457.226,319.088z M438.371,374.91
	c-1.835-4.185-1.793-4.599,1.53-11.65C439.416,366.947,438.932,370.634,438.371,374.91z M440.854,357.32
	c-0.263,0.103-0.374,0.146-0.485,0.19c0.392-1.81,0.783-3.618,1.177-5.428c0.163,0.042,0.326,0.082,0.491,0.122
	C441.636,353.938,441.233,355.674,440.854,357.32C440.592,357.423,441.233,355.674,440.854,357.32z"/>
<path id="outline" fill-rule="evenodd" clip-rule="evenodd" d="M487.642,371.421c2.254-15.833,7.816-28.911,17.193-41.859
	c1.654-2.283,9.699-13.435,0.146-10.365c-3.479,1.118-5.524,5.985-7.443,8.779c-2.498,3.638-4.977,7.293-7.275,11.062
	c-8.145,13.354-9.135,28.567-11.607,43.637c-1.365,8.293-5.648,37.601,7.126,39.501c5.343-4.265-0.024-16.815-0.35-22.861
	C484.922,389.817,486.308,380.772,487.642,371.421C488.727,363.799,487.052,375.555,487.642,371.421z"/>
<path id="outline" fill-rule="evenodd" clip-rule="evenodd" d="M471.851,315.546c-11.418-4.103-24.318,70.696-24.076,80.532
	c0.339,5.651,0.668,11.303,1.028,16.953c0.22,3.398,5.058,10.444,7.762,4.59c1.694-3.668-1.005-10.914-1.209-14.898
	c-0.35-6.826-0.056-13.678,0.785-20.46c1.577-12.732,5.277-25.244,8.559-37.62c1.465-5.529,3.357-10.972,6.11-16.002
	C472.521,325.515,477.43,317.549,471.851,315.546C469.685,314.768,473.831,316.257,471.851,315.546z"/>
<path id="outline" fill-rule="evenodd" clip-rule="evenodd" d="M486.717,319.02c-8.23-4.568-19.011,33.641-20.1,38.749
	c-3.961,18.577-3.043,37.521-3.043,56.393c-0.13,3.109,2.836,5.727,5.972,4.711c3.265-1.058,2.011-7.164,1.986-9.548
	c-0.119-11.337-1.421-22.427-0.317-33.782c1.063-10.943,3.717-21.756,7.296-32.142c1.533-4.45,3.441-8.793,6.085-12.704
	C486.936,327.238,492.187,322.06,486.717,319.02C484.826,317.971,489.454,320.541,486.717,319.02z"/>
<path id="outline" fill-rule="evenodd" clip-rule="evenodd" d="M577.94,269.515c1.949,1.588,4.187,2.459,6.767,2.113
	c16.281,0.771,17.901-22.573,4.6-28.541c-8.366-3.752-13.135-1.546-17.948,6.067C566.714,256.501,572.273,264.9,577.94,269.515
	C579.89,271.104,572.687,265.236,577.94,269.515z"/>
<path id="outline" fill-rule="evenodd" clip-rule="evenodd" d="M625.535,261.89c4.481-4.424,19.69-15.977,5.419-17.209
	c-4.113,2.452-7.037,6.932-9.969,10.68C617.654,259.619,620.312,267.05,625.535,261.89
	C628.883,258.584,623.81,263.594,625.535,261.89z"/>
</svg>
