<svg version="1.1" id="Layer_1" xmlns="http://www.w3.org/2000/svg" xmlns:xlink="http://www.w3.org/1999/xlink" x="0px" y="0px"
	 width="720px" height="720px" viewBox="0 0 720 720" enable-background="new 0 0 720 720" xml:space="preserve">
<path id="background" fill="none" d="M187.95,303.81c-0.06-0.03-0.13-0.06-0.19-0.09C187.14,303.38,188.1,303.49,187.95,303.81z"/>
<path id="background" fill="none" d="M279.88,461.24c0.01-0.05,0.02-0.09,0.04-0.141C280.29,460.22,281.83,461.08,279.88,461.24z"/>
<path id="background" fill="none" d="M164.6,336.1c-0.03,0.01-0.05,0.02-0.08,0.03c-0.03-0.04-0.06-0.09-0.08-0.13
	C164.11,335.4,164.94,335.89,164.6,336.1z"/>
<path id="background" fill="none" d="M668.23,276.12c0.039-0.05,0.09-0.1,0.13-0.14c0.27,0.15,0.51,0.29,0.71,0.42
	C672.78,278.73,666.21,278.38,668.23,276.12z"/>
<path id="background" fill="none" d="M603.71,438.62v0.16c-0.04,0.01-0.07,0.02-0.1,0.04c0.02-0.051,0.04-0.101,0.069-0.141
	C603.69,438.66,603.7,438.64,603.71,438.62z"/>
<path id="background" fill="none" d="M715.62,229.55l0.74,1.34C716.2,230.35,715.95,229.91,715.62,229.55z"/>
<path id="background" fill="none" d="M603.078,439c0.158-0.045,0.334-0.105,0.527-0.182c0.001-0.001,0.001-0.002,0.002-0.003
	C603.429,438.886,603.253,438.945,603.078,439z"/>
<path id="background" fill="none" d="M292.57,538.19C293.09,536.09,295.21,538.65,292.57,538.19L292.57,538.19z"/>
<path id="background" fill="none" d="M353.81,542.77C354.03,540.62,359.18,543.09,353.81,542.77L353.81,542.77z"/>
<path id="background" fill="none" d="M626.6,244.05c-0.069-0.26-0.13-0.51-0.189-0.77c-0.061-0.23-0.12-0.47-0.17-0.7
	C623.81,231.45,633.02,244.32,626.6,244.05z"/>
<path id="background" fill="none" d="M625.04,171.92l-0.73-0.15C624.54,171.78,624.79,171.83,625.04,171.92z"/>
<path id="background" fill="none" d="M709.01,215.56c-0.1,0.33-0.279,0.66-0.52,0.98l-2.36-4.3C708.34,211.73,709.56,213.7,709.01,215.56z"/>
<path id="background" fill="none" d="M716.36,230.89l-0.74-1.34l-7.13-13.01l-2.36-4.3c-2.81,0.64-5.97,1.07-8.21,2.67
	c-6.82,4.92-14.56,8.29-21.18,13.66c-8.75,7.11-18.351,13.19-27.55,19.76c-3.091,2.2-7.73-0.69-10.79-1.73
	c-3.82-1.3-7.75-2.38-11.801-2.55c-0.069-0.26-0.13-0.51-0.189-0.77c-0.061-0.23-0.12-0.47-0.17-0.7
	c-3.26-13.17-4.08-26.17-2.21-39.11c1.39-9.65,0.01-19.49,2.6-28.99c0.19-0.71-0.82-2.3-1.59-2.56l-0.73-0.15l-15.029-3.15
	c-4.78-2.27-7.71,9.54-8.25,12.71c-2.3,13.58-3.69,27.32-6.2,40.85c-1.64,8.82-1.48,17.84-4.07,26.58
	c-1.47,4.97-3.52,9.15-7.319,12.42c-11.21,9.67-19.98,21.44-28.46,33.39c-6.471,9.11-12.271,18.69-18.4,28.05
	c-3.021,4.61-5.8,9.43-9.24,13.7c-3.26,4.03-7.25,7.47-10.92,11.17c-7.41,1.85-13.439,7.2-21.57,7.64
	c-3.97,0.21-6.85-0.46-9.33-3.08c-4.489-4.74-8.8-9.65-13.149-14.52c-7.64-8.53-15.271-17.09-22.89-25.65
	c-3.94-4.43-8.131-8.67-11.73-13.37c-4.22-5.52-7.76-11.57-11.88-17.17c-5.43-7.37-11.09-14.53-18.58-20.05
	c-3.96-2.92-7.45-6.48-11.18-9.71c-2.95-2.56-5.75-5.37-8.98-7.52c-11.25-7.47-23.09-13.94-35.17-19.96
	c-3.49-1.74-7.18-3.16-10.9-4.36c-4.96-1.61-9.99-3.05-15.07-4.18c-4.64-1.04-9.37-1.87-14.1-2.25c-6.35-0.51-12.74-0.59-19.11-0.71
	c-5.95-0.1-11.94-0.52-17.82,0.11c-8.35,0.89-16.68,2.31-24.89,4.06c-9.36,2.01-18.61,4.52-27.84,7.03
	c-5.31,1.44-10.47,3.41-15.76,4.95c-8.07,2.35-16.18,4.39-23.77,8.26c-19.42,9.91-31.69,24.56-45.3,41.08
	c-0.56,0.67-1.01,1.42-1.48,2.15c-2.84,4.39-5.52,8.89-8.54,13.16c-9,12.74-15.22,26.67-18.29,41.97
	c-1.14,5.69-2.29,11.39-3.11,17.13s-1.3,11.54-1.8,17.32c-0.2,2.449,0.23,4.979-0.15,7.39c-1.04,6.55-0.15,13.03,0.53,19.5
	c0.55,5.18,1.52,10.34,2.58,15.45c2.31,11.18,5.54,21.38,10.8,31.55c3.46,6.68,7.34,13.15,11,19.74c0.37,0.67,0.44,1.52,0.62,2.17
	c-3.55,1.33-6.79,2.53-10.02,3.75c-10.87,4.08-21.75,8.12-32.59,12.28c-2.7,1.029-5.57,2.029-7.83,3.75
	c-5.97,4.54-13.05,6.22-19.9,8.52c-8.8,2.96-18.3,2.68-27.05,5.9c-7.61,2.81-15.36,5.29-22.91,8.26c-7.18,2.82-3.97,10.76,1.16,13.8
	c5.98,3.54,12.22,6.561,17.47,11.311c2.28,2.069,5.34,3.909,8.3,4.46c6.53,1.199,13.1,1.93,19.63,3.439
	c5.96,1.37,12.37,0.88,18.59,1.05c3.91,0.101,7.82-0.159,11.73-0.189c4.64-0.021,9.27-0.01,13.91,0.06
	c5.25,0.08,10.37-0.92,15.56-1.52c12.54-1.46,25.15-2.38,37.74-3.44c3.32-0.29,6.68-0.55,10-0.439c14.07,0.46,28.13,1.05,42.19,1.64
	c6.82,0.29,13.64,0.67,20.45,1.05c3.63,0.21,7.25,0.48,10.86,0.811c4.61,0.42,9.22,0.939,13.82,1.39c4.05,0.4,8.11,0.65,12.14,1.18
	c8.62,1.141,17.22,2.45,25.84,3.61c2.01,0.27,4.08,0.02,6.08,0.28c6.61,0.89,13.19,1.97,19.8,2.83c2.58,0.34,5.21,0.27,7.81,0.46
	c8.39,0.62,16.76,1.5,25.15,1.88c7.52,0.34,15.069,0.189,22.609,0.18c11.46-0.01,22.95,0.37,34.391-0.25
	c13.189-0.729,26.35-2.14,39.47-3.689c8.93-1.051,17.771-2.841,26.65-4.301c6.29-1.04,12.56-2.27,18.88-3.06
	c4.16-0.521,8.43-0.14,12.6-0.62c10.37-1.2,20.47-2.95,30.311-7.22c9.43-4.09,18.26-8.75,26.159-15.24
	c2.021-1.65,3.771-3.63,5.801-5.26c6.229-4.98,12.62-9.8,16.229-17.25c0.25-0.5,0.74-0.891,1.08-1.36c1.53-2.08,3.11-4.13,4.57-6.27
	c5.819-8.62,10.74-17.44,15.31-26.811c7.75-15.899,16.141-31.49,24.19-47.24c2.109-4.13,3.67-8.6,6.18-12.439
	c3.07-4.67,5.32-9.641,7.39-14.76c4.32-10.7,11.801-20.61,18.48-29.92c1.66-2.32,3.93-4.26,6.17-6.07
	c4.51-3.62,9.21-7.01,13.8-10.53c0.8-0.61,1.59-1.31,2.181-2.13c3.21-4.45,6.46-8.89,9.52-13.45c4.09-6.07,5.33-12.84,4.11-20
	c-1.931-11.21-5.88-22.22-14.811-29.69c-1.399-1.16-2.62-2.54-4.06-3.97c1.37-1.55,2.33-2.84,3.49-3.91
	c4.26-3.93,8.59-7.78,12.88-11.68c4.87-4.44,9.29-9.37,14.33-13.64C708.02,238.94,717.55,235,716.36,230.89z M164.6,336.1
	c-0.03,0.01-0.05,0.02-0.08,0.03c-0.03-0.04-0.06-0.09-0.08-0.13C164.11,335.4,164.94,335.89,164.6,336.1z M187.95,303.81
	c-0.06-0.03-0.13-0.06-0.19-0.09c-0.92-0.42-1.85-0.85-2.8-1.29c0.25-0.35,0.44-0.71,0.51-0.71c0.99,0.31,1.97,0.68,2.94,1.04
	C188.26,303.11,188.11,303.46,187.95,303.81z M279.88,461.24c0.01-0.05,0.02-0.09,0.04-0.141
	C280.29,460.22,281.83,461.08,279.88,461.24z M292.57,538.19C293.09,536.09,295.21,538.65,292.57,538.19L292.57,538.19z
	 M353.81,542.77C354.03,540.62,359.18,543.09,353.81,542.77L353.81,542.77z M603.71,438.78c-0.04,0.01-0.07,0.02-0.1,0.04
	c0.02-0.051,0.04-0.101,0.069-0.141c0.011-0.02,0.021-0.04,0.03-0.06V438.78z M668.23,276.12c0.039-0.05,0.09-0.1,0.13-0.14
	c0.27,0.15,0.51,0.29,0.71,0.42C672.78,278.73,666.21,278.38,668.23,276.12z"/>
<path id="outline" d="M187.952,303.811C188.105,303.459,186.968,303.358,187.952,303.811L187.952,303.811z"/>
<path id="outline" d="M132.714,335.609C130.955,339.763,133.716,341.017,132.714,335.609L132.714,335.609z"/>
<path id="outline" d="M279.88,461.243C281.917,461.073,280.135,460.137,279.88,461.243L279.88,461.243z"/>
<path id="outline" d="M164.523,336.13C165.08,335.937,163.966,335.29,164.523,336.13L164.523,336.13z"/>
<path id="outline" d="M669.073,276.4c-0.24-0.138-0.473-0.285-0.718-0.417C665.954,278.368,672.854,278.777,669.073,276.4z"/>
<path id="outline" d="M603.677,438.68c-0.022,0.045-0.046,0.09-0.069,0.136c0.033-0.014,0.065-0.021,0.1-0.035
	c0.001-0.054-0.003-0.104-0.002-0.157C603.695,438.642,603.687,438.661,603.677,438.68z"/>
<path id="outline" d="M603.705,438.623c0-0.001,0-0.002,0.001-0.002c-0.001-0.087-0.001-0.174-0.005-0.252
	C603.702,438.453,603.705,438.537,603.705,438.623z"/>
<path id="outline" d="M568.726,465.908C562.924,470.76,573.422,469.946,568.726,465.908L568.726,465.908z"/>
<path id="outline" d="M190.108,528.948C190.832,529.224,190.931,526.33,190.108,528.948L190.108,528.948z"/>
<path id="outline" d="M716.36,230.885c-0.545-1.867-2.233-2.62-4.116-2.524c-0.983,0.051-2.104,0.263-2.89,0.803
	c-2.502,1.721-5.033,3.46-7.266,5.506c-3.854,3.526-7.386,7.405-11.248,10.927c-11.902,10.847-24.007,21.391-35.551,32.626
	c-0.613,0.596-1.331,1.341-1.466,2.112c-0.211,1.16-0.409,2.844,0.225,3.507c0.828,0.865,2.513,1.368,3.753,1.25
	c1.153-0.107,2.354-1.084,3.284-1.946c2.437-2.251,4.736-4.647,7.27-7.163c0.276,0.148,0.51,0.285,0.718,0.417
	c18.469,10.568,21.799,38.951,5.883,53.295c-3.746,3.379-8.103,6.146-12.416,8.816c-4.67,2.89-8.337,6.68-11.496,11.062
	c-2.351,3.265-4.669,6.552-7.237,10.163c-1.113-1.149-2.057-2.125-2.753-2.84c2.236-4.056,4.33-7.682,6.213-11.411
	c0.365-0.72,0.257-2.227-0.251-2.687c-0.559-0.504-1.848-0.338-2.788-0.222c-0.499,0.063-0.99,0.589-1.389,1.002
	c-1.885,1.965-3.616,4.094-5.623,5.921c-3.768,3.433-6.07,7.696-7.837,12.383c-0.97,2.569-2.154,5.085-3.487,7.485
	c-5.212,9.377-10.409,18.768-15.834,28.021c-3.743,6.386-7.579,12.752-11.872,18.772c-5.13,7.195-10.761,14.039-16.229,20.993
	c-5.199,6.613-10.168,13.442-15.781,19.692c-7.265,8.087-15.262,15.516-22.582,23.555c-6.901,7.586-14.745,13.905-23.323,19.414
	c-3.656,2.344-6.997,5.403-10.938,7.025c-8.99,3.7-18.285,6.566-27.945,8.193c-9.588,1.617-19.098,3.683-28.669,5.403
	c-5.712,1.025-11.453,1.954-17.218,2.605c-12.553,1.416-25.124,2.633-37.694,3.908c-1.444,0.148-2.896,0.177-4.348,0.211
	c-6.817,0.156-13.635,0.286-20.45,0.443c-6.386,0.146-12.771,0.409-19.159,0.448c-4.92,0.03-9.858-0.537-14.757-0.271
	c-10.649,0.575-21.149-0.931-31.678-1.906c-6.203-0.575-12.315-2.051-18.508-2.773c-8.93-1.041-17.912-1.64-26.844-2.661
	c-17.584-2.016-35.139-4.266-52.723-6.266c-6.916-0.788-13.871-1.297-20.823-1.695c-8.842-0.507-17.699-0.815-26.553-1.13
	c-13.631-0.482-27.266-0.952-40.901-1.296c-2.442-0.061-4.925,0.396-7.346,0.85c-8.273,1.552-16.521,3.239-24.79,4.811
	c-5.417,1.029-10.905,1.734-16.264,3c-2.07,0.49-10.236,3.065-8.92,6.559c0.417,1.11,1.801,2.166,3.002,2.586
	c1.137,0.398,2.601,0.086,3.872-0.162c3.562-0.691,7.104-1.486,10.648-2.28c2.658-0.599,5.302-1.259,8.095-1.922
	c-0.923,2.425-1.942,4.476-2.405,6.646c-0.173,0.809,0.747,2.226,1.563,2.745c0.555,0.351,2.089-0.093,2.68-0.685
	c2.7-2.711,6.33-4.945,5.432-9.933c6.343-1.129,12.427-2.21,18.781-3.341c1.118,4.881,3.836,12.524-3.136,13.75
	c-7.004,1.231-14.018,2.11-21.201,1.209c-3.992-0.5-8.095-0.18-12.147-0.121c-3.767,0.054-7.561,0.6-11.292,0.299
	c-5.328-0.43-10.608-1.458-15.914-2.19c-7.052-0.97-13.172-4.768-19.953-6.559c-0.67-0.175-1.241-0.737-1.853-1.13
	c-2.692-1.721-5.374-3.457-8.074-5.164c-1.828-1.156-3.545-2.398-4.543-4.711c0.985-0.668,1.724-1.406,2.613-1.734
	c4.34-1.592,8.722-3.082,13.092-4.597c2.054-0.713,4.069-1.609,6.18-2.062c7.228-1.542,14.547-2.694,21.725-4.438
	c5.052-1.229,10.046-2.891,14.866-4.851c8.99-3.661,17.792-7.782,26.759-11.506c3.856-1.601,7.935-2.661,11.895-4.022
	c8.034-2.757,15.846-6.307,24.041-6.738c2.051,1.954,3.692,4.016,5.782,5.4c3.259,2.156,6.848,3.81,10.249,5.758
	c4.341,2.488,8.998,3.982,13.91,4.875c9.724,1.769,19.442,3.012,29.397,2.853c11.256-0.182,22.25-1.919,33.13-4.404
	c4.175-0.954,8.017-3.302,12.068-4.866c7.199-2.777,13.927-6.474,20.126-10.978c2.587-1.877,5.085-2.321,8.044-2.436
	c5.056-0.193,10.199-0.22,15.125-1.208c12.41-2.495,24.268-6.92,36.104-11.324c12.401-4.612,25.127-8.05,38.078-10.709
	c6.255-1.282,12.561-2.385,18.728-4.01c7.99-2.107,15.865-4.647,23.79-7.003c1.112-0.331,2.212-0.709,3.331-1.018
	c7.791-2.143,16.03-2.679,23.297-6.764c1.705-0.96,3.909-1.021,5.875-1.539c1.959-0.517,4.021-0.836,5.838-1.677
	c6.312-2.931,12.696-5.776,18.741-9.204c3.61-2.045,6.914-4.844,9.868-7.788c5.128-5.109,10.104-10.411,14.706-15.993
	c3.204-3.882,6.184-8.127,8.344-12.649c2.474-5.179,3.93-10.843,5.734-16.023c7.385-2.901,14.568-5.093,21.061-9.06
	c11.017-6.73,15.592-16.628,22.856-26.858c6.931-9.761,12.56-20.452,20.405-29.552c0.564-0.652,0.992-1.433,1.429-2.185
	c7.909-13.625,18.067-25.187,31.035-34.244c5.126-3.58,4.358-15.221,4.298-20.607c-0.118-11.839,3.714-23.576,4.526-35.385
	c0.773-11.197,2.025-22.253,4.528-33.184c0.307-1.335,0.291-2.742,0.413-3.96c-4.785-2.269-7.716,9.542-8.252,12.711
	c-2.302,13.579-3.695,27.317-6.205,40.851c-1.634,8.817-1.479,17.838-4.062,26.572c-1.469,4.973-3.526,9.158-7.319,12.428
	c-11.218,9.669-19.983,21.438-28.467,33.389c-6.469,9.11-12.271,18.69-18.4,28.046c-3.017,4.609-5.793,9.427-9.238,13.696
	c-3.259,4.032-7.251,7.473-10.92,11.175c-7.405,1.849-13.442,7.198-21.57,7.636c-3.966,0.215-6.852-0.458-9.333-3.077
	c-4.489-4.736-8.796-9.647-13.148-14.515c-7.64-8.539-15.264-17.092-22.884-25.65c-3.944-4.43-8.138-8.673-11.731-13.374
	c-4.225-5.525-7.759-11.569-11.884-17.175c-5.425-7.368-11.084-14.523-18.577-20.05c-3.963-2.919-7.446-6.48-11.181-9.71
	c-2.954-2.556-5.753-5.361-8.981-7.511c-11.248-7.474-23.092-13.943-35.169-19.967c-3.492-1.742-7.179-3.16-10.896-4.36
	c-4.959-1.603-9.99-3.049-15.073-4.182c-4.639-1.037-9.366-1.863-14.097-2.247c-6.351-0.513-12.74-0.591-19.117-0.705
	c-5.942-0.106-11.941-0.519-17.819,0.11c-8.349,0.891-16.676,2.303-24.889,4.061c-9.354,2.001-18.604,4.515-27.841,7.021
	c-5.309,1.442-10.472,3.418-15.758,4.958c-8.066,2.35-16.179,4.386-23.773,8.26c-19.42,9.908-31.682,24.558-45.302,41.076
	c-0.552,0.669-1.007,1.419-1.479,2.15c-2.839,4.389-5.518,8.893-8.533,13.158c-9.008,12.739-15.22,26.671-18.289,41.976
	c-1.142,5.688-2.292,11.385-3.114,17.126c-0.821,5.743-1.3,11.537-1.796,17.319c-0.208,2.45,0.228,4.981-0.156,7.391
	c-1.042,6.552-0.146,13.032,0.533,19.495c0.545,5.187,1.522,10.341,2.58,15.452c2.309,11.183,5.542,21.378,10.8,31.551
	c3.458,6.687,7.342,13.153,10.997,19.737c0.375,0.676,0.44,1.527,0.618,2.176c-3.541,1.325-6.782,2.53-10.02,3.748
	c-10.865,4.08-21.746,8.124-32.584,12.277c-2.703,1.038-5.574,2.033-7.833,3.751c-5.964,4.539-13.043,6.225-19.899,8.527
	c-8.796,2.952-18.295,2.671-27.047,5.896c-7.616,2.809-15.357,5.292-22.909,8.259c-7.188,2.824-3.97,10.761,1.16,13.8
	c5.973,3.538,12.218,6.557,17.466,11.312c2.282,2.066,5.342,3.909,8.306,4.456c6.524,1.201,13.095,1.938,19.621,3.439
	c5.965,1.369,12.376,0.889,18.596,1.051c3.906,0.102,7.82-0.161,11.729-0.185c4.634-0.026,9.271-0.012,13.905,0.058
	c5.252,0.081,10.375-0.919,15.559-1.521c12.545-1.455,25.154-2.374,37.742-3.441c3.325-0.283,6.679-0.547,10.006-0.437
	c14.065,0.464,28.127,1.051,42.189,1.643c6.82,0.29,13.637,0.664,20.452,1.052c3.623,0.206,7.244,0.471,10.857,0.802
	c4.611,0.419,9.214,0.941,13.822,1.398c4.045,0.398,8.107,0.643,12.133,1.174c8.624,1.139,17.225,2.456,25.846,3.611
	c2.003,0.27,4.076,0.017,6.08,0.284c6.608,0.884,13.191,1.961,19.802,2.826c2.578,0.339,5.209,0.265,7.81,0.457
	c8.382,0.627,16.754,1.502,25.147,1.881c7.523,0.339,15.069,0.193,22.605,0.185c11.466-0.009,22.956,0.37,34.392-0.257
	c13.189-0.723,26.354-2.14,39.477-3.684c8.927-1.05,17.767-2.842,26.645-4.307c6.293-1.037,12.559-2.27,18.882-3.056
	c4.161-0.519,8.43-0.139,12.597-0.621c10.369-1.195,20.472-2.95,30.309-7.217c9.438-4.089,18.266-8.753,26.168-15.238
	c2.015-1.654,3.762-3.635,5.795-5.26c6.235-4.986,12.622-9.803,16.234-17.25c0.249-0.509,0.733-0.897,1.075-1.359
	c1.534-2.087,3.113-4.137,4.566-6.278c5.827-8.621,10.746-17.438,15.311-26.802c7.758-15.906,16.145-31.491,24.197-47.247
	c2.109-4.127,3.662-8.595,6.181-12.441c3.063-4.669,5.318-9.639,7.391-14.755c4.317-10.698,11.795-20.608,18.474-29.923
	c1.657-2.313,3.931-4.262,6.177-6.064c4.509-3.621,9.203-7.013,13.795-10.533c0.802-0.615,1.588-1.315,2.176-2.127
	c3.219-4.455,6.46-8.896,9.527-13.454c4.088-6.073,5.328-12.843,4.104-19.996c-1.923-11.212-5.877-22.22-14.81-29.695
	c-1.395-1.164-2.612-2.542-4.062-3.967c1.379-1.556,2.337-2.842,3.497-3.911c4.257-3.93,8.591-7.778,12.873-11.681
	c4.876-4.443,9.297-9.368,14.332-13.639C708.02,238.938,717.554,235,716.36,230.885z M123.914,437.381
	c-3.119-5.818-5.129-12.003-6.272-18.496c-2.069-11.742-5.006-22.935-5.289-34.956c-0.299-12.688,1.19-25.4,3.146-37.916
	c2.073-13.25,5.983-26.041,12.976-37.667c3.44-5.719,6.763-11.53,10.592-16.982c4.906-6.984,10.195-13.706,15.465-20.425
	c3.303-4.21,6.455-8.678,10.406-12.214c10.485-9.386,22.138-16.798,36.128-20.182c6.604-1.597,12.9-4.423,19.424-6.4
	c5.819-1.767,11.747-3.179,17.65-4.657c3.8-0.95,7.618-1.866,11.472-2.554c4.129-0.738,8.309-1.19,12.464-1.769
	c0.861-0.122,1.74-0.176,2.574-0.4c8.92-2.387,17.91-2.854,27.167-2.408c9.73,0.467,19.415,1.184,29.021,2.586
	c6.567,0.958,13.047,2.654,19.474,4.364c2.612,0.697,5.009,2.253,7.452,3.514c7.861,4.054,15.962,7.723,23.486,12.333
	c10.754,6.585,21.193,13.703,29.971,22.954c2.491,2.626,5.544,4.728,7.971,7.402c8.635,9.514,15.703,19.828,23.263,30.161
	c7.809,10.673,17.365,20.358,26.199,30.194c1.246,1.389,2.269,3.026,3.162,4.674c2.82,5.199,6.914,9.179,11.362,12.995
	c4.357,3.745,8.497,7.881,10.279,13.613c0.348,1.115,0.214,2.647-0.289,3.71c-2.159,4.582-4.408,9.131-6.887,13.546
	c-1.557,2.771-3.562,5.292-5.386,7.911c-0.915,1.309-2.234,2.457-2.757,3.898c-3.105,8.591-10.428,12.964-17.51,17.4
	c-6.805,4.258-14.563,6.419-22.2,8.723c-10.128,3.057-20.217,6.26-30.418,9.055c-10.763,2.944-21.643,5.465-32.463,8.207
	c-12.813,3.244-25.695,6.251-38.395,9.89c-8.075,2.316-15.812,5.776-23.813,8.381c-5.928,1.928-12.021,3.361-18.075,4.881
	c-1.613,0.405-3.349,0.325-5.386,0.495c1.497-6.499,9.313-10.325,15.24-11.574c9.883-2.084,19.426-5.901,29.002-9.295
	c8.203-2.908,16.21-6.36,24.375-9.38c4.879-1.809,10.052-2.885,14.816-4.935c7.701-3.309,15.771-6.019,22.295-11.638
	c1.205-1.041,2.619-1.836,3.876-2.822c3.03-2.383,2.899-4.002-0.58-6.804c-2.662,1.656-5.21,3.663-8.08,4.95
	c-8.076,3.619-16.229,7.08-24.455,10.346c-11.735,4.66-23.509,9.232-35.366,13.572c-8.708,3.187-17.574,5.95-26.382,8.864
	c-0.638,0.211-1.372,0.136-2.081,0.195c0.117-4.172,2.685-11.077,5.618-15.102c7.865,0.31,14.616-3.683,21.649-6.619
	c6.02-2.514,11.897-5.391,17.749-8.288c3.233-1.599,6.276-3.573,9.41-5.372c2.009-1.153,4.078-2.208,6.028-3.452
	c4.404-2.81,8.779-5.665,13.104-8.591c1.892-1.28,3.133-3.045,2.837-5.514c-0.363-3.048-3.029-4.525-5.719-3.084
	c-1.271,0.683-2.411,1.606-3.613,2.418c-6.968,4.692-13.872,9.48-20.937,14.022c-2.283,1.469-4.993,2.267-7.496,3.396
	c-2.761,1.247-5.5,2.549-8.269,3.781c-3.044,1.358-6.099,2.695-9.17,3.99c-3.078,1.297-6.155,2.602-9.284,3.766
	c-1.283,0.477-2.699,0.599-4.461,0.968c-0.004-1.516-0.129-2.491,0.019-3.419c1.152-7.279,1.654-11.483,8.21-15.672
	c6.11-3.906,12.272-7.789,18.023-12.188c6.1-4.663,11.823-9.834,17.52-14.99c1.164-1.055,1.743-2.977,2.125-4.606
	c0.379-1.626-0.249-3.509-1.962-3.898c-1.164-0.266-2.773,0.421-3.872,1.151c-1.032,0.686-1.543,2.104-2.476,2.996
	c-10.138,9.704-21.429,17.808-33.905,24.242c-0.344,0.176-0.828,0.087-1.887,0.177c0.301-3.829,0.591-7.509,0.929-11.794
	c2.045,0.085,3.787-0.17,5.313,0.289c2.847,0.857,4.588-0.116,6.359-2.313c1.705-2.108,3.851-3.896,5.963-5.634
	c5.156-4.24,10.489-8.27,15.575-12.592c2.401-2.041,2.454-3.739,0.945-5.661c-1.459-1.86-2.982-2.2-4.886-0.732
	c-1.602,1.232-2.91,2.842-4.454,4.161c-2.064,1.762-3.893,3.88-7.066,3.844c-0.964-0.01-1.969,1.088-2.911,1.742
	c-3.213,2.24-6.336,4.621-9.641,6.714c-1.523,0.968-3.389,1.392-5.59,2.252c-0.221-2.639-0.395-4.71-0.565-6.739
	c8.284-3.896,19.387-6.833,22.317-16.632c0.381-1.278,0.313-2.689,0.457-4.082c-3.033-0.63-3.834,1.354-4.836,2.827
	c-4.006,5.89-11.274,10.194-18.74,10.803c-0.261-3.107-0.522-6.22-0.804-9.581c2.068-1.002,3.939-2.153,5.968-2.842
	c4.05-1.377,6.795-4.367,9.621-7.288c0.496-0.514,1.05-1.146,1.176-1.801c0.177-0.906,0.265-2.062-0.168-2.772
	c-0.279-0.459-1.701-0.647-2.355-0.364c-1.293,0.56-2.461,1.463-3.587,2.347c-3.604,2.825-7.415,5.027-12.584,4.717
	c-0.424-2.39-0.82-4.623-1.11-6.255c3.931-3.252,7.415-6.048,10.782-8.978c0.958-0.833,1.684-1.993,2.332-3.109
	c0.768-1.329,1.106-2.836-0.401-3.89c-1.38-0.963-2.81-0.506-4.003,0.501c-0.659,0.555-1.105,1.354-1.747,1.937
	c-2.441,2.224-4.631,4.835-8.565,5.748c-0.917-2.234-1.819-4.431-2.76-6.723c1.79-1.083,3.104-1.959,4.49-2.701
	c2.402-1.287,12.703-12.029,6.773-14.074c-3.838-1.327-4.362,3.408-6.107,5.479c-2.065,2.454-5.042,3.894-7.599,5.746
	c-1.547-3.553-2.958-6.796-4.444-10.21c5.861-2.717,7.657-8.256,10.637-12.796c1.676-2.555,1.198-4.442-0.559-5.297
	c-1.637-0.795-4.271,0.896-5.44,3.119c-1.336,2.545-2.925,4.962-4.501,7.37c-0.362,0.553-1.117,0.847-1.907,1.413
	c-1.855-1.946-2.36-3.875-1.317-6.305c1.141-2.665,2.086-5.412,3.114-8.125c0.308-0.814,0.703-1.612,0.886-2.453
	c0.448-2.077-0.677-4.102-2.407-4.498c-4.54-1.048-5.619,7.521-6.458,10.183c-2.902-0.998-2.693-3.744-4.108-5.196
	c-2.071-2.124-0.654-3.967,0.092-5.962c1.14-3.037,3.963-8.44,0.206-10.713c-1.75-1.058-3.024,0.219-4.304,1.124
	c-0.571,0.404-1.014,0.989-1.676,1.651c1.403,2.768,0.945,5.254-1.429,7.72c-1.499-0.879-2.948-1.729-3.919-2.299
	c0.293-2.88,2.941-12.419-2.346-12.55c-4.236-0.11-4.085,5.006-4.137,7.751c-3.4-1.546-6.738-2.344-6.611-6.988
	c0.087-3.125-2.225-8.322-6.053-7.418c-3.315,0.781-3.853,1.791-2.671,5.976c-1.342-0.056-2.574-0.105-3.873-0.16
	c-1.062-3.921-2.979-8.989-8.228-7.53c-2.363,0.657-2.756,1.603-1.537,3.749c0.401,0.704,0.846,1.381,1.547,2.522
	c-4.367-0.441-8.206-0.862-12.052-1.211c-7.631-0.691-15.026,0.6-22.278,2.848c-5.268,1.631-10.517,3.334-15.723,5.147
	c-2.026,0.706-3.999,1.656-5.845,2.749c-3.244,1.92-6.474,3.893-9.525,6.1c-4.464,3.229-8.663,6.826-13.16,10.003
	c-5.096,3.6-8.099,8.858-11.879,13.573c-5.278,6.583-8.214,14.316-12.038,21.597c-1.708,3.25-2.247,7.166-3.012,10.846
	c-0.975,4.688-1.627,9.443-2.448,14.164c-1.357,7.831,0.359,16.783,1.591,24.58c0.697,4.413,1.596,8.834,2.929,13.091
	c0.846,2.703,2.429,5.26,4.066,7.615c3.716,5.342,6.938,11.218,12.974,14.449c5.596,2.996,10.944,6.522,17.608,7.095
	c4.315,0.371,8.582,2.993,12.863,3.922c1.841,0.401,3.858,0.131,4.366-1.788c0.302-1.146-0.836-2.673-1.539-4.612
	c2.141-0.883,4.851-2.001,7.308-3.017c3.389,0.958,6.535,2.231,9.787,2.625c1.975,0.236,4.282-0.566,6.111-1.527
	c0.963-0.506,1.22-2.355,1.795-3.597c-1.131-0.445-2.24-1.175-3.403-1.272c-2.235-0.184-4.562,0.375-7.05-1.038
	c0.886-0.967,1.473-1.728,2.184-2.349c1.422-1.244,3.261-2.164,4.3-3.656c2.407-3.459,5.38-3.73,9.149-2.867
	c2.797,0.638,5.772,0.669,8.667,0.655c2.873-0.014,5.09-1.498,5.885-4.314c0.812-2.859-1.501-5.514-4.135-3.604
	c-2.735,1.976-5.53,1.971-8.704,0.329c1.448-2.066,2.569-4.108,4.145-5.712c0.719-0.73,2.35-0.88,3.53-0.791
	c5.05,0.386,9.017-1.782,12.508-5.072c0.813-0.765,1.705-1.878,1.777-2.886c0.079-1.117-0.452-2.586-1.242-3.381
	c-1.124-1.135-2.547-0.46-3.356,0.709c-2.016,2.91-4.92,3.673-8.25,4.172c0.735-5.418,3.708-9.324,8.03-11.094
	c2.818-1.156,5.595-2.416,8.363-3.689c0.917-0.421,1.838-0.919,2.607-1.559c4.48-3.731-0.053-8.239-4.416-5.032
	c-1.836,1.352-3.906,2.387-5.907,3.502c-0.317,0.177-0.81,0.038-1.382,0.047c0.179-4.362,1.268-7.876,5.578-9.969
	c1.837-0.89,3.328-2.728,4.641-4.4c0.986-1.256,0.658-2.757-0.747-3.822c-1.245-0.939-2.358-0.815-3.523,0.201
	c-0.836,0.727-1.805,1.305-2.747,1.972c-2.803-5.232-2.715-5.182,0.475-9.374c1.202-1.581,2.243-3.454,2.723-5.354
	c0.354-1.403,0.083-3.314-0.666-4.535c-1.729-2.819-4.357-1.536-5.429,0.794c-0.62,1.355-0.985,2.829-1.522,4.44
	c-4.118-3.225-4.852-5.85-3.799-10.045c0.841-3.356,0.607-7.72-3.547-8.5c-1.747-0.327-2.213,1.417-2.439,2.945
	c-0.103,0.698-0.392,1.371-0.796,2.723c-2.258-1.443-4.214-2.693-5.584-3.566c0.26-3.113,0.729-5.387,0.527-7.6
	c-0.116-1.274-1.083-2.709-2.083-3.614c-1.952-1.768-3.764-1.216-4.751,1.198c-0.372,0.908-0.564,1.891-0.896,3.043
	c-2.673-0.924-4.712-1.901-4.68-5.047c0.01-0.928-0.568-1.949-1.103-2.784c-1.618-2.533-3.364-2.727-5.695-0.738
	c-0.536,0.456-1.028,0.966-1.233,1.159c-6.254-0.951-12.078-2.062-17.954-2.673c-6.09-0.631-11.259,2.23-16.299,5.205
	c-0.37,0.219-0.745,0.427-1.491,0.851c-0.011-1.914,1.174-2.815,2.189-3.624c5.215-4.151,10.27-8.563,15.811-12.233
	c7.631-5.055,15.883-8.945,24.734-11.595c7.259-2.176,14.457-4.379,22.124-4.32c1.445,0.009,2.918-0.054,4.328,0.201
	c4.267,0.767,8.489,1.785,12.763,2.506c6.763,1.143,12.349,4.982,18.377,7.803c5.637,2.638,10.286,6.429,13.973,11.503
	c1.953,2.688,4.532,4.915,6.524,7.58c2.139,2.863,4.456,5.744,2.094,9.846c-0.604,1.051,0.105,3.146,0.704,4.552
	c2.896,6.8,6.104,13.468,8.902,20.303c4.353,10.63,4.132,22.934,5.21,34.229c1.116,11.535,2.3,23.668,0.465,35.176
	c-0.726,4.548-2.025,9.004-2.905,13.532c-0.383,1.979-0.303,4.044-0.535,6.058c-0.756,6.563-3.458,12.529-5.889,18.558
	c-1.625,4.024-3.338,8.024-6.487,11.24c-0.964,0.979-1.577,2.467-1.952,3.833c-0.901,3.282-2.847,5.707-5.64,7.475
	c-10.54,6.67-20.715,14.019-32.499,18.453c-3.774,1.421-7.763,2.31-11.694,3.271c-3.094,0.759-6.225,1.541-9.384,1.807
	c-4.617,0.389-9.272,0.387-13.912,0.44c-9.889,0.113-19.72-0.467-29.481-2.216c-6.036-1.08-11.282-3.352-15.749-7.727
	c-4.042-3.96-9.137-6.643-13.106-10.678c-3.481-3.541-6.134-7.781-8.528-12.104C128.858,446.904,126.445,442.108,123.914,437.381z
	 M189.622,305.999c5.406,2.539,8.531,11.587,11.285,16.582c1.069,1.946,0.939,5.359,1.798,7.569
	c1.353,3.483,1.43,7.282,2.572,10.823c0.479,1.481,0.539,3.139,0.557,4.721c0.053,4.191-0.133,8.388-0.022,12.578
	c0.202,7.617-2.499,14.16-7.062,20.078c-0.973,1.259-2.162,2.419-2.851,3.82c-3.124,6.363-8.54,10.567-13.834,14.85
	c-7.553,6.11-16.462,7.047-25.604,5.622c-2.975-0.465-6.029-2.245-8.43-4.187c-4.056-3.277-7.523-7.215-9.691-12.137
	c-1.514-3.44-3.297-6.765-4.929-10.155c-3.374-7.011-3.864-14.424-3.162-22.042c0.613-6.625-0.235-12.135,2.465-18.512
	c1.002,5.407,1.857,9.942,2.685,14.48c0.625,3.43,2.497,6.167,4.84,8.602c1.711,1.776,3.424,3.602,5.39,5.066
	c1.452,1.082,3.24,1.894,5.001,2.347c7.48,1.93,14.314,0.118,20.829-3.748c6.819-4.048,12.13-9.349,15.12-16.81
	c1.122-2.799,1.375-5.613,0.595-8.521c-0.716-2.663-1.103-5.477-2.231-7.953c-3.098-6.802-5.546-14.098-13.003-17.841
	c-4.658-2.338-9.098-2.496-13.702-0.048c-3.079,1.635-6.234,3.112-8.203,6.209c-0.16,0.253-0.708,0.258-2.092,0.711
	c1.64-3.095,2.736-5.549,4.167-7.789c3.939-6.166,9.161-10.719,16.874-10.598c3.69,0.057,7.442,1.123,11.02,2.212
	C183.316,302.941,186.47,304.517,189.622,305.999z M184.961,302.434c0.257-0.365,0.447-0.734,0.513-0.713
	c0.988,0.314,1.961,0.68,2.938,1.035c-0.153,0.351-0.307,0.704-0.46,1.055C186.968,303.358,185.984,302.904,184.961,302.434z
	 M135.951,322.544c0.347-2.591,0.552-4.895,2.704-6.667C139.028,319.582,138.518,320.911,135.951,322.544z M166.123,335.578
	c-0.526,0.165-1.043,0.359-1.6,0.552c-0.557-0.84-1.021-1.543-1.492-2.255c-1.18,0.938-0.085,1.862-0.751,3.07
	c-0.57,1.035-1.438,2.064-2.438,2.668c-1.257,0.759-2.457,0.15-3.459-0.929c-3.233-3.482-3.884-10.375-1.169-14.669
	c1.074-1.701,2.284-3.442,3.812-4.706c4.348-3.59,10.171-3.028,14.062,1.138c5.271,5.645,7.371,12.576,6.841,20.015
	c-0.208,2.914-2.251,5.917-4.064,8.445c-3.03,4.226-7.619,6.703-12.206,8.869c-1.689,0.8-4.022,0.806-5.926,0.452
	c-3.377-0.626-6.88-1.349-9.916-2.862c-9.146-4.56-6.756-18.291-3.026-25.48c1.056,5.131,1.094,11.331,5.579,14.768
	c3.314,2.541,8.725,4.335,12.721,2.353c1.818-0.902,3.841-1.574,5.359-2.842c1.221-1.02,2.254-2.683,2.614-4.238
	C171.917,336.225,169.739,334.447,166.123,335.578z M184.002,529.195c0.265-2.894-6.096,0.399-1.375,0.137
	c-6.679,0.635-12.986-0.671-19.289-0.56c-6.665,0.118-13.321,0.512-19.982,0.782c-6.752,0.272-13.361,2.349-19.978,2.049
	c-0.384-4.577-0.73-8.701-1.073-12.776c10.464-2.503,54.895,0.468,62.495,1.668C184.546,523.265,184.289,526.065,184.002,529.195z
	 M217.907,528.627c-0.345,2.493-2.036,2.465-3.835,2.353c-7.491-0.476-14.98-0.968-22.468-1.476
	c-0.394-0.025-0.772-0.28-1.496-0.556c0.823-2.618,1.628-5.183,2.502-7.961c4.772,0.311,9.223,0.54,13.66,0.915
	c2.879,0.244,5.767,0.562,8.602,1.107C217.597,523.531,218.365,525.339,217.907,528.627z M281.313,537.062
	c-5.619-0.547-11.194-1.539-16.808-2.139c-6.778-0.727-13.578-1.238-20.368-1.85c-6.476-0.583-12.95-1.175-19.91-1.806
	c0.316-2.52,0.573-4.59,0.896-7.184c20.85,1.136,41.022,5.285,61.718,6.84C286.754,536.401,285.803,537.502,281.313,537.062z
	 M343.519,543.044c-9.128-0.524-18.256-1.085-27.37-1.805c-5.48-0.434-10.942-1.152-16.402-1.822
	c-2.282-0.28-4.539-0.77-7.175-1.229c0.52-2.098,0.959-3.872,1.491-6.022c3.783,0.423,7.385,0.604,10.896,1.256
	c9.764,1.823,19.638,1.864,29.504,2.137c3.047,0.084,6.096,0.143,9.143,0.266c2.594,0.105,3.509,0.855,3.584,2.799
	C347.283,541.016,345.656,543.166,343.519,543.044z M420.04,541.948c-7.423,1.224-14.879,1.976-22.428,1.789
	c-4.632-0.112-9.271,0.176-13.906,0.173c-4.919-0.004-9.842-0.055-14.755-0.243c-4.891-0.19-9.772-0.573-15.14-0.9
	c0.223-2.148,0.4-3.851,0.616-5.932c2.073-0.302,4.031-0.802,5.996-0.838c10.289-0.185,20.586-0.098,30.869-0.434
	c4.467-0.146,8.891-1.189,13.354-1.62c4.75-0.461,9.521-0.726,14.286-0.986C423.787,532.699,425.315,541.072,420.04,541.948z
	 M430.255,540.584c-0.218-2.6-0.441-5.267-0.695-8.304c17.546-2.956,34.896-5.875,52.402-8.822c1.293,3.154,2.321,5.669,3.34,8.161
	C481.964,533.39,434.83,541.087,430.255,540.584z M535.048,521.856c-2.788,1.521-5.438,3.444-8.399,4.461
	c-3.501,1.2-7.246,1.806-10.935,2.301c-2.152,0.287-4.293,0.085-6.133,1.628c-0.587,0.491-1.616,0.535-2.458,0.622
	c-3.75,0.371-7.501,0.699-11.256,1.017c-3.488,0.295-4.733-0.582-5.429-4.022c-0.372-1.823-0.508-3.7-0.817-6.068
	c15.22-4.433,30.348-8.206,41.584-19.418c2.544,2.936,4.986,5.353,6.925,8.123c1.539,2.196,2.463,4.829,3.818,7.59
	C539.561,519.39,537.304,520.624,535.048,521.856z M546.084,515.147c-0.874-6.78-4.549-11.938-8.791-17.315
	c5.291-5.086,10.953-10.005,15.975-15.504c5.075-5.559,9.656-11.568,15.458-16.42c4.696,4.038,9.062,7.793,13.819,11.883
	C573.38,493.26,563.038,507.177,546.084,515.147z M611.757,422.967c-3.229,4.858-5.409,10.409-8.051,15.654
	c0,0.054,0.002,0.102,0.001,0.159c-0.036,0.015-0.066,0.024-0.102,0.038c-3.647,7.191-7.368,14.305-10.968,21.48
	c-2.057,4.094-3.913,8.293-5.893,12.518c-4.885-3.518-11.388-10.011-12.925-12.921c6.308-8.069,12.697-16.244,19.221-24.595
	c3.202,2.101,6.015,4.965,10.037,3.699c-3.144,0.896,0.447-3.996,0.623-0.631c-0.063-4.133-2.57-6.504-6.559-7.747
	c7.311-11.04,14.332-21.64,21.411-32.333c1.402,0.636,2.563,1.16,3.938,1.782C618.519,407.646,616.48,415.855,611.757,422.967z
	 M625.428,395.644c-2.922-2.977-2.732-5.771-0.82-8.517c5.185-7.453,7.792-16.282,12.682-23.899c1.2,1.329,2.029,2.247,3.041,3.368
	C635.365,376.271,630.462,385.828,625.428,395.644z"/>
<path id="outline" d="M640.33,366.596C639.318,365.475,635.365,376.271,640.33,366.596L640.33,366.596z"/>
<path id="outline" d="M603.078,439c0.158-0.045,0.334-0.105,0.527-0.182c0.001-0.001,0.001-0.002,0.002-0.003
	C603.429,438.886,603.253,438.945,603.078,439z"/>
<path id="outline" d="M286.842,530.925C266.146,529.37,286.754,536.401,286.842,530.925L286.842,530.925z"/>
<path id="outline" d="M292.571,538.188C295.207,538.647,293.091,536.091,292.571,538.188L292.571,538.188z"/>
<path id="outline" d="M481.962,523.458C464.455,526.405,483.255,526.612,481.962,523.458L481.962,523.458z"/>
<path id="outline" d="M489.621,521.794C489.931,524.162,504.841,517.361,489.621,521.794L489.621,521.794z"/>
<path id="outline" d="M353.811,542.767C359.179,543.094,354.034,540.618,353.811,542.767L353.811,542.767z"/>
<path id="outline" d="M626.602,244.045C633.279,244.332,623.037,230.376,626.602,244.045L626.602,244.045z"/>
<path id="outline" d="M624.404,251.002c1.143,0.167,2.325,0.043,3.476,0.165c4.351,0.461,8.149,2.237,11.999,4.57
	c-0.725,1.068-1.08,1.694-1.536,2.238c-0.557,0.667-1.258,1.215-1.784,1.904c-1.767,2.308-0.948,4.628,1.873,5.189
	c1.917,0.379,3.487,0.152,4.929-1.706c6.771-8.72,15.856-14.776,24.842-20.896c6.577-4.479,13.302-8.741,19.898-13.193
	c4.658-3.147,8.912-6.861,14.379-8.78c1.942-0.685,5.895-2.789,6.53-4.933c0.552-1.86-0.674-3.829-2.884-3.322
	c-2.808,0.647-5.968,1.069-8.201,2.677c-6.828,4.918-14.569,8.282-21.186,13.657c-8.754,7.112-18.348,13.19-27.554,19.756
	c-3.083,2.198-7.723-0.691-10.789-1.73c-3.82-1.294-7.742-2.378-11.795-2.552c-3.564-13.669-4.513-27.151-2.576-40.579
	c1.393-9.644,0.011-19.482,2.603-28.992c0.191-0.708-0.82-2.297-1.585-2.558c-2.242-0.772-3.649,1.462-3.913,3.233
	c-1.894,12.913-3.264,25.83-4.442,38.826c-0.993,11,1.016,21.505,2.67,32.378C619.781,249.146,621.691,250.61,624.404,251.002z"/>
</svg>
