<svg version="1.1" id="Layer_1" xmlns="http://www.w3.org/2000/svg" xmlns:xlink="http://www.w3.org/1999/xlink" x="0px" y="0px"
	 width="720px" height="720px" viewBox="0 0 720 720" enable-background="new 0 0 720 720" xml:space="preserve">
<path id="background" fill="none" d="M646.88,299.26c4.561,5.39,8.89,10.17,12.2,16.47c3.01,5.74,8,8.72,13.84,11.58
	c12.54,6.15,24.55,13.02,36.89,19.52c5.261,2.77,5.881,8.15,2.66,12.82c-3.79,5.48-11.109,1.87-16.3,0.45
	c-13.34-3.65-25.9-9.68-38.85-14.33c-1.761,2.23,5.92,9.23,7.39,11.86c2.85,5.11,9.08,11.43,7.5,17.73
	c-3.89,15.39-23.41-7.601-28.78-12.101c-2.939,1.58-5.63,3.34-8.83,4.37c-4.04,1.311-9.409,1.83-12.699,4.72
	c-3.07,2.71-4.65,7.44-6.771,10.891c-5.24,8.52-10.36,16.3-14.57,25.47c-8.89,19.38-18.979,39.021-29.909,57.32
	c-10.33,17.3-20.07,32.319-37.12,43.87c-8.45,5.729-17.88,9.31-27.41,12.81c-9.87,3.62-20.07,3.99-30.26,6.12
	c-20.761,4.34-42.75,5.02-63.87,4.71c-22.34-0.33-44.84-0.14-67.13-1.93c-11.07-0.891-22.01-2.65-33.09-3.471
	c-9.41-0.699-18.43-5.229-28.03-6.3c-10.93-1.22-21.96-0.8-32.92-1.75c-10.55-0.91-21.05-2.06-31.65-2.37
	c-21.14-0.609-42.89-2.29-64-1.02c-11.4,0.689-22.75-0.181-33.99-2.16c-10.16-1.79-20.15-5.73-30.35-7.01
	c-10.79-1.34-21.16-5.011-31.92-6.63c-9.57-1.431-18.1-5.62-27.21-8.74c-4.82-1.65-9.64-3.32-14.46-4.97
	c-3.28-1.12-7.54-1.61-10.49-3.48c-10.7-6.82,8-9.64,11.37-10.28c5.33-1.01,10.83-1.729,16.07-3.18c4.6-1.28,8.15-3.47,13.02-3.71
	c9.1-0.45,18.21-5.04,26.7-8.05c10.8-3.82,21.64-7.561,32.39-11.53c6.32-2.34,19.76-9.95,26.53-5.229L473.14,367.8
	c4.88-2.45,10.061-3.13,14.5-6.609c10.16-7.98,17.091-19.36,26.33-28.121c7.391-7.01,12.931-17.1,18.601-25.5
	c5.46-8.06,11.42-14.93,18.42-21.68c3.859-3.72,7.43-7.84,11.85-10.92c3.45-2.41,5.03-3.94,5.49-8.26c1-9.19,2.65-18.35,4.2-27.46
	c1.8-10.65,3.989-21.4,6.979-31.79c2.75-9.56,4.181-19.5,7.83-28.77c1.73-4.42,3.351-9.13,5.41-13.4c1.74-3.6,5.09-5.95,7.91-8.63
	c6.729-6.37,11.72,7.81,11.51,12.09c-1.1,21.75-7.939,42.47-11.79,63.81c-2.01,11.08-3.18,21.71-3.5,32.96
	c-0.16,5.91,3.88,5.99,8.8,7.82c3.051,1.14,10.04,5.24,13.221,4.18c5.109-1.72,10.409-7.44,14.71-10.67
	c4.279-3.21,8.5-6.51,12.88-9.58c7.66-5.38,15.27-10.28,23.59-14.58c5.1-2.65,10.37-4.93,15.64-7.21c3.5-1.52,6.221-3.98,9.601-5.59
	c6.42-3.07,15.04-1.99,20.01,3.28c0.09,0.1,0.17,0.18,0.22,0.24c0.03,0.03,0.05,0.05,0.08,0.08c0.01,0.01,0.021,0.03,0.03,0.04
	c6.5,7.38-2.641,13.15-8.28,17.18c-6.57,4.7-13.42,9.07-19.87,13.93C673.32,275.33,659.1,286.34,646.88,299.26z"/>
<path id="outline" fill-rule="evenodd" clip-rule="evenodd" d="M715.329,233.171c-4.968-5.269-13.594-6.352-20.008-3.286
	c-3.382,1.617-6.104,4.071-9.604,5.589c-5.265,2.285-10.537,4.567-15.636,7.21c-8.322,4.303-15.928,9.207-23.589,14.581
	c-4.379,3.071-8.606,6.375-12.884,9.584c-4.301,3.228-9.601,8.95-14.712,10.666c-3.181,1.068-10.169-3.038-13.222-4.176
	c-4.919-1.833-8.953-1.91-8.791-7.818c0.311-11.251,1.488-21.881,3.49-32.962c3.856-21.344,10.69-42.06,11.791-63.811
	c0.216-4.282-4.779-18.461-11.503-12.085c-2.825,2.677-6.171,5.025-7.909,8.627c-2.061,4.27-3.682,8.98-5.418,13.396
	c-3.646,9.275-5.078,19.216-7.825,28.772c-2.986,10.387-5.178,21.14-6.983,31.792c-1.543,9.106-3.202,18.267-4.194,27.455
	c-0.467,4.323-2.04,5.852-5.489,8.257c-4.424,3.085-7.996,7.205-11.857,10.928c-6.994,6.745-12.96,13.612-18.412,21.68
	c-5.672,8.393-11.217,18.488-18.606,25.497c-9.24,8.764-16.165,20.135-26.332,28.122c-4.435,3.482-9.614,4.155-14.495,6.61
	c-2.093,1.075-2.151,3.491,0.301,4.19c3.628,1.046,7.198,0.035,10.638-1.229c11.862-4.357,22.41-18.037,30.488-27.337
	c9.081-10.454,15.558-21.884,23.68-32.965c8.41-11.474,19.335-21.938,30.426-30.798c4.676-3.741,5.446-12.101,6.542-17.633
	c1.586-8.006,2.959-16.055,4.527-24.065c2.748-14.029,6.088-28.049,9.688-41.885c1.628-6.256,3.54-12.45,6.008-18.43
	c1.596-3.866,4.001-12.62,9.019-13.398c0.375,5.768,1,11.454,0.021,17.2c-1.05,6.156-3.175,12.103-4.747,18.135
	c-3.323,12.755-6.826,26.277-8.359,39.37c-0.701,5.987-1.012,12.004-1.302,18.022c-0.229,4.734-1.736,11.589-0.097,16.124
	c1.312,3.629,5.715,2.35,8.574,2.809c5.216,0.837,11.147,4.547,15.81,7.012c-1.179,2.241-2.19,4.176-3.198,6.1
	c3.07,3.787,5.201,1.098,7.996-1.847c3.264-3.44,6.043-7.107,9.761-10.114c8.146-6.586,17.431-11.905,26.195-17.613
	c8.803-5.734,16.787-12.035,26.836-15.548c7.209-2.514,18.932-12.335,26.65-7.145c6.028,4.054-15.026,16.163-17.388,17.871
	c-9.115,6.593-18.267,13.209-26.921,20.406c-8.579,7.134-16.835,14.681-25.169,22.099c-7.386,6.574-15.054,12.952-18.973,22.289
	c4.206,5.927,17.809-12.404,21.235-15.639c5.437,2.819,9.287,7.478,11.568,13.107c1.167,2.879,1.495,6.44,3.337,8.987
	c2.084,2.882,6.537,4.057,9.62,5.5c7.68,3.594,15.346,7.18,22.708,11.398c3.427,1.964,6.646,4.229,10.034,6.25
	c2.666,1.589,5.692,2.098,7.771,4.375c-4.519,2.175-10.025-0.674-14.361-2.048c-5.728-1.814-11.511-3.469-17.193-5.42
	c-5.314-1.824-10.274-5.053-15.567-6.698c-5.613-1.744-7.983,5.106-10.089,8.783c-4.881,8.528-10.845,10.736-19.991,12.483
	c-10.343,1.976-16.229,13.979-22.599,21.287c-9.481-5.849,6.058-12.063,2.313-19.012c-2.499-4.639-6.344,3.673-7.165,5.103
	c-2.986,5.191-7.16,9.854-10.739,14.646c-5.718,7.653-11.09,15.441-14.351,24.497c-3.662,10.168-8.61,19.707-12.438,29.764
	c-3.401,8.91-9.604,16.614-15.362,24.101c-6.169,8.021-11.985,17.547-19.832,24.052c-7.162,5.937-15.7,12.901-23.983,17.149
	c-1.917,0.982-3.789,0.899-5.81,1.401c-1.794,0.446-2.301,2.297-3.966,2.596c-5.812,1.041-11.947,1.354-17.83,1.879
	c-10.286,0.918-20.333,2.423-30.562,3.591c-10.63,1.214-22.392,0.057-33.05-0.546c-10.604-0.6-21.178,0.301-31.778-0.75
	c-5.156-0.511-10.25-1.479-15.401-2.024c-6.099-0.646-12.046,0.204-18.143,0.227c-21.634,0.08-42.961-3.554-64.11-7.692
	c-4.568-0.896-9.229-1.118-13.828-1.803c-4.328-0.644-8.154-2.395-12.527-2.304c-4.83,0.1-9.596-0.435-14.407-0.758
	c-6.154-0.414-12.135,0.488-18.269,0.61c-29.686,0.569-59.124-5.241-88.803-4.4c-14.513,0.41-28.325-1.961-42.66-4.063
	c-1.864-0.273-5.529-1.511-7.175,0.082c-2.718,2.63,1.111,4.645,3.084,5.351c6.625,2.373,14.148,2.839,21.065,3.991
	c4.727,8.899-8.513,4.494-11.692,3.553c-8.306-2.46-16.115-3.279-24.482-4.915c-17.63-3.447-33.527-8.828-50.259-15.228
	c0.018-0.274,0.034-0.548,0.053-0.824c20.47-4.229,39.612-11.294,59.262-18.159c9.463-3.307,18.988-6.443,28.43-9.812
	c4.483-1.6,8.892-3.173,13.625-3.827c2.125-0.294,13.633-1.913,7.002-6.532c-6.77-4.716-20.21,2.889-26.53,5.227
	c-10.751,3.979-21.586,7.714-32.393,11.539c-8.485,3.003-17.596,7.592-26.699,8.042c-4.871,0.241-8.417,2.435-13.019,3.718
	c-5.236,1.449-10.739,2.171-16.072,3.18c-3.371,0.637-22.071,3.455-11.368,10.271c2.949,1.878,7.206,2.363,10.49,3.488
	c4.82,1.651,9.635,3.319,14.456,4.97c9.108,3.117,17.642,7.305,27.21,8.74c10.764,1.615,21.13,5.282,31.924,6.63
	c10.194,1.273,20.188,5.216,30.354,7.007c11.239,1.98,22.588,2.847,33.988,2.16c21.111-1.272,42.856,0.409,63.997,1.022
	c10.598,0.309,21.1,1.456,31.655,2.367c10.956,0.945,21.985,0.525,32.914,1.746c9.602,1.073,18.626,5.604,28.034,6.303
	c11.083,0.823,22.019,2.583,33.086,3.47c22.288,1.787,44.787,1.604,67.131,1.932c21.124,0.31,43.115-0.374,63.872-4.714
	c10.188-2.13,20.384-2.491,30.257-6.114c9.531-3.502,18.962-7.082,27.413-12.811c17.047-11.556,26.784-26.574,37.114-43.87
	c10.93-18.299,21.026-37.939,29.918-57.324c4.202-9.164,9.33-16.943,14.571-25.472c2.116-3.442,3.694-8.176,6.767-10.883
	c3.287-2.896,8.655-3.414,12.695-4.721c3.199-1.034,5.892-2.792,8.836-4.368c5.37,4.5,24.889,27.487,28.772,12.094
	c1.589-6.302-4.644-12.621-7.495-17.729c-1.475-2.63-9.146-9.626-7.394-11.855c12.957,4.647,25.517,10.68,38.849,14.323
	c5.199,1.42,12.518,5.034,16.303-0.447c3.223-4.666,2.6-10.055-2.657-12.82c-12.344-6.505-24.348-13.366-36.896-19.523
	c-5.833-2.862-10.824-5.836-13.835-11.577c-3.307-6.302-7.637-11.086-12.196-16.467c12.22-12.923,26.44-23.938,40.624-34.627
	c6.447-4.859,13.305-9.222,19.876-13.924C713.112,246.613,722.461,240.716,715.329,233.171
	C709.625,227.122,718.947,236.999,715.329,233.171z M171.013,507.121c-1.531,3.021-8.381,1.931-11.052,2.037
	c-5.488,0.219-10.973,0.295-16.456-0.082c-4.446-0.305-8.873-0.827-13.296-1.359c-3.911-0.47-10.522,0.089-13.579-2.88
	c0.562-2.103,1.133-4.225,1.771-6.612c17.359-0.031,36.234-1.203,53.304,1.931C172.795,502.735,172.074,505.038,171.013,507.121
	C170.589,507.958,172.074,505.038,171.013,507.121z M215.795,505.668c-0.722,6.155-8.208,4.144-12.754,4.159
	c-8.564,0.03-17.029-0.067-25.577-0.597c1.094-7.921,2.958-8.473,10.797-8.223C192.755,501.151,216.441,500.204,215.795,505.668
	C215.385,509.16,216.051,503.502,215.795,505.668z M255.615,512.678c-11.472-0.225-22.748-1.731-34.63-2.608
	c0.42-2.818,0.724-4.863,1.026-6.897c12.034-2.319,23.757-1.488,35.764,0.274c0.697,2.484,1.2,4.88,1.575,7.433
	c4.766,0.798,4.492-2.613,5.193-6.52c5.156-0.979,11.818,1.178,16.99,2.016c6.957,1.126,7.6,2.352,9.165,8.998
	C278.568,514.388,267.105,512.899,255.615,512.678C244.144,512.453,267.105,512.899,255.615,512.678z M347.722,523.813
	c-11.359,0.025-22.788-1.879-33.938-3.953c-4.425-0.823-23.794-1.016-17.125-10.354c16.974,1.912,33.929,3.562,50.951,4.978
	C347.647,517.663,347.681,520.507,347.722,523.813C345.943,523.817,347.681,520.507,347.722,523.813z M372.845,525.509
	c-4.619-0.038-15.247,1.728-19.126-0.997c-2.386-1.677-0.155-8.672,1.769-10.039c3.587-2.55,12.961,0.065,17.054,0.424
	c7.182,0.627,6.358,3.491,7.501,10.174C377.244,525.251,375.045,525.527,372.845,525.509
	C367.329,525.463,375.045,525.527,372.845,525.509z M405.985,525.612c-5.695,0.37-20.483,3.483-21.333-4.189
	c-0.958-8.692,16.251-4.929,21.717-4.91C406.237,519.669,406.121,522.372,405.985,525.612
	C404.079,525.736,406.121,522.372,405.985,525.612z M439.577,525.887c-8.007,0.201-16.016,0.335-24.024,0.361
	c-4.6,0.019-5.093-4.99-2.614-8.248c2.37-3.115,13.894-1,17.323-0.965c3.592,0.036,8.558-0.839,11.992,0.265
	c2.417,0.776,2.427,5.632,2.832,7.629C442.872,525.328,441.232,525.843,439.577,525.887
	C431.57,526.088,441.232,525.843,439.577,525.887z M495.636,518.196c-9.976,1.583-19.96,3.129-29.967,4.495
	c-7.703,1.051-16.525,4.86-15.954-5.624c7.473-2.973,16.284-2.431,24.186-2.982c7.89-0.551,15.745-1.452,23.612-2.243
	c0.589,1.691,1.111,3.209,1.749,5.049C497.791,517.431,496.745,518.022,495.636,518.196
	C487.438,519.497,496.745,518.022,495.636,518.196z M531.624,502.913c-4.863,4.353-9.107,5.998-14.934,8.596
	c-2.513,1.12-11.812,6.532-12.97,1.078c-0.988-4.715,9.141-8.565,12.364-10.638c5.786-3.718,11.302-7.435,16.586-11.823
	c1.933,2.336,3.568,4.317,5.567,6.733C535.83,499.069,533.753,501.022,531.624,502.913
	C530.062,504.311,533.753,501.022,531.624,502.913z M557.653,474.971c-4.729,6.751-9.096,13.249-15.238,18.743
	c-4.91-4.579-4.018-7.499-0.514-12.687c3.466-5.134,6.673-11.075,11.129-15.386C554.702,467.803,559.744,471.986,557.653,474.971
	C556.519,476.591,558.378,473.937,557.653,474.971z M576.276,441.439c-4.456,8.94-8.985,17.839-15.17,26.275
	c-4.023-4.646-3.616-7.97-0.011-12.5c4.815-6.05,7.706-13.418,11.166-20.267C573.95,436.498,577.66,438.671,576.276,441.439
	C571.82,450.38,576.904,440.183,576.276,441.439z M579.676,434.479c-6.89-4.659-4.221-6.4-1.437-13.317
	c3.235-7.994,5.411-16.841,9.949-24.185c2.165,2.779,4.054,5.201,6.352,8.15C590.1,414.734,585.508,424.643,579.676,434.479
	C578.318,433.562,585.508,424.643,579.676,434.479z M602.771,389.046c-1.892,3.55-3.87,7.05-5.942,10.799
	c-2.011-2.511-3.692-4.604-5.781-7.209c2.513-3.451,4.967-6.818,7.734-10.62C600.598,383.722,604.376,386.028,602.771,389.046
	C600.879,392.596,603.526,387.625,602.771,389.046z M663.461,370.937c-4.119-0.073-6.826-2.165-14.87-11.678
	c1.456-1.624,2.821-3.135,4.077-4.528C658.337,356.881,664.241,366.02,663.461,370.937
	C659.342,370.863,664.241,366.02,663.461,370.937z"/>
</svg>
